<?xml version="1.0" encoding="iso-8859-1"?>
<!-- Generator: Adobe Illustrator 19.0.0, SVG Export Plug-In . SVG Version: 6.00 Build 0)  -->
<svg xmlns="http://www.w3.org/2000/svg" xmlns:xlink="http://www.w3.org/1999/xlink" version="1.1" id="Layer_1" x="0px" y="0px" viewBox="0 0 512.009 512.009" style="enable-background:new 0 0 512.009 512.009;" xml:space="preserve">
<path style="fill:#008C48;" d="M347.114,445.495l61.097-193.485c3.307-10.476,4.102-21.255,2.37-32.039  c-6.906-43.002-4.188-84.496,8.076-123.335l24.24-76.764L379.997,0.009l-24.24,76.764c-12.264,38.839-33.869,74.369-64.217,105.607  c-7.611,7.834-13.144,17.118-16.451,27.593l-74.371,235.522H347.114z"/>
<path style="fill:#00743A;" d="M347.114,445.495l61.097-193.485c3.307-10.476,4.102-21.255,2.37-32.039  c-6.906-43.002-4.188-84.496,8.076-123.335l24.24-76.764L411.445,9.94L273.911,445.495H347.114z"/>
<rect x="267.78" y="264.621" transform="matrix(-0.3011 0.9536 -0.9536 -0.3011 720.9197 140.4712)" style="fill:#FFA91D;" width="82.406" height="139.602"/>
<rect x="301.059" y="310.03" transform="matrix(-0.3011 0.9536 -0.9536 -0.3011 774.2429 122.4132)" style="fill:#FF8900;" width="82.406" height="69.806"/>
<rect x="377.733" y="1.653" transform="matrix(-0.3011 0.9536 -0.9536 -0.3011 558.2005 -339.8442)" style="fill:#FFA91D;" width="51.812" height="65.963"/>
<rect x="393.456" y="23.11" transform="matrix(-0.3011 0.9536 -0.9536 -0.3011 583.3937 -348.3765)" style="fill:#FF8900;" width="51.812" height="32.982"/>
<rect x="184.256" y="178.287" style="fill:#7FC8F0;" width="55.857" height="65.128"/>
<rect x="212.188" y="178.287" style="fill:#49BBED;" width="27.929" height="65.128"/>
<polygon style="fill:#C8C6CD;" points="444.584,299.967 393.041,512.009 183.38,512.009 131.837,299.967 "/>
<path style="fill:#3C3A41;" d="M93.473,337.933c-10.532,0-19.43-11.647-19.43-25.433s8.899-25.433,19.43-25.433h14.96v-30.013  h-14.96c-27.263,0-49.444,24.873-49.444,55.446s22.181,55.446,49.444,55.446H288.21v-30.013H93.473z"/>
<polygon style="fill:#AEADB3;" points="444.584,299.967 393.041,512.009 288.206,512.009 288.206,299.967 "/>
<rect x="108.433" y="229.149" style="fill:#E1E1E4;" width="359.547" height="85.827"/>
<rect x="288.202" y="229.149" style="fill:#D9D8DB;" width="179.778" height="85.827"/>
<g>
</g>
<g>
</g>
<g>
</g>
<g>
</g>
<g>
</g>
<g>
</g>
<g>
</g>
<g>
</g>
<g>
</g>
<g>
</g>
<g>
</g>
<g>
</g>
<g>
</g>
<g>
</g>
<g>
</g>
</svg>
