<svg height="512" viewBox="0 0 58 58" width="512" xmlns="http://www.w3.org/2000/svg"><g id="001---Crown" fill="none"><path id="Shape" d="m50.87 21.91c-2.9588893-2.4102059-7.1614181-2.5529209-10.277-.349-.3564128.2480853-.8295872.2480853-1.186 0-1.4394989-1.0059509-3.1508732-1.5503681-4.907-1.561-.817 0 3.134.03-10.37.03-1.9672095-.1456373-3.9240474.3954352-5.537 1.531-.3564128.2480853-.8295872.2480853-1.186 0-3.1155819-2.2039209-7.3181107-2.0612059-10.277.349l-2.13 17.09h48z" fill="#802d40"/><path id="Shape" d="m34.65 14.65c-.5138753.5692339-1.1187832 1.049105-1.79 1.42.4390313-1.5932847-.1446487-3.2927066-1.47-4.28-.2537557-.195154-.398743-.499999-.39-.82v-2.47c0-.27614237.2238576-.5.5-.5h2.5c.5522847 0 1-.44771525 1-1v-2c0-.55228475-.4477153-1-1-1h-2.5c-.2761424 0-.5-.22385763-.5-.5v-2.5c0-.55228475-.4477153-1-1-1h-2c-.5522847 0-1 .44771525-1 1v2.5c0 .27614237-.2238576.5-.5.5h-2.5c-.5522847 0-1 .44771525-1 1v2c0 .55228475.4477153 1 1 1h2.5c.2761424 0 .5.22385763.5.5v2.47c.008743.320001-.1362443.624846-.39.82-1.3253513.9872934-1.9090313 2.6867153-1.47 4.28-.6712168-.370895-1.2761247-.8507661-1.79-1.42-7.269-7.917-20.35-2.014-20.35 8.68v16.67h4v-16.67c0-7.059 8.619-11.209 13.4-5.98 1.5451226 1.6938574 3.5792333 2.8646943 5.82 3.35.4627398.1085421.7873882.5247581.78 1v6.3h4v-6.3c-.0073882-.4752419.3172602-.8914579.78-1 2.2407667-.4853057 4.2748774-1.6561426 5.82-3.35 4.806-5.24 13.4-1.06 13.4 5.98v16.67h4v-16.67c0-10.698-13.083-16.595-20.35-8.68z" fill="#d1d4d1"/><path id="Shape" d="m23 30v4h-3.5c-.2761424 0-.5.2238576-.5.5v5.5h-4v-5.5c0-.2761424-.2238576-.5-.5-.5h-2.5c-.5522847 0-1-.4477153-1-1v-2c0-.5522847.4477153-1 1-1h2.5c.2761424 0 .5-.2238576.5-.5v-2.5c0-.5522847.4477153-1 1-1h2c.5522847 0 1 .4477153 1 1v2.5c0 .2761424.2238576.5.5.5z" fill="#f0c419"/><path id="Shape" d="m47 31v2c0 .5522847-.4477153 1-1 1h-2.5c-.2761424 0-.5.2238576-.5.5v5.5h-4v-5.5c0-.2761424-.2238576-.5-.5-.5h-3.5v-4h3.5c.2761424 0 .5-.2238576.5-.5v-2.5c0-.5522847.4477153-1 1-1h2c.5522847 0 1 .4477153 1 1v2.5c0 .2761424.2238576.5.5.5h2.5c.5522847 0 1 .4477153 1 1z" fill="#f0c419"/><path id="Shape" d="m55 23.33v16.67h-4v-16.67c0-7.038-8.6-11.218-13.4-5.98-1.5451226 1.6938574-3.5792333 2.8646943-5.82 3.35-.4627398.1085421-.7873882.5247581-.78 1v6.3h-2v-28h1c.5522847 0 1 .44771525 1 1v2.5c0 .27614237.2238576.5.5.5h2.5c.5522847 0 1 .44771525 1 1v2c0 .55228475-.4477153 1-1 1h-2.5c-.2761424 0-.5.22385763-.5.5v2.47c-.008743.320001.1362443.624846.39.82 1.3253513.9872934 1.9090313 2.6867153 1.47 4.28.6712168-.370895 1.2761247-.8507661 1.79-1.42 7.269-7.917 20.35-2.014 20.35 8.68z" fill="#a5a5a4"/><path id="Shape" d="m35 30v4h-3.5c-.2761424 0-.5.2238576-.5.5v3.5h-4v-3.5c0-.2761424-.2238576-.5-.5-.5h-3.5v-4h3.5c.2761424 0 .5-.2238576.5-.5v-2.5c0-.5522847.4477153-1 1-1h2c.5522847 0 1 .4477153 1 1v2.5c0 .2761424.2238576.5.5.5z" fill="#f3d55b"/><path id="Shape" d="m58 40c-.0027483 1.1034291-.8965709 1.9972517-2 2h-1v11h-52v-11h-1c-1.1045695 0-2-.8954305-2-2s.8954305-2 2-2h54c1.1032019.0032948 1.9967052.8967981 2 2z" fill="#f0c419"/><path id="Shape" d="m55 40c.0479102 1.0441319-.7498554 1.9339987-1.793 2h-.9v9h-46.617v-9h-.9c-1.02015715-.1119201-1.79258259-.9737219-1.79258259-2s.77242544-1.8880799 1.79258259-2h48.417c1.0444128.0633821 1.8436518.9548925 1.793 2z" fill="#f3d55b"/><rect id="Rectangle-path" fill="#f29c1f" height="7" rx="2" width="58" y="51"/><rect id="Rectangle-path" fill="#f0c419" height="7" rx="2" width="52" x="3" y="51"/><rect id="Rectangle-path" fill="#4fba6f" height="5" rx="1" width="10" x="8" y="42"/><rect id="Rectangle-path" fill="#4fba6f" height="5" rx="1" width="10" x="40" y="42"/><path id="Shape" d="m31.5 47h-5c-1.3807119 0-2.5-1.1192881-2.5-2.5s1.1192881-2.5 2.5-2.5h5c1.3807119 0 2.5 1.1192881 2.5 2.5s-1.1192881 2.5-2.5 2.5z" fill="#ff5364"/></g></svg>