<?xml version="1.0" encoding="iso-8859-1"?>
<!-- Generator: Adobe Illustrator 19.0.0, SVG Export Plug-In . SVG Version: 6.00 Build 0)  -->
<svg xmlns="http://www.w3.org/2000/svg" xmlns:xlink="http://www.w3.org/1999/xlink" version="1.1" id="Layer_1" x="0px" y="0px" viewBox="0 0 512 512" style="enable-background:new 0 0 512 512;" xml:space="preserve">
<g>
	<g>
		<path d="M413.86,190.12c-22.69,0-43.06,11.07-55.49,28.5c23.56,12.56,37.73,33.65,41.1,61.28c2.59,21.19-2.35,39-2.56,39.75    l-1.21,4.29c5.83,1.61,11.94,2.46,18.16,2.46c37.57,0,68.14-30.57,68.14-68.14C482,220.69,451.43,190.12,413.86,190.12z"/>
	</g>
</g>
<g>
	<g>
		<path d="M261.95,158.13l5.8-2.3l76.36,33.28c7.37-7.43,15.9-13.66,25.29-18.41c5.49-2.78,11.26-5.06,17.27-6.77    c6.52-1.88,13.31-3.09,20.28-3.57l-89.14-62.4c-29.79-20.85-69.97-21.07-99.98-0.55l-116.68,79.75h-9.03v-39.6H0V356.4h92.12    v-4.32v-28.93v-3.63c8.72,4.02,19.47,8.14,31.5,10.99c40.63,9.62,76.65,0.82,107.06-26.16l4.26-3.78h101.99h5.35h18.17h9.45    c1.14-11.57,0.5-30.05-11.58-44.24v-0.59h0l-1.27-0.84c-2.89-3.12-6.38-6.01-10.57-8.53l-3.15-0.55h-0.01l-6.19-1.08h-5.01h-66.29    H248.4c-0.56-0.67-1.11-1.37-1.65-2.09c-2.5-3.32-4.87-7.2-6.84-11.62c-3.25-7.23-5.45-15.92-5.45-26    C234.46,176.6,251.74,162.17,261.95,158.13z"/>
	</g>
</g>
<g>
	<g>
		<path d="M482,53.79v133.92c18.49,17.85,30,42.88,30,70.55V53.79H482z"/>
	</g>
</g>
<g>
	<g>
		<path d="M482,328.81v129.4h30V258.26C512,285.93,500.49,310.97,482,328.81z"/>
	</g>
</g>
<g>
</g>
<g>
</g>
<g>
</g>
<g>
</g>
<g>
</g>
<g>
</g>
<g>
</g>
<g>
</g>
<g>
</g>
<g>
</g>
<g>
</g>
<g>
</g>
<g>
</g>
<g>
</g>
<g>
</g>
</svg>
