<svg height="512" viewBox="0 0 58 58" width="512" xmlns="http://www.w3.org/2000/svg"><g id="002---Crown" fill="none"><path id="Rectangle-path" d="m3 46h52v8h-52z" fill="#e57e25"/><path id="Rectangle-path" d="m6 46h46v8h-46z" fill="#f29c1f"/><path id="Shape" d="m25.29 9.34-8.94 10.51c-.0911771.0958751-.2176924.1501502-.35.1501502s-.2588229-.0542751-.35-.1501502l-9.29-10.87 8.58-8.68c.1843911-.191781.4389549-.30016595.705-.30016595s.5206089.10838495.705.30016595z" fill="#f0c419"/><path id="Shape" d="m51.64 8.98-9.29 10.87c-.0911771.0958751-.2176924.1501502-.35.1501502s-.2588229-.0542751-.35-.1501502l-8.94-10.51 8.94-9.04c.1843911-.191781.4389549-.30016595.705-.30016595s.5206089.10838495.705.30016595z" fill="#f0c419"/><path id="Shape" d="m55.5 58h-53c-1.38071187 0-2.5-1.1192881-2.5-2.5s1.11928813-2.5 2.5-2.5h53c1.3807119 0 2.5 1.1192881 2.5 2.5s-1.1192881 2.5-2.5 2.5z" fill="#f29c1f"/><path id="Shape" d="m55.5 47h-53c-1.38071187 0-2.5-1.1192881-2.5-2.5s1.11928813-2.5 2.5-2.5h53c1.3807119 0 2.5 1.1192881 2.5 2.5s-1.1192881 2.5-2.5 2.5z" fill="#f29c1f"/><path id="Shape" d="m52.5 58h-47c-1.38071187 0-2.5-1.1192881-2.5-2.5s1.11928813-2.5 2.5-2.5h47c1.3807119 0 2.5 1.1192881 2.5 2.5s-1.1192881 2.5-2.5 2.5z" fill="#f0c419"/><path id="Shape" d="m52.5 47h-47c-1.38071187 0-2.5-1.1192881-2.5-2.5s1.11928813-2.5 2.5-2.5h47c1.3807119 0 2.5 1.1192881 2.5 2.5s-1.1192881 2.5-2.5 2.5z" fill="#f0c419"/><path id="Shape" d="m55 8.02.000017 33.98h-52.00003403l.00001703-33.98c-.00236262-.40626507.24130378-.77358004.61651849-.92937095.37521472-.15579091.80739105-.069089 1.09348151.21937095 2.307 2.335.378.385 10.94 11.06.0911771.0958751.2176924.1501502.35.1501502s.2588229-.0542751.35-.1501502c10.55-10.651 7.939-8.016 11.94-12.07.1864103-.19183364.4425137-.30007247.71-.30007247s.5235897.10823883.71.30007247c3.782 3.832 1.222 1.244 11.94 12.07.0911771.0958751.2176924.1501502.35.1501502s.2588229-.0542751.35-.1501502c10.927-11.045 8.758-8.852 10.94-11.06.2860905-.28845995.7182668-.37516186 1.0934815-.21937095s.6188811.52310588.6165185.92937095z" fill="#f3d55b"/><circle id="Oval" cx="29" cy="30" fill="#ff5364" r="7"/><path id="Shape" d="m26 31c-2.092 0-.814-5 3-5 .5522847 0 1 .4477153 1 1s-.4477153 1-1 1c-1.1045695 0-2 .8954305-2 2 0 .5522847-.4477153 1-1 1z" fill="#fff"/><circle id="Oval" cx="11" cy="31" fill="#4fba6f" r="4"/><circle id="Oval" cx="12.5" cy="29.5" fill="#fff" r="1.5"/><circle id="Oval" cx="47" cy="31" fill="#4fba6f" r="4"/><path id="Shape" d="m42.167 10.333c3.217 0 3.222-5 0-5s-3.223 5 0 5z" fill="#f0c419"/><path id="Shape" d="m42.167 10.333c3.217 0 3.222-5 0-5s-3.223 5 0 5z" fill="#f0c419"/><circle id="Oval" cx="48.5" cy="29.5" fill="#fff" r="1.5"/></g></svg>