<?xml version="1.0" encoding="iso-8859-1"?>
<!-- Generator: Adobe Illustrator 19.0.0, SVG Export Plug-In . SVG Version: 6.00 Build 0)  -->
<svg xmlns="http://www.w3.org/2000/svg" xmlns:xlink="http://www.w3.org/1999/xlink" version="1.1" id="Layer_1" x="0px" y="0px" viewBox="0 0 512 512" style="enable-background:new 0 0 512 512;" xml:space="preserve">
<path style="fill:#FFDBA8;" d="M355.99,257.872c9.57,20.33,2.56,40.26,1.73,42.47l-3.51,9.33H229.59  c-22.6,14.03-48.64,21.18-76.65,21.18c-10.41,0-21.1-0.99-31.99-2.98c-31.02-5.67-52.86-17.48-53.77-17.98l-7.5-4.1v-126.94h37.49  l112.1-76.62c28.83-19.71,67.43-19.5,96.05,0.53l108.43,75.9l-78.73,45.04l-76.29-33.25c-2.27,2.72-4.66,7.42-4.66,15.18  c0,2.37,0.23,4.55,0.62,6.54c1.4,7.3,4.96,12.08,7.46,14.66h54.79l2.28,0.78C337.05,233.732,349.42,243.912,355.99,257.872z"/>
<path style="fill:#FFC473;" d="M357.72,300.342l-3.51,9.33H229.59c-22.6,14.03-48.64,21.18-76.65,21.18  c-10.41,0-21.1-0.99-31.99-2.98c-31.02-5.67-52.86-17.48-53.77-17.98l-7.5-4.1v-64.55H88.5l166.19-29.07  c1.4,7.3,4.96,12.08,7.46,14.66h54.79l2.28,0.78c17.83,6.12,30.2,16.3,36.77,30.26C365.56,278.202,358.55,298.132,357.72,300.342z"/>
<path style="fill:#FFDBA8;" d="M335.026,223.705l-21.962-9.569c13.796-28.735,41.377-49.611,74.185-54.02l26.496,18.542  L335.026,223.705z"/>
<rect y="140.81" style="fill:#00ACEA;" width="88.5" height="210.25"/>
<rect y="241.25" style="fill:#0082D2;" width="88.5" height="109.8"/>
<path style="fill:#FFA91D;" d="M497,255.942c0,52.67-42.11,95.51-94.48,96.68c-0.74,0.02-1.48,0.03-2.22,0.03  c-33.53,0-63.08-17.06-80.43-42.98h34.34l3.51-9.33c0.83-2.21,7.84-22.14-1.73-42.47c-6.57-13.95-18.95-24.14-36.77-30.26  l-2.27-0.77h-8.9c1.36-4.38,3.05-8.62,5.01-12.71c13.8-28.73,41.38-49.61,74.19-54.02c4.26-0.58,8.62-0.88,13.05-0.88  c0.74,0,1.48,0.01,2.22,0.03C454.89,160.432,497,203.272,497,255.942z"/>
<path style="fill:#FF8900;" d="M497,255.942c0,52.67-42.11,95.51-94.48,96.68v-193.36C454.89,160.432,497,203.272,497,255.942z"/>
<rect x="482" y="53.79" style="fill:#3C3A41;" width="30" height="404.42"/>
<rect x="482" y="257.15" style="fill:#17171A;" width="30" height="201.06"/>
<g>
</g>
<g>
</g>
<g>
</g>
<g>
</g>
<g>
</g>
<g>
</g>
<g>
</g>
<g>
</g>
<g>
</g>
<g>
</g>
<g>
</g>
<g>
</g>
<g>
</g>
<g>
</g>
<g>
</g>
</svg>
