<svg height="512" viewBox="0 0 38 58" width="512" xmlns="http://www.w3.org/2000/svg"><g id="003---Crown-Jewel" fill="none"><path id="Shape" d="m36.56 35.09v-.01c-1.5169773-6.8069937-6.8330063-12.1230227-13.64-13.64h-.01c-.2478431-.8497891-1.0248174-1.4355708-1.91-1.44h-4c-.8851826.0044292-1.6621569.5902109-1.91 1.44h-.01c-6.80699366 1.5169773-12.12302266 6.8330063-13.64 13.64v.01c-.84978914.2478431-1.4355708 1.0248174-1.44 1.91v4c.0044292.8851826.59021086 1.6621569 1.44 1.91v.01c1.51697734 6.8069937 6.83300634 12.1230227 13.64 13.64h.01c.2478431.8497891 1.0248174 1.4355708 1.91 1.44h4c.8851826-.0044292 1.6621569-.5902109 1.91-1.44h.01c6.8069937-1.5169773 12.1230227-6.8330063 13.64-13.64v-.01c.8497891-.2478431 1.4355708-1.0248174 1.44-1.91v-4c-.0044292-.8851826-.5902109-1.6621569-1.44-1.91z" fill="#e57e25"/><path id="Rectangle-path" d="m16 12h6v9.91h-6z" fill="#d25627"/><path id="Shape" d="m19 21.44v35.12h-3.92c-6.80699366-1.5169773-12.12302266-6.8330063-13.64-13.64v-7.84c1.51697734-6.8069937 6.83300634-12.1230227 13.64-13.64z" fill="#f0c419"/><path id="Shape" d="m34 35.08v7.84c-1.28 6.79-5.85 12.14-11.65 13.64h-3.35v-35.12h3.35c5.8 1.5 10.37 6.85 11.65 13.64z" fill="#d25627"/><path id="Shape" d="m19 21.44v35.12h-3.35c-5.8-1.5-10.37-6.85-11.65-13.64v-7.84c1.28-6.79 5.85-12.14 11.65-13.64z" fill="#e57e25"/><path id="Shape" d="m19 20v38h-2c-1.1032019-.0032948-1.9967052-.8967981-2-2v-12.5c0-.2761424-.2238576-.5-.5-.5h-12.5c-1.10320187-.0032948-1.9967052-.8967981-2-2v-4c.0032948-1.1032019.89679813-1.9967052 2-2h12.5c.2761424 0 .5-.2238576.5-.5v-12.5c.0032948-1.1032019.8967981-1.9967052 2-2z" fill="#f3d55b"/><path id="Shape" d="m38 37v4c-.0032948 1.1032019-.8967981 1.9967052-2 2h-12.5c-.2761424 0-.5.2238576-.5.5v12.5c-.0032948 1.1032019-.8967981 1.9967052-2 2h-2v-38h2c1.1032019.0032948 1.9967052.8967981 2 2v12.5c0 .2761424.2238576.5.5.5h12.5c1.1032019.0032948 1.9967052.8967981 2 2z" fill="#f0c419"/><circle id="Oval" cx="19" cy="39" fill="#ff5364" r="2"/><circle id="Oval" cx="4" cy="39" fill="#894b9d" r="1"/><circle id="Oval" cx="8" cy="39" fill="#4fba6f" r="1"/><circle id="Oval" cx="12" cy="39" fill="#e64c3c" r="1"/><circle id="Oval" cx="26" cy="39" fill="#e64c3c" r="1"/><circle id="Oval" cx="30" cy="39" fill="#4fba6f" r="1"/><circle id="Oval" cx="34" cy="39" fill="#894b9d" r="1"/><circle id="Oval" cx="19" cy="54" fill="#894b9d" r="1"/><circle id="Oval" cx="19" cy="50" fill="#4fba6f" r="1"/><circle id="Oval" cx="19" cy="46" fill="#e64c3c" r="1"/><circle id="Oval" cx="19" cy="32" fill="#e64c3c" r="1"/><circle id="Oval" cx="19" cy="28" fill="#4fba6f" r="1"/><circle id="Oval" cx="19" cy="24" fill="#894b9d" r="1"/><path id="Shape" d="m22.03 13.61 6.683 2c.3020846.0905084.6291634.0332207.8825039-.1545702.2533406-.1877909.4032573-.4840803.4044961-.7994298v-7.312c.0000219-.31605418-.1493687-.61351598-.4028959-.80223321-.2535273-.18871723-.5813461-.24647434-.8841041-.15576679l-6.683 2-.42-.42 2-6.683c.088982-.30155533.0309598-.62740122-.156646-.87970553-.1876059-.2523043-.4829485-.40168594-.797354-.40329447h-7.312c-.3160542-.00002194-.613516.14936872-.8022332.40289595-.1887172.25352722-.2464744.58134608-.1557668.88410405l2 6.683-.42.42-6.683-2c-.30155533-.08898204-.62740122-.03095983-.87970553.15664603-.2523043.18760585-.40168594.48294845-.40329447.79735397v7.312c-.00002194.3160542.14936872.613516.40289595.8022332.25352722.1887172.58134608.2464744.88410405.1557668l6.683-2z" fill="#f0c419"/><circle id="Oval" cx="19" cy="11" fill="#f29c1f" r="4"/><circle id="Oval" cx="19" cy="11" fill="#e57e25" r="2"/></g></svg>