<?xml version="1.0" encoding="iso-8859-1"?>
<!-- Generator: Adobe Illustrator 19.0.0, SVG Export Plug-In . SVG Version: 6.00 Build 0)  -->
<svg xmlns="http://www.w3.org/2000/svg" xmlns:xlink="http://www.w3.org/1999/xlink" version="1.1" id="Layer_1" x="0px" y="0px" viewBox="0 0 512 512" style="enable-background:new 0 0 512 512;" xml:space="preserve">
<path style="fill:#FFA91D;" d="M437.278,420.149l26.168,17.069V512H311.418v-90.734l1.945-3.432  c51.258-90.375,46.988-154.522,46.938-155.16l-0.04-0.888c-0.828-38.478-11.812-68.068-32.642-87.96  c-30.148-28.791-70.841-28.103-71.25-28.113l-0.369,0.01l-0.369-0.01c-4.09-0.09-101.388-0.409-103.893,116.073l-0.05,0.948  c-0.04,0.578-4.31,64.726,46.948,155.1l1.945,3.432V512H48.554v-74.782l26.168-17.069c-17.997-25.17-52.016-83.651-52.016-165.865  c0-46.34,8.001-113.021,46.15-167.561c18.875-26.976,43.247-48.015,72.447-62.511C173.646,8.151,212.234,0,256,0  s82.354,8.151,114.697,24.212c29.2,14.496,53.572,35.535,72.447,62.511c38.149,54.54,46.15,121.221,46.15,167.561  C489.294,336.498,455.275,394.979,437.278,420.149z"/>
<path style="fill:#FF8900;" d="M437.278,420.149l26.168,17.069V512H311.418v-90.734l1.945-3.432  c51.258-90.375,46.988-154.522,46.938-155.16l-0.04-0.888c-0.828-38.478-11.812-68.068-32.642-87.96  c-30.148-28.791-70.841-28.103-71.25-28.113l-0.369,0.01V0c43.766,0,82.354,8.151,114.697,24.212  c29.2,14.496,53.572,35.535,72.447,62.511c38.149,54.54,46.15,121.221,46.15,167.561  C489.294,336.498,455.275,394.979,437.278,420.149z"/>
<circle style="fill:#3C3A41;" cx="256" cy="74.32" r="17.957"/>
<g>
	<circle style="fill:#17171A;" cx="349.11" cy="97.27" r="17.957"/>
	<circle style="fill:#17171A;" cx="406.31" cy="169.76" r="17.957"/>
	<circle style="fill:#17171A;" cx="424.27" cy="259.38" r="17.957"/>
	<circle style="fill:#17171A;" cx="406.31" cy="353.99" r="17.957"/>
</g>
<g>
	<circle style="fill:#3C3A41;" cx="163.04" cy="97.27" r="17.957"/>
	<circle style="fill:#3C3A41;" cx="105.84" cy="169.76" r="17.957"/>
	<circle style="fill:#3C3A41;" cx="87.89" cy="259.38" r="17.957"/>
	<circle style="fill:#3C3A41;" cx="105.84" cy="353.99" r="17.957"/>
</g>
<path style="fill:#17171A;" d="M273.957,74.323c0,9.916-8.041,17.957-17.957,17.957V56.366  C265.916,56.366,273.957,64.407,273.957,74.323z"/>
<g>
</g>
<g>
</g>
<g>
</g>
<g>
</g>
<g>
</g>
<g>
</g>
<g>
</g>
<g>
</g>
<g>
</g>
<g>
</g>
<g>
</g>
<g>
</g>
<g>
</g>
<g>
</g>
<g>
</g>
</svg>
