<?xml version="1.0" encoding="iso-8859-1"?>
<!-- Generator: Adobe Illustrator 19.0.0, SVG Export Plug-In . SVG Version: 6.00 Build 0)  -->
<svg xmlns="http://www.w3.org/2000/svg" xmlns:xlink="http://www.w3.org/1999/xlink" version="1.1" id="Layer_1" x="0px" y="0px" viewBox="0 0 512 512" style="enable-background:new 0 0 512 512;" xml:space="preserve">
<g>
	<polygon style="fill:#7FC8F0;" points="447.19,71.49 378.8,148.77 271,270.57 256,287.52 241,270.57 133.2,148.77 64.81,71.49  "/>
	<polygon style="fill:#7FC8F0;" points="344.12,512 167.88,512 241,429.37 241,270.5 271,270.5 271,429.37  "/>
</g>
<polygon style="fill:#49BBED;" points="271,270.57 271,429.37 344.12,512 256,512 256,71.49 447.19,71.49 378.8,148.77 "/>
<polygon style="fill:#FF8900;" points="407.324,0 268.333,168.583 291.48,187.667 446.206,0 "/>
<polygon style="fill:#E70020;" points="270.842,270.75 378.8,148.77 133.2,148.77 241.158,270.75 "/>
<polygon style="fill:#990013;" points="270.842,270.75 378.8,148.77 256,148.77 256,270.75 "/>
<g>
</g>
<g>
</g>
<g>
</g>
<g>
</g>
<g>
</g>
<g>
</g>
<g>
</g>
<g>
</g>
<g>
</g>
<g>
</g>
<g>
</g>
<g>
</g>
<g>
</g>
<g>
</g>
<g>
</g>
</svg>
