<svg height="512" viewBox="0 0 46 58" width="512" xmlns="http://www.w3.org/2000/svg"><g id="004---Fleur-de-lis-Shield" fill="none" fill-rule="evenodd"><path id="Shape" d="m45.05 8.51c-3.39-.16-15.11-1.22-21.33-8.19-.1837551-.20401278-.4454328-.32049325-.72-.32049325s-.5362449.11648047-.72.32049325c-6.22 6.97-17.94 8.03-21.33 8.19-.53427886.02314058-.95427074.46523729-.95 1v22.24s0 19.18 23 26.25c23-7.07 23-26.25 23-26.25v-22.24c.0042707-.53476271-.4157211-.97685942-.95-1z" fill="#4482c3" fill-rule="nonzero"/><path id="Shape" d="m45.05 8.51c-3.39-.16-15.11-1.22-21.33-8.19-.1837551-.20401278-.4454328-.32049325-.72-.32049325s-.5362449.11648047-.72.32049325c-6.22 6.97-17.94 8.03-21.33 8.19-.53427886.02314058-.95427074.46523729-.95 1v22.24s0 19.18 23 26.25c23-7.07 23-26.25 23-26.25v-22.24c.0042707-.53476271-.4157211-.97685942-.95-1z"/><g fill-rule="nonzero"><path id="Shape" d="m46 9.51v22.24s0 19.18-23 26.25v-58.00007125c.27517-.00330659.538115.11355784.72.32007125 6.22 6.97 17.94 8.03 21.33 8.19.5342789.02314058.9542707.46523729.95 1z" fill="#285680"/><path id="Shape" d="m42 13.66v18.36c-.01.62-.43 15.54-19 21.78v-47.80000599c.2211937-.00076702.4361569.0732367.61.21000599 5.55 4.26 12.79 5.86 17.52 6.46.4985375.0626778.8719026.4875415.87.99z" fill="#2980ba"/><path id="Shape" d="m23 5.99999401v47.80000599c-18.78-6.32-19-21.63-19-21.78v-18.36c-.0019026-.5024585.37146251-.9273222.87-.99 4.73-.6 11.97-2.2 17.52-6.46.1738431-.13676929.3888063-.21077301.61-.21000599z" fill="#3b97d3"/><path id="Shape" d="m23 38.83v9.17s0-1-2-2c-1.0615364-.6571117-1.7593202-1.7683969-1.89-3.01 2.2094062-.1041117 3.9341643-1.9485831 3.89-4.16z" fill="#f5efca"/><path id="Shape" d="m26.89 42.99c-.1306798 1.2416031-.8284636 2.3528883-1.89 3.01-2 1-2 2-2 2v-9.17c-.0441643 2.2114169 1.6805938 4.0558883 3.89 4.16z" fill="#f9eab0"/><path id="Shape" d="m23 33c-2.958 0-3.341-.091-3.94.23l-.29-2.11c-.362-3.08-4.77-2.676-4.77.46v1c-2.3730815-1.0399366-3.558631-3.7203903-2.731504-6.1757609s3.3928858-3.8721421 5.911504-3.2642391v.01c2.77.68 5.82 3.74 5.82 9.85z" fill="#f5efca"/><path id="Shape" d="m35 28c.0021068 1.9881094-1.1766163 3.7876267-3 4.58v-1c0-3.123-4.407-3.546-4.77-.46l-.29 2.11c-.531-.285-.617-.23-3.94-.23 0-6.11 3.05-9.17 5.82-9.85v-.01c1.4906555-.3620207 3.0649979-.0197485 4.2707928.928498s1.909586 2.3975162 1.9092072 3.931502z" fill="#f9eab0"/><path id="Shape" d="m23 33v4h-3c-.8063114-.0033854-1.5317303-.4906258-1.8398346-1.2357575s-.138627-1.6024026.4298346-2.1742425c.36816-.3832298.8786242-.5968283 1.41-.59z" fill="#f9eab0"/><path id="Shape" d="m26 37-3 .0000198v-4.0000198c2.958 0 3.341-.091 3.94.23.8155398.4290267 1.232382 1.3597503 1.0094426 2.2538796-.2229394.8941292-1.0279479 1.5202005-1.9494426 1.5161204z" fill="#f3d55b"/><path id="Shape" d="m23 12v21c0-6.11-3.05-9.17-5.82-9.85v-.01c-.6835403-2.3758969.3446675-4.9113169 2.49-6.14 1.8843258-.996066 3.137255-2.8773411 3.33-5z" fill="#f9eab0"/><path id="Shape" d="m28.82 23.14v.01c-2.77.68-5.82 3.74-5.82 9.85v-21c.192745 2.1226589 1.4456742 4.003934 3.33 5 2.1453325 1.2286831 3.1735403 3.7641031 2.49 6.14z" fill="#f3d55b"/><path id="Shape" d="m23 37v1.83c.0332846 2.1023381-1.5233146 3.8917804-3.61 4.15-1.1231724.1100336-2.2405646-.259513-3.0766569-1.0175192-.8360922-.7580062-1.3130773-1.8339315-1.3133431-2.9624808v-1l1.17.59c.71224.3530561 1.5423838.3807549 2.2765737.0759606.73419-.3047942 1.3006409-.9122804 1.5534263-1.6659606z" fill="#f5efca"/><path id="Shape" d="m31 38v1c.0004883 1.0793371-.436318 2.1128273-1.2107464 2.8646447s-1.8204047 1.1578167-2.8992536 1.1253553c-2.2094062-.1041117-3.9341643-1.9485831-3.89-4.16v-1.83h3c.2527854.7536802.8192363 1.3611664 1.5534263 1.6659606.7341899.3047943 1.5643337.2770955 2.2765737-.0759606z" fill="#f9eab0"/></g></g></svg>