<?xml version="1.0" encoding="iso-8859-1"?>
<!-- Generator: Adobe Illustrator 19.0.0, SVG Export Plug-In . SVG Version: 6.00 Build 0)  -->
<svg xmlns="http://www.w3.org/2000/svg" xmlns:xlink="http://www.w3.org/1999/xlink" version="1.1" id="Layer_1" x="0px" y="0px" viewBox="0 0 512 512" style="enable-background:new 0 0 512 512;" xml:space="preserve">
<g>
	<path style="fill:#3C3A41;" d="M300.75,467.25c0,24.72-20.04,44.75-44.75,44.75s-44.75-20.03-44.75-44.75   c0-7.26,1.75-14.11,4.82-20.17h79.86C299,453.14,300.75,459.99,300.75,467.25z"/>
	<path style="fill:#3C3A41;" d="M305.41,54.02l-14.44,161.55h-69.94L206.59,54.02c-1.23-13.83,3.43-27.65,12.81-37.89   C228.77,5.88,242.11,0,256,0c13.89,0,27.23,5.88,36.6,16.13C301.98,26.37,306.64,40.19,305.41,54.02z"/>
</g>
<g>
	<path style="fill:#17171A;" d="M295.93,447.08c3.07,6.06,4.82,12.91,4.82,20.17c0,24.72-20.04,44.75-44.75,44.75v-64.92   L295.93,447.08L295.93,447.08z"/>
	<path style="fill:#17171A;" d="M305.41,54.02l-14.44,161.55H256V0c13.89,0,27.23,5.88,36.6,16.13   C301.98,26.37,306.64,40.19,305.41,54.02z"/>
</g>
<path style="fill:#FFA91D;" d="M413.13,462.08H98.87l0.46-15.45c0.13-4.34,2-42.8,27.89-58c21.73-12.75,23.77-49.78,22.73-62.97  l-0.05-1.22v-23.49c-0.05-3.89,0.02-54.08,32.55-87.21c18.35-18.69,42.97-28.17,73.17-28.17c0.13,0,0.25,0,0.38,0.01  c0.13-0.01,0.26-0.01,0.38-0.01c30.2,0,54.82,9.48,73.17,28.17c32.53,33.13,32.6,83.32,32.55,87.21v24.12l-0.05,0.62  c-1.04,13.16,1,50.19,22.73,62.94c25.89,15.2,27.76,53.66,27.89,58L413.13,462.08z"/>
<path style="fill:#FF8900;" d="M413.13,462.08H256v-276.5c0.13-0.01,0.26-0.01,0.38-0.01c30.2,0,54.82,9.48,73.17,28.17  c32.53,33.13,32.6,83.32,32.55,87.21v24.12l-0.05,0.62c-1.04,13.16,1,50.19,22.73,62.94c25.89,15.2,27.76,53.66,27.89,58  L413.13,462.08z"/>
<g>
</g>
<g>
</g>
<g>
</g>
<g>
</g>
<g>
</g>
<g>
</g>
<g>
</g>
<g>
</g>
<g>
</g>
<g>
</g>
<g>
</g>
<g>
</g>
<g>
</g>
<g>
</g>
<g>
</g>
</svg>
