<svg height="512" viewBox="0 0 58 58" width="512" xmlns="http://www.w3.org/2000/svg"><g id="005---Sceptre" fill="none"><path id="Shape" d="m42.73 12.43 3.45-3.45c-.1815197-.65003686-.1884183-1.33644618-.02-1.99l-3.65-2.6c-.240507-.17007102-.3929932-.43823082-.4161761-.73188084-.0231829-.29365001.0853355-.58241544.2961761-.78811916l2.57-2.57c.2057037-.2108406.4944691-.31935897.7881192-.29617607.29365.02318289.5618098.17566905.7318808.41617607l2.61 3.64c.6278329-.14998853 1.2821671-.14998853 1.91 0l2.61-3.64c.170071-.24050702.4382308-.39299318.7318808-.41617607.2936501-.0231829.5824155.08533547.7881192.29617607l2.57 2.57c.2108406.20570372.319359.49446915.2961761.78811916-.0231829.29365002-.1756691.56180982-.4161761.73188084l-3.65 2.6c.1600045.62661375.1600045 1.28338625 0 1.91l3.65 2.6c.240507.170071.3929932.4382308.4161761.7318808.0231829.2936501-.0853355.5824155-.2961761.7881192l-2.57 2.58c-.207028.2081811-.4950828.3148648-.7877704.2917579s-.5604334-.1736696-.7322296-.4117579l-2.61-3.65c-.6541531.1634161-1.3392635.1565305-1.99-.02l-3.46 3.46z" fill="#f0c419"/><circle id="Oval" cx="50.045" cy="7.947" fill="#f29c1f" r="1.955"/><path id="Shape" d="m35.888 30.574c-2.346 2.343-7.565 3.757-9.91 1.414s-.93-7.556 1.415-9.9c1.5156993-1.5174856 3.7258321-2.1110842 5.7978628-1.5571929s3.6911685 2.1711231 4.2475 4.2425c.5563314 2.0713769-.0346635 4.2822073-1.5503628 5.7996929z" fill="#f0c419"/><path id="Shape" d="m28.806 30.117c-.4182086.0048458-.7918344-.2605295-.925-.657-.4-1.191.288-3.9 1.637-5.251 2.1-2.094 5.607.051 4.246 1.415-.3904999.3903819-1.0235001.3903819-1.414 0-.1877275-.1890048-.4431085-.2952946-.7095-.2952946s-.5217725.1062898-.7095.2952946c-.751474.8962867-1.1601048 2.0303879-1.153 3.2.0869932.3054632.0259855.6340367-.1648627.8879118-.1908481.2538752-.4895308.4037788-.8071373.4050882z" fill="#f9eab0"/><path id="Shape" d="m28.811 37.65-.711.7c-.7917614.7726755-2.0566937.7682263-2.843-.01-.7600313-.7512216-1.9829687-.7512216-2.743 0l-13.946 13.922c-.40152049.4212149-.60605137.9926662-.563 1.573.05980621 1.9940919-1.33972654 3.7354499-3.3 4.106-1.80183285.3051732-3.58137929-.6496393-4.32339777-2.3197115-.74201848-1.6700721-.25780339-3.6306812 1.17639777-4.7632885 1.918-1.477 3.078-.3 4.19-1.416l13.934-13.932c.3637078-.3631548.5680833-.8560304.5680833-1.37s-.2043755-1.0068452-.5680833-1.37l-.07-.07c-.3795308-.3730115-.5933056-.8828523-.5933056-1.415s.2137748-1.0419885.5933056-1.415l.7-.71c.3723455-.3769499.8795828-.5899386 1.4094213-.5918155s1.038572.207513 1.4135787.5818155l5.676 5.67c.3755541.3751365.5865733.8841815.5865733 1.415s-.2110192 1.0398635-.5865733 1.415z" fill="#a56a43"/><path id="Shape" d="m45.03 21.32c-1.5122595 2.1285889-4.227506 3.0347816-6.7150519 2.241097-2.4875458-.7936846-4.1762031-3.1050015-4.1762031-5.716097s1.6886573-4.9224124 4.1762031-5.716097c2.4875459-.7936846 5.2027924.1125081 6.7150519 2.241097 1.4726089 2.0826476 1.4726089 4.8673524 0 6.95z" fill="#e57e25"/><g fill="#f3d55b"><path id="Shape" d="m45.03 14.37c-4.311 4.3-2.389 2.379-8.37 8.36-.5526297-.382763-1.0333411-.8600892-1.42-1.41 7.706-7.684.6-.605 8.38-8.36.5463814.3868499 1.0231501.8636186 1.41 1.41z"/><path id="Shape" d="m45.03 21.32c-.3899486.5499568-.8700432 1.0300514-1.42 1.42l-8.36-8.36c.3797535-.5579316.8574721-1.0424264 1.41-1.43z"/></g></g></svg>