<?xml version="1.0" encoding="iso-8859-1"?>
<!-- Generator: Adobe Illustrator 19.0.0, SVG Export Plug-In . SVG Version: 6.00 Build 0)  -->
<svg xmlns="http://www.w3.org/2000/svg" xmlns:xlink="http://www.w3.org/1999/xlink" version="1.1" id="Layer_1" x="0px" y="0px" viewBox="0 0 512 512" style="enable-background:new 0 0 512 512;" xml:space="preserve">
<g>
	<g>
		<path d="M369.35,370.34c-7.3-15.86-8-35.73-7.3-44.65l0.05-0.62v-24.12c0.05-3.89-0.02-54.08-32.55-87.21    c-10.23-10.42-22.4-17.97-36.4-22.61l12.26-137.11c1.23-13.83-3.43-27.65-12.81-37.89C283.23,5.88,269.89,0,256,0    s-27.23,5.88-36.6,16.13c-9.38,10.24-14.04,24.06-12.81,37.89l12.26,137.11c-14,4.64-26.17,12.19-36.4,22.61    c-32.53,33.13-32.6,83.32-32.55,87.21v23.49l0.05,1.22c0.7,8.94,0,28.82-7.3,44.68H369.35z"/>
	</g>
</g>
<g>
	<g>
		<path d="M413.13,462.08l-0.46-15.45c-0.1-3.46-1.31-28.54-14.86-46.29H114.19c-13.55,17.75-14.76,42.83-14.86,46.29l-0.46,15.45    h107.737c-0.002,0.171-0.015,0.342-0.015,0.513C206.592,489.836,228.756,512,256,512s49.408-22.164,49.408-49.407    c0-0.171-0.013-0.342-0.015-0.513H413.13z"/>
	</g>
</g>
<g>
</g>
<g>
</g>
<g>
</g>
<g>
</g>
<g>
</g>
<g>
</g>
<g>
</g>
<g>
</g>
<g>
</g>
<g>
</g>
<g>
</g>
<g>
</g>
<g>
</g>
<g>
</g>
<g>
</g>
</svg>
