<?xml version="1.0" encoding="iso-8859-1"?>
<!-- Generator: Adobe Illustrator 19.0.0, SVG Export Plug-In . SVG Version: 6.00 Build 0)  -->
<svg xmlns="http://www.w3.org/2000/svg" xmlns:xlink="http://www.w3.org/1999/xlink" version="1.1" id="Layer_1" x="0px" y="0px" viewBox="0 0 512 512" style="enable-background:new 0 0 512 512;" xml:space="preserve">
<g>
	<polygon style="fill:#C8C6CD;" points="458.52,129.66 458.52,159.66 436.44,159.66 436.44,179.78 406.44,179.78 406.44,159.66    296.27,159.66 296.27,129.66 406.44,129.66 406.44,111.82 436.44,111.82 436.44,129.66  "/>
	<polygon style="fill:#C8C6CD;" points="104.944,111.82 74.944,111.82 74.944,129.659 53.479,129.659 53.479,159.659    74.944,159.659 74.944,179.78 104.944,179.78 104.944,159.659 215.733,159.659 215.733,129.659 104.944,129.659  "/>
</g>
<polygon style="fill:#AEADB3;" points="406.44,159.66 296.27,159.66 296.27,129.66 406.44,129.66 406.44,111.82 436.44,111.82   436.44,129.66 458.52,129.66 458.52,159.66 436.44,159.66 436.44,179.78 406.44,179.78 "/>
<path style="fill:#FFA91D;" d="M301.66,142.84c0,16.72-9,31.34-22.42,39.29v47.58h-46.48v-47.58  c-13.42-7.95-22.42-22.57-22.42-39.29c0-16.73,9-31.34,22.42-39.3V55.59c0-6.42,2.6-12.22,6.8-16.43c4.07-4.07,9.65-6.64,15.82-6.79  c0.21-0.02,0.41-0.02,0.62-0.02c12.84,0,23.24,10.41,23.24,23.24v47.95C292.66,111.5,301.66,126.11,301.66,142.84z"/>
<rect x="185.99" y="214.71" style="fill:#3C3A41;" width="140.02" height="81"/>
<path style="fill:#FF8900;" d="M279.24,229.71h-23.86V32.37c0.21-0.02,0.41-0.02,0.62-0.02c12.84,0,23.24,10.41,23.24,23.24v47.95  c13.42,7.96,22.42,22.57,22.42,39.3c0,16.72-9,31.34-22.42,39.29V229.71z"/>
<rect x="255.38" y="214.71" style="fill:#17171A;" width="70.63" height="81"/>
<polygon style="fill:#C8C6CD;" points="497.96,405.05 14.04,405.05 151.78,265.71 360.22,265.71 "/>
<rect y="375.05" style="fill:#3C3A41;" width="512" height="104.6"/>
<polygon style="fill:#AEADB3;" points="497.96,405.05 255.38,405.05 255.38,265.71 360.22,265.71 "/>
<rect x="255.38" y="375.05" style="fill:#17171A;" width="256.62" height="104.6"/>
<rect x="241" y="265.7" style="fill:#FFA91D;" width="30" height="69.67"/>
<rect x="255.38" y="265.7" style="fill:#FF8900;" width="15.62" height="69.67"/>
<g>
</g>
<g>
</g>
<g>
</g>
<g>
</g>
<g>
</g>
<g>
</g>
<g>
</g>
<g>
</g>
<g>
</g>
<g>
</g>
<g>
</g>
<g>
</g>
<g>
</g>
<g>
</g>
<g>
</g>
</svg>
