<?xml version="1.0" encoding="iso-8859-1"?>
<!-- Generator: Adobe Illustrator 19.0.0, SVG Export Plug-In . SVG Version: 6.00 Build 0)  -->
<svg xmlns="http://www.w3.org/2000/svg" xmlns:xlink="http://www.w3.org/1999/xlink" version="1.1" id="Layer_1" x="0px" y="0px" viewBox="0 0 512 512" style="enable-background:new 0 0 512 512;" xml:space="preserve">
<g>
	<g>
		<rect y="389.32" width="512" height="88.3"/>
	</g>
</g>
<g>
	<g>
		<polygon points="380.62,284.32 273.53,284.32 273.53,333.35 243.53,333.35 243.53,284.32 131.37,284.32 57.24,359.32     454.75,359.32   "/>
	</g>
</g>
<g>
	<g>
		<path d="M439.96,134.199V116.36h-30v17.839h-97.25c-3.05-10.96-9.39-20.849-18.18-28.199V70.38c0-19.85-16.15-36-36-36    c-19.85,0-35.99,16.15-35.99,36V106c-8.79,7.35-15.13,17.239-18.19,28.199h-95.89V116.36h-30v17.839H56.995v30H78.46v20.121h30    v-20.121h95.89v0.001c3.06,10.96,9.4,20.85,18.19,28.2v20.28h-36.56v41.64h140.03v-41.64h-31.48V192.4    c8.79-7.35,15.13-17.24,18.18-28.2v-0.001h97.25v20.121h30v-20.121h22.076v-30H439.96z"/>
	</g>
</g>
<g>
</g>
<g>
</g>
<g>
</g>
<g>
</g>
<g>
</g>
<g>
</g>
<g>
</g>
<g>
</g>
<g>
</g>
<g>
</g>
<g>
</g>
<g>
</g>
<g>
</g>
<g>
</g>
<g>
</g>
</svg>
