<svg height="512" viewBox="0 0 58 57" width="512" xmlns="http://www.w3.org/2000/svg"><g id="006---Tower-Of-London" fill="none"><path id="Shape" d="m29 4h8c.5522847 0 1 .44771525 1 1v3c0 .55228475-.4477153 1-1 1h-8z" fill="#e64c3c"/><path id="Shape" d="m29 23c-.5522847 0-1-.4477153-1-1v-19c0-.55228475.4477153-1 1-1s1 .44771525 1 1v19c0 .5522847-.4477153 1-1 1z" fill="#a56a43"/><path id="Shape" d="m50 7c-.5522847 0-1-.44771525-1-1v-5c0-.55228475.4477153-1 1-1s1 .44771525 1 1v5c0 .55228475-.4477153 1-1 1z" fill="#95a5a5"/><path id="Shape" d="m52 4h-4c-.5522847 0-1-.44771525-1-1s.4477153-1 1-1h4c.5522847 0 1 .44771525 1 1s-.4477153 1-1 1z" fill="#95a5a5"/><path id="Shape" d="m54 15c.5894306.0004203 1.1490322-.2591868 1.5293641-.7094936s.5426604-1.0454533.4436359-1.6265064c-.1988312-.9852159-1.0751679-1.6862852-2.08-1.664h-.893c-1.6568542 0-3-1.34314575-3-3 0 1.65685425-1.3431458 3-3 3h-.893c-1.0048321-.0222852-1.8811688.6787841-2.08 1.664-.0990245.5810531.063304 1.1761996.4436359 1.6265064s.9399335.7099139 1.5293641.7094936l4 2z" fill="#95a5a5"/><circle id="Oval" cx="50" cy="8" fill="#bdc3c7" r="2"/><path id="Shape" d="m8 7c-.55228475 0-1-.44771525-1-1v-5c0-.55228475.44771525-1 1-1s1 .44771525 1 1v5c0 .55228475-.44771525 1-1 1z" fill="#95a5a5"/><path id="Shape" d="m10 4h-4c-.55228475 0-1-.44771525-1-1s.44771525-1 1-1h4c.5522847 0 1 .44771525 1 1s-.4477153 1-1 1z" fill="#95a5a5"/><path id="Shape" d="m12 15c.5894306.0004203 1.1490322-.2591868 1.5293641-.7094936s.5426604-1.0454533.4436359-1.6265064c-.1988312-.9852159-1.0751679-1.6862852-2.08-1.664h-.893c-1.65685425 0-3-1.34314575-3-3 0 1.65685425-1.34314575 3-3 3h-.893c-1.0048321-.0222852-1.88116875.6787841-2.08 1.664-.09902451.5810531.06330397 1.1761996.44363588 1.6265064.38033192.4503068.93993353.7099139 1.52936412.7094936l4 2z" fill="#95a5a5"/><circle id="Oval" cx="8" cy="8" fill="#bdc3c7" r="2"/><path id="Shape" d="m46 22v35h-34v-35h6c.5522847 0 1 .4477153 1 1v1c0 .5522847.4477153 1 1 1h5c.5522847 0 1-.4477153 1-1v-1c0-.5522847.4477153-1 1-1h4c.5522847 0 1 .4477153 1 1v1c0 .5522847.4477153 1 1 1h5c.5522847 0 1-.4477153 1-1v-1c0-.5522847.4477153-1 1-1z" fill="#a59078"/><path id="Shape" d="m2 17h12v40h-11c-.55228475 0-1-.4477153-1-1z" fill="#cbb292"/><path id="Shape" d="m6 26c-.55228475 0-1-.4477153-1-1v-2c0-.5522847.44771525-1 1-1s1 .4477153 1 1v2c0 .5522847-.44771525 1-1 1z" fill="#2c2f38"/><path id="Shape" d="m10 26c-.55228475 0-1-.4477153-1-1v-2c0-.5522847.44771525-1 1-1 .5522847 0 1 .4477153 1 1v2c0 .5522847-.4477153 1-1 1z" fill="#2c2f38"/><path id="Shape" d="m10 39c-.55228475 0-1-.4477153-1-1v-2c0-.5522847.44771525-1 1-1 .5522847 0 1 .4477153 1 1v2c0 .5522847-.4477153 1-1 1z" fill="#2c2f38"/><path id="Shape" d="m44 17h12v39c0 .5522847-.4477153 1-1 1h-11z" fill="#cbb292"/><path id="Shape" d="m48 26c-.5522847 0-1-.4477153-1-1v-2c0-.5522847.4477153-1 1-1s1 .4477153 1 1v2c0 .5522847-.4477153 1-1 1z" fill="#2c2f38"/><path id="Shape" d="m52 26c-.5522847 0-1-.4477153-1-1v-2c0-.5522847.4477153-1 1-1s1 .4477153 1 1v2c0 .5522847-.4477153 1-1 1z" fill="#2c2f38"/><path id="Shape" d="m52 39c-.5522847 0-1-.4477153-1-1v-2c0-.5522847.4477153-1 1-1s1 .4477153 1 1v2c0 .5522847-.4477153 1-1 1z" fill="#2c2f38"/><path id="Shape" d="m24 25v4c0 .5522847-.4477153 1-1 1s-1-.4477153-1-1v-4z" fill="#cbb292"/><path id="Shape" d="m24 53v4h-2v-4c0-.5522847.4477153-1 1-1s1 .4477153 1 1z" fill="#cbb292"/><path id="Shape" d="m23 43c-.5522847 0-1-.4477153-1-1v-1c0-.5522847.4477153-1 1-1s1 .4477153 1 1v1c0 .5522847-.4477153 1-1 1z" fill="#2c2f38"/><path id="Shape" d="m36 25v4c0 .5522847-.4477153 1-1 1s-1-.4477153-1-1v-4z" fill="#cbb292"/><path id="Shape" d="m36 53v4h-2v-4c0-.5522847.4477153-1 1-1s1 .4477153 1 1z" fill="#cbb292"/><path id="Shape" d="m35 43c-.5522847 0-1-.4477153-1-1v-1c0-.5522847.4477153-1 1-1s1 .4477153 1 1v1c0 .5522847-.4477153 1-1 1z" fill="#2c2f38"/><g fill="#5f5346"><path id="Shape" d="m21 50h-2c-.5522847 0-1-.4477153-1-1v-2c0-1.1045695.8954305-2 2-2s2 .8954305 2 2v2c0 .5522847-.4477153 1-1 1z"/><path id="Shape" d="m30 50h-2c-.5522847 0-1-.4477153-1-1v-2c0-1.1045695.8954305-2 2-2s2 .8954305 2 2v2c0 .5522847-.4477153 1-1 1z"/><path id="Shape" d="m39 50h-2c-.5522847 0-1-.4477153-1-1v-2c0-1.1045695.8954305-2 2-2s2 .8954305 2 2v2c0 .5522847-.4477153 1-1 1z"/><path id="Shape" d="m21 37h-2c-.5522847 0-1-.4477153-1-1v-2c0-1.1045695.8954305-2 2-2s2 .8954305 2 2v2c0 .5522847-.4477153 1-1 1z"/><path id="Shape" d="m30 37h-2c-.5522847 0-1-.4477153-1-1v-2c0-1.1045695.8954305-2 2-2s2 .8954305 2 2v2c0 .5522847-.4477153 1-1 1z"/><path id="Shape" d="m39 37h-2c-.5522847 0-1-.4477153-1-1v-2c0-1.1045695.8954305-2 2-2s2 .8954305 2 2v2c0 .5522847-.4477153 1-1 1z"/></g><path id="Shape" d="m14 19h-12c-1.1045695 0-2-.8954305-2-2s.8954305-2 2-2h12c1.1045695 0 2 .8954305 2 2s-.8954305 2-2 2z" fill="#a59078"/><path id="Shape" d="m56 19h-12c-1.1045695 0-2-.8954305-2-2s.8954305-2 2-2h12c1.1045695 0 2 .8954305 2 2s-.8954305 2-2 2z" fill="#a59078"/></g></svg>