<svg height="512" viewBox="0 0 38 58" width="512" xmlns="http://www.w3.org/2000/svg"><g id="007---King-George-Cross-Medal" fill="none"><path id="Shape" d="m6 10v11h-5c-.55228475 0-1-.4477153-1-1v-9c0-.5522847.44771525-1 1-1z" fill="#bdc3c7"/><path id="Shape" d="m38 11v9c0 .5522847-.4477153 1-1 1h-5v-11h5c.5522847 0 1 .4477153 1 1z" fill="#bdc3c7"/><path id="Rectangle-path" d="m4 15h30v6h-30z" fill="#7f8c8d"/><path id="Shape" d="m34 2v13h-30v-13c0-1.1045695.8954305-2 2-2h26c1.1045695 0 2 .8954305 2 2z" fill="#4482c3"/><g fill="#bdc3c7"><path id="Shape" d="m10.07 18.76-2.24 2.24h-2.8c.083-.415.084-.324 2.75-3-2.755-2.766-2.67-2.6-2.75-3h2.8l2.24 2.24c.2017613.20146.3151351.4748794.3151351.76s-.1133738.55854-.3151351.76z"/><path id="Shape" d="m16.53 18.76-2.24 2.24h-2.8c.084-.42.167-.407 2.76-3-2.634-2.634-2.679-2.595-2.76-3h2.8l2.24 2.24c.2017613.20146.3151351.4748794.3151351.76s-.1133738.55854-.3151351.76z"/><path id="Shape" d="m32.97 21h-2.8l-2.24-2.24c-.2017613-.20146-.3151351-.4748794-.3151351-.76s.1133738-.55854.3151351-.76l2.24-2.24h2.8c-.079.4-.016.255-2.75 3 2.644 2.655 2.669 2.6 2.75 3z"/><path id="Shape" d="m26.51 21h-2.8l-2.24-2.24c-.2017613-.20146-.3151351-.4748794-.3151351-.76s.1133738-.55854.3151351-.76l2.24-2.24h2.8c-.084.42-.167.407-2.76 3 2.634 2.634 2.679 2.6 2.76 3z"/></g><path id="Shape" d="m19 27c-1.6568542 0-3-1.3431458-3-3v-1c0-1.6568542 1.3431458-3 3-3s3 1.3431458 3 3v1c0 1.6568542-1.3431458 3-3 3zm0-5c-.5522847 0-1 .4477153-1 1v1c0 .5522847.4477153 1 1 1s1-.4477153 1-1v-1c0-.5522847-.4477153-1-1-1z" fill="#95a5a5"/><path id="Shape" d="m31 10c0 .5522847-.4477153 1-1 1h-26v-2h26c.5522847 0 1 .44771525 1 1z" fill="#285680"/><path id="Shape" d="m34 4v2h-26c-.55228475 0-1-.44771525-1-1s.44771525-1 1-1z" fill="#285680"/><path id="Shape" d="m7.47 48c1.23503169 2.365044 3.164956 4.2949683 5.53 5.53h12c2.365044-1.2350317 4.2949683-3.164956 5.53-5.53v-12c-1.2350317-2.365044-3.164956-4.2949683-5.53-5.53h-12c-2.365044 1.2350317-4.29496831 3.164956-5.53 5.53z" fill="#95a5a5"/><path id="Shape" d="m25.7 48h8.3c.5522847 0 1-.4477153 1-1v-10c0-.5522847-.4477153-1-1-1h-8.3l-.7-.7v-8.3c0-.5522847-.4477153-1-1-1h-10c-.5522847 0-1 .4477153-1 1v8.3l-.7.7h-8.3c-.55228475 0-1 .4477153-1 1v10c0 .5522847.44771525 1 1 1h8.3l.7.7v8.3c0 .5522847.4477153 1 1 1h10c.5522847 0 1-.4477153 1-1v-8.3z" fill="#bdc3c7"/><circle id="Oval" cx="19" cy="42" fill="#7f8c8d" r="9"/><circle id="Oval" cx="19" cy="42" fill="#ecf0f1" r="6"/></g></svg>