<?xml version="1.0" encoding="iso-8859-1"?>
<!-- Generator: Adobe Illustrator 19.0.0, SVG Export Plug-In . SVG Version: 6.00 Build 0)  -->
<svg xmlns="http://www.w3.org/2000/svg" xmlns:xlink="http://www.w3.org/1999/xlink" version="1.1" id="Layer_1" x="0px" y="0px" viewBox="0 0 512 512" style="enable-background:new 0 0 512 512;" xml:space="preserve">
<g>
	<g>
		<polygon points="0,99.45 0,282.41 136.68,282.41 136.68,190.41 86.21,190.41 86.21,160.41 425.79,160.41 425.79,190.41     375.32,190.41 375.32,282.41 512,282.41 512,99.45   "/>
	</g>
</g>
<g>
	<g>
		<path d="M265.42,311.24c-1.66-1.15-3.87-2.19-6.63-3.14v14.21c6.08-0.24,9.12-2.33,9.12-6.28    C267.91,313.98,267.08,312.38,265.42,311.24z"/>
	</g>
</g>
<g>
	<g>
		<path d="M244.93,278.38c0,1.97,0.69,3.53,2.08,4.67c1.38,1.15,3.45,2.16,6.21,3.02v-14.56    C247.7,271.98,244.93,274.27,244.93,278.38z"/>
	</g>
</g>
<g>
	<g>
		<path d="M166.68,190.93v221.62h178.64V190.93H166.68z M286.38,325.63c-1.58,3.15-3.69,5.74-6.34,7.75    c-2.64,2.02-5.68,3.54-9.11,4.56c-3.44,1.03-7.05,1.62-10.84,1.78v13.73h-8.17V339.6c-5.45-0.47-10.84-1.58-16.16-3.32    c-5.33-1.73-10.13-4.02-14.39-6.87l8.52-16.93c0.32,0.4,1.17,1.05,2.55,1.96c1.38,0.9,3.14,1.85,5.27,2.84s4.54,1.93,7.22,2.84    c2.69,0.91,5.45,1.56,8.29,1.95v-15.75l-5.68-1.65c-3.87-1.19-7.22-2.47-10.07-3.85c-2.84-1.38-5.19-2.98-7.04-4.8    c-1.86-1.81-3.24-3.91-4.15-6.28c-0.9-2.36-1.36-5.13-1.36-8.28c0-4.11,0.71-7.76,2.13-10.96c0.48-1.08,1.02-2.11,1.62-3.09    c1.16-1.91,2.54-3.63,4.13-5.14c2.4-2.29,5.24-4.08,8.52-5.39c3.28-1.3,6.81-2.15,10.6-2.54v-11.96h8.17v11.96    c5.13,0.47,9.95,1.62,14.45,3.43c4.5,1.82,8.41,3.67,11.72,5.57l-2.15,4.07l-6.37,12.03c-0.24-0.31-0.93-0.83-2.08-1.54    c-1.14-0.71-2.6-1.48-4.38-2.31c-1.77-0.83-3.75-1.61-5.92-2.36c-2.17-0.75-4.36-1.29-6.57-1.6v16.1l3.79,0.95    c4.02,1.11,7.65,2.31,10.89,3.61c3.24,1.3,5.98,2.92,8.23,4.86c2.25,1.93,3.99,4.28,5.21,7.04c1.23,2.77,1.84,6.08,1.84,9.95    C288.75,318.64,287.96,322.47,286.38,325.63z"/>
	</g>
</g>
<g>
</g>
<g>
</g>
<g>
</g>
<g>
</g>
<g>
</g>
<g>
</g>
<g>
</g>
<g>
</g>
<g>
</g>
<g>
</g>
<g>
</g>
<g>
</g>
<g>
</g>
<g>
</g>
<g>
</g>
</svg>
