<?xml version="1.0" encoding="iso-8859-1"?>
<!-- Generator: Adobe Illustrator 19.0.0, SVG Export Plug-In . SVG Version: 6.00 Build 0)  -->
<svg xmlns="http://www.w3.org/2000/svg" xmlns:xlink="http://www.w3.org/1999/xlink" version="1.1" id="Layer_1" x="0px" y="0px" viewBox="0 0 512 512" style="enable-background:new 0 0 512 512;" xml:space="preserve">
<rect y="91.95" style="fill:#C8C6CD;" width="512" height="182.96"/>
<rect x="151.68" y="168.43" style="fill:#008C48;" width="208.64" height="251.62"/>
<rect x="256" y="91.95" style="fill:#AEADB3;" width="256" height="182.96"/>
<rect x="256" y="168.43" style="fill:#00743A;" width="104.32" height="251.62"/>
<rect x="86.21" y="168.43" style="fill:#3C3A41;" width="339.58" height="30"/>
<rect x="256" y="168.43" style="fill:#17171A;" width="169.79" height="30"/>
<path style="fill:#FFA91D;" d="M289.48,301.68c-1.32-2.99-3.2-5.53-5.63-7.62s-5.4-3.84-8.89-5.24c-3.5-1.41-7.42-2.71-11.78-3.91  l-4.09-1.02v-17.4c2.39,0.34,4.75,0.91,7.1,1.72s4.48,1.67,6.4,2.56c1.92,0.9,3.5,1.73,4.74,2.5c1.23,0.76,1.98,1.32,2.23,1.66  l9.22-17.4c-3.59-2.05-7.81-4.05-12.67-6.02c-4.86-1.96-10.07-3.2-15.61-3.71v-12.92h-8.83v12.92c-4.1,0.43-7.92,1.35-11.46,2.75  c-3.54,1.41-6.61,3.35-9.21,5.83c-2.6,2.47-4.67,5.43-6.21,8.89c-1.53,3.45-2.3,7.4-2.3,11.84c0,3.41,0.49,6.4,1.47,8.95  c0.98,2.56,2.48,4.82,4.48,6.79c2.01,1.96,4.54,3.69,7.62,5.18c3.07,1.49,6.69,2.88,10.87,4.16l6.15,1.79V321  c-3.08-0.43-6.06-1.13-8.96-2.11c-2.9-0.98-5.51-2.01-7.81-3.07c-2.3-1.07-4.2-2.09-5.69-3.07c-1.5-0.98-2.41-1.69-2.75-2.12  l-9.22,18.3c4.61,3.07,9.79,5.55,15.55,7.42c5.76,1.88,11.58,3.08,17.47,3.59v14.97h8.83v-14.84c4.09-0.18,8-0.82,11.71-1.92  c3.71-1.11,6.99-2.75,9.85-4.93c2.86-2.18,5.14-4.97,6.85-8.38c1.7-3.41,2.56-7.55,2.56-12.41  C291.47,308.25,290.8,304.66,289.48,301.68z M253.08,282.1c-2.99-0.94-5.23-2.03-6.72-3.27c-1.5-1.23-2.24-2.92-2.24-5.05  c0-4.44,2.98-6.91,8.96-7.42V282.1z M259.09,321.26V305.9c2.99,1.02,5.37,2.15,7.17,3.39c1.79,1.24,2.68,2.97,2.68,5.18  C268.94,318.74,265.66,321,259.09,321.26z"/>
<path style="fill:#FF8900;" d="M289.48,301.68c-1.32-2.99-3.2-5.53-5.63-7.62s-5.4-3.84-8.89-5.24c-3.5-1.41-7.42-2.71-11.78-3.91  l-4.09-1.02v-17.4c2.39,0.34,4.75,0.91,7.1,1.72s4.48,1.67,6.4,2.56c1.92,0.9,3.5,1.73,4.74,2.5c1.23,0.76,1.98,1.32,2.23,1.66  l9.22-17.4c-3.59-2.05-7.81-4.05-12.67-6.02c-4.86-1.96-10.07-3.2-15.61-3.71v-12.92H256v120.03h4.5v-14.84  c4.09-0.18,8-0.82,11.71-1.92c3.71-1.11,6.99-2.75,9.85-4.93c2.86-2.18,5.14-4.97,6.85-8.38c1.7-3.41,2.56-7.55,2.56-12.41  C291.47,308.25,290.8,304.66,289.48,301.68z M259.09,321.26V305.9c2.99,1.02,5.37,2.15,7.17,3.39c1.79,1.24,2.68,2.97,2.68,5.18  C268.94,318.74,265.66,321,259.09,321.26z"/>
<g>
</g>
<g>
</g>
<g>
</g>
<g>
</g>
<g>
</g>
<g>
</g>
<g>
</g>
<g>
</g>
<g>
</g>
<g>
</g>
<g>
</g>
<g>
</g>
<g>
</g>
<g>
</g>
<g>
</g>
</svg>
