<svg height="512" viewBox="0 0 38 58" width="512" xmlns="http://www.w3.org/2000/svg"><g id="008---MBE-Medal" fill="none"><path id="Shape" d="m37.49 38.13c-1.3804434-.7507967-2.9286222-1.1395615-4.5-1.13 0-1.321.108-2.574-1.17-3.87-.6047257-.6073762-1.3912637-1.0006452-2.24-1.12-.1452837-.0244814-.2940225.0155749-.4073633.1097054s-.1800262.2329858-.1826367.3802946v1.5c.0000138 1.100676-.8893377 1.9944966-1.99 2h-1.68l-3.32-3.32v-1.68c.0055034-1.1006623.899324-1.9900138 2-1.99h1.5c.1480398-.0005426.2882284-.06666.3828118-.1805461.0945834-.1138862.1338365-.2638313.1071882-.4094539-.287088-1.9599001-1.9691861-3.4120405-3.95-3.41h-1.04c.0092569-1.5713411-.3794892-3.119445-1.13-4.5-.1775612-.3133105-.509873-.5069483-.87-.5069483s-.6924388.1936378-.87.5069483c-.7507967 1.3804434-1.1395615 2.9286222-1.13 4.5-1.321 0-2.574-.109-3.87 1.17-.6073762.6047257-1.0006452 1.3912637-1.12 2.24-.0244814.1452837.0155749.2940225.1097054.4073633s.2329858.1800262.3802946.1826367h1.5c1.100676-.0000138 1.9944966.8893377 2 1.99v1.68l-3.32 3.32h-1.68c-1.10066225-.0055034-1.99001376-.899324-1.99-2v-1.5c-.00054263-.1480398-.06665997-.2882284-.18054614-.3828118s-.26383123-.1338365-.40945386-.1071882c-1.95990012.287088-3.4120405 1.9691861-3.41 3.95v1.04c-1.57137784-.0095615-3.11955655.3792033-4.5 1.13-.31331045.1775612-.50694828.509873-.50694828.87s.19363783.6924388.50694828.87c1.38044345.7507967 2.92862216 1.1395615 4.5 1.13v1.04c-.0020405 1.9808139 1.45009988 3.662912 3.41 3.95.14528369.0244814.29402254-.0155749.40736334-.1097054s.18002615-.2329858.18263666-.3802946v-1.5c-.00001376-1.100676.88933775-1.9944966 1.99-2h1.68l3.32 3.32v1.68c-.0055034 1.1006623-.899324 1.9900138-2 1.99h-1.5c-.1480398.0005426-.2882284.06666-.3828118.1805461-.0945834.1138862-.1338365.2638313-.1071882.4094539.287088 1.9599001 1.9691861 3.4120405 3.95 3.41h1.04c-.0092569 1.5713411.3794892 3.119445 1.13 4.5.1775612.3133105.509873.5069483.87.5069483s.6924388-.1936378.87-.5069483c.7507967-1.3804434 1.1395615-2.9286222 1.13-4.5h1.04c1.9809736.0024705 3.6633141-1.4498792 3.95-3.41.0244814-.1452837-.0155749-.2940225-.1097054-.4073633s-.2329858-.1800262-.3802946-.1826367h-1.5c-1.100676.0000138-1.9944966-.8893377-2-1.99v-1.68l3.32-3.32h1.68c1.1006623.0055034 1.9900138.899324 1.99 2v1.5c.0005426.1480398.06666.2882284.1805461.3828118.1138862.0945834.2638313.1338365.4094539.1071882 1.9599001-.287088 3.4120405-1.9691861 3.41-3.95v-1.04c1.5713411.0092569 3.119445-.3794892 4.5-1.13.3133105-.1775612.5069483-.509873.5069483-.87s-.1936378-.6924388-.5069483-.87z" fill="#f3d55b"/><g fill="#f0c419"><path id="Shape" d="m37.49 39.87c-1.3804434.7507967-2.9286222 1.1395615-4.5 1.13v1.04c.0020405 1.9808139-1.4500999 3.662912-3.41 3.95-.1456226.0266483-.2955677-.0126048-.4094539-.1071882-.1138861-.0945834-.1800035-.234772-.1805461-.3828118v-1.5c.0000138-1.100676-.8893377-1.9944966-1.99-2h-1.68l-3.32 3.32v1.68c.0055034 1.1006623.899324 1.9900138 2 1.99h1.5c.1473088.0026105.2861641.0692959.3802946.1826367s.1341868.2620796.1097054.4073633c-.1193548.8487363-.5126238 1.6352743-1.12 2.24-1.307 1.289-2.65 1.17-3.87 1.17.0092569 1.5713411-.3794892 3.119445-1.13 4.5-.1747116.3165046-.5084829.5121636-.87.5100178v-38.0000356c.3615171-.0021458.6952884.1935132.87.5100178.7507967 1.3804434 1.1395615 2.9286222 1.13 4.5h1.04c1.9808139-.0020405 3.662912 1.4500999 3.95 3.41.0266483.1456226-.0126048.2955677-.1071882.4094539-.0945834.1138861-.234772.1800035-.3828118.1805461h-1.5c-1.100676-.0000138-1.9944966.8893377-2 1.99v1.68l3.32 3.32h1.68c1.1006623-.0055034 1.9900138-.899324 1.99-2v-1.5c.0026105-.1473088.0692959-.2861641.1826367-.3802946s.2620796-.1341868.4073633-.1097054c1.9599001.287088 3.4120405 1.9691861 3.41 3.95v1.04c1.5713778-.0095615 3.1195566.3792033 4.5 1.13.3133105.1775612.5069483.509873.5069483.87s-.1936378.6924388-.5069483.87z"/><path id="Shape" d="m25 17h-3c-.5522847 0-1-.4477153-1-1s.4477153-1 1-1h3c.5522847 0 1-.4477153 1-1v-6c0-.55228475.4477153-1 1-1s1 .44771525 1 1v6c0 1.6568542-1.3431458 3-3 3z"/><path id="Shape" d="m16 17h-3c-1.6568542 0-3-1.3431458-3-3v-6c0-.55228475.4477153-1 1-1s1 .44771525 1 1v6c0 .5522847.4477153 1 1 1h3c.5522847 0 1 .4477153 1 1s-.4477153 1-1 1z"/></g><path id="Shape" d="m33 1v2.172c-.0001133.53038963-.2109013 1.03901454-.586 1.414l-6.828 6.828c-.3749855.3750987-.8836104.5858867-1.414.586h-10.344c-.5303896-.0001133-1.0390145-.2109013-1.414-.586l-6.828-6.828c-.37509875-.37498546-.58588673-.88361037-.586-1.414v-2.172c0-.55228475.44771525-1 1-1h26c.5522847 0 1 .44771525 1 1z" fill="#e64c3c"/><circle id="Oval" cx="19" cy="39" fill="#f9eab0" r="7"/><circle id="Oval" cx="19" cy="39" fill="#95a5a5" r="4"/><path id="Rectangle-path" d="m17 0h4v12h-4z" fill="#f9eab0"/><path id="Shape" d="m19 20c-1.6568542 0-3-1.3431458-3-3v-2c0-1.6568542 1.3431458-3 3-3s3 1.3431458 3 3v2c0 1.6568542-1.3431458 3-3 3z" fill="#f3d55b"/></g></svg>