<?xml version="1.0" encoding="iso-8859-1"?>
<!-- Generator: Adobe Illustrator 19.0.0, SVG Export Plug-In . SVG Version: 6.00 Build 0)  -->
<svg xmlns="http://www.w3.org/2000/svg" xmlns:xlink="http://www.w3.org/1999/xlink" version="1.1" id="Layer_1" x="0px" y="0px" viewBox="0 0 512 512" style="enable-background:new 0 0 512 512;" xml:space="preserve">
<polygon style="fill:#3C3A41;" points="277.416,239.155 244.897,312.965 206.436,296.02 172.457,370.841 159.204,364.829   145.13,358.438 178.979,283.917 137.658,265.712 170.177,191.902 225.072,216.089 "/>
<polygon style="fill:#17171A;" points="277.416,239.155 244.897,312.965 206.436,296.02 172.457,370.841 159.204,364.829   225.072,216.089 "/>
<polygon style="fill:#3C3A41;" points="512,210.487 484.993,271.784 456.535,336.361 392.547,280.106 410.712,238.865   427.297,201.225 "/>
<polygon style="fill:#17171A;" points="484.993,271.784 456.535,336.361 392.547,280.106 410.712,238.865 "/>
<polygon style="fill:#C8C6CD;" points="456.395,172.407 424.416,244.976 390.907,321.027 210.047,241.335 182.59,229.242   128.955,205.606 162.865,128.656 194.443,56.985 248.078,80.612 275.535,92.715 "/>
<rect x="52.014" y="365.981" style="fill:#3C3A41;" width="69.229" height="30.008"/>
<rect x="52.014" y="380.985" style="fill:#17171A;" width="69.229" height="15.004"/>
<rect y="299.422" style="fill:#00ACEA;" width="80.022" height="155.593"/>
<rect y="380.985" style="fill:#0082D2;" width="80.022" height="74.03"/>
<path style="fill:#C8C6CD;" d="M188.402,381.624c0,22.756-18.445,41.201-41.211,41.201c-22.756,0-41.201-18.445-41.201-41.201  c0-22.766,18.445-41.211,41.201-41.211C169.956,340.413,188.402,358.858,188.402,381.624z"/>
<g>
	<path style="fill:#AEADB3;" d="M188.402,381.624c0,22.756-18.445,41.201-41.211,41.201v-82.413   C169.956,340.413,188.402,358.858,188.402,381.624z"/>
	<polygon style="fill:#AEADB3;" points="424.416,244.976 390.907,321.027 210.047,241.335 182.59,229.242 128.955,205.606    162.865,128.656  "/>
</g>
<polygon style="fill:#00ACEA;" points="275.535,92.715 243.837,164.666 210.047,241.335 182.59,229.242 216.419,152.471   248.078,80.612 "/>
<rect x="361.137" y="261.643" transform="matrix(-0.9151 -0.4032 0.4032 -0.9151 601.6179 670.4503)" style="fill:#C2001A;" width="20.5" height="20.5"/>
<polygon style="fill:#0082D2;" points="243.837,164.666 210.047,241.335 182.59,229.242 216.419,152.471 "/>
<g>
</g>
<g>
</g>
<g>
</g>
<g>
</g>
<g>
</g>
<g>
</g>
<g>
</g>
<g>
</g>
<g>
</g>
<g>
</g>
<g>
</g>
<g>
</g>
<g>
</g>
<g>
</g>
<g>
</g>
</svg>
