<svg height="512" viewBox="0 0 58 58" width="512" xmlns="http://www.w3.org/2000/svg"><g id="009---Queen-On-Coin" fill="none"><circle id="Oval" cx="29" cy="29" fill="#f3d55b" r="29"/><circle id="Oval" cx="29" cy="29" fill="#f0c419" r="25"/><path id="Shape" d="m29 55c-14.3594035 0-26-11.6405965-26-26s11.6405965-26 26-26 26 11.6405965 26 26c-.0159821 14.3527783-11.6472217 25.9840179-26 26zm0-50c-13.254834 0-24 10.745166-24 24s10.745166 24 24 24 24-10.745166 24-24c-.0154295-13.2484376-10.7515624-23.98457048-24-24z" fill="#b19046"/><path id="Shape" d="m41 31h-24c-1.1045695 0-2-.8954305-2-2s.8954305-2 2-2h24c1.1045695 0 2 .8954305 2 2s-.8954305 2-2 2z" fill="#b19046"/><path id="Shape" d="m41 27v-14c-.0000863-.4043959-.2437275-.7689341-.6173454-.923678-.373618-.1547439-.8036603-.0692299-1.0896546.216678l-3.586 3.586c-.3904999.3903819-1.0235001.3903819-1.414 0l-4.586-4.586c-.3904999-.3903819-1.0235001-.3903819-1.414 0l-4.586 4.586c-.3904999.3903819-1.0235001.3903819-1.414 0l-3.586-3.586c-.2859943-.2859079-.7160366-.3714219-1.0896546-.216678-.3736179.1547439-.6172591.5192821-.6173454.923678v14z" fill="#f5efca"/><circle id="Oval" cx="29" cy="21" fill="#f0c419" r="2"/><g fill="#f3d55b"><circle id="Oval" cx="21" cy="21" r="1"/><circle id="Oval" cx="37" cy="21" r="1"/><path id="Shape" d="m17.59 31c-.8917989.162629-1.6720953.6974483-2.1454877 1.4705285-.4733923.7730803-.5950518 1.7112131-.3345123 2.5794715.0519112.282575-.0858037.5661057-.34.7-1.0780106.5680377-1.757637 1.6815498-1.77 2.9-.1349337 1.6348113 1.0424194 3.0855574 2.67 3.29.2765805.0467317.4932683.2634195.54.54.259091 1.4660288 1.2617063 2.6919373 2.6471864 3.2367432 1.3854801.5448058 2.9545606.3301533 4.1428136-.5667432h12c1.1880968.8974908 2.7574511 1.1124861 4.1431485.5675948 1.3856973-.5448913 2.3882798-1.7712373 2.6468515-3.2375948.0467317-.2765805.2634195-.4932683.54-.54 1.6275806-.2044426 2.8049337-1.6551887 2.67-3.29-.012363-1.2184502-.6919894-2.3319623-1.77-2.9-.2541963-.1338943-.3919112-.417425-.34-.7.2605395-.8682584.13888-1.8063912-.3345123-2.5794715-.4733924-.7730802-1.2536888-1.3078995-2.1454877-1.4705285z"/></g><path id="Shape" d="m34.158 31c.9836955 1.2597779 2.1554099 2.3606633 3.474 3.264.2345402.1594734.372902.4264213.368.71 0 3.842.085 4.172-.251 5.035-.86 2.204-3.903 8.991-8.749 8.991s-7.889-6.787-8.749-8.991c-.1664455-.4281654-.2515678-.8836206-.251-1.343v-3.692c0-1.02 1.1-.556 3.842-3.974" fill="#f5efca"/></g></svg>