<?xml version="1.0" encoding="iso-8859-1"?>
<!-- Generator: Adobe Illustrator 19.0.0, SVG Export Plug-In . SVG Version: 6.00 Build 0)  -->
<svg xmlns="http://www.w3.org/2000/svg" xmlns:xlink="http://www.w3.org/1999/xlink" version="1.1" id="Layer_1" x="0px" y="0px" viewBox="0 0 512 512" style="enable-background:new 0 0 512 512;" xml:space="preserve">
<g>
	<g>
		<path d="M127.388,45.56L0,242.711l108.155,211.066l127.388-197.162L127.388,45.56z M63.52,255.722    c-10.163,0-18.392-8.229-18.392-18.392c0-10.152,8.229-18.392,18.392-18.392c10.153,0,18.392,8.239,18.392,18.392    C81.912,247.493,73.673,255.722,63.52,255.722z M108.082,343.53c-10.163,0-18.392-8.24-18.392-18.392    c0-10.163,8.229-18.392,18.392-18.392c10.152,0,18.392,8.229,18.392,18.392C126.474,335.29,118.234,343.53,108.082,343.53z     M114.135,178.265c-10.152,0-18.392-8.229-18.392-18.392c0-10.152,8.24-18.392,18.392-18.392c10.163,0,18.392,8.24,18.392,18.392    C132.527,170.036,124.298,178.265,114.135,178.265z M163.1,269.91c-10.163,0-18.392-8.229-18.392-18.392    c0-10.163,8.229-18.392,18.392-18.392c10.152,0,18.392,8.229,18.392,18.392C181.492,261.68,173.252,269.91,163.1,269.91z"/>
	</g>
</g>
<g>
	<g>
		<path d="M262.027,273.735L132.149,474.722l245.989,12.328l129.868-200.998L262.027,273.735z M248.669,442.342    c-10.152,0-18.392-8.229-18.392-18.392c0.001-10.153,8.24-18.392,18.392-18.392c10.163,0,18.392,8.239,18.392,18.392    C267.061,434.113,258.832,442.342,248.669,442.342z M396.036,361.922c-10.163,0-18.392-8.24-18.392-18.392    c0-10.163,8.229-18.392,18.392-18.392c10.152,0,18.392,8.229,18.392,18.392C414.428,353.682,406.188,361.922,396.036,361.922z"/>
	</g>
</g>
<g>
	<g>
		<path d="M400.671,37.404L152.264,24.95l111.34,217.298L512,254.692L400.671,37.404z M341.764,159.526    c-10.163,0-18.392-8.24-18.392-18.392c0-10.163,8.229-18.392,18.392-18.392c10.152,0,18.392,8.229,18.392,18.392    C360.156,151.287,351.917,159.526,341.764,159.526z"/>
	</g>
</g>
<g>
</g>
<g>
</g>
<g>
</g>
<g>
</g>
<g>
</g>
<g>
</g>
<g>
</g>
<g>
</g>
<g>
</g>
<g>
</g>
<g>
</g>
<g>
</g>
<g>
</g>
<g>
</g>
<g>
</g>
</svg>
