<?xml version="1.0" encoding="iso-8859-1"?>
<!-- Generator: Adobe Illustrator 19.0.0, SVG Export Plug-In . SVG Version: 6.00 Build 0)  -->
<svg xmlns="http://www.w3.org/2000/svg" xmlns:xlink="http://www.w3.org/1999/xlink" version="1.1" id="Layer_1" x="0px" y="0px" viewBox="0 0 512 512" style="enable-background:new 0 0 512 512;" xml:space="preserve">
<polygon style="fill:#E70020;" points="512,268.831 372.895,484.121 116.895,471.29 0,243.169 139.105,27.879 395.115,40.71 "/>
<g>
	<polygon style="fill:#C2001A;" points="512,268.831 372.895,484.121 116.895,471.29 256,256  "/>
	<polygon style="fill:#C2001A;" points="512,268.831 494.07,267.929 256,256 147.292,43.86 139.105,27.879 395.115,40.71  "/>
</g>
<g>
	<circle style="fill:#E1E1E4;" cx="243.22" cy="401.69" r="18.14"/>
	<circle style="fill:#E1E1E4;" cx="375.19" cy="328.45" r="18.14"/>
</g>
<g>
	<circle style="fill:#FFFFFF;" cx="130.69" cy="166.49" r="18.14"/>
	<circle style="fill:#FFFFFF;" cx="76.63" cy="243.96" r="18.14"/>
	<circle style="fill:#FFFFFF;" cx="179.32" cy="256.03" r="18.14"/>
	<circle style="fill:#FFFFFF;" cx="116.89" cy="328.05" r="18.14"/>
</g>
<polygon style="fill:#990013;" points="512,268.831 494.07,267.929 256,256 395.115,40.71 "/>
<path style="fill:#E1E1E4;" d="M343.068,151.749c0,10.012-8.125,18.137-18.137,18.137c-4.104,0-7.877-1.368-10.924-3.658  c-4.384-3.316-7.213-8.571-7.213-14.479c0-10.022,8.125-18.137,18.137-18.137c3.161,0,6.125,0.808,8.716,2.228  C339.264,138.919,343.068,144.888,343.068,151.749z"/>
<path style="fill:#D9D8DB;" d="M343.068,151.749c0,10.012-8.125,18.137-18.137,18.137c-4.104,0-7.877-1.368-10.924-3.658  l19.64-30.387C339.264,138.919,343.068,144.888,343.068,151.749z"/>
<g>
</g>
<g>
</g>
<g>
</g>
<g>
</g>
<g>
</g>
<g>
</g>
<g>
</g>
<g>
</g>
<g>
</g>
<g>
</g>
<g>
</g>
<g>
</g>
<g>
</g>
<g>
</g>
<g>
</g>
</svg>
