<?xml version="1.0" encoding="iso-8859-1"?>
<!-- Generator: Adobe Illustrator 19.0.0, SVG Export Plug-In . SVG Version: 6.00 Build 0)  -->
<svg xmlns="http://www.w3.org/2000/svg" xmlns:xlink="http://www.w3.org/1999/xlink" version="1.1" id="Layer_1" x="0px" y="0px" viewBox="0 0 512 512" style="enable-background:new 0 0 512 512;" xml:space="preserve">
<g>
	<g>
		<path d="M113.77,130.055l-14.15-11.29c-46.8,15.17-80.74,36.98-93.76,62.07h17.63h62.95c7.24-12.91,24.42-23.51,51.31-31.64    L113.77,130.055z"/>
	</g>
</g>
<g>
	<g>
		<path d="M135.5,109.025l15.17,12.1l24.5,19.55c20.17-3.36,42.52-5.43,65.83-6.05v-23.03v-15.01    C203.02,97.505,167.26,101.905,135.5,109.025z"/>
	</g>
</g>
<g>
	<g>
		<path d="M271,96.585v15.01v23.03c25.08,0.67,49.03,3.01,70.36,6.85l24.4-19.47l15.03-12C347.98,102.305,310.7,97.545,271,96.585z"/>
	</g>
</g>
<g>
	<g>
		<path d="M416.29,120.055l-14.05,11.21l-24.02,19.18c24.62,7.95,40.46,18.13,47.34,30.39h62.95h17.63    C493.48,156.455,461.07,135.155,416.29,120.055z"/>
	</g>
</g>
<g>
	<g>
		<path d="M359.98,176.315c-28.16-7.67-65.09-11.89-103.98-11.89s-75.82,4.22-103.98,11.89c-29.81,8.11-38.51,17.12-39.49,19.52    c0.51,1.23,3.06,4.22,9.51,7.95c6.06,3.5,15.55,7.64,29.98,11.56c28.16,7.67,65.09,11.89,103.98,11.89s75.82-4.22,103.98-11.89    c14.43-3.92,23.92-8.06,29.98-11.56c6.45-3.73,9-6.72,9.51-7.95C398.49,193.435,389.79,184.425,359.98,176.315z"/>
	</g>
</g>
<g>
	<g>
		<path d="M63.38,307.385c-12.26-5.14-23.41-10.75-33.38-16.78c-5.34-3.22-10.34-6.57-15-10.04c-5.48-4.07-10.48-8.3-15-12.69v31.64    c0,30.64,23.79,58.64,67.33,79.71v-70.22C66,308.475,64.69,307.935,63.38,307.385z"/>
	</g>
</g>
<g>
	<g>
		<path d="M86.44,210.835H30H15.81H15H0.55c1.57,10.2,6.54,20.01,14.45,29.24c4.19,4.91,9.22,9.65,15,14.19    c11.47,9.03,25.93,17.28,42.82,24.54l15.51-9.88l44.13-28.13C108.6,232.905,93.2,222.875,86.44,210.835z"/>
	</g>
</g>
<g>
	<g>
		<path d="M172.91,250.595l-47.36,30.18l-16.97,10.82c37.86,11.2,83.28,18.21,132.42,19.4v-15.01v-38.95    C216.81,256.395,193.66,254.185,172.91,250.595z"/>
	</g>
</g>
<g>
	<g>
		<path d="M97.33,319.545v72c40.88,14.25,90.78,22.56,143.67,23.87v-74.42C189.01,339.805,139.52,332.365,97.33,319.545z"/>
	</g>
</g>
<g>
	<g>
		<path d="M386.02,280.885l-43.11-30.98c-21.72,4.01-46.23,6.45-71.91,7.13v38.95h0v15.01c48.38-1.17,93.15-7.98,130.64-18.88    L386.02,280.885z"/>
	</g>
</g>
<g>
	<g>
		<path d="M271,340.995v74.42c48.58-1.2,94.64-8.31,133.5-20.51v-72.42C364.62,333.505,318.87,339.895,271,340.995z"/>
	</g>
</g>
<g>
	<g>
		<path d="M496.99,210.835h-0.8H482h-56.44c-6.63,11.79-21.54,21.66-44.58,29.48l40.81,29.33l14.47,10.4    c18.15-7.56,33.61-16.24,45.74-25.78c5.78-4.54,10.8-9.28,14.99-14.18c7.91-9.23,12.89-19.05,14.46-29.25H496.99z"/>
	</g>
</g>
<g>
	<g>
		<path d="M496.99,280.575c-4.65,3.46-9.65,6.81-14.99,10.03c-9.97,6.03-21.12,11.64-33.38,16.78c-4.58,1.92-9.29,3.77-14.12,5.53    v70.95c50-21.51,77.5-51.41,77.5-84.35v-31.64C507.48,272.265,502.47,276.505,496.99,280.575z"/>
	</g>
</g>
<g>
	<g>
		<path d="M496.99,203.785v0.52c0.01-0.17,0.01-0.35,0.01-0.52H496.99z"/>
	</g>
</g>
<g>
</g>
<g>
</g>
<g>
</g>
<g>
</g>
<g>
</g>
<g>
</g>
<g>
</g>
<g>
</g>
<g>
</g>
<g>
</g>
<g>
</g>
<g>
</g>
<g>
</g>
<g>
</g>
<g>
</g>
</svg>
