<svg height="512" viewBox="0 0 58 58" width="512" xmlns="http://www.w3.org/2000/svg"><g id="010---Swords" fill="none" transform="translate(-1 -1)"><path id="Shape" d="m13.62 2.2c-.3604154-.42111055-.8766712-.67743333-1.43-.71l-9.04-.49c-.57887583-.0299403-1.14330592.18694577-1.55318007.59681993-.40987416.40987415-.62676023.97430424-.59681993 1.55318007l.49 9.04c.03256667.5533288.28888945 1.0695846.71 1.43l20.45 17.05 5.35-1.97.59-.7 1.41-6.15z" fill="#a5a5a4"/><path id="Shape" d="m37.35 30.67c-6.214 2.706-5.113 2.137-6.06 2.91l-1.29 3.21 6.57 5.48 3.43-1.27 2.27-4.43z" fill="#a5a5a4"/><path id="Shape" d="m51.13 54-9.57-8.19 1.208-2.708 3.042-1.542 8.19 9.57z" fill="#a56a43"/><path id="Shape" d="m51.56 35.81-15.05 15.05c-1.5613099 1.5575332-4.0886901 1.5575332-5.65 0-.819-.819-.792-.781-.86-.9.1899733-.3134634.1899733-.7065366 0-1.02.1-.168-1.235 1.175 19.44-19.5.3930079-.3899779 1.0269921-.3899779 1.42 0l.7.71c.7535722.7489618 1.1773145 1.767543 1.1773145 2.83s-.4237423 2.0810382-1.1773145 2.83z" fill="#f0c419"/><path id="Shape" d="m57.83 57.83c-1.562556 1.5608186-4.0944069 1.5598797-5.6558049-.0020974s-1.561398-4.0938281 0-5.6558052 4.0932489-1.562916 5.6558049-.0020974c1.5597839 1.5642825 1.5597839 4.0957175 0 5.66z" fill="#f0c419"/><path id="Shape" d="m30 21.85-3.7 4.45-24.7-24.7c.40295387-.41871617.97014648-.6382746 1.55-.6l9.04.49c.5533288.03256667 1.0695846.28888945 1.43.71z" fill="#7f8284"/><path id="Shape" d="m42.27 36.57-2.85 2.85-5.71-5.71 3.64-3.04z" fill="#7f8284"/><path id="Shape" d="m39.44 39.44-.02-.02" fill="#a5a5a4"/><path id="Shape" d="m57.416 55.415c-.7814237.7800027-2.0470918.7792348-2.8275685-.0017155-.7804766-.7809503-.7804766-2.0466187 0-2.827569.7804767-.7809503 2.0461448-.7817182 2.8275685-.0017155.7800072.7824839.7800072 2.0485161 0 2.831z" fill="#f3d55b"/><path id="Shape" d="m33 34.29c.7-.569 4.951-4.121 24.8-20.67.4211105-.3604154.6774333-.8766712.71-1.43l.49-9.03c.0315428-.57931069-.1848264-1.14469099-.5950677-1.55493228-.4102413-.41024128-.9756216-.62661056-1.5549323-.59506772l-9.03.48c-.5585966.03173315-1.0794555.29216265-1.44.72-27.439 32.9-18.936 22.733-20.67 24.79z" fill="#d1d4d1"/><path id="Shape" d="m59 3.16-.49 9.03c-.0325667.5533288-.2888895 1.0695846-.71 1.43-19.717 16.439-24.108 20.105-24.8 20.67v-7.29l25.4-25.4c.4158412.40898995.6346002.97776337.6 1.56z" fill="#a5a5a4"/><path id="Shape" d="m6 51.13 8.19-9.57 2.667 1.667 1.583 2.583-9.57 8.19z" fill="#a56a43"/><path id="Shape" d="m7.83 57.83c-1.56255602 1.5608186-4.09440691 1.5598797-5.65580489-.0020974s-1.56139798-4.0938281 0-5.6558052 4.09324887-1.562916 5.65580489-.0020974c1.55978389 1.5642825 1.55978389 4.0957175 0 5.66z" fill="#f0c419"/><path id="Shape" d="m7.416 55.415c-.7814237.7800027-2.0470918.7792348-2.82756846-.0017155s-.78047666-2.0466187 0-2.827569 2.04614476-.7817182 2.82756846-.0017155c.78000716.7824839.78000716 2.0485161 0 2.831z" fill="#f3d55b"/><path id="Shape" d="m33 27v7.29c-3.782 3.152-1.759 1.465-9.57 7.98l-4.43-1.27-1.27-4.43 7.98-9.57z" fill="#f0c419"/><path id="Shape" d="m20.559 40.445c-.4043959-.0000863-.7689341-.2437275-.923678-.6173454-.1547439-.373618-.0692299-.8036603.216678-1.0896546l6.363-6.364c-.3903819-.3904999-.3903819-1.0235001 0-1.414 1.2-1.2 2.929 1.315 1.414 2.829l-6.363 6.363c-.1874927.1875494-.4418052.2929434-.707.293z" fill="#f29c1f"/><path id="Shape" d="m28.336 34.081c-.2655413.0002088-.5202623-.1052054-.708-.293-.2497527.2659578-.624527.3747909-.9778857.2839745-.3533586-.0908163-.6292143-.3668672-.7197806-.72029s.0185319-.72812.2846663-.9776845c.7915033-.7559402 2.0374967-.7559402 2.829 0 .2860368.2861229.3714873.7164079.2164868 1.0901167-.1550004.3737088-.5199089.6172016-.9244868.6168833z" fill="#f29c1f"/><path id="Shape" d="m30 49.96c-.074.13-.109.149-.86.9-1.5613099 1.5575332-4.0886901 1.5575332-5.65 0l-15.05-15.05c-1.55978389-1.5642825-1.55978389-4.0957175 0-5.66l.71-.7c.18439106-.191781.43895486-.3001659.705-.3001659.2660451 0 .5206089.1083849.705.3001659l19.29 19.29c.323535.3243066.385339.8269794.15 1.22z" fill="#f3d55b"/></g></svg>