<?xml version="1.0" encoding="iso-8859-1"?>
<!-- Generator: Adobe Illustrator 19.0.0, SVG Export Plug-In . SVG Version: 6.00 Build 0)  -->
<svg xmlns="http://www.w3.org/2000/svg" xmlns:xlink="http://www.w3.org/1999/xlink" version="1.1" id="Layer_1" x="0px" y="0px" viewBox="0 0 512 512" style="enable-background:new 0 0 512 512;" xml:space="preserve">
<path style="fill:#0082D2;" d="M512,208.13v95.73c0,33.44-28.34,63.74-79.78,85.32c-6.98,2.93-14.29,5.66-21.9,8.19  c-40.18,13.39-88.61,21.18-139.82,22.41c-4.81,0.12-9.64,0.18-14.5,0.18c-66.32,0-128.91-10.93-176.22-30.78  c-2.88-1.21-5.69-2.45-8.43-3.71C25.25,364.19,0,335.43,0,303.86v-95.73L512,208.13L512,208.13z"/>
<path style="fill:#E1E1E4;" d="M71.35,289.73v95.74C25.25,364.19,0,335.43,0,303.86v-93.47L71.35,289.73z"/>
<path style="fill:#00ACEA;" d="M512,208.13c0,33.44-28.33,63.74-79.79,85.32c-6.98,2.93-14.28,5.66-21.89,8.2  c-40.18,13.38-88.61,21.17-139.82,22.4c-4.81,0.12-9.64,0.18-14.5,0.18c-66.32,0-128.9-10.93-176.21-30.78  c-2.89-1.21-5.7-2.45-8.44-3.72c-39.76-18.34-64-42.25-69.92-68.73C0.48,216.77,0,212.48,0,208.13c0-33.43,28.33-63.73,79.79-85.31  c13.93-5.84,29.18-10.91,45.47-15.16h0.01c34.83-9.09,74.36-14.4,115.73-15.42c4.97-0.14,9.98-0.2,15-0.2  c63.17,0,122.94,9.92,169.36,28.01c2.32,0.9,4.6,1.83,6.85,2.77c41.98,17.6,68.56,41.01,76.94,67.18  C511.04,195.92,512,201.97,512,208.13z"/>
<g>
	<ellipse style="fill:#FFFFFF;" cx="256" cy="205.81" rx="142.53" ry="41.727"/>
	<path style="fill:#FFFFFF;" d="M241,92.24v57.43C212.33,150,183.33,155,183.33,155l-58.06-47.34   C160.1,98.57,199.63,93.26,241,92.24z"/>
	<path style="fill:#FFFFFF;" d="M509.15,190H408.5c0,0-11.5-14.667-41.167-24l58.027-45.95c2.32,0.9,4.6,1.83,6.85,2.77   C474.19,140.42,500.77,163.83,509.15,190z"/>
</g>
<path style="fill:#E1E1E4;" d="M410.32,301.65v95.72c-40.18,13.39-88.61,21.18-139.82,22.41v-95.73L410.32,301.65z"/>
<g>
	<path style="fill:#FFFFFF;" d="M410.32,301.65c-40.18,13.38-88.61,21.17-139.82,22.4v-61.2c0,0,36-1.35,64.5-6.85L410.32,301.65z"/>
	<path style="fill:#FFFFFF;" d="M142.95,247.53l-71.6,42.2c-39.76-18.34-64-42.25-69.92-68.73h100.9   C102.33,221,113.465,239.75,142.95,247.53z"/>
</g>
<g>
</g>
<g>
</g>
<g>
</g>
<g>
</g>
<g>
</g>
<g>
</g>
<g>
</g>
<g>
</g>
<g>
</g>
<g>
</g>
<g>
</g>
<g>
</g>
<g>
</g>
<g>
</g>
<g>
</g>
</svg>
