<svg height="512" viewBox="0 0 58 58" width="512" xmlns="http://www.w3.org/2000/svg"><g id="011---Pass-Crown" fill="none" transform="translate(0 -1)"><path id="Shape" d="m35.65 4.94-2.94 4.768c-.3934549.3888915-1.0265451.3888915-1.42 0l-1.88-1.88-1.76-3.6 2.94-2.94c.3900375-.38772359 1.0199625-.38772359 1.41 0z" fill="#f0c419"/><path id="Shape" d="m52.35 4.23-3.64 5.478c-.3934549.3888915-1.0265451.3888915-1.42 0l-2.94-4.768 3.65-3.65c.3900375-.38772359 1.0199625-.38772359 1.41 0z" fill="#f0c419"/><path id="Shape" d="m56 3 .000017 21h-32.000034l.000017-21c-.0023626-.40626507.2413038-.77358004.6165185-.92937095s.807391-.069089 1.0934815.21937095c4.511 4.511 1.2 1.205 5.58 5.59.3930079.38997787 1.0269921.38997787 1.42 0 3.7-3.7 2.211-2.209 6.58-6.59.3930079-.38997787 1.0269921-.38997787 1.42 0 4.374 4.386 2.878 2.888 6.58 6.59.3930079.38997787 1.0269921.38997787 1.42 0 4.389-4.4 3.126-3.136 5.58-5.59.2860905-.28845995.7182668-.37516186 1.0934815-.21937095s.6188811.52310588.6165185.92937095z" fill="#f3d55b"/><circle id="Oval" cx="40" cy="14" fill="#ff5364" r="4"/><circle id="Oval" cx="41.5" cy="12.5" fill="#fff" r="1.5"/><circle id="Oval" cx="30" cy="14" fill="#4fba6f" r="2"/><circle id="Oval" cx="50" cy="14" fill="#4fba6f" r="2"/><path id="Rectangle-path" d="m24 24h32v9h-32z" fill="#e57e25"/><path id="Rectangle-path" d="m27 24h26v9h-26z" fill="#f29c1f"/><path id="Shape" d="m9 36c0 22.9.114 21.345-.27 22-.35689901.6181681-1.01620161.9992679-1.73 1h-5c-1.10320187-.0032948-1.9967052-.8967981-2-2v-21c.0032948-1.1032019.89679813-1.9967052 2-2h5c1.10320187.0032948 1.9967052.8967981 2 2z" fill="#894b9d"/><path id="Shape" d="m9 37.68c0 19.165.118 17.923-.27 18.48-.40583249.5445762-1.05107156.8578714-1.73.84h-5c-1.01263208.0771621-1.90121565-.6692481-2-1.68v-17.64c.09878435-1.0107519.98736792-1.7571621 2-1.68h5c1.01263208-.0771621 1.90121565.6692481 2 1.68z" fill="#955ba5"/><path id="Shape" d="m56.68 45.57-18.74 11.41c-1.0968305.667384-2.3560847 1.020252-3.64 1.02l-25.57.0000001c.386-.6590001.27.8669999.27-22.0000001h2.76c2.0501311.0033923 4.0371819.7092718 5.63 2 1.5890253 1.2905773 3.5729095 1.9965859 5.62 2h5.16c3.83 0 6.335 4.4 3.78 7 1.1468734.0702594 2.2976326.0434975 3.44-.08.313-.055-.644.248 19-6.3 1.120338-.3678364 2.3505552.0181141 3.06.96v.01c.4643197.6174085.6455458 1.4025329.4988095 2.1609883s-.6077167 1.4193337-1.2688095 1.8190117z" fill="#f9c795"/><path id="Shape" d="m57.81 42.25c-.2255843.5496607-.6216907 1.012369-1.13 1.32l-18.74 11.41c-1.0968305.667384-2.3560847 1.020252-3.64 1.02l-25.3.0000001v-20.0000001h2.76c2.0501311.0033923 4.0371819.7092718 5.63 2 1.5890253 1.2905773 3.5729095 1.9965859 5.62 2h5.16c3.83 0 6.335 4.4 3.78 7 1.1468734.0702594 2.2976326.0434975 3.44-.08.313-.055-.644.248 19-6.3 1.120338-.3678364 2.3505552.0181141 3.06.96v.01c.1542799.1994914.275802.4222821.36.66z" fill="#fdd7ad"/><path id="Shape" d="m25.72 45h7.23c-.1125911.7559122-.4628249 1.4563798-1 2h-6.23c-1.5797578-.0009418-3.1245213.4652706-4.44 1.34-.833.567-.907.66-1.28.66-.4403997.0009866-.8296015-.2862564-.9584701-.7073807-.1288687-.4211244.0329363-.8769815.3984701-1.1226193l.73-.49c1.6440609-1.0946059 3.5748804-1.6790702 5.55-1.68z" fill="#f9c795"/><path id="Shape" d="m56 35h-32c-1.1045695 0-2-.8954305-2-2s.8954305-2 2-2h32c1.1045695 0 2 .8954305 2 2s-.8954305 2-2 2z" fill="#f29c1f"/><path id="Shape" d="m56 26h-32c-1.1045695 0-2-.8954305-2-2s.8954305-2 2-2h32c1.1045695 0 2 .8954305 2 2s-.8954305 2-2 2z" fill="#f29c1f"/><g fill="#f0c419"><path id="Shape" d="m53 35h-26c-1.1045695 0-2-.8954305-2-2s.8954305-2 2-2h26c1.1045695 0 2 .8954305 2 2s-.8954305 2-2 2z"/><path id="Shape" d="m53 26h-26c-1.1045695 0-2-.8954305-2-2s.8954305-2 2-2h26c1.1045695 0 2 .8954305 2 2s-.8954305 2-2 2z"/></g></g></svg>