<?xml version="1.0" encoding="iso-8859-1"?>
<!-- Generator: Adobe Illustrator 19.0.0, SVG Export Plug-In . SVG Version: 6.00 Build 0)  -->
<svg xmlns="http://www.w3.org/2000/svg" xmlns:xlink="http://www.w3.org/1999/xlink" version="1.1" id="Layer_1" x="0px" y="0px" viewBox="0 0 512.001 512.001" style="enable-background:new 0 0 512.001 512.001;" xml:space="preserve">
<rect x="114.782" y="266.25" style="fill:#7FC8F0;" width="281.148" height="51.89"/>
<rect x="256.96" y="266.25" style="fill:#49BBED;" width="138.969" height="51.89"/>
<path style="fill:#FFA91D;" d="M449.994,129.495l-54.126,152.209H114.825L60.699,129.495c-2.72-7.623-0.567-16.02,5.481-21.397  c6.037-5.378,14.629-6.541,21.881-2.977l82.58,40.651l65.963-94.221c4.276-6.109,11.28-9.766,18.739-9.766  c0.546,0,1.082,0.021,1.617,0.062c6.861,0.484,13.166,4.039,17.132,9.704l65.952,94.221l82.59-40.651  c7.252-3.565,15.844-2.401,21.881,2.977C450.56,113.475,452.713,121.871,449.994,129.495z"/>
<g>
	<path style="fill:#7FC8F0;" d="M281.354,25.859c0,13.784-10.796,25.054-24.395,25.816c-0.484,0.031-0.968,0.041-1.463,0.041   c-14.289,0-25.868-11.579-25.868-25.858S241.207,0,255.496,0c0.495,0,0.979,0.01,1.463,0.041   C270.557,0.805,281.354,12.075,281.354,25.859z"/>
	<circle style="fill:#7FC8F0;" cx="53.606" cy="93.354" r="25.858"/>
</g>
<circle style="fill:#49BBED;" cx="458.395" cy="97.473" r="25.858"/>
<path style="fill:#FF8900;" d="M395.869,281.704h-138.91V41.847c6.861,0.484,13.166,4.039,17.132,9.704l65.952,94.221l82.59-40.651  c7.252-3.565,15.844-2.401,21.881,2.977c6.048,5.378,8.2,13.774,5.481,21.397L395.869,281.704z"/>
<path style="fill:#49BBED;" d="M256.958,51.675V0.042c13.599,0.762,24.395,12.032,24.395,25.816  C281.354,39.643,270.557,50.913,256.958,51.675z"/>
<rect x="44.576" y="305.067" style="fill:#E70020;" width="422.847" height="206.934"/>
<g>
	<path style="fill:#FFFFFF;" d="M232.502,364.387l-24.322,71.319l-9.838-26.094l16.257-45.091H193.83l-9.838,31.019l-9.838-31.019   h-20.635l15.989,45.091l-9.56,26.094l-24.467-71.319h-24.312l38.663,97.012h18.863l15.298-37.993l15.443,37.993h18.719   l38.807-97.012H232.502z"/>
	<path style="fill:#FFFFFF;" d="M265.427,364.387v97.012h22.416v-97.012H265.427z"/>
	<path style="fill:#FFFFFF;" d="M369.135,364.387v56.97l-45.225-56.97h-17.493v97.012h22.417v-55.476l44.68,55.476h18.039v-97.012   H369.135z"/>
</g>
<rect x="256.96" y="305.067" style="fill:#990013;" width="210.464" height="206.934"/>
<g>
	<rect x="265.43" y="364.383" style="fill:#E1E1E4;" width="22.416" height="97.012"/>
	<polygon style="fill:#E1E1E4;" points="369.135,364.387 391.552,364.387 391.552,461.399 373.513,461.399 328.834,405.923    328.834,461.399 306.418,461.399 306.418,364.387 323.91,364.387 369.135,421.355  "/>
</g>
<g>
</g>
<g>
</g>
<g>
</g>
<g>
</g>
<g>
</g>
<g>
</g>
<g>
</g>
<g>
</g>
<g>
</g>
<g>
</g>
<g>
</g>
<g>
</g>
<g>
</g>
<g>
</g>
<g>
</g>
</svg>
