<?xml version="1.0" encoding="iso-8859-1"?>
<!-- Generator: Adobe Illustrator 19.0.0, SVG Export Plug-In . SVG Version: 6.00 Build 0)  -->
<svg xmlns="http://www.w3.org/2000/svg" xmlns:xlink="http://www.w3.org/1999/xlink" version="1.1" id="Layer_1" x="0px" y="0px" viewBox="0 0 512 512" style="enable-background:new 0 0 512 512;" xml:space="preserve">
<g>
	<g>
		<path d="M452.46,69.52c-22.11,0-40.09,17.99-40.09,40.1c0,3.28,0.39,6.46,1.14,9.51l-75.93,37.37l-58.69-83.84    c10.12-7.28,16.72-19.17,16.72-32.56c0-22.11-17.99-40.1-40.11-40.1c-22.11,0-40.09,17.99-40.09,40.1    c0,13.31,6.52,25.13,16.52,32.42l-58.79,83.98l-75.86-37.34c1.52-4.23,2.35-8.79,2.35-13.54c0-22.11-17.98-40.1-40.09-40.1    c-22.12,0-40.11,17.99-40.11,40.1s17.99,40.1,40.11,40.1c2.86,0,5.66-0.3,8.35-0.88l46.66,131.21v20.4h281.48v-19.98l45.6-128.23    c3.45,0.96,7.08,1.48,10.83,1.48c22.12,0,40.11-17.99,40.11-40.1C492.57,87.51,474.58,69.52,452.46,69.52z"/>
	</g>
</g>
<g>
	<g>
		<path d="M50.77,512h410.46V326.45H50.77V512z M304.94,372.71h16.98l43.9,55.3v-55.3h21.76v94.17h-17.51l-43.37-53.85v53.85h-21.76    V372.71z M265.15,372.71h21.76v94.17h-21.76V372.71z M139.01,372.71l23.75,69.23l9.28-25.33l-15.52-43.77h20.03l9.55,30.11    l9.55-30.11h20.16l-15.78,43.77l9.55,25.33l23.61-69.23h23.74l-37.67,94.17h-18.17L186.1,430l-14.85,36.88h-18.31l-37.53-94.17    H139.01z"/>
	</g>
</g>
<g>
</g>
<g>
</g>
<g>
</g>
<g>
</g>
<g>
</g>
<g>
</g>
<g>
</g>
<g>
</g>
<g>
</g>
<g>
</g>
<g>
</g>
<g>
</g>
<g>
</g>
<g>
</g>
<g>
</g>
</svg>
