<?xml version="1.0" encoding="iso-8859-1"?>
<!-- Generator: Adobe Illustrator 19.0.0, SVG Export Plug-In . SVG Version: 6.00 Build 0)  -->
<svg xmlns="http://www.w3.org/2000/svg" xmlns:xlink="http://www.w3.org/1999/xlink" version="1.1" id="Layer_1" x="0px" y="0px" viewBox="0 0 512.001 512.001" style="enable-background:new 0 0 512.001 512.001;" xml:space="preserve">
<g>
	<g>
		<path d="M436.165,218.074c-1.78-7.378-4.635-14.263-8.455-20.495l-134.892-0.03l0.01-30.155l134.851,0.03    c3.83-6.252,6.704-13.147,8.483-20.545c7.599-31.582-5.016-52.64-16.937-64.732c-10.011-10.172-22.867-17.248-37.12-20.485    l-4.312-0.985l-0.975-4.262c-3.237-14.293-10.323-27.149-20.485-37.171c-12.102-11.921-33.15-24.526-64.732-16.937    c-7.378,1.779-14.263,4.644-20.495,8.463l0.533,141.586l-30.155,0.111l-0.461-141.666h-0.07    c-6.252-3.83-13.158-6.714-20.555-8.494c-31.582-7.599-52.63,5.016-64.732,16.937c-10.162,10.021-17.248,22.877-20.475,37.13    l-0.985,4.302l-4.262,0.975c-14.303,3.247-27.159,10.323-37.171,20.495c-11.921,12.092-24.536,33.15-16.937,64.732    c1.779,7.378,4.644,14.273,8.463,20.515h135.394v30.155H84.31c-3.83,6.242-6.694,13.137-8.473,20.525    c-7.599,31.582,5.016,52.63,16.937,64.732c10.011,10.162,22.867,17.249,37.12,20.475l4.312,0.995l0.975,4.252    c3.237,14.303,10.323,27.159,20.485,37.181c12.102,11.911,33.15,24.526,64.732,16.937c7.327-1.769,14.173-4.604,20.374-8.393    c0.02,0.523,0.03,1.055,0.04,1.608l0.02,5.971v0.191c-0.151,12.504-1.447,29.069-6.001,45.885    c-11.579,42.829-38.557,67.828-80.191,74.301l4.624,29.793c54.047-8.393,90.333-41.985,104.928-97.148    c4.342-16.404,6.081-32.326,6.624-45.493c0.09-2.282,0.151-4.483,0.171-6.594c0.05-2.945,0.03-5.709-0.03-8.252v-0.422    c0,0-0.01,0-0.01-0.01c-5.538-3.408-10.554-7.559-14.947-12.373c-4.061,4.453-8.664,8.343-13.71,11.589    c-0.492,0.322-0.985,0.633-1.488,0.935l-0.05-13.911l-0.02-4.664l-0.091-24.546v-0.03l-0.372-96.002l30.155-0.111l0.362,94.866    v0.03l0.101,25.45l0.07,18.776c0.513,0.322,1.035,0.633,1.558,0.935c5.86,3.397,12.263,5.981,19.088,7.619    c6.664,1.598,12.856,2.302,18.595,2.302c21.46,0,36.588-9.84,46.137-19.239c10.162-10.021,17.248-22.877,20.475-37.13l0.985-4.302    l4.262-0.985c14.303-3.237,27.159-10.323,37.171-20.485C431.149,270.704,443.764,249.656,436.165,218.074z"/>
	</g>
</g>
<g>
</g>
<g>
</g>
<g>
</g>
<g>
</g>
<g>
</g>
<g>
</g>
<g>
</g>
<g>
</g>
<g>
</g>
<g>
</g>
<g>
</g>
<g>
</g>
<g>
</g>
<g>
</g>
<g>
</g>
</svg>
