<?xml version="1.0" encoding="iso-8859-1"?>
<!-- Generator: Adobe Illustrator 19.0.0, SVG Export Plug-In . SVG Version: 6.00 Build 0)  -->
<svg xmlns="http://www.w3.org/2000/svg" xmlns:xlink="http://www.w3.org/1999/xlink" version="1.1" id="Layer_1" x="0px" y="0px" viewBox="0 0 512.002 512.002" style="enable-background:new 0 0 512.002 512.002;" xml:space="preserve">
<path style="fill:#008C48;" d="M436.165,218.075c7.599,31.582-5.016,52.63-16.937,64.732  c-10.011,10.162-22.867,17.249-37.171,20.485l-4.262,0.985l-0.985,4.302c-3.227,14.253-10.313,27.109-20.475,37.13  c-9.549,9.398-24.677,19.239-46.137,19.239c-5.739,0-11.931-0.704-18.595-2.302c-7.428-1.789-14.354-4.684-20.626-8.544  l-0.533-139.907l-14.443,0.05l-15.711,0.06l0.533,139.917c-6.212,3.799-13.077,6.654-20.425,8.423  c-31.582,7.589-52.63-5.026-64.732-16.937c-10.162-10.021-17.248-22.877-20.485-37.181l-0.975-4.252l-4.312-0.995  c-14.253-3.227-27.109-10.313-37.12-20.475c-11.921-12.102-24.536-33.15-16.937-64.732c1.779-7.388,4.644-14.283,8.473-20.525  h136.249v-30.155H84.301c-3.819-6.242-6.684-13.137-8.463-20.515c-7.599-31.582,5.016-52.64,16.937-64.732  c10.011-10.172,22.867-17.248,37.171-20.495l4.262-0.975l0.985-4.302c3.227-14.253,10.313-27.109,20.475-37.13  C167.77,7.323,188.818-5.292,220.4,2.307c7.388,1.779,14.293,4.654,20.535,8.483l0.533,142.39l14.533-0.048l15.62-0.06  l-0.533-142.29c6.242-3.83,13.137-6.694,20.515-8.473c31.582-7.589,52.63,5.016,64.732,16.937  c10.162,10.021,17.248,22.877,20.485,37.171l0.975,4.262l4.312,0.985c14.253,3.237,27.109,10.313,37.12,20.485  c11.921,12.092,24.536,33.15,16.937,64.732c-1.779,7.398-4.654,14.293-8.483,20.545l-135.736-0.03v30.155l135.766,0.03  C431.531,203.812,434.386,210.697,436.165,218.075z"/>
<g>
	<path style="fill:#00743A;" d="M271.001,360.472c0,1.43-0.02,2.91-0.05,4.44c-0.31,13.94-1.93,31.64-6.76,49.94   c-14.59,55.16-50.88,88.76-104.93,97.15l-4.62-29.79c41.63-6.48,68.61-31.47,80.19-74.3c4.85-17.94,6.01-35.57,6.01-48.31   c0-0.48,0-0.95-0.01-1.42c-0.01-1.37-0.03-2.68-0.06-3.93c0.02-0.01,0.03-0.02,0.05-0.03c1.12-0.68,2.21-1.39,3.29-2.15   c0.28-0.18,0.55-0.37,0.83-0.57c4.02-2.85,7.72-6.13,11.06-9.79c0.55,0.6,1.11,1.19,1.68,1.77c1.13,1.16,2.31,2.28,3.52,3.36   c1.22,1.08,2.47,2.12,3.76,3.11c1.05,0.81,2.12,1.59,3.22,2.32c0.91,0.64,1.83,1.23,2.77,1.81c0.01,0.44,0.02,0.88,0.03,1.32   c0,0.15,0,0.29,0.01,0.44C271.011,357.312,271.021,358.862,271.001,360.472z"/>
	<path style="fill:#00743A;" d="M436.165,218.075c7.599,31.582-5.016,52.63-16.937,64.732   c-10.011,10.162-22.867,17.249-37.171,20.485l-4.262,0.985l-0.985,4.302c-3.227,14.253-10.313,27.109-20.475,37.13   c-9.549,9.398-24.677,19.239-46.137,19.239c-5.739,0-11.931-0.704-18.595-2.302c-7.428-1.789-14.354-4.684-20.626-8.544   l-0.533-139.907l-14.443,0.05v-61.113l15.62-0.06l-0.533-142.29c6.242-3.83,13.137-6.694,20.515-8.473   c31.582-7.589,52.63,5.016,64.732,16.937c10.162,10.021,17.248,22.877,20.485,37.171l0.975,4.262l4.312,0.985   c14.253,3.237,27.109,10.313,37.12,20.485c11.921,12.092,24.536,33.15,16.937,64.732c-1.779,7.398-4.654,14.293-8.483,20.545   l-135.736-0.03v30.155l135.766,0.03C431.531,203.812,434.386,210.697,436.165,218.075z"/>
</g>
<g>
</g>
<g>
</g>
<g>
</g>
<g>
</g>
<g>
</g>
<g>
</g>
<g>
</g>
<g>
</g>
<g>
</g>
<g>
</g>
<g>
</g>
<g>
</g>
<g>
</g>
<g>
</g>
<g>
</g>
</svg>
