<svg height="512" viewBox="0 0 58 59" width="512" xmlns="http://www.w3.org/2000/svg"><g id="012---Carriage" fill="none"><path id="Shape" d="m30 6c-.5522847 0-1-.44771525-1-1v-4c0-.55228475.4477153-1 1-1s1 .44771525 1 1v4c0 .55228475-.4477153 1-1 1z" fill="#7f8c8d"/><path id="Shape" d="m32 4h-4c-.5522847 0-1-.44771525-1-1s.4477153-1 1-1h4c.5522847 0 1 .44771525 1 1s-.4477153 1-1 1z" fill="#7f8c8d"/><path id="Shape" d="m32 16v-4.9c.01536-.5093136.1848173-1.0019948.486-1.413.8380131-1.24163494.6317001-2.91115276-.483361-3.91143379s-2.7971005-1.02473609-3.9407702-.05729461c-1.1436696.96744149-1.3984312 2.63025577-.5968688 3.8957284.3293455.4737287.5150995 1.0323794.535 1.609v4.777z" fill="#f0c419"/><path id="Shape" d="m46 14.42.0000245 7.58h-9.4000245c-2.61 0-2.9-1-6.6-1-3.631 0-4.031 1-6.6 1h-9.4000245l.0000245-7.58c-.002433-.3483719.1766148-.672901.4726128-.8566239.2959979-.1837229.6662778-.2001558.9773872-.0433761l2.03 1.02c.3200418.1604458.7014387.137562 1-.06l1.97-1.31c.3305929-.2300179.7694071-.2300179 1.1 0l1.9 1.26c.3337325.2197805.7662675.2197805 1.1 0l1.9-1.26c.3305929-.2300179.7694071-.2300179 1.1 0l1.9 1.26c.3337325.2197805.7662675.2197805 1.1 0l1.9-1.26c.3305929-.2300179.7694071-.2300179 1.1 0l1.9 1.26c.3337325.2197805.7662675.2197805 1.1 0l1.9-1.26c.3305929-.2300179.7694071-.2300179 1.1 0l1.97 1.31c.2985613.197562.6799582.2204458 1 .06l2.03-1.02c.3111094-.1567797.6813893-.1403468.9773872.0433761.295998.1837229.4750458.508252.4726128.8566239z" fill="#f3d55b"/><g fill="#a56a43"><path id="Shape" d="m18.39 39h-10.234c-2.0165951.0355957-3.7595687-1.4007672-4.11-3.387-.17645332-1.1347538.14332329-2.2906109.87792167-3.1733153.73459839-.8827045 1.81314971-1.4070992 2.96107833-1.4396847 1.1045695.0317564 2.02574363-.8379305 2.0575-1.9425s-.8379305-2.0257436-1.9425-2.0575c-2.21630137.0029818-4.33230904.9241118-5.84463454 2.5442576-1.51232551 1.6201457-2.28578118 3.7944813-2.13636546 6.0057424.3861945 4.2609182 3.98699094 7.5066452 8.265 7.45h5.716l7.41 5h16.59c4.9705627 0 9-4.0294373 9-9l5.18-.71 2.36-1.42c.9079076-.5372156 1.4634181-1.5150663 1.46-2.57v-3.3l-11-2z"/><path id="Shape" d="m50 28c-.5522847 0-1-.4477153-1-1v-4c0-.5522847.4477153-1 1-1s1 .4477153 1 1v4c0 .5522847-.4477153 1-1 1z"/><path id="Shape" d="m54 28c-.5522847 0-1-.4477153-1-1v-4c0-.5522847.4477153-1 1-1s1 .4477153 1 1v4c0 .5522847-.4477153 1-1 1z"/></g><path id="Shape" d="m57 24h-11c-.5522847 0-1-.4477153-1-1s.4477153-1 1-1h11c.5522847 0 1 .4477153 1 1s-.4477153 1-1 1z" fill="#805333"/><path id="Shape" d="m43.28 27h12.72c1.1045695 0 2 .8954305 2 2s-.8954305 2-2 2h-13" fill="#cb8252"/><path id="Shape" d="m43.85 36c-.3920542.6811975-.8332223 1.332923-1.32 1.95-1.9313696.8557841-3.5740279 2.2518701-4.73 4.02-1.1930408.6742225-2.4710929 1.1854434-3.8 1.52v-7.49z" fill="#f0c419"/><path id="Shape" d="m34 36v7.49c-2.6232533.6804972-5.3767467.6804972-8 0v-7.49z" fill="#f29c1f"/><path id="Shape" d="m26 36v7.49c-4.1580415-1.0735281-7.710637-3.7722035-9.86-7.49z" fill="#f0c419"/><path id="Shape" d="m46 20v8c.0051128 2.8087863-.7332166 5.5688959-2.14 8h-27.72c-1.4067834-2.4311041-2.1451128-5.1912137-2.14-8v-8h9.4c2.61 0 2.9-1 6.6-1 3.631 0 4.031 1 6.6 1z" fill="#f9eab0"/><path id="Shape" d="m33 24v7c0 .5522847-.4477153 1-1 1h-4c-.5522847 0-1-.4477153-1-1v-7c.8405796-.6952889 1.9103629-1.0518834 3-1 1.0896371-.0518834 2.1594204.3047111 3 1z" fill="#5f5346"/><path id="Shape" d="m23 25v6c0 .5522847-.4477153 1-1 1h-1.027c-1.6403817.0000015-2.970793-1.3286198-2.973-2.969v-4.031c0-.5522847.4477153-1 1-1h3c.5522847 0 1 .4477153 1 1z" fill="#5f5346"/><path id="Shape" d="m37 25v6c0 .5522847.4477153 1 1 1h1.027c1.6403817.0000015 2.970793-1.3286198 2.973-2.969v-4.031c0-.5522847-.4477153-1-1-1h-3c-.5522847 0-1 .4477153-1 1z" fill="#5f5346"/><path id="Shape" d="m14 59c-.5522847 0-1-.4477153-1-1v-14c0-.5522847.4477153-1 1-1s1 .4477153 1 1v14c0 .5522847-.4477153 1-1 1z" fill="#cbb292"/><path id="Shape" d="m21 52h-14c-.55228475 0-1-.4477153-1-1s.44771525-1 1-1h14c.5522847 0 1 .4477153 1 1s-.4477153 1-1 1z" fill="#cbb292"/><path id="Shape" d="m14 43c-4.418278 0-8 3.581722-8 8s3.581722 8 8 8 8-3.581722 8-8c-.0060592-4.4157658-3.5842342-7.9939408-8-8zm0 14c-3.3137085 0-6-2.6862915-6-6s2.6862915-6 6-6 6 2.6862915 6 6-2.6862915 6-6 6z" fill="#603e26"/><path id="Shape" d="m56.19 46.07c-5.247 1.7-7.394 2.4-7.58 2.45.144.206 4.553 6.271 4.96 6.83.221384.3029381.2545589.7043116.0859174 1.0394867-.1686416.3351751-.5107179.547743-.8859174.5505133-.624 0-.843-.465-1.32-1.12-4.571-6.3-4.166-5.736-4.44-6.12-2.2 2.933-5.315 7.474-5.72 7.71-.5187748-.3190982-1.0104315-.6803154-1.47-1.08.074-.323-.315.267 5.56-7.8-8.153-2.661-6.865-2.241-8-2.61-.3622287-.0900699-.6441441-.3743792-.7311479-.7373566-.0870038-.3629773.0353877-.744197.3174226-.9886935s.6767621-.311568 1.0237253-.1739499c1.147.364-.3-.1 7.9 2.56.16.058.11.993.11-8.58 0-.5522847.4477153-1 1-1s1 .4477153 1 1v8.62c1.26-.415 6.941-2.262 7.57-2.46.3411886-.1107523.7155456-.0310697.9820543.2090321.2665086.2401019.3846799.6041458.31.955-.07468.3508542-.3308657.6352156-.6720543.7459679z" fill="#cbb292"/><path id="Shape" d="m47 37c-6.0751322 0-11 4.9248678-11 11s4.9248678 11 11 11 11-4.9248678 11-11c-.0049628-6.0730754-4.9269246-10.9950372-11-11zm6.06 17.65c-3.0190573 2.7449482-7.5078182 3.1132726-10.9339525.8971833-3.4261343-2.2160892-4.9308823-6.4611299-3.6653419-10.3402864 1.2655405-3.8791565 4.9841619-6.4201192 9.0580077-6.1894065 4.0738457.2307128 7.4818074 3.1752729 8.3012867 7.1725096.6387228 3.1095382-.4104142 6.325371-2.76 8.46z" fill="#603e26"/><circle id="Oval" cx="47" cy="48" fill="#a56a43" r="2"/></g></svg>