<?xml version="1.0" encoding="iso-8859-1"?>
<!-- Generator: Adobe Illustrator 19.0.0, SVG Export Plug-In . SVG Version: 6.00 Build 0)  -->
<svg xmlns="http://www.w3.org/2000/svg" xmlns:xlink="http://www.w3.org/1999/xlink" version="1.1" id="Layer_1" x="0px" y="0px" viewBox="0 0 511.999 511.999" style="enable-background:new 0 0 511.999 511.999;" xml:space="preserve">
<path style="fill:#A17852;" d="M401.681,160.555l-12.777-27.018l6.389,13.509l-6.466-13.471  c0.446-0.218,44.982-22.543,79.406-93.064l26.856,13.11C455.714,134.288,403.869,159.52,401.681,160.555z"/>
<path style="fill:#008C48;" d="M445.643,86.831l-0.884,4.588l-4.089,2.261c-12.972,7.167-25.432,10.758-37.267,10.758  c-8.245,0-16.17-1.742-23.763-5.219c-41.336-18.969-55.258-83.748-55.83-86.501l-2.241-10.751l10.917-1.197  c2.786-0.306,68.696-7.114,99.526,26.316C445.809,42.038,450.396,62.144,445.643,86.831z"/>
<path style="fill:#00743A;" d="M445.643,86.831l-0.884,4.588L321.569,1.966l10.917-1.197c2.786-0.306,68.696-7.114,99.526,26.316  C445.809,42.038,450.396,62.144,445.643,86.831z"/>
<path style="fill:#FFA91D;" d="M414.304,315.919c-10.789,44.221-34.807,85.912-69.464,120.569  c-34.767,34.767-76.587,58.815-120.938,69.554c-16.447,3.985-32.864,5.957-48.843,5.957c-23.689,0-46.393-4.343-66.715-12.901  c-23.839,11.576-50.487,8.777-67.014-7.75c-16.108-16.108-19.296-41.332-8.816-64.753c-16.218-34.279-19.954-75.85-10.46-118.039  c10.281-45.665,34.618-88.701,70.381-124.464c35.644-35.644,78.54-59.951,124.036-70.281c41.88-9.514,83.202-5.987,117.381,9.852  c23.301-11.675,49.282-9.574,66.157,5.858c0.548,0.488,1.086,1.006,1.614,1.534c9.683,9.673,14.953,23.092,14.843,37.786  c-0.08,10.789-3.088,21.956-8.597,32.157C421.876,234.929,424.187,275.384,414.304,315.919z"/>
<path style="fill:#FF8900;" d="M414.304,315.919c-10.789,44.221-34.807,85.912-69.464,120.569  c-34.767,34.767-76.587,58.815-120.938,69.554c-16.447,3.985-32.864,5.957-48.843,5.957c-23.689,0-46.393-4.343-66.715-12.901  c-23.839,11.576-50.487,8.777-67.014-7.75l358.68-361.827c0.548,0.488,1.086,1.006,1.614,1.534  c9.683,9.673,14.953,23.092,14.843,37.786c-0.08,10.789-3.088,21.956-8.597,32.157C421.876,234.929,424.187,275.384,414.304,315.919  z"/>
<g>
</g>
<g>
</g>
<g>
</g>
<g>
</g>
<g>
</g>
<g>
</g>
<g>
</g>
<g>
</g>
<g>
</g>
<g>
</g>
<g>
</g>
<g>
</g>
<g>
</g>
<g>
</g>
<g>
</g>
</svg>
