<svg height="512" viewBox="0 0 58 58" width="512" xmlns="http://www.w3.org/2000/svg"><g id="013---King" fill="none"><path id="Shape" d="m48.41 13.54-3.41 5.46-16 2-16-2c-3.377-5.4-2.709-4.336-3.41-5.46l1.41-2.54h5c.5522847 0 1-.4477153 1-1v-3l2.76-1.82 3.69 1.58c.3376429.1502449.7308365.10013199 1.02-.13l2.19-1.76h4.68l2.19 1.76c.2891635.23013199.6823571.2802449 1.02.13l3.69-1.58 2.76 1.82v3c0 .5522847.4477153 1 1 1h5z" fill="#f0c419"/><path id="Shape" d="m45.97 23c.057045 1.0786649.0101623 2.1603162-.14 3.23-.6138989 2.2504483-2.2514017 4.0805986-4.42 4.94l-24.78.01c-2.1874147-.8495236-3.8422621-2.6861816-4.46-4.95-.1501623-1.0696838-.197045-2.1513351-.14-3.23l16.97-2z" fill="#f9c795"/><path id="Shape" d="m27 52.39c-.17 1.33-4.41 5.61-13 5.61h-13c-.55228475 0-1-.4477153-1-1v-.73c-.00038801-1.9010745 1.33733498-3.5397851 3.2-3.92l16.33-3.25c1.14 1.23 5.63 2.35 7.47 3.29z" fill="#c03a2b"/><path id="Shape" d="m58 56.27v.73c0 .5522847-.4477153 1-1 1h-13c-8.59 0-12.83-4.28-13-5.61 1.84-.93 6.33-2.05 7.47-3.29.1 0-.2-.041 16.33 3.25 1.862665.3802149 3.200388 2.0189255 3.2 3.92z" fill="#c03a2b"/><path id="Shape" d="m34.03 52.39c.17 1.33 1.38 5.61 9.97 5.61h-30c8.59 0 9.8-4.28 9.97-5.61z" fill="#95a5a5"/><path id="Shape" d="m30.8 53.72c-1.1714833.3699732-2.4285167.3699732-3.6 0-10.216-3.348-13.1-11.408-10.61-21.65.89 3.21 3.21 2.36 5.2 2.84 1.0921451.2556205 2.241469.0337573 3.16-.61 2.4185699-1.7434005 5.6814301-1.7434005 8.1 0 .918531.6437573 2.0678549.8656205 3.16.61 1.98-.48 4.35.39 5.24-2.79.01-.02.01-.04.02-.06 2.482 10.207-.462 18.314-10.67 21.66z" fill="#805333"/><path id="Shape" d="m34.891 42.69c-.8656458-.0704005-1.6970262-.3696147-2.409-.867-2.0765771-1.5075289-4.8874229-1.5075289-6.964 0-.6832248.4738032-1.4736647.7700463-2.3.862-.5495233.0579899-1.0420101-.3404767-1.1-.89s.3404767-1.0420101.89-1.1c.4951285-.0546606.9686058-.2327733 1.377-.518 2.7599081-1.9801203 6.4750919-1.9801203 9.235 0 .4088245.2851161.8825945.4632096 1.378.518.5302099.0532207.9255482.5128564.8988712 1.0450625-.026677.532206-.465997.9500042-.9988712.9499375z" fill="#fdd7ad"/><g fill="#f3d55b"><circle id="Oval" cx="8" cy="11" r="3"/><circle id="Oval" cx="17" cy="4" r="3"/><circle id="Oval" cx="29" cy="3" r="3"/><circle id="Oval" cx="50" cy="11" r="3"/><circle id="Oval" cx="41" cy="4" r="3"/></g><path id="Shape" d="m41.45 32.12c-.6670669 2.4851207-2.707925 4.3623985-5.24 4.82-1.0921451.2556205-2.241469.0337573-3.16-.61-2.4185699-1.7434005-5.6814301-1.7434005-8.1 0-.918531.6437573-2.0678549.8656205-3.16.61-2.5342394-.4713299-4.5637624-2.3720563-5.2-4.87 0-.147.08-1.448.08-2.47 0-2.24-.56-3.49-.86-6.6h26.42c-.489 5.091-.979 2.967-.78 9.12z" fill="#fdd7ad"/><path id="Shape" d="m48 21c-.0027483 1.1034291-.8965709 1.9972517-2 2h-34c-1.1045695 0-2-.8954305-2-2s.8954305-2 2-2h34c1.1032019.0032948 1.9967052.8967981 2 2z" fill="#e57e25"/><path id="Shape" d="m46 21c.0490731 1.0430596-.746941 1.932958-1.789 2h-30.422c-1.0201572-.1119201-1.7925826-.9737219-1.7925826-2s.7724254-1.8880799 1.7925826-2h30.422c1.0433302.0644237 1.8408163.9559677 1.789 2z" fill="#f29c1f"/></g></svg>