<?xml version="1.0" encoding="iso-8859-1"?>
<!-- Generator: Adobe Illustrator 19.0.0, SVG Export Plug-In . SVG Version: 6.00 Build 0)  -->
<svg xmlns="http://www.w3.org/2000/svg" xmlns:xlink="http://www.w3.org/1999/xlink" version="1.1" id="Layer_1" x="0px" y="0px" viewBox="0 0 511.999 511.999" style="enable-background:new 0 0 511.999 511.999;" xml:space="preserve">
<g>
	<g>
		<path d="M495.149,53.509l-26.863-13.113c-6.707,13.74-13.797,25.643-20.871,35.918c2.425-24.921-6.544-40.814-15.04-50.025    C419.47,12.295,399.344,3.775,372.557,0.964c-18.763-1.969-34.182-0.323-34.829-0.251L321.37,2.508l3.356,16.11    c0.132,0.637,3.341,15.81,11.021,33.04c10.965,24.602,25.297,41.101,42.597,49.041c6.137,2.817,14.161,5.166,23.848,5.166    c7.743,0,16.548-1.503,26.3-5.467c-12.181,13.541-23.104,22.272-30.385,27.343c-16.894-13.881-41.803-15.414-64.238-4.176    c-34.188-15.842-75.519-19.364-117.404-9.854c-45.514,10.336-88.417,34.645-124.071,70.299    c-35.776,35.776-60.119,78.825-70.397,124.497c-9.498,42.203-5.762,83.785,10.458,118.068    c-10.484,23.425-7.295,48.656,8.82,64.771c16.529,16.529,43.182,19.328,67.032,7.753c20.332,8.561,43.039,12.9,66.733,12.9    c15.978,0,32.405-1.973,48.854-5.955c44.365-10.74,86.194-34.797,120.965-69.569c34.668-34.668,58.695-76.37,69.482-120.598    c9.889-40.551,7.574-81.016-6.436-114.953c5.509-10.207,8.523-21.373,8.602-32.17c0.041-5.52-0.679-10.862-2.106-15.893    C432.638,140.387,467.063,111.051,495.149,53.509z"/>
	</g>
</g>
<g>
</g>
<g>
</g>
<g>
</g>
<g>
</g>
<g>
</g>
<g>
</g>
<g>
</g>
<g>
</g>
<g>
</g>
<g>
</g>
<g>
</g>
<g>
</g>
<g>
</g>
<g>
</g>
<g>
</g>
</svg>
