<?xml version="1.0" encoding="iso-8859-1"?>
<!-- Generator: Adobe Illustrator 19.0.0, SVG Export Plug-In . SVG Version: 6.00 Build 0)  -->
<svg xmlns="http://www.w3.org/2000/svg" xmlns:xlink="http://www.w3.org/1999/xlink" version="1.1" id="Layer_1" x="0px" y="0px" viewBox="0 0 512.001 512.001" style="enable-background:new 0 0 512.001 512.001;" xml:space="preserve">
<g>
	<g>
		<path d="M223.417,485.612c-3.5-3.89-6.81-7.92-9.919-12.089c-8.12-10.889-14.889-22.699-20.229-35.328    c-8.87-20.979-13.369-43.238-13.369-66.177c0-22.929,4.5-45.188,13.369-66.167c7.19-16.999,16.969-32.528,29.159-46.308    c2.33-2.64,4.75-5.21,7.26-7.71c1.19-1.19,2.39-2.35,3.6-3.51c3.88-3.65,7.91-7.11,12.079-10.369    c-11.659-6.99-24.209-12.319-37.308-15.839c-2.52,4.69-4.78,9.29-6.81,13.729c-2.24,4.891-4.19,9.591-5.89,14.039    c-8.65,22.669-10.809,38.688-10.849,38.948l-29.768-3.71c0.14-1.1,2.09-16.119,9.65-37.958c1.64-4.74,3.54-9.799,5.75-15.109    c1.98-4.76,4.21-9.72,6.7-14.839c-2.4-0.11-4.8-0.17-7.21-0.17c-81.326,0-147.482,66.157-147.482,147.483    C22.148,445.844,88.304,512,169.63,512c22.799,0,44.958-5.21,64.977-15.059c-1.67-1.54-3.31-3.12-4.92-4.73    C227.537,490.062,225.447,487.862,223.417,485.612z"/>
	</g>
</g>
<g>
	<g>
		<path d="M349.871,232.046c-1.15,0-2.29,0.01-3.43,0.05c1.52,5.41,3.19,10.409,4.89,14.959c7.3,19.479,15.339,30.778,15.549,31.068    l-24.239,17.679c-0.58-0.81-12.559-17.429-21.929-45.318c-1.51-4.51-2.96-9.32-4.28-14.409    c-17.619,4.31-33.918,11.959-48.208,22.239c-3.42,2.46-6.72,5.07-9.899,7.82c-3.79,3.27-7.41,6.76-10.829,10.429    c-23.319,24.999-37.598,58.567-37.598,95.455c0,32.718,11.219,62.807,30.018,86.636c3.11,3.94,6.43,7.71,9.939,11.299    c3.54,3.62,7.29,7.05,11.209,10.269c24.159,19.859,55.087,31.778,88.805,31.778c77.316,0,139.983-62.667,139.983-139.983    C489.854,294.713,427.187,232.046,349.871,232.046z"/>
	</g>
</g>
<g>
	<g>
		<path d="M410.338,95.022l-3.63-29.779c-47.318,5.78-89.385,19.169-125.254,39.858c0.33-25.679-7.44-47.268-23.219-64.367    C211.868-9.543,112.743,0.696,108.553,1.156l-16.419,1.8l3.37,16.169c0.86,4.14,21.799,101.565,83.966,130.083    c11.419,5.24,23.339,7.86,35.738,7.86c0.67,0,1.35-0.01,2.02-0.03c-7.87,8.79-15.159,18.139-21.829,28.039    c-7.43,11.019-13.539,21.879-18.559,32.138c10.629,0.52,21.089,2.17,31.218,4.9c3.73-6.96,8.03-14.139,12.969-21.379    c24.499-35.868,57.217-63.027,97.795-81.236c-9.73,32.918-10.619,62.637-7.87,87.016c0.6,5.23,1.35,10.209,2.23,14.919    c0.91,4.97,1.96,9.649,3.08,13.999c0.05,0.21,0.11,0.43,0.17,0.64c9.64-2.38,19.689-3.74,30.008-3.98    c-1.3-4.67-2.5-9.638-3.51-14.899c-0.92-4.74-1.68-9.709-2.25-14.899c-2.97-27.059-0.5-59.937,14.729-96.195    C372.6,101.091,390.919,97.392,410.338,95.022z"/>
	</g>
</g>
<g>
</g>
<g>
</g>
<g>
</g>
<g>
</g>
<g>
</g>
<g>
</g>
<g>
</g>
<g>
</g>
<g>
</g>
<g>
</g>
<g>
</g>
<g>
</g>
<g>
</g>
<g>
</g>
<g>
</g>
</svg>
