<?xml version="1.0" encoding="iso-8859-1"?>
<!-- Generator: Adobe Illustrator 19.0.0, SVG Export Plug-In . SVG Version: 6.00 Build 0)  -->
<svg xmlns="http://www.w3.org/2000/svg" xmlns:xlink="http://www.w3.org/1999/xlink" version="1.1" id="Layer_1" x="0px" y="0px" viewBox="0 0 512 512" style="enable-background:new 0 0 512 512;" xml:space="preserve">
<path style="fill:#E70020;" d="M314.923,364.518c0,81.326-66.157,147.482-147.482,147.482c-81.316,0-147.472-66.156-147.472-147.482  c0-81.316,66.157-147.472,147.472-147.472C248.767,217.045,314.923,283.203,314.923,364.518z"/>
<path style="fill:#990013;" d="M314.923,364.518c0,81.326-66.157,147.482-147.482,147.482V217.046  C248.767,217.045,314.923,283.203,314.923,364.518z"/>
<path style="fill:#E70020;" d="M492.032,364.518C492.032,445.844,425.875,512,344.55,512c-81.316,0-147.472-66.156-147.472-147.482  c0-81.316,66.157-147.472,147.472-147.472C425.875,217.045,492.032,283.203,492.032,364.518z"/>
<path style="fill:#990013;" d="M492.032,364.518C492.032,445.844,425.875,512,344.55,512V217.046  C425.875,217.045,492.032,283.203,492.032,364.518z"/>
<path style="fill:#A17852;" d="M345.829,106.11c17.187-5.005,35.491-8.715,54.916-11.086l-3.636-29.777  c-51.642,6.307-97.04,21.681-134.934,45.697c-30.558,19.366-56.253,44.311-76.37,74.139  c-34.259,50.797-40.411,98.056-40.656,100.044l29.772,3.672c0.051-0.415,5.472-42.043,35.753-86.941  c24.57-36.43,57.561-63.944,98.561-82.353c-14.012,47.397-9.699,88.165-2.574,115.935c9.461,36.873,25.701,59.419,26.388,60.361  l24.239-17.675C356.747,277.38,304.667,204.109,345.829,106.11z"/>
<path style="fill:#008C48;" d="M269.14,130.591l-1.33,6.9l-6.15,3.4c-19.509,10.779-38.248,16.179-56.047,16.179  c-12.399,0-24.319-2.62-35.738-7.85C107.708,120.691,86.769,23.266,85.909,19.126l-3.37-16.169l16.419-1.8  c4.19-0.46,103.315-10.699,149.682,39.578C269.39,63.224,276.289,93.463,269.14,130.591z"/>
<path style="fill:#00743A;" d="M269.14,130.591l-1.33,6.9L82.539,2.956l16.419-1.8c4.19-0.46,103.315-10.699,149.682,39.578  C269.39,63.224,276.289,93.463,269.14,130.591z"/>
<g>
</g>
<g>
</g>
<g>
</g>
<g>
</g>
<g>
</g>
<g>
</g>
<g>
</g>
<g>
</g>
<g>
</g>
<g>
</g>
<g>
</g>
<g>
</g>
<g>
</g>
<g>
</g>
<g>
</g>
</svg>
