<svg height="512" viewBox="0 0 58 58" width="512" xmlns="http://www.w3.org/2000/svg"><g id="014---Queen" fill="none"><path id="Shape" d="m54.8 52.35c-11.521-2.292-7.734-1.537-16.8-3.35h-18c-9.065 1.813-5.279 1.058-16.8 3.35-1.86266502.3802149-3.20038801 2.0189255-3.2 3.92v.73c0 .5522847.44771525 1 1 1h56c.5522847 0 1-.4477153 1-1v-.73c.000388-1.9010745-1.337335-3.5397851-3.2-3.92z" fill="#c03a2b"/><path id="Shape" d="m45.2 50.44c-1.66 2.54-6.22 7.56-16.2 7.56s-14.54-5.02-16.2-7.56l7.2-1.44h18z" fill="#f9eab0"/><path id="Shape" d="m45 20.55c4 1.16 3.808 4.541 3.515 6.067-.0832067.4130052.1063035.833066.471 1.044 1.5551442.8911775 2.514294 2.5466075 2.514 4.339 0 3.737-2.514 4.681-3.784 4.919-.4024903.0774434-.7093246.4052716-.76.812-.2690849 2.1552449-1.6804659 3.9974511-3.6913997 4.8182023-2.0109339.8207513-4.3082804.4922412-6.0086003-.8592023h-16.516c-1.7003199 1.3514435-3.9976664 1.6799536-6.0086003.8592023-2.0109338-.8207512-3.4223148-2.6629574-3.6913997-4.8182023-.0506754-.4067284-.3575097-.7345566-.76-.812-1.266-.238-3.78-1.182-3.78-4.919-.00029401-1.7923925.95885581-3.4478225 2.514-4.339.36469648-.210934.55420667-.6309948.471-1.044-.293-1.526-.485-4.907 3.515-6.067z" fill="#a56a43"/><path id="Shape" d="m38 40.82v8.18c-5.137 5.137-12.454 5.546-18 0v-8.18z" fill="#f9c795"/><path id="Shape" d="m36.45 23c3.958 4.357 5.55 3.776 5.55 5.078 0 4.982.117 5.345-.363 6.434-1.237 2.816-5.637 11.488-12.637 11.488s-11.395-8.672-12.637-11.488c-.238289-.5393589-.3619019-1.1223488-.363-1.712v-4.722c0-1.3 1.589-.716 5.55-5.078" fill="#fdd7ad"/><rect id="Rectangle-path" fill="#e57e25" height="6" rx="2" width="32" x="13" y="17"/><rect id="Rectangle-path" fill="#f29c1f" height="6" rx="2" width="26" x="16" y="17"/><path id="Shape" d="m43 1.67v15.33h-28v-15.33c.0004965-.39250783.2305711-.74843039.5882654-.91003926s.776857-.09901643 1.0717346.16003926c3.492 3.048 2.218 1.934 5.58 4.88.2008126.17672828.4640608.26563227.7309043.24684047.2668434-.01879179.5150335-.14371256.6890957-.34684047 2.808-3.277 1.76-2.052 4.58-5.35.191785-.21911471.4688081-.34479327.76-.34479327s.568215.12567856.76.34479327c2.82 3.3 1.772 2.074 4.58 5.35.1740622.20312791.4222523.32804868.6890957.34684047.2668435.0187918.5300917-.07011219.7309043-.24684047 3.362-2.946 2.088-1.832 5.58-4.88.2948776-.25905569.7140403-.32164813 1.0717346-.16003926s.5877689.51753143.5882654.91003926z" fill="#f3d55b"/><path id="Shape" d="m26 2.97-2.34 2.73c-.1740622.20312791-.4222523.32804868-.6890957.34684047-.2668435.0187918-.5300917-.07011219-.7309043-.24684047l-2.67-2.34 2.67-3.11c.1899882-.22216639.4676758-.35007693.76-.35007693s.5700118.12791054.76.35007693z" fill="#f0c419"/><path id="Shape" d="m38.43 3.46-2.67 2.34c-.2008126.17672828-.4640608.26563227-.7309043.24684047-.2668434-.01879179-.5150335-.14371256-.6890957-.34684047l-2.34-2.73 2.24-2.62c.1899882-.22216639.4676758-.35007693.76-.35007693s.5700118.12791054.76.35007693z" fill="#f0c419"/><circle id="Oval" cx="29" cy="10" fill="#ff5364" r="3"/><circle id="Oval" cx="30" cy="9" fill="#fff" r="1"/><g fill="#4fba6f"><circle id="Oval" cx="20" cy="11" r="1"/><circle id="Oval" cx="38" cy="11" r="1"/></g></g></svg>