<svg height="512" viewBox="0 0 58 58" width="512" xmlns="http://www.w3.org/2000/svg"><g id="015---Royal-Seal" fill="none" transform="translate(-1)"><path id="Shape" d="m58.223 25.1c-1.0359057 2.4968172-1.0359057 5.3031828 0 7.8 1.034255 2.493763 1.035154 5.2963092.0024991 7.7907352-1.0326548 2.494426-3.0142166 4.4762633-5.5084991 5.5092648-2.4971934 1.0314524-4.481925 3.013306-5.517 5.509-1.0321192 2.4951956-3.0133768 4.47805-5.50774 5.5121792-2.4943632 1.0341293-5.2974138 1.0347842-7.79226.0018208-2.4953598-1.0345233-5.2996402-1.0345233-7.795 0-2.493763 1.034255-5.2963092 1.035154-7.7907352.0024991-2.494426-1.0326548-4.4762633-3.0142166-5.5092648-5.5084991-1.0326223-2.4981444-3.01641765-4.483019-5.514-5.517-2.49519557-1.0321192-4.47805-3.0133768-5.51217923-5.50774s-1.0347842-5.2974138-.00182077-7.79226c1.0345233-2.4953598 1.0345233-5.2996402 0-7.795-1.03564804-2.4947157-1.03694235-5.2988331-.00359775-7.7945038s3.01653322-4.4781033 5.51259775-5.5104962c2.49606046-1.032109 4.479627-3.01387689 5.514-5.509 1.0321192-2.49519557 3.0133768-4.47805 5.50774-5.51217923s5.2974138-1.0347842 7.79226-.00182077c2.4968172 1.03590575 5.3031828 1.03590575 7.8 0 2.4941395-1.03408151 5.2969984-1.03455273 7.7914855-.00130994 2.494487 1.03324279 4.4760847 3.01548631 5.5085145 5.51030994 1.032109 2.49606046 3.0138769 4.479627 5.509 5.514 2.4951956 1.0321192 4.47805 3.0133768 5.5121792 5.50774 1.0341293 2.4943632 1.0347842 5.2974138.0018208 7.79226z" fill="#c03a2b"/><circle id="Oval" cx="30" cy="29" fill="#e64c3c" r="23"/><path id="Shape" d="m30 49c-11.045695 0-20-8.954305-20-20s8.954305-20 20-20 20 8.954305 20 20c-.0126747 11.0404407-8.9595593 19.9873253-20 20zm0-38c-9.9411255 0-18 8.0588745-18 18s8.0588745 18 18 18 18-8.0588745 18-18c-.0115721-9.9363282-8.0636718-17.9884279-18-18z" fill="#fb7b76"/><path id="Shape" d="m27.39 21.23-2.18 3.47c-.1864103.1918336-.4425137.3000725-.71.3000725s-.5235897-.1082389-.71-.3000725l-1.9-3.17 2.18-2.23c.1881405-.1924127.4458913-.3008755.715-.3008755s.5268595.1084628.715.3008755z" fill="#f0c419"/><path id="Shape" d="m38.39 21.23-2.18 3.47c-.1864103.1918336-.4425137.3000725-.71.3000725s-.5235897-.1082389-.71-.3000725l-1.9-3.17 2.18-2.23c.1881405-.1924127.4458913-.3008755.715-.3008755s.5268595.1084628.715.3008755z" fill="#f0c419"/><path id="Shape" d="m41 21.02v14.98h-22v-14.98c.0016958-.4044441.2468472-.7680455.6211476-.9212679s.8040433-.0658935 1.0888524.2212679c1.485 1.522.791.815 3.08 3.14.1864103.1918336.4425137.3000725.71.3000725s.5235897-.1082389.71-.3000725c2.616-2.676 1.688-1.73 4.08-4.16.1864103-.1918336.4425137-.3000725.71-.3000725s.5235897.1082389.71.3000725c2.616 2.676 1.688 1.73 4.08 4.16.1864103.1918336.4425137.3000725.71.3000725s.5235897-.1082389.71-.3000725c2.628-2.688 1.947-1.994 3.08-3.14.2848091-.2871614.714552-.3744903 1.0888524-.2212679s.6194518.5168238.6211476.9212679z" fill="#f3d55b"/><circle id="Oval" cx="30" cy="28" fill="#ff5364" r="2"/><circle id="Oval" cx="23" cy="28" fill="#4fba6f" r="1"/><circle id="Oval" cx="37" cy="28" fill="#4fba6f" r="1"/><path id="Shape" d="m41 38h-22c-1.1045695 0-2-.8954305-2-2s.8954305-2 2-2h22c1.1045695 0 2 .8954305 2 2s-.8954305 2-2 2z" fill="#e57e25"/><path id="Shape" d="m39 38h-18c-1.1045695 0-2-.8954305-2-2s.8954305-2 2-2h18c1.1045695 0 2 .8954305 2 2s-.8954305 2-2 2z" fill="#f29c1f"/></g></svg>