<?xml version="1.0" encoding="iso-8859-1"?>
<!-- Generator: Adobe Illustrator 19.0.0, SVG Export Plug-In . SVG Version: 6.00 Build 0)  -->
<svg xmlns="http://www.w3.org/2000/svg" xmlns:xlink="http://www.w3.org/1999/xlink" version="1.1" id="Layer_1" x="0px" y="0px" viewBox="0 0 512 512" style="enable-background:new 0 0 512 512;" xml:space="preserve">
<g>
	<g>
		<path d="M425.355,315.64v-18.51c0-7.54-1.17-14.96-3.4-22.01c0-0.01,0-0.02-0.01-0.03c-3.87-12.25-10.94-23.4-20.66-32.19    l-43.19-39.07v4.23v59.43v0.73l0.43,0.42l38.45,37.38l-17.6,18.11l-3.31,3.4l-17.97-17.47l-15-14.58l-15-14.58l-15-14.58    l-33.29-32.37c-3.12,4.67-5.99,10.62-6.49,17.14c-0.58,7.65,2.26,15.04,8.7,22.58c0.1,0.14,0.22,0.27,0.34,0.41    c4.75,5.47,9.06,10.31,12.97,14.59c2.26,2.47,4.37,4.76,6.35,6.86c0.5,0.53,0.99,1.05,1.46,1.55c0.48,0.5,0.95,1,1.41,1.48    c0.07,0.06,0.13,0.12,0.18,0.18c0.52,0.54,1.02,1.06,1.51,1.57c1.15,1.19,2.24,2.31,3.27,3.36l3.01,3.01    c3.39,3.34,6.07,5.84,8.09,7.65c0.69,0.63,1.3,1.17,1.84,1.63c0.96,0.84,1.69,1.44,2.19,1.84c0.06,0.05,0.11,0.09,0.15,0.12    c0.01,0.01,0.02,0.02,0.03,0.02c0.13,0.1,0.23,0.19,0.33,0.26c0.13,0.11,0.23,0.19,0.29,0.23l0.36,0.24l12.69,8.37l-9.38,12.3    c-1.19,1.77-17.14,26.46,0.09,51.59l-24.74,16.97c-20.15-29.4-13.24-57.95-6.48-73.59c-3.97-3.68-9.16-8.76-15.72-15.64h-174.61    V40.53l-56.04,10.04l53.2,297.08l113.06-20.92v39.44c-0.02,3.32,0.47,36.2,26.67,57.16h189.85L425.355,315.64z"/>
	</g>
</g>
<g>
	<g>
		<path d="M267.025,133.53c-3.24-5.92-9.35-11.67-15.25-17.22c-1.24-1.17-2.46-2.32-3.66-3.47c-4.14-3.98-8.42-7.89-12.55-11.67    c-0.9-0.81-1.8-1.64-2.7-2.47c-0.91,0.83-1.81,1.66-2.7,2.47c-4.14,3.78-8.41,7.69-12.55,11.67c-1.2,1.15-2.43,2.3-3.66,3.47    c-5.91,5.55-12.01,11.3-15.25,17.22c-1.99,3.63-3.6,9.2,0.01,15.09c2.89,4.73,6.17,6.77,10.96,6.8h0.11c3.06,0,6.14-0.92,8.9-2.66    l14.18-8.88l14.13,8.85c2.84,1.79,5.93,2.73,9.06,2.69c4.78-0.03,8.06-2.07,10.96-6.8    C270.625,142.73,269.005,137.16,267.025,133.53z"/>
	</g>
</g>
<g>
	<g>
		<path d="M137.645,0v288.67h95.22h22.76c-3.59-4.86-6.4-9.87-8.43-15c-3.21-8.1-4.47-16.52-3.77-25.18    c0.36-4.41,1.22-8.58,2.41-12.49v-0.01c6.21-20.38,21.55-33.61,23.59-35.3l10.37-8.6l48.3,46.96V0H137.645z M292.595,164.29    c-3.26,5.31-7.23,9.7-11.77,13.07c-7,5.2-15.36,7.99-24.54,8.06h-0.34c-2.72,0-5.42-0.24-8.08-0.73v10.84h-15h-11.49h-3.51v-5.8    v-5.04c-0.93,0.18-1.86,0.32-2.8,0.42c-1.75,0.21-3.51,0.31-5.28,0.31h-0.34c-15.14-0.11-28.04-7.62-36.32-21.13    c-8.41-13.74-8.69-30.62-0.74-45.16c0.44-0.8,0.89-1.59,1.37-2.36c2.49-4.1,5.41-7.79,8.48-11.2c3.66-4.05,7.53-7.69,11.16-11.11    c1.16-1.1,2.31-2.18,3.44-3.26c4.41-4.23,8.82-8.27,13.09-12.17c4.13-3.78,8.4-7.69,12.55-11.66l10.39-9.98l10.39,9.98    c4.14,3.97,8.42,7.88,12.55,11.66c4.27,3.9,8.68,7.94,13.09,12.17c1.12,1.08,2.28,2.16,3.44,3.26    c7.26,6.83,15.48,14.57,21.01,24.67C301.295,133.67,301.015,150.55,292.595,164.29z"/>
	</g>
</g>
<g>
	<g>
		<rect x="221.925" y="453.33" width="238.47" height="58.67"/>
	</g>
</g>
<g>
</g>
<g>
</g>
<g>
</g>
<g>
</g>
<g>
</g>
<g>
</g>
<g>
</g>
<g>
</g>
<g>
</g>
<g>
</g>
<g>
</g>
<g>
</g>
<g>
</g>
<g>
</g>
<g>
</g>
</svg>
