<?xml version="1.0" encoding="iso-8859-1"?>
<!-- Generator: Adobe Illustrator 19.0.0, SVG Export Plug-In . SVG Version: 6.00 Build 0)  -->
<svg xmlns="http://www.w3.org/2000/svg" xmlns:xlink="http://www.w3.org/1999/xlink" version="1.1" id="Layer_1" x="0px" y="0px" viewBox="0 0 512 512" style="enable-background:new 0 0 512 512;" xml:space="preserve">
<path style="fill:#FFC473;" d="M439.806,296.141v161.832H248.961v-30.831c-32.107-20.514-32.69-58.016-32.67-61.632v-46.021  l28.591-49.266l41.601-71.699l30.59-52.701l93.589,84.658C429.177,247.236,439.806,271.166,439.806,296.141z"/>
<rect x="28.744" y="84.602" transform="matrix(0.1981 0.9802 -0.9802 0.1981 330.1511 -26.353)" style="fill:#C8C6CD;" width="304.875" height="207.994"/>
<rect x="79.706" y="126.297" transform="matrix(0.1981 0.9802 -0.9802 0.1981 360.9214 -84.5648)" style="fill:#AEADB3;" width="304.875" height="104.002"/>
<rect x="127.472" style="fill:#E1E1E4;" width="207.99" height="304.87"/>
<rect x="231.462" style="fill:#D9D8DB;" width="104" height="304.87"/>
<path style="fill:#3C3A41;" d="M291.28,177.666c-9.389,15.332-22.475,18.635-31.799,18.704c-4.846,0.038-9.698-0.809-14.315-2.471  c1.014,4.19,2.315,6.471,3.41,7.24l1.713,1.205v11.239h-37.651v-11.239l1.713-1.205c1.095-0.769,2.396-3.05,3.41-7.24  c-4.618,1.662-9.466,2.509-14.315,2.471c-9.324-0.07-22.41-3.372-31.799-18.704c-7.568-12.36-7.767-27.02-0.549-40.216  c5.57-10.187,14.2-18.306,22.545-26.159c1.468-1.38,2.853-2.684,4.233-4.007c5.172-4.967,10.408-9.754,15.469-14.383  c5.026-4.596,10.225-9.348,15.324-14.245l2.794-2.681l2.794,2.681c5.099,4.897,10.298,9.649,15.324,14.245  c5.061,4.628,10.298,9.415,15.469,14.383c1.38,1.323,2.765,2.627,4.233,4.007c8.345,7.853,16.975,15.972,22.545,26.159  C299.047,150.646,298.848,165.306,291.28,177.666z"/>
<path style="fill:#17171A;" d="M291.28,177.666c-9.389,15.332-22.475,18.635-31.799,18.704c-4.846,0.038-9.698-0.809-14.315-2.471  c1.014,4.19,2.315,6.471,3.41,7.24l1.713,1.205v11.239h-18.825V75.974l2.794,2.681c5.099,4.897,10.298,9.649,15.324,14.245  c5.061,4.628,10.298,9.415,15.469,14.383c1.38,1.323,2.765,2.627,4.233,4.007c8.345,7.853,16.975,15.972,22.545,26.159  C299.047,150.646,298.848,165.306,291.28,177.666z"/>
<path style="fill:#FFDBA8;" d="M439.806,350.52v88.224c-19.459-0.492-120.522-7.444-120.522-7.444  c-30.138-26.12-29.304-82.096-22.513-97.808c-7.786-7.223-20.233-19.76-38.446-40.747c-6.249-7.183-10.729-14.717-13.442-22.523  c-2.582-7.414-3.556-15.079-2.913-22.945c2.25-27.496,23.678-46.001,26.12-48.02l10.418-8.64l7.977,7.906L439.806,350.52z"/>
<rect x="223.392" y="427.83" style="fill:#00ACEA;" width="239.56" height="84.17"/>
<rect x="340.792" y="427.83" style="fill:#0082D2;" width="122.16" height="84.17"/>
<g>
</g>
<g>
</g>
<g>
</g>
<g>
</g>
<g>
</g>
<g>
</g>
<g>
</g>
<g>
</g>
<g>
</g>
<g>
</g>
<g>
</g>
<g>
</g>
<g>
</g>
<g>
</g>
<g>
</g>
</svg>
