<svg height="512" viewBox="0 0 58 58" width="512" xmlns="http://www.w3.org/2000/svg"><g id="016---Royal-Cloak" fill="none"><path id="Shape" d="m53.95 18.96c-.338 0-3.495-15.96-13.95-15.96l-5-3h-12l-5 3c-10.473 0-13.6 15.96-13.95 15.96-4.05 13.63-4.05 31.04-4.05 31.04v6c.0032948 1.1032019.89679813 1.9967052 2 2h23c2.209139 0 4-1.790861 4-4 0 2.209139 1.790861 4 4 4h23c1.1032019-.0032948 1.9967052-.8967981 2-2v-6s0-17.41-4.05-31.04z" fill="#c03a2b"/><path id="Shape" d="m21 11.54v2.47s-3.63 4.53-16.94 4.95c2.61-8.76 6.9-15.96 13.94-15.96l1.73 7.81c.0626009.2707386.2350335.5032206.4759514.641701.240918.1384804.528594.1704702.7940486.088299z" fill="#f3d55b"/><path id="Shape" d="m53.94 18.96c-13.31-.42-16.94-4.96-16.94-4.96v-2.46c.2654546.0821712.5531306.0501814.7940486-.088299.2409179-.1384804.4133505-.3709624.4759514-.641701l1.73-7.81c7.04 0 11.33 7.2 13.94 15.96z" fill="#f0c419"/><path id="Shape" d="m29 8c-8.5 3.775-7.893 3.513-8 3.54-.2654546.0821712-.5531306.0501814-.7940486-.088299-.2409179-.1384804-.4133505-.3709624-.4759514-.641701l-1.73-7.81 5-3z" fill="#fff"/><path id="Shape" d="m35 0-6 8-6-8z" fill="#7f8c8d"/><path id="Shape" d="m29 8v46c0 2.209139-1.790861 4-4 4h-23c-1.10320187-.0032948-1.9967052-.8967981-2-2v-6h19c1.1032019-.0032948 1.9967052-.8967981 2-2v-36.46c.106-.027-.464.219 8-3.54z" fill="#ecf0f1"/><circle id="Oval" cx="5" cy="54" fill="#464f5d" r="1"/><circle id="Oval" cx="9" cy="54" fill="#464f5d" r="1"/><circle id="Oval" cx="13" cy="54" fill="#464f5d" r="1"/><circle id="Oval" cx="17" cy="54" fill="#464f5d" r="1"/><circle id="Oval" cx="21" cy="54" fill="#464f5d" r="1"/><circle id="Oval" cx="25" cy="54" fill="#464f5d" r="1"/><circle id="Oval" cx="25" cy="50" fill="#464f5d" r="1"/><circle id="Oval" cx="25" cy="46" fill="#464f5d" r="1"/><circle id="Oval" cx="25" cy="42" fill="#464f5d" r="1"/><circle id="Oval" cx="25" cy="38" fill="#464f5d" r="1"/><circle id="Oval" cx="25" cy="34" fill="#464f5d" r="1"/><circle id="Oval" cx="25" cy="30" fill="#464f5d" r="1"/><circle id="Oval" cx="25" cy="26" fill="#464f5d" r="1"/><circle id="Oval" cx="25" cy="22" fill="#464f5d" r="1"/><circle id="Oval" cx="25" cy="18" fill="#464f5d" r="1"/><path id="Shape" d="m40 3-1.73 7.81c-.0626009.2707386-.2350335.5032206-.4759514.641701-.240918.1384804-.528594.1704702-.7940486.088299-.106-.027.464.219-8-3.54l6-8z" fill="#ecf0f1"/><path id="Shape" d="m58 50v6c-.0032948 1.1032019-.8967981 1.9967052-2 2h-23c-2.209139 0-4-1.790861-4-4v-46l7.88 3.5c.178.089.12-2.719.12 36.5.0032948 1.1032019.8967981 1.9967052 2 2z" fill="#bdc3c7"/><g fill="#464f5d"><circle id="Oval" cx="53" cy="54" r="1"/><circle id="Oval" cx="49" cy="54" r="1"/><circle id="Oval" cx="45" cy="54" r="1"/><circle id="Oval" cx="41" cy="54" r="1"/><circle id="Oval" cx="37" cy="54" r="1"/><circle id="Oval" cx="33" cy="54" r="1"/><circle id="Oval" cx="33" cy="50" r="1"/><circle id="Oval" cx="33" cy="46" r="1"/><circle id="Oval" cx="33" cy="42" r="1"/><circle id="Oval" cx="33" cy="38" r="1"/><circle id="Oval" cx="33" cy="34" r="1"/><circle id="Oval" cx="33" cy="30" r="1"/><circle id="Oval" cx="33" cy="26" r="1"/><circle id="Oval" cx="33" cy="22" r="1"/><circle id="Oval" cx="43" cy="9" r="1"/><circle id="Oval" cx="43" cy="13" r="1"/><circle id="Oval" cx="47" cy="13" r="1"/><circle id="Oval" cx="15" cy="9" r="1"/><circle id="Oval" cx="15" cy="13" r="1"/><circle id="Oval" cx="11" cy="13" r="1"/><circle id="Oval" cx="33" cy="18" r="1"/></g></g></svg>