<?xml version="1.0" encoding="iso-8859-1"?>
<!-- Generator: Adobe Illustrator 19.0.0, SVG Export Plug-In . SVG Version: 6.00 Build 0)  -->
<svg xmlns="http://www.w3.org/2000/svg" xmlns:xlink="http://www.w3.org/1999/xlink" version="1.1" id="Layer_1" x="0px" y="0px" viewBox="0 0 512 512" style="enable-background:new 0 0 512 512;" xml:space="preserve">
<path style="fill:#7FC8F0;" d="M512,142.125v227.74c0,24.35-19.81,44.16-44.16,44.16H44.16c-24.35,0-44.16-19.81-44.16-44.16  v-227.74c0-24.34,19.81-44.15,44.16-44.15h423.68C492.19,97.975,512,117.785,512,142.125z"/>
<path style="fill:#49BBED;" d="M512,142.125v227.74c0,24.35-19.81,44.16-44.16,44.16H256V97.975h211.84  C492.19,97.975,512,117.785,512,142.125z"/>
<rect x="363" y="327.29" style="fill:#FF8900;" width="90" height="30"/>
<rect y="186.28" style="fill:#E1E1E4;" width="512" height="75.59"/>
<rect x="256" y="186.28" style="fill:#D9D8DB;" width="256" height="75.59"/>
<g>
</g>
<g>
</g>
<g>
</g>
<g>
</g>
<g>
</g>
<g>
</g>
<g>
</g>
<g>
</g>
<g>
</g>
<g>
</g>
<g>
</g>
<g>
</g>
<g>
</g>
<g>
</g>
<g>
</g>
</svg>
