<?xml version="1.0" encoding="iso-8859-1"?>
<!-- Generator: Adobe Illustrator 19.0.0, SVG Export Plug-In . SVG Version: 6.00 Build 0)  -->
<svg xmlns="http://www.w3.org/2000/svg" xmlns:xlink="http://www.w3.org/1999/xlink" version="1.1" id="Layer_1" x="0px" y="0px" viewBox="0 0 512 512" style="enable-background:new 0 0 512 512;" xml:space="preserve">
<g>
	<g>
		<rect x="127.27" y="154.749" width="38.08" height="73.77"/>
	</g>
</g>
<g>
	<g>
		<rect y="329.889" width="428.79" height="84.89"/>
	</g>
</g>
<g>
	<g>
		<rect x="60.37" y="444.779" width="308.05" height="41.992"/>
	</g>
</g>
<g>
	<g>
		<rect x="195.35" y="154.749" width="38.09" height="73.77"/>
	</g>
</g>
<g>
	<g>
		<rect x="263.44" y="154.749" width="38.09" height="73.77"/>
	</g>
</g>
<g>
	<g>
		<path d="M471.729,37.578c-22.205,0-40.27,17.68-40.27,39.411c0,16.543,10.475,30.729,25.27,36.564v89.985h-14.135v-40.98h-52.4    V25.229H38.599v274.658h351.596v-25.371h52.4v-40.979h44.135V113.552c14.795-5.834,25.27-20.02,25.27-36.563    C512,55.258,493.935,37.578,471.729,37.578z M95.539,66.264H331.16v30H95.539V66.264z M331.524,258.517L331.524,258.517H97.27    V124.749h234.254V258.517z"/>
	</g>
</g>
<g>
</g>
<g>
</g>
<g>
</g>
<g>
</g>
<g>
</g>
<g>
</g>
<g>
</g>
<g>
</g>
<g>
</g>
<g>
</g>
<g>
</g>
<g>
</g>
<g>
</g>
<g>
</g>
<g>
</g>
</svg>
