<?xml version="1.0" encoding="iso-8859-1"?>
<!-- Generator: Adobe Illustrator 19.0.0, SVG Export Plug-In . SVG Version: 6.00 Build 0)  -->
<svg xmlns="http://www.w3.org/2000/svg" xmlns:xlink="http://www.w3.org/1999/xlink" version="1.1" id="Layer_1" x="0px" y="0px" viewBox="0 0 512 512" style="enable-background:new 0 0 512 512;" xml:space="preserve">
<polygon style="fill:#3C3A41;" points="486.434,234.667 427.336,234.667 427.336,204.685 456.453,204.685 456.453,92.328   486.434,92.328 "/>
<rect x="359.972" y="163.731" style="fill:#C8C6CD;" width="82.35" height="111.892"/>
<rect x="359.972" y="219.677" style="fill:#AEADB3;" width="82.35" height="55.945"/>
<ellipse style="fill:#E70020;" cx="471.445" cy="63.432" rx="40.555" ry="39.176"/>
<rect x="38.577" y="26.484" style="fill:#3C3A41;" width="351.377" height="304.476"/>
<rect x="214.27" y="26.484" style="fill:#17171A;" width="175.684" height="304.476"/>
<rect x="60.333" y="400.767" style="fill:#3C3A41;" width="307.864" height="86.977"/>
<g>
	<rect x="95.482" y="83.489" style="fill:#FFA91D;" width="235.477" height="29.982"/>
	<rect x="110.933" y="158.174" style="fill:#FFA91D;" width="204.546" height="103.267"/>
</g>
<rect x="214.27" y="158.174" style="fill:#FF8900;" width="101.209" height="103.267"/>
<rect x="214.27" y="400.767" style="fill:#17171A;" width="153.927" height="86.977"/>
<rect x="214.27" y="83.489" style="fill:#FF8900;" width="116.689" height="29.982"/>
<path style="fill:#E70020;" d="M97.211,141.934v133.689h234.108V141.934H97.211z M165.25,245.641h-38.057v-73.725h38.057V245.641z   M233.299,245.641h-38.067v-73.725h38.067V245.641z M301.338,245.641h-38.057v-73.725h38.057L301.338,245.641L301.338,245.641z"/>
<path style="fill:#990013;" d="M214.27,141.934v29.982h19.028v73.725H214.27v29.982h117.049V141.934H214.27z M301.338,245.641  h-38.057v-73.725h38.057L301.338,245.641L301.338,245.641z"/>
<rect y="300.978" style="fill:#C8C6CD;" width="428.531" height="129.771"/>
<rect x="214.27" y="300.978" style="fill:#AEADB3;" width="214.26" height="129.771"/>
<path style="fill:#990013;" d="M512,63.432c0,21.637-18.159,39.176-40.555,39.176V24.255C493.841,24.255,512,41.795,512,63.432z"/>
<g>
</g>
<g>
</g>
<g>
</g>
<g>
</g>
<g>
</g>
<g>
</g>
<g>
</g>
<g>
</g>
<g>
</g>
<g>
</g>
<g>
</g>
<g>
</g>
<g>
</g>
<g>
</g>
<g>
</g>
</svg>
