<svg height="512" viewBox="0 0 50 59" width="512" xmlns="http://www.w3.org/2000/svg"><g id="017---Royal-Ship" fill="none" transform="translate(-1)"><path id="Shape" d="m21 11v-10c0-.55228475-.4477153-1-1-1h-7c-.5522847 0-1 .44771525-1 1v10z" fill="#e64c3c"/><path id="Rectangle-path" d="m18 4h16v7h-16z" fill="#bdc3c7"/><path id="Rectangle-path" d="m23 4h6v6h-6z" fill="#95a5a5"/><path id="Shape" d="m36 5h-20c-.5522847 0-1-.44771525-1-1s.4477153-1 1-1h20c.5522847 0 1 .44771525 1 1s-.4477153 1-1 1z" fill="#464f5d"/><path id="Shape" d="m48 28.4v-8.4c-.0032948-1.1032019-.8967981-1.9967052-2-2h-40c-1.10320187.0032948-1.9967052.8967981-2 2v8.4z" fill="#bdc3c7"/><path id="Shape" d="m50.79 31.92-1.14 2.2c-3.12-1.34-8.95-3.98-11.77-6.12-3.96-3-8.91-5-11.88-5s-7.92 2-11.88 5c-2.82 2.14-8.65 4.78-11.77 6.12l-1.14-2.2c-.24608072-.4910096-.27941224-1.0616096-.09217465-1.5779315.18723759-.5163218.57856565-.9329244 1.08217465-1.1520685 3.09-1.33 9.06-4.02 11.92-6.19 3.96-3 8.91-5 11.88-5s7.92 2 11.88 5c2.86 2.17 8.83 4.86 11.92 6.19.503609.2191441.8949371.6357467 1.0821747 1.1520685.1872375.5163219.153906 1.0869219-.0921747 1.5779315z" fill="#ecf0f1"/><path id="Shape" d="m49.65 34.12-8.2 15.88h-30.9l-8.2-15.88c3.12-1.34 8.95-3.98 11.77-6.12 3.96-3 8.91-5 11.88-5s7.92 2 11.88 5c2.82 2.14 8.65 4.78 11.77 6.12z" fill="#393f4a"/><path id="Shape" d="m41.45 50-2.41 4.66-8.04.5-5 3-5.562-3-7.478-.5-2.41-4.66z" fill="#2c2f38"/><circle id="Oval" cx="8" cy="22" fill="#464f5d" r="1"/><circle id="Oval" cx="44" cy="22" fill="#464f5d" r="1"/><path id="Shape" d="m9 10h34c1.1045695 0 2 .8954305 2 2v6h-38v-6c0-1.1045695.8954305-2 2-2z" fill="#7f8c8d"/><g fill="#464f5d"><path id="Shape" d="m12 14h4c.5522847 0 1 .4477153 1 1v3h-6v-3c0-.5522847.4477153-1 1-1z"/><path id="Shape" d="m24 14h4c.5522847 0 1 .4477153 1 1v3h-6v-3c0-.5522847.4477153-1 1-1z"/><path id="Shape" d="m36 14h4c.5522847 0 1 .4477153 1 1v3h-6v-3c0-.5522847.4477153-1 1-1z"/></g><path id="Shape" d="m35 46h-18c-1.1045695 0-2-.8954305-2-2s.8954305-2 2-2h18c1.1045695 0 2 .8954305 2 2s-.8954305 2-2 2z" fill="#e57e25"/><path id="Shape" d="m33 46h-14c-1.1045695 0-2-.8954305-2-2s.8954305-2 2-2h14c1.1045695 0 2 .8954305 2 2s-.8954305 2-2 2z" fill="#f29c1f"/><path id="Shape" d="m35 42v-10.342c-.0013893-.3838213-.2223415-.7329795-.5686165-.8985523-.3462751-.1655727-.7567631-.1183401-1.0563835.1215523l-2.675 2.13c-.3977359.3186346-.971467.2871914-1.332-.073l-2.66-2.647c-.3904999-.3903819-1.0235001-.3903819-1.414 0l-2.66 2.647c-.360533.3601914-.9342641.3916346-1.332.073l-2.676-2.13c-.299606-.2405101-.7105118-.2881067-1.0571649-.1224552-.3466531.1656516-.5677517.5152578-.5688351.8994552v10.342z" fill="#f3d55b"/><circle id="Oval" cx="21" cy="38" fill="#4fba6f" r="1"/><circle id="Oval" cx="31" cy="38" fill="#4fba6f" r="1"/><circle id="Oval" cx="26" cy="38" fill="#ff5364" r="1"/><path id="Shape" d="m46 59c-5.374 0-5.526-4-10-4-4.448 0-4.636 4-10 4-5.38 0-5.527-4-10-4-4.45 0-4.641 4-10 4-.55228475 0-1-.4477153-1-1s.44771525-1 1-1c4.451 0 4.634-4 10-4s5.527 4 10 4c4.448 0 4.636-4 10-4 5.285 0 5.617 4 10 4 .5522847 0 1 .4477153 1 1s-.4477153 1-1 1z" fill="#2fa8cc"/></g></svg>