<svg height="512" viewBox="0 0 50 59" width="512" xmlns="http://www.w3.org/2000/svg"><g id="018---Royal-History" fill="none"><path id="Shape" d="m7 0-.5 50h-1c-2.21 0-5.5 1.79-5.5 4v-50c0-2.209139 1.790861-4 4-4z" fill="#fb7b76"/><path id="Shape" d="m50 1v47c0 .5522847-.4477153 1-1 1h-44v-49h44c.5522847 0 1 .44771525 1 1z" fill="#e64c3c"/><path id="Shape" d="m29 23c.8405796-.6952889 1.9103629-1.0518834 3-1 1.0896371-.0518834 2.1594204.3047111 3 1 1.7777778-1.3333333 4.2222222-1.3333333 6 0v7.25h-28v-7.25c.8405796-.6952889 1.9103629-1.0518834 3-1 1.0896371-.0518834 2.1594204.3047111 3 1 .8405796-.6952889 1.9103629-1.0518834 3-1 1.0896371-.0518834 2.1594204.3047111 3 1z" fill="#802d40"/><path id="Shape" d="m27 14c-.5522847 0-1-.4477153-1-1v-8c0-.55228475.4477153-1 1-1s1 .44771525 1 1v8c0 .5522847-.4477153 1-1 1z" fill="#bdc3c7"/><path id="Shape" d="m29 8h-4c-.5522847 0-1-.44771525-1-1s.4477153-1 1-1h4c.5522847 0 1 .44771525 1 1s-.4477153 1-1 1z" fill="#bdc3c7"/><path id="Shape" d="m38 41h-22c-.5522847 0-1-.4477153-1-1s.4477153-1 1-1h22c.5522847 0 1 .4477153 1 1s-.4477153 1-1 1z" fill="#fff"/><path id="Shape" d="m33 45h-12c-.5522847 0-1-.4477153-1-1s.4477153-1 1-1h12c.5522847 0 1 .4477153 1 1s-.4477153 1-1 1z" fill="#fff"/><path id="Shape" d="m48 49v2h-43c-1.65685425 0-3 1.3431458-3 3s1.34314575 3 3 3h43c-.0032948 1.1032019-.8967981 1.9967052-2 2h-41c-2.60124327-.0016449-4.76669853-1.9975163-4.98-4.59-.08192138-1.4234384.43376775-2.8165083 1.42279426-3.8435013s2.36169218-1.5947675 3.78720574-1.5664987z" fill="#c03a2b"/><path id="Shape" d="m48 51v6h-43c-1.65685425 0-3-1.3431458-3-3s1.34314575-3 3-3z" fill="#f5efca"/><path id="Shape" d="m48 53v2h-42c-.55228475 0-1-.4477153-1-1s.44771525-1 1-1z" fill="#e4c05c"/><g fill="#f0c419"><path id="Shape" d="m19 31c-.5522847 0-1-.4477153-1-1v-11c.0033061-2.7600532 2.2399468-4.9966939 5-5h2c.5522847 0 1 .4477153 1 1s-.4477153 1-1 1h-2c-1.6568542 0-3 1.3431458-3 3v11c0 .5522847-.4477153 1-1 1z"/><path id="Shape" d="m13 31c-.5522847 0-1-.4477153-1-1v-9c.0033061-2.7600532 2.2399468-4.9966939 5-5h2.54c.5522847 0 1 .4477153 1 1s-.4477153 1-1 1h-2.54c-1.6568542 0-3 1.3431458-3 3v9c0 .5522847-.4477153 1-1 1z"/><path id="Shape" d="m35 31c-.5522847 0-1-.4477153-1-1v-11c0-1.6568542-1.3431458-3-3-3h-2c-.5522847 0-1-.4477153-1-1s.4477153-1 1-1h2c2.7600532.0033061 4.9966939 2.2399468 5 5v11c0 .5522847-.4477153 1-1 1z"/><path id="Shape" d="m41 31c-.5522847 0-1-.4477153-1-1v-9c0-1.6568542-1.3431458-3-3-3h-2.54c-.5522847 0-1-.4477153-1-1s.4477153-1 1-1h2.54c2.7600532.0033061 4.9966939 2.2399468 5 5v9c0 .5522847-.4477153 1-1 1z"/></g><path id="Shape" d="m26 13h2c.5522847 0 1 .4477153 1 1v17.5h-4v-17.5c0-.5522847.4477153-1 1-1z" fill="#f3d55b"/><rect id="Rectangle-path" fill="#e57e25" height="6" rx="2" width="34" x="10" y="30"/><rect id="Rectangle-path" fill="#f29c1f" height="6" rx="2" width="30" x="12" y="30"/><circle id="Oval" cx="27" cy="33" fill="#ff5364" r="3"/><circle id="Oval" cx="37" cy="33" fill="#4fba6f" r="3"/><circle id="Oval" cx="17" cy="33" fill="#4fba6f" r="3"/><circle id="Oval" cx="17.5" cy="32.5" fill="#fff" r="1.5"/><circle id="Oval" cx="27.5" cy="32.5" fill="#fff" r="1.5"/><circle id="Oval" cx="37.5" cy="32.5" fill="#fff" r="1.5"/></g></svg>