<?xml version="1.0" encoding="iso-8859-1"?>
<!-- Generator: Adobe Illustrator 19.0.0, SVG Export Plug-In . SVG Version: 6.00 Build 0)  -->
<svg xmlns="http://www.w3.org/2000/svg" xmlns:xlink="http://www.w3.org/1999/xlink" version="1.1" id="Layer_1" x="0px" y="0px" viewBox="0 0 512 512" style="enable-background:new 0 0 512 512;" xml:space="preserve">
<g>
	<g>
		<path d="M360.387,230.058c-2.242-2.428-4.673-3.643-7.286-3.643h-20.314v27.179h21.015c2.708,0,5.044-1.283,7.005-3.853    c1.962-2.567,2.942-5.86,2.942-9.876C363.749,235.756,362.628,232.488,360.387,230.058z"/>
	</g>
</g>
<g>
	<g>
		<path d="M174.829,228.517c-1.729-1.773-3.807-2.662-6.234-2.662h-23.396v20.594h22.556c2.521,0,4.763-0.841,6.724-2.522    c1.961-1.681,2.942-4.295,2.942-7.845C177.421,232.814,176.556,230.292,174.829,228.517z"/>
	</g>
</g>
<g>
	<g>
		<polygon points="253.352,232.439 241.444,267.603 264.98,267.603   "/>
	</g>
</g>
<g>
	<g>
		<path d="M178.402,267.744c-1.776-2.148-4.017-3.222-6.725-3.222h-26.478v21.715h25.498c2.988,0,5.464-0.98,7.425-2.942    c1.961-1.961,2.942-4.529,2.942-7.705C181.064,272.507,180.175,269.894,178.402,267.744z"/>
	</g>
</g>
<g>
	<g>
		<path d="M80.569,182.585v146.83h350.862v-146.83H80.569z M201.798,291.42c-1.775,3.176-4.203,5.814-7.285,7.915    c-3.082,2.102-6.679,3.691-10.788,4.763c-4.111,1.075-8.454,1.611-13.029,1.611h-48.474V206.24h55.338    c3.454,0,6.584,0.749,9.387,2.242c2.802,1.495,5.183,3.432,7.144,5.814s3.479,5.092,4.553,8.125    c1.073,3.036,1.611,6.143,1.611,9.316c0,4.763-1.191,9.247-3.573,13.449c-2.381,4.203-5.954,7.379-10.717,9.527    c5.696,1.681,10.203,4.671,13.52,8.966c3.314,4.297,4.973,9.807,4.973,16.531C204.459,284.509,203.571,288.246,201.798,291.42z     M276.469,305.71l-7.706-22.275h-30.961l-7.565,22.275H206.7l36.285-99.469h20.734l36.285,99.469H276.469z M366.83,305.71    L366.83,305.71l-19.053-32.082h-14.991v32.082H309.81v-99.469h44.831c4.669,0,8.988,0.981,12.959,2.942    c3.969,1.961,7.401,4.531,10.297,7.706c2.895,3.176,5.16,6.773,6.795,10.788c1.633,4.017,2.452,8.08,2.452,12.188    c0,3.082-0.375,6.048-1.121,8.896c-0.749,2.85-1.821,5.534-3.223,8.056c-1.4,2.521-3.105,4.787-5.113,6.794    c-2.01,2.01-4.272,3.712-6.795,5.114l21.855,36.985H366.83z"/>
	</g>
</g>
<g>
	<g>
		<path d="M0,102v308h512V102H0z M461.431,359.415H50.569v-206.83h410.862V359.415z"/>
	</g>
</g>
<g>
</g>
<g>
</g>
<g>
</g>
<g>
</g>
<g>
</g>
<g>
</g>
<g>
</g>
<g>
</g>
<g>
</g>
<g>
</g>
<g>
</g>
<g>
</g>
<g>
</g>
<g>
</g>
<g>
</g>
</svg>
