<?xml version="1.0" encoding="iso-8859-1"?>
<!-- Generator: Adobe Illustrator 19.0.0, SVG Export Plug-In . SVG Version: 6.00 Build 0)  -->
<svg xmlns="http://www.w3.org/2000/svg" xmlns:xlink="http://www.w3.org/1999/xlink" version="1.1" id="Layer_1" x="0px" y="0px" viewBox="0 0 512 512" style="enable-background:new 0 0 512 512;" xml:space="preserve">
<rect y="102" style="fill:#E70020;" width="512" height="308"/>
<rect x="52.33" y="161.44" style="fill:#3C3A41;" width="407.34" height="189.12"/>
<g>
	<path style="fill:#FFA91D;" d="M198,263.68c-3.32-4.29-7.82-7.28-13.52-8.97c4.76-2.14,8.34-5.32,10.72-9.52s3.57-8.69,3.57-13.45   c0-3.18-0.54-6.28-1.61-9.32c-1.07-3.03-2.59-5.74-4.55-8.12c-1.96-2.38-4.35-4.32-7.15-5.82c-2.8-1.49-5.93-2.24-9.38-2.24h-55.34   v99.47h48.47c4.58,0,8.92-0.54,13.03-1.61s7.71-2.66,10.79-4.76c3.08-2.11,5.51-4.74,7.28-7.92c1.78-3.17,2.66-6.91,2.66-11.21   C202.97,273.49,201.31,267.98,198,263.68z M143.71,225.85h23.4c2.43,0,4.5,0.89,6.23,2.67c1.73,1.77,2.6,4.29,2.6,7.56   c0,3.55-0.98,6.17-2.95,7.85c-1.96,1.68-4.2,2.52-6.72,2.52h-22.56V225.85z M176.64,283.29c-1.97,1.97-4.44,2.95-7.43,2.95h-25.5   v-21.72h26.48c2.71,0,4.95,1.08,6.73,3.22c1.77,2.15,2.66,4.77,2.66,7.85C179.58,278.77,178.6,281.33,176.64,283.29z"/>
	<path style="fill:#FFA91D;" d="M262.23,206.24H241.5l-36.29,99.47h23.54l7.57-22.28h30.96l7.7,22.28h23.54L262.23,206.24z    M239.96,267.6l11.91-35.16l4.13,12.49l7.5,22.67H239.96z"/>
	<path style="fill:#FFA91D;" d="M369.41,268.72c2.52-1.4,4.78-3.1,6.79-5.11c2.01-2.01,3.72-4.27,5.12-6.79   c1.4-2.53,2.47-5.21,3.22-8.06c0.74-2.85,1.12-5.81,1.12-8.9c0-4.1-0.82-8.17-2.45-12.18c-1.64-4.02-3.9-7.62-6.8-10.79   c-2.89-3.18-6.33-5.75-10.29-7.71c-3.98-1.96-8.29-2.94-12.96-2.94h-44.83v99.47h22.97v-32.08h14.99l19.05,32.08h25.92   L369.41,268.72z M359.32,249.74c-1.96,2.57-4.3,3.85-7,3.85H331.3v-27.17h20.32c2.61,0,5.04,1.21,7.28,3.64s3.36,5.7,3.36,9.8   C362.26,243.88,361.28,247.17,359.32,249.74z"/>
</g>
<rect x="256" y="102" style="fill:#990013;" width="256" height="308"/>
<rect x="256" y="161.44" style="fill:#17171A;" width="203.67" height="189.12"/>
<g>
	<polygon style="fill:#990013;" points="262.23,206.24 298.52,305.71 274.98,305.71 267.28,283.43 256,283.43 256,267.6    263.5,267.6 256,244.93 256,206.24  "/>
	<path style="fill:#990013;" d="M369.41,268.72c2.52-1.4,4.78-3.1,6.79-5.11c2.01-2.01,3.72-4.27,5.12-6.79   c1.4-2.53,2.47-5.21,3.22-8.06c0.74-2.85,1.12-5.81,1.12-8.9c0-4.1-0.82-8.17-2.45-12.18c-1.64-4.02-3.9-7.62-6.8-10.79   c-2.89-3.18-6.33-5.75-10.29-7.71c-3.98-1.96-8.29-2.94-12.96-2.94h-44.83v99.47h22.97v-32.08h14.99l19.05,32.08h25.92   L369.41,268.72z M359.32,249.74c-1.96,2.57-4.3,3.85-7,3.85H331.3v-27.17h20.32c2.61,0,5.04,1.21,7.28,3.64s3.36,5.7,3.36,9.8   C362.26,243.88,361.28,247.17,359.32,249.74z"/>
</g>
<g>
	<polygon style="fill:#FF8900;" points="298.52,305.71 274.98,305.71 267.28,283.43 256,283.43 256,267.6 263.5,267.6 256,244.93    256,206.24 262.23,206.24  "/>
	<path style="fill:#FF8900;" d="M369.41,268.72c2.52-1.4,4.78-3.1,6.79-5.11c2.01-2.01,3.72-4.27,5.12-6.79   c1.4-2.53,2.47-5.21,3.22-8.06c0.74-2.85,1.12-5.81,1.12-8.9c0-4.1-0.82-8.17-2.45-12.18c-1.64-4.02-3.9-7.62-6.8-10.79   c-2.89-3.18-6.33-5.75-10.29-7.71c-3.98-1.96-8.29-2.94-12.96-2.94h-44.83v99.47h22.97v-32.08h14.99l19.05,32.08h25.92   L369.41,268.72z M359.32,249.74c-1.96,2.57-4.3,3.85-7,3.85H331.3v-27.17h20.32c2.61,0,5.04,1.21,7.28,3.64s3.36,5.7,3.36,9.8   C362.26,243.88,361.28,247.17,359.32,249.74z"/>
</g>
<g>
</g>
<g>
</g>
<g>
</g>
<g>
</g>
<g>
</g>
<g>
</g>
<g>
</g>
<g>
</g>
<g>
</g>
<g>
</g>
<g>
</g>
<g>
</g>
<g>
</g>
<g>
</g>
<g>
</g>
</svg>
