<?xml version="1.0" encoding="iso-8859-1"?>
<!-- Generator: Adobe Illustrator 19.0.0, SVG Export Plug-In . SVG Version: 6.00 Build 0)  -->
<svg xmlns="http://www.w3.org/2000/svg" xmlns:xlink="http://www.w3.org/1999/xlink" version="1.1" id="Layer_1" x="0px" y="0px" viewBox="0 0 512 512" style="enable-background:new 0 0 512 512;" xml:space="preserve">
<g>
	<rect y="67.225" style="fill:#008C48;" width="512" height="269.98"/>
	<rect y="361.705" style="fill:#008C48;" width="512" height="30"/>
	<rect y="414.775" style="fill:#008C48;" width="512" height="30"/>
</g>
<g>
	<rect x="256.85" y="67.225" style="fill:#00743A;" width="255.15" height="269.98"/>
	<rect x="256.85" y="361.705" style="fill:#00743A;" width="255.15" height="30"/>
	<rect x="256.85" y="414.775" style="fill:#00743A;" width="255.15" height="30"/>
</g>
<g>
	<path style="fill:#FFA91D;" d="M102.6,67.23c0,56.66-45.93,102.6-102.6,102.6V67.23H102.6z"/>
	<path style="fill:#FFA91D;" d="M102.6,337.21c0-56.66-45.93-102.6-102.6-102.6v102.6H102.6z"/>
</g>
<g>
	<path style="fill:#FF8900;" d="M409.4,67.23c0,56.66,45.93,102.6,102.6,102.6V67.23H409.4z"/>
	<path style="fill:#FF8900;" d="M409.4,337.21c0-56.66,45.93-102.6,102.6-102.6v102.6H409.4z"/>
</g>
<path style="fill:#FFA91D;" d="M297.84,213.5c-1.62-3.67-3.93-6.79-6.92-9.36c-2.99-2.57-6.63-4.72-10.93-6.45s-9.12-3.33-14.47-4.8  l-5.04-1.26v-21.39c2.94,0.42,5.85,1.13,8.73,2.12c2.89,1,5.51,2.05,7.87,3.15c2.36,1.1,4.3,2.12,5.82,3.07  c1.52,0.94,2.44,1.62,2.75,2.04l11.33-21.39c-4.41-2.52-9.6-4.98-15.57-7.4c-5.98-2.41-12.38-3.93-19.2-4.56v-15.89h-10.85v15.89  c-5.03,0.53-9.73,1.65-14.08,3.39c-4.35,1.73-8.13,4.11-11.33,7.15c-3.2,3.05-5.74,6.69-7.63,10.94c-1.88,4.24-2.83,9.1-2.83,14.55  c0,4.19,0.61,7.86,1.81,11.01c1.21,3.15,3.04,5.92,5.51,8.34c2.46,2.41,5.58,4.53,9.36,6.37c3.77,1.83,8.23,3.54,13.37,5.11  l7.55,2.2v20.92c-3.78-0.52-7.45-1.38-11.01-2.59c-3.57-1.21-6.77-2.46-9.6-3.78c-2.83-1.31-5.16-2.57-7-3.77  c-1.83-1.21-2.96-2.07-3.38-2.6l-11.33,22.5c5.67,3.77,12.04,6.82,19.12,9.12c7.08,2.31,14.23,3.78,21.47,4.41v18.4h10.85v-18.25  c5.04-0.21,9.84-0.99,14.4-2.36c4.56-1.36,8.6-3.38,12.11-6.05c3.51-2.68,6.32-6.11,8.42-10.31c2.09-4.19,3.14-9.28,3.14-15.26  C300.28,221.58,299.47,217.17,297.84,213.5z M253.09,189.43c-3.67-1.15-6.42-2.49-8.26-4.01c-1.83-1.52-2.75-3.59-2.75-6.21  c0-5.46,3.67-8.5,11.01-9.13V189.43z M260.48,237.57v-18.88c3.67,1.26,6.61,2.65,8.81,4.17c2.21,1.52,3.31,3.65,3.31,6.37  C272.6,234.48,268.56,237.25,260.48,237.57z"/>
<path style="fill:#FF8900;" d="M297.84,213.5c-1.62-3.67-3.93-6.79-6.92-9.36c-2.99-2.57-6.63-4.72-10.93-6.45s-9.12-3.33-14.47-4.8  l-5.04-1.26v-21.39c2.94,0.42,5.85,1.13,8.73,2.12c2.89,1,5.51,2.05,7.87,3.15c2.36,1.1,4.3,2.12,5.82,3.07  c1.52,0.94,2.44,1.62,2.75,2.04l11.33-21.39c-4.41-2.52-9.6-4.98-15.57-7.4c-5.98-2.41-12.38-3.93-19.2-4.56v-15.89h-5.36v147.56  h5.36v-18.25c5.04-0.21,9.84-0.99,14.4-2.36c4.56-1.36,8.6-3.38,12.11-6.05c3.51-2.68,6.32-6.11,8.42-10.31  c2.09-4.19,3.14-9.28,3.14-15.26C300.28,221.58,299.47,217.17,297.84,213.5z M260.48,237.57v-18.88c3.67,1.26,6.61,2.65,8.81,4.17  c2.21,1.52,3.31,3.65,3.31,6.37C272.6,234.48,268.56,237.25,260.48,237.57z"/>
<g>
</g>
<g>
</g>
<g>
</g>
<g>
</g>
<g>
</g>
<g>
</g>
<g>
</g>
<g>
</g>
<g>
</g>
<g>
</g>
<g>
</g>
<g>
</g>
<g>
</g>
<g>
</g>
<g>
</g>
</svg>
