<?xml version="1.0" encoding="iso-8859-1"?>
<!-- Generator: Adobe Illustrator 19.0.0, SVG Export Plug-In . SVG Version: 6.00 Build 0)  -->
<svg xmlns="http://www.w3.org/2000/svg" xmlns:xlink="http://www.w3.org/1999/xlink" version="1.1" id="Layer_1" x="0px" y="0px" viewBox="0 0 512 512" style="enable-background:new 0 0 512 512;" xml:space="preserve">
<g>
	<g>
		<rect y="361.708" width="512" height="30"/>
	</g>
</g>
<g>
	<g>
		<rect y="414.778" width="512" height="30"/>
	</g>
</g>
<g>
	<g>
		<path d="M242.079,178.203c0,2.622,0.917,4.695,2.753,6.213c1.834,1.521,4.587,2.859,8.259,4.012v-19.349    C245.748,169.708,242.079,172.75,242.079,178.203z"/>
	</g>
</g>
<g>
	<g>
		<path d="M269.293,221.856c-2.202-1.519-5.14-2.91-8.809-4.168v18.877c8.074-0.314,12.113-3.092,12.113-8.337    C272.597,225.501,271.496,223.377,269.293,221.856z"/>
	</g>
</g>
<g>
	<g>
		<path d="M430.233,67.222c0.314,44.962,36.81,81.472,81.767,81.809V67.222H430.233z"/>
	</g>
</g>
<g>
	<g>
		<path d="M0,255.354v81.856h81.836C81.547,292.204,45.003,255.654,0,255.354z"/>
	</g>
</g>
<g>
	<g>
		<path d="M0,67.222v81.831c44.995-0.3,81.533-36.836,81.836-81.831H0z"/>
	</g>
</g>
<g>
	<g>
		<path d="M430.232,337.21H512v-81.874C467.022,255.673,430.51,292.218,430.232,337.21z"/>
	</g>
</g>
<g>
	<g>
		<path d="M400.226,67.222H111.843C111.54,128.76,61.538,178.76,0,179.06v46.287c61.547,0.3,111.554,50.313,111.843,111.863h288.382    c0.278-61.535,50.253-111.545,111.775-111.882v-46.289C450.5,178.702,400.539,128.727,400.226,67.222z M297.137,240.969    c-2.099,4.196-4.903,7.629-8.416,10.304c-3.515,2.674-7.551,4.695-12.113,6.057c-4.562,1.361-9.36,2.148-14.394,2.359v18.248    H251.36v-18.405c-7.236-0.629-14.394-2.097-21.473-4.405c-7.079-2.306-13.45-5.349-19.113-9.124l11.326-22.495    c0.418,0.526,1.546,1.391,3.382,2.596c1.833,1.206,4.169,2.465,7,3.775c2.832,1.313,6.029,2.571,9.596,3.775    c3.564,1.207,7.236,2.072,11.012,2.596v-20.922l-7.551-2.202c-5.14-1.573-9.596-3.277-13.371-5.113    c-3.775-1.833-6.897-3.958-9.36-6.371c-2.465-2.411-4.302-5.191-5.506-8.337c-1.207-3.146-1.809-6.816-1.809-11.012    c0-5.452,0.944-10.304,2.831-14.551c1.888-4.247,4.429-7.89,7.629-10.933c3.198-3.04,6.973-5.427,11.326-7.157    c4.351-1.73,9.045-2.856,14.08-3.382v-15.888h10.854v15.888c6.816,0.629,13.214,2.151,19.192,4.562    c5.978,2.414,11.169,4.876,15.574,7.394l-11.326,21.394c-0.314-0.418-1.234-1.101-2.753-2.045    c-1.522-0.944-3.461-1.966-5.82-3.067c-2.36-1.101-4.982-2.148-7.866-3.146c-2.886-0.995-5.796-1.703-8.73-2.124v21.394    l5.034,1.259c5.349,1.47,10.171,3.067,14.473,4.798c4.299,1.73,7.944,3.881,10.933,6.45c2.989,2.571,5.294,5.69,6.921,9.36    c1.625,3.672,2.439,8.077,2.439,13.214C300.283,231.688,299.233,236.776,297.137,240.969z"/>
	</g>
</g>
<g>
</g>
<g>
</g>
<g>
</g>
<g>
</g>
<g>
</g>
<g>
</g>
<g>
</g>
<g>
</g>
<g>
</g>
<g>
</g>
<g>
</g>
<g>
</g>
<g>
</g>
<g>
</g>
<g>
</g>
</svg>
