<svg height="512" viewBox="0 0 58 58" width="512" xmlns="http://www.w3.org/2000/svg"><g id="019---Trumpet" fill="none"><path id="Rectangle-path" d="m14 10h24v4h-24z" fill="#e4c05c"/><path id="Shape" d="m52 3 2 9-2 9c-1.5-4.5-6.133-7-10.99-7h-6.01v-4h6.01c4.867 0 9.49-2.5 10.99-7z" fill="#b19046"/><path id="Shape" d="m17 10v4h-10.15c-.41853131-.013787-.7998489.2390867-.95.63-.27687903.8147452-1.03951001 1.3646423-1.9 1.37h-3c-.55228475 0-1-.4477153-1-1v-6c0-.55228475.44771525-1 1-1h3c.86048999.00535773 1.62312097.55525481 1.9 1.37.1501511.39091327.53146869.643787.95.63z" fill="#b19046"/><path id="Shape" d="m37.354 57.761-10.708-9.061c-.3728657-.3155501-.9191343-.3155501-1.292 0l-10.708 9.06c-.2967758.2511602-.7122236.3075419-1.0652036.1445621s-.5795007-.5157747-.5807964-.9045621v-35h26v35c-.0009083.3889682-.2272832.7421177-.5803447.9053497s-.7687414.1069255-1.0656553-.1443497z" fill="#f0c419"/><path id="Shape" d="m35 22v27.5c-.0000341.1914155-.1093473.3660125-.2815223.4496526-.172175.08364-.376991.0616422-.5274777-.0566526l-6.908-5.427c-.7426148-.6210052-1.8233852-.6210052-2.566 0l-6.908 5.427c-.1504867.1182948-.3553027.1402926-.5274777.0566526-.172175-.0836401-.2814882-.2582371-.2815223-.4496526v-27.5" fill="#e64c3c"/><path id="Shape" d="m39 24h-26c-2.7614237 0-5-2.2385763-5-5s2.2385763-5 5-5h26c2.7614237 0 5 2.2385763 5 5s-2.2385763 5-5 5zm-26-8c-1.6568542 0-3 1.3431458-3 3s1.3431458 3 3 3h26c1.6568542 0 3-1.3431458 3-3s-1.3431458-3-3-3z" fill="#a5a5a4"/><path id="Shape" d="m26 28c-.5522847 0-1-.4477153-1-1v-17c0-.55228475.4477153-1 1-1s1 .44771525 1 1v17c0 .5522847-.4477153 1-1 1z" fill="#f9eab0"/><g fill="#e4c05c"><path id="Shape" d="m28 33h-4c-.2934515-.0007218-.5717753-.1303026-.761225-.3544077-.1894497-.2241052-.2709021-.5201133-.222775-.8095923l.665-4c.0799139-.480712.4946956-.8338256.982-.836h2.674c.4880614.001201.9039592.3545451.984.836l.665 4c.0481834.2898233-.0335228.5861721-.2234223.8103537-.1898995.2241815-.4687764.3535111-.7625777.3536463z"/><path id="Shape" d="m58 3v17.84c.0280284 1.6349375-1.2113558 3.0139707-2.84 3.16-.822991.0439562-1.6278202-.2526007-2.2255275-.8200443-.5977073-.5674437-.9356455-1.3557925-.9344725-2.1799557v-18c0-1.65685425 1.3431458-3 3-3s3 1.34314575 3 3z"/></g></g></svg>