<?xml version="1.0" encoding="iso-8859-1"?>
<!-- Generator: Adobe Illustrator 19.0.0, SVG Export Plug-In . SVG Version: 6.00 Build 0)  -->
<svg xmlns="http://www.w3.org/2000/svg" xmlns:xlink="http://www.w3.org/1999/xlink" version="1.1" id="Layer_1" x="0px" y="0px" viewBox="0 0 512 512" style="enable-background:new 0 0 512 512;" xml:space="preserve">
<g>
	<path style="fill:#FFA91D;" d="M400.67,279.24v180.11c0,29.03-23.62,52.65-52.65,52.65H163.98c-29.03,0-52.65-23.62-52.65-52.65   V279.24c0-77.88,63.36-141.24,141.24-141.24h6.86C337.31,138,400.67,201.36,400.67,279.24z"/>
	<polygon style="fill:#FFA91D;" points="340.73,0 298.15,117.56 213.85,117.56 171.27,0  "/>
</g>
<g>
	<polygon style="fill:#FF8900;" points="298.15,117.56 255.4,117.56 255.4,0 340.73,0  "/>
	<path style="fill:#FF8900;" d="M400.67,279.24v180.11c0,29.03-23.62,52.65-52.65,52.65H255.4V138h4.03   C337.31,138,400.67,201.36,400.67,279.24z"/>
</g>
<path style="fill:#008C48;" d="M310.74,332.3c-2.13-4.8-5.15-8.88-9.06-12.24s-8.67-6.18-14.3-8.44  c-5.62-2.26-11.93-4.35-18.93-6.28l-6.58-1.64v-27.99c3.83,0.55,7.64,1.48,11.42,2.78c3.77,1.3,7.2,2.67,10.29,4.11  c3.08,1.45,5.62,2.78,7.61,4.02c1.99,1.23,3.19,2.13,3.6,2.67l14.82-27.98c-5.76-3.3-12.56-6.52-20.38-9.68  c-7.81-3.15-16.18-5.14-25.1-5.96v-20.79h-14.2v20.79c-6.58,0.68-12.73,2.16-18.42,4.42s-10.63,5.39-14.81,9.36  c-4.19,3.99-7.51,8.75-9.98,14.31c-2.47,5.55-3.71,11.9-3.71,19.03c0,5.49,0.79,10.29,2.37,14.41c1.57,4.11,3.98,7.75,7.2,10.9  c3.22,3.16,7.31,5.94,12.24,8.34c4.94,2.4,10.77,4.63,17.5,6.68l9.87,2.89v27.37c-4.94-0.69-9.74-1.82-14.4-3.4  c-4.67-1.58-8.85-3.22-12.55-4.94c-3.71-1.71-6.76-3.36-9.16-4.94c-2.4-1.57-3.88-2.71-4.43-3.39l-14.81,29.42  c7.41,4.94,15.74,8.92,25,11.94s18.62,4.94,28.09,5.76v24.08h14.2v-23.87c6.58-0.28,12.86-1.31,18.83-3.09s11.25-4.42,15.84-7.92  c4.6-3.5,8.27-7.99,11.01-13.48c2.75-5.49,4.12-12.14,4.12-19.96C313.93,342.87,312.86,337.11,310.74,332.3z M252.19,300.82  c-4.8-1.51-8.4-3.26-10.8-5.25c-2.4-1.99-3.6-4.7-3.6-8.13c0-7.13,4.8-11.11,14.4-11.93L252.19,300.82L252.19,300.82z   M261.87,363.79v-24.7c4.8,1.65,8.64,3.47,11.52,5.46c2.88,1.99,4.32,4.76,4.32,8.33C277.71,359.74,272.43,363.38,261.87,363.79z"/>
<rect x="195.5" y="102.56" style="fill:#3C3A41;" width="121.01" height="50.44"/>
<rect x="255.4" y="102.56" style="fill:#17171A;" width="61.1" height="50.44"/>
<path style="fill:#00743A;" d="M310.74,332.3c-2.13-4.8-5.15-8.88-9.06-12.24s-8.67-6.18-14.3-8.44  c-5.62-2.26-11.93-4.35-18.93-6.28l-6.58-1.64v-27.99c3.83,0.55,7.64,1.48,11.42,2.78c3.77,1.3,7.2,2.67,10.29,4.11  c3.08,1.45,5.62,2.78,7.61,4.02c1.99,1.23,3.19,2.13,3.6,2.67l14.82-27.98c-5.76-3.3-12.56-6.52-20.38-9.68  c-7.81-3.15-16.18-5.14-25.1-5.96v-20.79h-8.73v193.03h8.73v-23.87c6.58-0.28,12.86-1.31,18.83-3.09s11.25-4.42,15.84-7.92  c4.6-3.5,8.27-7.99,11.01-13.48c2.75-5.49,4.12-12.14,4.12-19.96C313.93,342.87,312.86,337.11,310.74,332.3z M261.87,363.79v-24.7  c4.8,1.65,8.64,3.47,11.52,5.46c2.88,1.99,4.32,4.76,4.32,8.33C277.71,359.74,272.43,363.38,261.87,363.79z"/>
<g>
</g>
<g>
</g>
<g>
</g>
<g>
</g>
<g>
</g>
<g>
</g>
<g>
</g>
<g>
</g>
<g>
</g>
<g>
</g>
<g>
</g>
<g>
</g>
<g>
</g>
<g>
</g>
<g>
</g>
</svg>
