<?xml version="1.0" encoding="iso-8859-1"?>
<!-- Generator: Adobe Illustrator 19.0.0, SVG Export Plug-In . SVG Version: 6.00 Build 0)  -->
<svg xmlns="http://www.w3.org/2000/svg" xmlns:xlink="http://www.w3.org/1999/xlink" version="1.1" id="Layer_1" x="0px" y="0px" viewBox="0 0 512 512" style="enable-background:new 0 0 512 512;" xml:space="preserve">
<g>
	<g>
		<path d="M237.79,287.44c0,3.43,1.2,6.14,3.6,8.13s6,3.74,10.8,5.25v-25.31C242.59,276.33,237.79,280.31,237.79,287.44z"/>
	</g>
</g>
<g>
	<g>
		<path d="M273.39,344.55c-2.88-1.99-6.72-3.81-11.52-5.46v24.7c10.56-0.41,15.84-4.05,15.84-10.91    C277.71,349.31,276.27,346.54,273.39,344.55z"/>
	</g>
</g>
<g>
	<g>
		<path d="M331.51,157.82V110H180.49v47.82c-41.38,24.65-69.16,69.85-69.16,121.42v180.11c0,29.03,23.62,52.65,52.65,52.65h184.04    c29.03,0,52.65-23.62,52.65-52.65V279.24C400.67,227.67,372.89,182.47,331.51,157.82z M309.81,369.55    c-2.74,5.49-6.41,9.98-11.01,13.48c-4.59,3.5-9.87,6.14-15.84,7.92c-5.97,1.78-12.25,2.81-18.83,3.09v23.87h-14.2v-24.08    c-9.47-0.82-18.83-2.74-28.09-5.76c-9.26-3.02-17.59-7-25-11.94l14.81-29.42c0.55,0.68,2.03,1.82,4.43,3.39    c2.4,1.58,5.45,3.23,9.16,4.94c3.7,1.72,7.88,3.36,12.55,4.94c4.66,1.58,9.46,2.71,14.4,3.4v-27.37l-9.87-2.89    c-6.73-2.05-12.56-4.28-17.5-6.68c-4.93-2.4-9.02-5.18-12.24-8.34c-3.22-3.15-5.63-6.79-7.2-10.9c-1.58-4.12-2.37-8.92-2.37-14.41    c0-7.13,1.24-13.48,3.71-19.03c2.47-5.56,5.79-10.32,9.98-14.31c4.18-3.97,9.12-7.1,14.81-9.36c5.69-2.26,11.84-3.74,18.42-4.42    v-20.79h14.2v20.79c8.92,0.82,17.29,2.81,25.1,5.96c7.82,3.16,14.62,6.38,20.38,9.68l-14.82,27.98c-0.41-0.54-1.61-1.44-3.6-2.67    c-1.99-1.24-4.53-2.57-7.61-4.02c-3.09-1.44-6.52-2.81-10.29-4.11c-3.78-1.3-7.59-2.23-11.42-2.78v27.99l6.58,1.64    c7,1.93,13.31,4.02,18.93,6.28c5.63,2.26,10.39,5.08,14.3,8.44c3.91,3.36,6.93,7.44,9.06,12.24c2.12,4.81,3.19,10.57,3.19,17.29    C313.93,357.41,312.56,364.06,309.81,369.55z"/>
	</g>
</g>
<g>
	<g>
		<polygon points="171.27,0 200.25,80 241,80 241,55.31 271,55.31 271,80 311.75,80 340.73,0   "/>
	</g>
</g>
<g>
</g>
<g>
</g>
<g>
</g>
<g>
</g>
<g>
</g>
<g>
</g>
<g>
</g>
<g>
</g>
<g>
</g>
<g>
</g>
<g>
</g>
<g>
</g>
<g>
</g>
<g>
</g>
<g>
</g>
</svg>
