<svg height="512" viewBox="0 0 58 58" width="512" xmlns="http://www.w3.org/2000/svg"><g id="020---Royal-Guard" fill="none"><path id="Shape" d="m22 0h14c3.8659932 0 7 3.13400675 7 7v20h-28v-20c0-3.86599325 3.1340068-7 7-7z" fill="#393f4a"/><path id="Shape" d="m24 0h10c3.8659932 0 7 3.13400675 7 7v18h-24v-18c0-3.86599325 3.1340068-7 7-7z" fill="#464f5d"/><path id="Shape" d="m54 50-5-1.176v-.234c.0002663-.4642809-.3190566-.8676797-.771-.974l-8-1.88c-.2556922-.0650885-.5269092-.0218405-.7496777.1195427-.2227684.1413832-.3773643.3683836-.4273223.6274573l-2.052-.483v-7c-3.215 3.215-3.347 2-7.04 2-.0849611-.4634239-.4888524-.8-.96-.8s-.8750389.3365761-.96.8c-3.693 0-3.826 1.214-7.04-2v7l-2.052.483c-.0502266-.2589271-.2048771-.4857382-.4275671-.6270716s-.493759-.1847114-.7494329-.1199284l-8 1.88c-.45194341.1063203-.77126628.5097191-.771.974v.234l-5 1.176s-4 1-4 8h58c0-7-4-8-4-8z" fill="#e64c3c"/><path id="Shape" d="m29 45v4c-2.9142972-.1411163-5.7115079-1.1900703-8-3v-7c.11.11.23.22.35.34 3.06 2.82 3.06 5.66 6.12 5.66z" fill="#464f5d"/><path id="Shape" d="m37 39v7c-2.2884921 1.8099297-5.0857028 2.8588837-8 3v-4h1.53c3.06 0 3.06-2.84 6.12-5.66.12-.12.24-.23.35-.34z" fill="#393f4a"/><path id="Shape" d="m29 51c-.5522847 0-1-.4477153-1-1v-4.8c0-.5522847.4477153-1 1-1s1 .4477153 1 1v4.8c0 .5522847-.4477153 1-1 1z" fill="#f9eab0"/><path id="Shape" d="m6 58h-6c0-7 4-8 4-8s2 1 2 8z" fill="#802f34"/><path id="Shape" d="m54 50s-2 1-2 8h-29v-5c0-2.209139 1.790861-4 4-4h2c2.9142972-.1411163 5.7115079-1.1900703 8-3z" fill="#c03a2b"/><path id="Shape" d="m58 58h-6c0-7 2-8 2-8s4 1 4 8z" fill="#802f34"/><path id="Shape" d="m18 46.71v3.79c-.0000121.4586794-.3120689.8585409-.757.97l-6 1.5c-.2987824.0748476-.6153864.0078292-.8582132-.1816655-.2428267-.1894947-.3847787-.4803198-.3847868-.7883345v-3.41z" fill="#464f5d"/><path id="Shape" d="m48 48.59v3.41c-.0000081.3080147-.1419601.5988398-.3847868.7883345-.2428268.1894947-.5594308.2565131-.8582132.1816655l-6-1.5c-.4449311-.1114591-.7569879-.5113206-.757-.97v-3.79z" fill="#464f5d"/><g fill="#f9eab0"><path id="Shape" d="m11 54c-1.1045695 0-2-.8954305-2-2v-3.41c-.00026628-.4642809.31905659-.8676797.771-.974l8-1.88c.297471-.0699806.6106123-.0001025.8501114.1897039.2394991.1898065.3790639.4787044.3788886.7842961v3.79c-.0002536.9179409-.6253437 1.7178583-1.516 1.94-6.484 1.622-6.137 1.56-6.484 1.56zm0-4.618v2.618l6-1.5v-2.528z"/><path id="Shape" d="m47.005 54c-.382 0-.105.036-6.489-1.56-.8906563-.2221417-1.5157464-1.0220591-1.516-1.94v-3.79c-.0001753-.3055917.1393895-.5944896.3788886-.7842961.2394991-.1898064.5526404-.2596845.8501114-.1897039l8 1.88c.4519434.1063203.7712663.5097191.771.974v3.41c.0000034 1.1026198-.8923836 1.9972435-1.995 2zm-6.005-6.028v2.528l6 1.5v-2.618z"/><circle id="Oval" cx="28" cy="54" r="1"/></g><path id="Shape" d="m14.999977 25 .000023 2.7c-.004902 1.6146123.7739115 3.1312295 2.089 4.068.6160376.4352138 1.2575124.8332555 1.921 1.192h19.98c.663538-.3593924 1.3050139-.7581026 1.921-1.194 1.3145113-.9363621 2.0932525-2.452093 2.089-4.066l.0000173-2.7z" fill="#f9c795"/><path id="Shape" d="m38.99 32.96c.134 2.861-.212 4.252-2.34 6.38-3.06 2.82-3.06 5.66-6.12 5.66h-3.06c-3.06 0-3.06-2.84-6.12-5.66-.2258084-.20755-.4394945-.4279138-.64-.66-2.3-2.56-1.64-4.83-1.64-7.45 0-1.98-.58-2.98-.78-6.23h21.42c-.263 4.281-.95 3.68-.72 7.96z" fill="#fdd7ad"/></g></svg>