<?xml version="1.0" encoding="iso-8859-1"?>
<!-- Generator: Adobe Illustrator 19.0.0, SVG Export Plug-In . SVG Version: 6.00 Build 0)  -->
<svg xmlns="http://www.w3.org/2000/svg" xmlns:xlink="http://www.w3.org/1999/xlink" version="1.1" id="Layer_1" x="0px" y="0px" viewBox="0 0 512 512" style="enable-background:new 0 0 512 512;" xml:space="preserve">
<g>
	<g>
		<path d="M335.004,165.937v180.124h96.427V165.937H335.004z M372.986,305.344h-24.248l37.376-75.557h-40.056v-19.559h73.816    L372.986,305.344z"/>
	</g>
</g>
<g>
	<g>
		<path d="M80.569,165.937v180.124h96.427V165.937H80.569z M118.653,305.342H94.405l37.376-75.557H91.726v-19.559h73.815    L118.653,305.342z"/>
	</g>
</g>
<g>
	<g>
		<path d="M206.996,165.937v180.124h98.008V165.937H206.996z M245.319,305.342h-24.247l37.376-75.557h-40.056v-19.559h73.815    L245.319,305.342z"/>
	</g>
</g>
<g>
	<g>
		<path d="M0,84.958v342.083h512V84.958H0z M50.569,376.062V135.937H461.43v240.124H50.569z"/>
	</g>
</g>
<g>
</g>
<g>
</g>
<g>
</g>
<g>
</g>
<g>
</g>
<g>
</g>
<g>
</g>
<g>
</g>
<g>
</g>
<g>
</g>
<g>
</g>
<g>
</g>
<g>
</g>
<g>
</g>
<g>
</g>
</svg>
