<svg height="512" viewBox="0 0 59 58" width="512" xmlns="http://www.w3.org/2000/svg"><g id="021---Royal-Horse" fill="none" transform="translate(0 -1)"><path id="Shape" d="m44 15v-12.342c-.0013893-.38382134-.2223415-.73297954-.5686165-.89855229-.3462751-.16557275-.7567631-.11834013-1.0563835.12155229l-2.675 2.13c-.3977359.31863464-.971467.28719142-1.332-.073l-2.66-2.647c-.3904999-.39038194-1.0235001-.39038194-1.414 0l-2.66 2.647c-.360533.36019142-.9342641.39163464-1.332.073l-2.676-2.13c-.299606-.24051005-.7105118-.28810674-1.0571649-.12245517s-.5677517.51525778-.5688351.89945517v12.342z" fill="#f3d55b"/><circle id="Oval" cx="30" cy="9" fill="#4fba6f" r="1"/><circle id="Oval" cx="40" cy="9" fill="#4fba6f" r="1"/><circle id="Oval" cx="35" cy="9" fill="#ff5364" r="1"/><path id="Shape" d="m57.014 38c-.3221787.0004013-.6248164-.1544469-.8129783-.4159701-.1881618-.2615232-.238797-.5976834-.1360217-.9030299.026-.075 2.472-7.5-.62-10.583-1.985-1.988-3.971-.879-5.289.4-.2559057.2519387-.6272524.3473154-.972892.2498777s-.6124935-.3727267-.6991313-.7212303c-.0866377-.3485035.0202454-.7167033.2800233-.9646474 2.7-2.614 5.721-2.756 8.095-.378 3.97 3.962 1.221 12.284 1.1 12.636-.1369837.4055691-.5169232.6789647-.945.68z" fill="#cbb292"/><path id="Shape" d="m44 17h-18c-1.1045695 0-2-.8954305-2-2s.8954305-2 2-2h18c1.1045695 0 2 .8954305 2 2s-.8954305 2-2 2z" fill="#f29c1f"/><path id="Shape" d="m42 17h-14c-1.1045695 0-2-.8954305-2-2s.8954305-2 2-2h14c1.1045695 0 2 .8954305 2 2s-.8954305 2-2 2z" fill="#f0c419"/><path id="Shape" d="m29.69 41c-.565 1.82-1.624 2.225-1.85 4.62l-.84 8.38-2 1-1-1v-13l3-2z" fill="#a56a43"/><path id="Shape" d="m48.06 44.45c-.213.736-.148.456-1.06 9.55l-2 1-1-1v-12.21c.77 1.16 1.94-.19 3.35.21z" fill="#a56a43"/><path id="Shape" d="m56 54-2 1-1-1-4.72-9.49c-1.7377765-.2853825-3.2837198-1.2678512-4.28-2.72-1.235-1.853-1-3.414-1-6.32-.5839941.7504461-1.2554017 1.4285679-2 2.02-2.8950664 2.1667707-6.3858077 3.392021-10 3.51h-10.31c-.565 1.82-1.624 2.225-1.85 4.62l-.84 8.38-2 2-1-2v-16c-1.1032019-.0032948-1.9967052-.8967981-2-2v-9.57c.1454862-1.6429243-1.0177083-3.1133776-2.65-3.35-.3011803.7910619-.9240513 1.4170597-1.71359518 1.7221975-.78954389.3051377-1.67151247.2607204-2.42640482-.1221975l-2.9 1.45c-.97306895.4834956-2.15415552.1016405-2.66-.86l-.41-.77c-.40916379-.7606426-.27980072-1.6985249.32-2.32l4-4.18c.06395772-1.8299119 1.26119278-3.4262253 3-4l-1.051-1.348c-.10859536-.1413768-.1337033-.3298791-.06589942-.4947518.06780387-.1648726.21826207-.2811734.39489942-.3052482 1.283-.178 3.733-.281 5.162 1.148 2.6222635.7481343 5.0241505 2.1206411 7 4 3 3 5 8 12 8 0 0 2.8.24 9-1 3.54-.71 8.59.09 11.23 3.46 1.6002363 2.1696586 1.9491954 5.0182272.92 7.51-.54 1.42-1.15 2.38-1.15 4.03 0 0 0 3.42 2.37 3.93.3878174.0857826.6892285.3911081.77.78z" fill="#cb8252"/><path id="Shape" d="m19 39c0 .5522847-.4477153 1-1 1h-3v-2h3c.5522847 0 1 .4477153 1 1z" fill="#a56a43"/><path id="Shape" d="m23 32c0 7.6.087 7.729-.27 9h-2.04c.00196-.1051746.0187936-.2095426.05-.31.345-1.077.26-1.044.26-8.69 0-.5522847.4477153-1 1-1s1 .4477153 1 1z" fill="#a56a43"/><path id="Shape" d="m43 32v3.47c-.5839941.7504461-1.2554017 1.4285679-2 2.02v-5.49c0-.5522847.4477153-1 1-1s1 .4477153 1 1z" fill="#a56a43"/><g fill="#7f6e5d"><path id="Shape" d="m15 54h3v4c0 .5522847-.4477153 1-1 1h-3c-.5522847 0-1-.4477153-1-1v-2c0-1.1045695.8954305-2 2-2z"/><path id="Shape" d="m24 54h3v4c0 .5522847-.4477153 1-1 1h-3c-.5522847 0-1-.4477153-1-1v-2c0-1.1045695.8954305-2 2-2z"/><path id="Shape" d="m44 54h3v4c0 .5522847-.4477153 1-1 1h-3c-.5522847 0-1-.4477153-1-1v-2c0-1.1045695.8954305-2 2-2z"/><path id="Shape" d="m53 54h3v4c0 .5522847-.4477153 1-1 1h-3c-.5522847 0-1-.4477153-1-1v-2c0-1.1045695.8954305-2 2-2z"/></g></g></svg>