<?xml version="1.0" encoding="iso-8859-1"?>
<!-- Generator: Adobe Illustrator 19.0.0, SVG Export Plug-In . SVG Version: 6.00 Build 0)  -->
<svg xmlns="http://www.w3.org/2000/svg" xmlns:xlink="http://www.w3.org/1999/xlink" version="1.1" id="Layer_1" x="0px" y="0px" viewBox="0 0 512 512" style="enable-background:new 0 0 512 512;" xml:space="preserve">
<rect y="84.96" style="fill:#3C3A41;" width="512" height="342.08"/>
<rect x="256" y="84.96" style="fill:#17171A;" width="256" height="342.08"/>
<rect x="65.57" y="150.94" style="fill:#FFA91D;" width="380.86" height="210.12"/>
<rect x="256" y="150.94" style="fill:#FF8900;" width="190.43" height="210.12"/>
<g>
	<path style="fill:#E70020;" d="M50.57,135.94v240.12h410.86V135.94H50.57z M177,346.06H80.57V165.94H177V346.06z M305,346.06h-98   V165.94h98V346.06z M431.43,346.06H335V165.94h96.43V346.06z"/>
	<path style="fill:#E70020;" d="M131.781,229.787H91.726v-19.559h73.815l-46.888,95.116H94.405L131.781,229.787z"/>
	<path style="fill:#E70020;" d="M218.39,210.23v19.56h40.06l-2.45,4.95l-34.93,70.6h24.25L256,283.68l36.21-73.45H218.39z"/>
</g>
<g>
	<path style="fill:#990013;" d="M386.114,229.787h-40.056v-19.559h73.815l-46.888,95.116h-24.248L386.114,229.787z"/>
	<path style="fill:#990013;" d="M256,135.94v30h49v180.12h-49v30h205.43V135.94H256z M431.43,346.06H335V165.94h96.43V346.06z"/>
	<polygon style="fill:#990013;" points="292.21,210.23 256,283.68 256,210.23  "/>
</g>
<g>
</g>
<g>
</g>
<g>
</g>
<g>
</g>
<g>
</g>
<g>
</g>
<g>
</g>
<g>
</g>
<g>
</g>
<g>
</g>
<g>
</g>
<g>
</g>
<g>
</g>
<g>
</g>
<g>
</g>
</svg>
