<?xml version="1.0" encoding="iso-8859-1"?>
<!-- Generator: Adobe Illustrator 19.0.0, SVG Export Plug-In . SVG Version: 6.00 Build 0)  -->
<svg xmlns="http://www.w3.org/2000/svg" xmlns:xlink="http://www.w3.org/1999/xlink" version="1.1" id="Layer_1" x="0px" y="0px" viewBox="0 0 512 512" style="enable-background:new 0 0 512 512;" xml:space="preserve">
<g>
	<g>
		<path d="M75.291,271.69l-75.173,0.285c2.151,35.177,11.372,69.001,26.999,99.811l65.098-37.877    C83.073,314.771,77.196,293.791,75.291,271.69z"/>
	</g>
</g>
<g>
	<g>
		<path d="M256.02,104.612c-83.465,0-151.369,67.904-151.369,151.369s67.904,151.369,151.369,151.369    s151.369-67.904,151.369-151.369S339.484,104.612,256.02,104.612z M326.531,296.923c-9.534,15.571-24.363,24.218-41.754,24.348    c-4.646,0.04-9.255-0.547-13.732-1.714v17.553h-30.048v-17.558c-4.354,1.133-8.833,1.72-13.341,1.72c-0.13,0-0.259,0-0.39-0.001    c-17.393-0.129-32.222-8.776-41.755-24.347c-9.694-15.834-10.004-35.302-0.831-52.078c6.533-11.946,16.434-21.261,25.168-29.48    c1.438-1.352,2.862-2.692,4.252-4.026c5.388-5.173,10.795-10.118,16.026-14.9c5.097-4.659,10.367-9.478,15.49-14.397l10.407-9.992    l10.407,9.992c5.122,4.92,10.393,9.737,15.49,14.397c5.23,4.782,10.638,9.726,16.026,14.9c1.39,1.335,2.815,2.675,4.252,4.027    c8.735,8.218,18.635,17.533,25.166,29.478h0.001C336.534,261.621,336.224,281.089,326.531,296.923z"/>
	</g>
</g>
<g>
	<g>
		<path d="M333.741,419.882c-19.148,9.116-40.135,14.97-62.239,16.847l0.19,75.172c35.184-2.107,69.02-11.283,99.847-26.87    L333.741,419.882z"/>
	</g>
</g>
<g>
	<g>
		<path d="M300.996,259.263c-4.239-7.752-11.942-15.001-19.393-22.011c-1.512-1.423-3.011-2.833-4.473-4.238    c-5.123-4.92-10.394-9.737-15.491-14.398c-1.854-1.695-3.731-3.41-5.62-5.15c-1.89,1.739-3.767,3.454-5.62,5.15    c-5.097,4.659-10.367,9.478-15.49,14.398c-1.462,1.403-2.96,2.813-4.472,4.236c-7.451,7.011-15.155,14.26-19.396,22.014    c-4.063,7.431-4.029,15.233,0.094,21.97c4.141,6.763,9.337,9.937,16.353,9.99c4.486,0.037,8.939-1.281,12.933-3.8l15.598-9.772    l15.56,9.747c4.03,2.543,8.494,3.858,12.972,3.824c7.015-0.052,12.211-3.227,16.352-9.99    C305.027,274.498,305.06,266.695,300.996,259.263z"/>
	</g>
</g>
<g>
	<g>
		<path d="M241.453,436.81c-22.122-1.766-43.134-7.522-62.323-16.539l-37.467,65.339c30.895,15.423,64.773,24.437,99.98,26.37    L241.453,436.81z"/>
	</g>
</g>
<g>
	<g>
		<path d="M271.043,0.02v75.171c22.113,1.822,43.112,7.626,62.281,16.694l37.635-65.248C340.098,11.131,306.24,2.04,271.043,0.02z"/>
	</g>
</g>
<g>
	<g>
		<path d="M26.247,141.917C10.866,172.827,1.89,206.715,0,241.928l75.169-0.285c1.738-22.126,7.47-43.144,16.462-62.343    L26.247,141.917z"/>
	</g>
</g>
<g>
	<g>
		<path d="M113.993,42.408c-13.973,9.334-27.13,20.114-39.282,32.264c-12.699,12.699-23.886,26.505-33.504,41.186l65.379,37.38    c12.287-17.815,27.67-33.335,45.371-45.775L113.993,42.408z"/>
	</g>
</g>
<g>
	<g>
		<path d="M107.372,359.855l-65.102,37.88c9.375,14.074,20.212,27.325,32.442,39.554c12.621,12.621,26.334,23.749,40.913,33.327    l37.464-65.334C135.29,392.974,119.79,377.571,107.372,359.855z"/>
	</g>
</g>
<g>
	<g>
		<path d="M405.191,359.101c-12.331,17.782-27.752,33.263-45.485,45.659l37.797,65.148c14.175-9.416,27.518-20.311,39.825-32.619    c12.543-12.543,23.612-26.164,33.151-40.642L405.191,359.101z"/>
	</g>
</g>
<g>
	<g>
		<path d="M139.924,27.228l37.958,65.045c19.392-9.294,40.682-15.234,63.113-17.082V0.02    C205.359,2.065,171.095,11.367,139.924,27.228z"/>
	</g>
</g>
<g>
	<g>
		<path d="M485.221,140.749l-65.202,37.718c9.091,19.159,14.921,40.152,16.77,62.261l75.171-0.095    C509.897,205.443,500.766,171.593,485.221,140.749z"/>
	</g>
</g>
<g>
	<g>
		<path d="M436.83,270.775c-1.794,22.117-7.574,43.123-16.616,62.302l65.294,37.55C500.97,339.75,510.023,305.882,512,270.68    L436.83,270.775z"/>
	</g>
</g>
<g>
	<g>
		<path d="M437.328,74.672c-12.465-12.465-25.993-23.475-40.37-32.974l-37.63,65.241c17.766,12.353,33.227,27.794,45.602,45.544    l65.195-37.713C460.667,100.494,449.714,87.058,437.328,74.672z"/>
	</g>
</g>
<g>
</g>
<g>
</g>
<g>
</g>
<g>
</g>
<g>
</g>
<g>
</g>
<g>
</g>
<g>
</g>
<g>
</g>
<g>
</g>
<g>
</g>
<g>
</g>
<g>
</g>
<g>
</g>
<g>
</g>
</svg>
