<svg height="512" viewBox="0 0 48 58" width="512" xmlns="http://www.w3.org/2000/svg"><g id="022---Lion-Shield" fill="none" transform="translate(0 -1)"><path id="Shape" d="m47.01 9.51c-3.54-.16-15.77-1.22-22.26-8.19-.1958139-.20465611-.4667559-.32040401-.75-.32040401s-.5541861.1157479-.75.32040401c-6.49 6.97-18.72 8.03-22.26 8.19-.54522633.01285844-.98262173.45467198-.99 1v22.24s0 19.18 24 26.25c24-7.07 24-26.25 24-26.25v-22.24c-.0073783-.54532802-.4447737-.98714156-.99-1z" fill="#f3d55b"/><path id="Shape" d="m48 10.51v22.24s0 19.18-24 26.25v-58.00036191c.2846908-.00738253.5585894.10948085.75.32036191 6.49 6.97 18.72 8.03 22.26 8.19.5452263.01285844.9826217.45467198.99 1z" fill="#f0c419"/><path id="Shape" d="m44 14.66v18.36c-.01.62-.45 15.54-20 21.78v-47.8c.2301651.00060738.4542195.07412523.64.21 5.84 4.26 13.47 5.86 18.45 6.46.5102054.0520673.9010056.4772236.91.99z" fill="#c03a2b"/><path id="Shape" d="m24 7v47.8c-19.77-6.32-20-21.63-20-21.78v-18.36c.0089944-.5127764.39979458-.9379327.91-.99 4.98-.6 12.61-2.2 18.45-6.46.1857805-.13587477.4098349-.20939262.64-.21z" fill="#e64c3c"/><path id="Shape" d="m14 28.06v2.81c-.0012925 2.425104 1.6477577 4.5400109 4 5.13v.9c-.0139595.5438892.1890718 1.0709802.5642913 1.4649607s.8917857.6224668 1.4357087.6350393c0 1.6568542 1.3431458 3 3 3h1v7c-.0683622-.0026754-.1358675-.0161764-.2-.04-3.102937-1.359686-5.7311199-3.6119169-7.55-6.47-.0738877-.1151364-.192213-.1944768-.3267816-.2191161-.1345685-.0246393-.2733292.007629-.3832184.0891161-.5749932.3947145-1.0286249.9418427-1.31 1.58-.0679809.1891993-.242668.3192816-.4434135.3301917s-.3885015-.0994742-.4765865-.2801917c-.9001487-1.9759872-1.3444413-4.1290974-1.3-6.3-.0060309-.1626023-.0884047-.3128343-.2222578-.4053504-.1338531-.0925162-.3035027-.1164768-.4577422-.0646496-.1976099.0729685-.3883575.1633226-.57.27-.1532781.0933372-.3448217.0973704-.5018928.0105679s-.2555758-.2511254-.2581072-.4305679v-11.94c.007723-3.3072696 2.6927231-5.9833196 6-5.98.0540592-.8654084-.3014212-1.7059715-.96-2.27-.1571915-.134243-.2155681-.3513767-.1468857-.5463461s.250262-.3275731.4568857-.3336539c6.351-.082 8.115 2.04 8.65 2.04v4.64c-.2885756.0119339-.5760181-.042817-.84-.16-1.700753-.7784378-3.6737791-.6814649-5.29.26l-1.21.69c-1.6447547.9431572-2.6594124 2.6940139-2.66 4.59z" fill="#f29c1f"/><path id="Shape" d="m38 25.13v11.94c-.0025314.1794425-.1010361.3437654-.2581072.4305679s-.3486147.0827693-.5018928-.0105679c-.1816425-.1066774-.3723901-.1970315-.57-.27-.1542395-.0518272-.3238891-.0278666-.4577422.0646496-.1338531.0925161-.2162269.2427481-.2222578.4053504.0444413 2.1709026-.3998513 4.3240128-1.3 6.3-.088085.1807175-.275841.2911018-.4765865.2801917s-.3754326-.1409924-.4434135-.3301917c-.2813751-.6381573-.7350068-1.1852855-1.31-1.58-.1098892-.0814871-.2486499-.1137554-.3832184-.0891161-.1345686.0246393-.2528939.1039797-.3267816.2191161-1.8188801 2.8580831-4.447063 5.110314-7.55 6.47-.0641325.0238236-.1316378.0373246-.2.04v-7h1c1.6568542 0 3-1.3431458 3-3 .543923-.0125725 1.0604892-.2410588 1.4357087-.6350393s.5782508-.9210715.5642913-1.4649607v-.9c2.3522423-.5899891 4.0012925-2.704896 4-5.13v-2.81c-.0005876-1.8959861-1.0152453-3.6468428-2.66-4.59l-1.21-.69c-1.5800002-.90624-3.4930311-1.0209478-5.17-.31-.3015574.1370746-.6287531.2086487-.96.21v-4.64c.0964282.0043946.1915305-.0237838.27-.08 2.52-1.72 6.06-1.99 8.38-1.96.2066237.0060808.3882033.1386845.4568857.3336539s.0103058.4121031-.1468857.5463461c-.6585788.5640285-1.0140592 1.4045916-.96 2.27 1.5888092-.0031854 3.1137521.6251869 4.2390861 1.7467698 1.1253341 1.1215829 1.7587944 2.6444192 1.7609139 4.2332302z" fill="#e57e25"/><circle id="Oval" cx="28" cy="28" fill="#464f5d" r="2"/><path id="Shape" d="m28 39c0 1.6568542-1.3431458 3-3 3h-1v-5c3.145 1.8 3.315 2 4 2z" fill="#d25627"/><path id="Shape" d="m26 34c0 .55-.9 3-2 3v-4c1.1 0 2 .45 2 1z" fill="#f29c1f"/><path id="Shape" d="m31.34 23.47-1.21-.69c-1.5800002-.90624-3.4930311-1.0209478-5.17-.31-.3015574.1370746-.6287531.2086487-.96.21v10.32c1.1 0 2 .45 2 1s-.9 3-2 3c3.145 1.8 3.315 2 4 2 .543923-.0125725 1.0604892-.2410588 1.4357087-.6350393s.5782508-.9210715.5642913-1.4649607v-.9c2.3522423-.5899891 4.0012925-2.704896 4-5.13v-2.81c-.0005876-1.8959861-1.0152453-3.6468428-2.66-4.59zm-3.34 6.53c-1.1045695 0-2-.8954305-2-2s.8954305-2 2-2 2 .8954305 2 2c-.0032948 1.1032019-.8967981 1.9967052-2 2z" fill="#f0c419"/><path id="Shape" d="m24 37v5h-1c-1.6568542 0-3-1.3431458-3-3 .716 0 .879-.214 4-2z" fill="#e57e25"/><path id="Shape" d="m24 33v-10.32c-.2885756.0119339-.5760181-.042817-.84-.16-1.700753-.7784378-3.6737791-.6814649-5.29.26l-1.21.69c-1.6447547.9431572-2.6594124 2.6940139-2.66 4.59v2.81c-.0012925 2.425104 1.6477577 4.5400109 4 5.13v.9c-.0282282.7066481.3177248 1.3759497.9105413 1.7615881s1.3448963.4306281 1.9794587.1184119l3.11-1.78c-1.1 0-2-2.45-2-3s.9-1 2-1zm-4-3c-1.1045695 0-2-.8954305-2-2s.8954305-2 2-2 2 .8954305 2 2c-.0032948 1.1032019-.8967981 1.9967052-2 2z" fill="#f3d55b"/><circle id="Oval" cx="20" cy="28" fill="#464f5d" r="2"/><path id="Shape" d="m24 33v4c-1.1 0-2-2.45-2-3s.9-1 2-1z" fill="#f0c419"/></g></svg>