<?xml version="1.0" encoding="iso-8859-1"?>
<!-- Generator: Adobe Illustrator 19.0.0, SVG Export Plug-In . SVG Version: 6.00 Build 0)  -->
<svg xmlns="http://www.w3.org/2000/svg" xmlns:xlink="http://www.w3.org/1999/xlink" version="1.1" id="Layer_1" x="0px" y="0px" viewBox="0 0 512 512" style="enable-background:new 0 0 512 512;" xml:space="preserve">
<path style="fill:#0082D2;" d="M250.395,410.72v45.77c0,15.99-13.55,30.48-38.14,40.79c-3.34,1.41-6.83,2.71-10.47,3.92  c-19.21,6.4-42.37,10.13-66.85,10.71c-2.3,0.06-4.61,0.09-6.93,0.09c-31.71,0-61.64-5.23-84.25-14.72  c-1.38-0.57-2.72-1.17-4.03-1.77c-22.05-10.17-34.12-23.92-34.12-39.02v-45.77L250.395,410.72L250.395,410.72z"/>
<path style="fill:#00ACEA;" d="M250.395,410.725c0,15.988-13.545,30.474-38.148,40.791c-3.337,1.401-6.827,2.706-10.466,3.92  c-19.21,6.397-42.364,10.121-66.848,10.71c-2.3,0.057-4.609,0.086-6.933,0.086c-31.708,0-61.627-5.226-84.246-14.716  c-1.382-0.578-2.725-1.171-4.035-1.779c-19.009-8.768-30.598-20.2-33.429-32.86c-0.454-2.022-0.684-4.073-0.684-6.153  c0-15.983,13.545-30.469,38.148-40.787c6.66-2.792,13.951-5.216,21.739-7.248H65.5c16.652-4.346,35.551-6.885,55.33-7.372  c2.376-0.067,4.771-0.096,7.171-0.096c30.202,0,58.778,4.743,80.971,13.391c1.109,0.43,2.199,0.875,3.275,1.324  c20.071,8.415,32.779,19.607,36.785,32.119C249.936,404.887,250.395,407.78,250.395,410.725z"/>
<g>
	<ellipse style="fill:#F1F1F1;" cx="128" cy="409.61" rx="68.15" ry="19.95"/>
	<path style="fill:#F1F1F1;" d="M120.83,355.318v27.457c-13.707,0.158-27.572,2.548-27.572,2.548L65.5,362.69   C82.152,358.344,101.051,355.806,120.83,355.318z"/>
	<path style="fill:#F1F1F1;" d="M249.033,402.057h-48.121c0,0-5.498-7.012-19.682-11.474l27.743-21.969   c1.109,0.43,2.199,0.875,3.275,1.324C232.318,378.353,245.026,389.545,249.033,402.057z"/>
</g>
<path style="fill:#E1E1E4;" d="M201.782,455.437v45.764c-19.21,6.402-42.364,10.126-66.848,10.714v-45.768L201.782,455.437z"/>
<path style="fill:#F1F1F1;" d="M201.782,455.437c-19.21,6.397-42.364,10.121-66.848,10.71v-29.26c0,0,17.212-0.646,30.837-3.275  L201.782,455.437z"/>
<path style="fill:#E1E1E4;" d="M39.725,449.74v45.77c-22.05-10.17-34.12-23.92-34.12-39.02v-43.51L39.725,449.74z"/>
<path style="fill:#F1F1F1;" d="M73.952,429.562L39.72,449.738c-19.009-8.768-30.598-20.2-33.429-32.86h48.24  C54.532,416.878,59.856,425.843,73.952,429.562z"/>
<path style="fill:#990013;" d="M250.395,366.78v45.77c0,15.98-13.55,30.47-38.14,40.79c-3.34,1.4-6.83,2.7-10.47,3.91  c-19.21,6.4-42.37,10.13-66.85,10.72c-2.3,0.05-4.61,0.08-6.93,0.08c-31.71,0-61.64-5.22-84.25-14.71  c-1.38-0.58-2.72-1.17-4.03-1.78c-22.05-10.17-34.12-23.92-34.12-39.01v-45.77H250.395z"/>
<path style="fill:#E70020;" d="M250.395,366.777c0,15.988-13.545,30.474-38.148,40.791c-3.337,1.401-6.827,2.706-10.466,3.92  c-19.21,6.397-42.364,10.121-66.848,10.71c-2.3,0.057-4.609,0.086-6.933,0.086c-31.708,0-61.627-5.226-84.246-14.716  c-1.382-0.578-2.725-1.171-4.035-1.779c-19.009-8.768-30.598-20.2-33.429-32.86c-0.454-2.022-0.684-4.073-0.684-6.153  c0-15.983,13.545-30.469,38.148-40.787c6.66-2.792,13.951-5.216,21.739-7.248H65.5c16.652-4.346,35.551-6.885,55.33-7.372  c2.376-0.067,4.771-0.096,7.171-0.096c30.202,0,58.778,4.743,80.971,13.392c1.109,0.43,2.199,0.875,3.275,1.324  c20.071,8.415,32.779,19.607,36.785,32.119C249.936,360.94,250.395,363.832,250.395,366.777z"/>
<g>
	<ellipse style="fill:#F1F1F1;" cx="128" cy="365.67" rx="68.15" ry="19.95"/>
	<path style="fill:#F1F1F1;" d="M120.83,311.37v27.457c-13.707,0.158-27.572,2.548-27.572,2.548L65.5,318.743   C82.152,314.397,101.051,311.858,120.83,311.37z"/>
	<path style="fill:#F1F1F1;" d="M249.033,358.109h-48.121c0,0-5.498-7.012-19.682-11.474l27.743-21.969   c1.109,0.43,2.199,0.875,3.275,1.324C232.318,334.405,245.026,345.598,249.033,358.109z"/>
	<path style="fill:#F1F1F1;" d="M201.782,411.489v45.764c-19.21,6.402-42.364,10.126-66.848,10.714v-45.768L201.782,411.489z"/>
	<path style="fill:#F1F1F1;" d="M201.782,411.489c-19.21,6.397-42.364,10.121-66.848,10.71v-29.26c0,0,17.212-0.645,30.837-3.275   L201.782,411.489z"/>
	<path style="fill:#F1F1F1;" d="M39.725,405.79v45.77c-22.05-10.17-34.12-23.92-34.12-39.01v-44.27L39.725,405.79z"/>
	<path style="fill:#F1F1F1;" d="M73.952,385.615L39.72,405.79c-19.009-8.768-30.598-20.2-33.429-32.86h48.24   C54.532,372.931,59.856,381.895,73.952,385.615z"/>
</g>
<path style="fill:#00743A;" d="M250.395,322.831v45.77c0,15.99-13.55,30.47-38.14,40.79c-3.34,1.4-6.83,2.71-10.47,3.92  c-19.21,6.4-42.37,10.12-66.85,10.71c-2.3,0.06-4.61,0.09-6.93,0.09c-31.71,0-61.64-5.23-84.25-14.72  c-1.38-0.58-2.72-1.17-4.03-1.77c-22.05-10.18-34.12-23.93-34.12-39.02v-45.77L250.395,322.831L250.395,322.831z"/>
<path style="fill:#008C48;" d="M250.395,322.83c0,15.988-13.545,30.474-38.148,40.791c-3.337,1.401-6.827,2.706-10.466,3.92  c-19.21,6.397-42.364,10.121-66.848,10.71c-2.3,0.057-4.609,0.086-6.933,0.086c-31.708,0-61.627-5.226-84.246-14.716  c-1.382-0.578-2.725-1.171-4.035-1.778c-19.009-8.768-30.598-20.2-33.429-32.86c-0.454-2.022-0.684-4.073-0.684-6.153  c0-15.983,13.545-30.469,38.148-40.787c6.66-2.792,13.951-5.216,21.739-7.248H65.5c16.652-4.346,35.551-6.885,55.33-7.372  c2.376-0.067,4.771-0.096,7.171-0.096c30.202,0,58.778,4.743,80.971,13.392c1.109,0.43,2.199,0.875,3.275,1.324  c20.071,8.415,32.779,19.607,36.785,32.119C249.936,316.992,250.395,319.885,250.395,322.83z"/>
<g>
	<ellipse style="fill:#F1F1F1;" cx="128" cy="321.72" rx="68.15" ry="19.95"/>
	<path style="fill:#F1F1F1;" d="M120.83,267.423v27.457c-13.707,0.158-27.572,2.548-27.572,2.548L65.5,274.795   C82.152,270.449,101.051,267.911,120.83,267.423z"/>
	<path style="fill:#F1F1F1;" d="M249.033,314.162h-48.121c0,0-5.498-7.012-19.682-11.474l27.743-21.969   c1.109,0.43,2.199,0.875,3.275,1.324C232.318,290.458,245.026,301.65,249.033,314.162z"/>
</g>
<path style="fill:#E1E1E4;" d="M201.782,367.542v45.764c-19.21,6.402-42.364,10.126-66.848,10.714v-45.768L201.782,367.542z"/>
<path style="fill:#F1F1F1;" d="M201.782,367.542c-19.21,6.397-42.364,10.121-66.848,10.71v-29.26c0,0,17.212-0.645,30.837-3.275  L201.782,367.542z"/>
<path style="fill:#E1E1E4;" d="M39.725,361.84v45.78c-22.05-10.18-34.12-23.93-34.12-39.02v-45.77h0.47L39.725,361.84z"/>
<path style="fill:#F1F1F1;" d="M73.952,341.667L39.72,361.843c-19.009-8.768-30.598-20.2-33.429-32.86h48.24  C54.532,328.983,59.856,337.947,73.952,341.667z"/>
<path style="fill:#0082D2;" d="M250.395,277.06v45.77c0,15.99-13.55,30.47-38.14,40.79c-3.34,1.4-6.83,2.71-10.47,3.92  c-19.21,6.4-42.37,10.12-66.85,10.71c-2.3,0.06-4.61,0.09-6.93,0.09c-31.71,0-61.64-5.23-84.25-14.72  c-1.38-0.58-2.72-1.17-4.03-1.77c-22.05-10.18-34.12-23.93-34.12-39.02v-45.77L250.395,277.06L250.395,277.06z"/>
<path style="fill:#00ACEA;" d="M250.395,277.061c0,15.988-13.545,30.474-38.148,40.791c-3.337,1.401-6.827,2.706-10.466,3.92  c-19.21,6.397-42.364,10.121-66.848,10.71c-2.3,0.057-4.609,0.086-6.933,0.086c-31.708,0-61.627-5.226-84.246-14.716  c-1.382-0.578-2.725-1.171-4.035-1.779c-19.009-8.768-30.598-20.2-33.429-32.86c-0.454-2.022-0.684-4.073-0.684-6.153  c0-15.983,13.545-30.469,38.148-40.787c6.66-2.792,13.951-5.216,21.739-7.248H65.5c16.652-4.346,35.551-6.885,55.33-7.372  c2.376-0.067,4.771-0.096,7.171-0.096c30.202,0,58.778,4.743,80.971,13.392c1.109,0.43,2.199,0.875,3.275,1.324  c20.071,8.415,32.779,19.607,36.785,32.119C249.936,271.224,250.395,274.116,250.395,277.061z"/>
<g>
	<ellipse style="fill:#F1F1F1;" cx="128" cy="275.95" rx="68.15" ry="19.95"/>
	<path style="fill:#F1F1F1;" d="M120.83,221.654v27.457c-13.707,0.158-27.572,2.548-27.572,2.548L65.5,229.027   C82.152,224.681,101.051,222.142,120.83,221.654z"/>
	<path style="fill:#F1F1F1;" d="M249.033,268.393h-48.121c0,0-5.498-7.012-19.682-11.474l27.743-21.969   c1.109,0.43,2.199,0.875,3.275,1.324C232.318,244.689,245.026,255.882,249.033,268.393z"/>
</g>
<path style="fill:#E1E1E4;" d="M201.782,321.773v45.764c-19.21,6.402-42.364,10.126-66.848,10.714v-45.768L201.782,321.773z"/>
<path style="fill:#F1F1F1;" d="M201.782,321.773c-19.21,6.397-42.364,10.121-66.848,10.71v-29.26c0,0,17.212-0.645,30.837-3.275  L201.782,321.773z"/>
<path style="fill:#E1E1E4;" d="M39.725,316.07v45.78c-22.05-10.18-34.12-23.93-34.12-39.02v-43.75L39.725,316.07z"/>
<path style="fill:#F1F1F1;" d="M73.952,295.898L39.72,316.074c-19.009-8.768-30.598-20.2-33.429-32.86h48.24  C54.532,283.215,59.856,292.179,73.952,295.898z"/>
<path style="fill:#990013;" d="M250.395,233.11v45.77c0,15.99-13.55,30.48-38.14,40.79c-3.34,1.4-6.83,2.71-10.47,3.92  c-19.21,6.4-42.37,10.13-66.85,10.71c-2.3,0.06-4.61,0.09-6.93,0.09c-31.71,0-61.64-5.23-84.25-14.72  c-1.38-0.58-2.72-1.17-4.03-1.77c-22.05-10.17-34.12-23.92-34.12-39.02v-45.77L250.395,233.11L250.395,233.11z"/>
<path style="fill:#E70020;" d="M250.395,233.114c0,15.988-13.545,30.474-38.148,40.792c-3.337,1.401-6.827,2.706-10.466,3.92  c-19.21,6.397-42.364,10.121-66.848,10.71c-2.3,0.057-4.609,0.086-6.933,0.086c-31.708,0-61.627-5.226-84.246-14.716  c-1.382-0.579-2.725-1.171-4.035-1.779c-19.009-8.768-30.598-20.2-33.429-32.86c-0.454-2.022-0.684-4.073-0.684-6.153  c0-15.983,13.545-30.469,38.148-40.787c6.66-2.792,13.951-5.216,21.739-7.248H65.5c16.652-4.346,35.551-6.885,55.33-7.372  c2.376-0.067,4.771-0.096,7.171-0.096c30.202,0,58.778,4.743,80.971,13.392c1.109,0.43,2.199,0.875,3.275,1.324  c20.071,8.414,32.779,19.607,36.785,32.119C249.936,227.276,250.395,230.169,250.395,233.114z"/>
<g>
	<ellipse style="fill:#F1F1F1;" cx="128" cy="232" rx="68.15" ry="19.95"/>
	<path style="fill:#F1F1F1;" d="M120.83,177.707v27.457c-13.707,0.158-27.572,2.548-27.572,2.548L65.5,185.079   C82.152,180.733,101.051,178.194,120.83,177.707z"/>
	<path style="fill:#F1F1F1;" d="M249.033,224.446h-48.121c0,0-5.498-7.012-19.682-11.474l27.743-21.969   c1.109,0.43,2.199,0.875,3.275,1.324C232.318,200.742,245.026,211.934,249.033,224.446z"/>
	<path style="fill:#F1F1F1;" d="M201.782,277.826v45.764c-19.21,6.402-42.364,10.126-66.848,10.714v-45.768L201.782,277.826z"/>
	<path style="fill:#F1F1F1;" d="M201.782,277.826c-19.21,6.397-42.364,10.121-66.848,10.71v-29.26c0,0,17.212-0.645,30.837-3.275   L201.782,277.826z"/>
	<path style="fill:#F1F1F1;" d="M39.725,272.13v45.77c-22.05-10.17-34.12-23.92-34.12-39.02v-42.93L39.725,272.13z"/>
	<path style="fill:#F1F1F1;" d="M73.952,251.951L39.72,272.127c-19.009-8.768-30.598-20.2-33.429-32.86h48.24   C54.532,239.267,59.856,248.231,73.952,251.951z"/>
</g>
<path style="fill:#00743A;" d="M250.395,189.17v45.76c0,15.99-13.55,30.48-38.14,40.8c-3.34,1.4-6.83,2.7-10.47,3.91  c-19.21,6.4-42.37,10.13-66.85,10.72c-2.3,0.05-4.61,0.08-6.93,0.08c-31.71,0-61.64-5.22-84.25-14.71  c-1.38-0.58-2.72-1.18-4.03-1.78c-22.05-10.17-34.12-23.92-34.12-39.02v-45.76L250.395,189.17L250.395,189.17z"/>
<path style="fill:#008C48;" d="M250.395,189.166c0,15.988-13.545,30.474-38.148,40.792c-3.337,1.401-6.827,2.706-10.466,3.92  c-19.21,6.397-42.364,10.121-66.848,10.71c-2.3,0.057-4.609,0.086-6.933,0.086c-31.708,0-61.627-5.226-84.246-14.716  c-1.382-0.579-2.725-1.171-4.035-1.779c-19.009-8.768-30.598-20.2-33.429-32.86c-0.454-2.022-0.684-4.074-0.684-6.153  c0-15.983,13.545-30.469,38.148-40.787c6.66-2.792,13.951-5.216,21.739-7.248H65.5c16.652-4.346,35.551-6.885,55.33-7.372  c2.376-0.067,4.771-0.096,7.171-0.096c30.202,0,58.778,4.743,80.971,13.392c1.109,0.43,2.199,0.875,3.275,1.324  c20.071,8.414,32.779,19.607,36.785,32.119C249.936,183.329,250.395,186.221,250.395,189.166z"/>
<g>
	<ellipse style="fill:#F1F1F1;" cx="128" cy="188.06" rx="68.15" ry="19.949"/>
	<path style="fill:#F1F1F1;" d="M120.83,133.759v27.457c-13.707,0.158-27.572,2.548-27.572,2.548L65.5,141.132   C82.152,136.786,101.051,134.247,120.83,133.759z"/>
	<path style="fill:#F1F1F1;" d="M249.033,180.498h-48.121c0,0-5.498-7.012-19.682-11.474l27.743-21.969   c1.109,0.43,2.199,0.875,3.275,1.324C232.318,156.794,245.026,167.986,249.033,180.498z"/>
</g>
<path style="fill:#E1E1E4;" d="M201.782,233.878v45.764c-19.21,6.402-42.364,10.126-66.848,10.714v-45.768L201.782,233.878z"/>
<path style="fill:#F1F1F1;" d="M201.782,233.878c-19.21,6.397-42.364,10.121-66.848,10.71v-29.26c0,0,17.212-0.645,30.837-3.275  L201.782,233.878z"/>
<path style="fill:#E1E1E4;" d="M39.725,228.18v45.77c-22.05-10.17-34.12-23.92-34.12-39.02v-45.76h2.79L39.725,228.18z"/>
<path style="fill:#F1F1F1;" d="M73.952,208.003L39.72,228.179c-19.009-8.768-30.598-20.2-33.429-32.86h48.24  C54.532,195.319,59.856,204.284,73.952,208.003z"/>
<path style="fill:#0082D2;" d="M250.395,143.4v45.77c0,15.98-13.55,30.47-38.14,40.79c-3.34,1.4-6.83,2.7-10.47,3.91  c-19.21,6.4-42.37,10.13-66.85,10.72c-2.3,0.05-4.61,0.08-6.93,0.08c-31.71,0-61.64-5.22-84.25-14.71  c-1.38-0.58-2.72-1.17-4.03-1.78c-22.05-10.17-34.12-23.92-34.12-39.01V143.4H250.395z"/>
<path style="fill:#00ACEA;" d="M250.395,143.398c0,15.988-13.545,30.474-38.148,40.792c-3.337,1.401-6.827,2.706-10.466,3.92  c-19.21,6.397-42.364,10.121-66.848,10.71c-2.3,0.057-4.609,0.086-6.933,0.086c-31.708,0-61.627-5.226-84.246-14.716  c-1.382-0.578-2.725-1.171-4.035-1.779c-19.009-8.768-30.598-20.2-33.429-32.86c-0.454-2.022-0.684-4.073-0.684-6.153  c0-15.983,13.545-30.469,38.148-40.787c6.66-2.792,13.951-5.216,21.739-7.248H65.5c16.652-4.346,35.551-6.885,55.33-7.372  c2.376-0.067,4.771-0.096,7.171-0.096c30.202,0,58.778,4.743,80.971,13.392c1.109,0.43,2.199,0.875,3.275,1.324  c20.071,8.414,32.779,19.607,36.785,32.119C249.936,137.56,250.395,140.453,250.395,143.398z"/>
<g>
	<ellipse style="fill:#F1F1F1;" cx="128" cy="142.29" rx="68.15" ry="19.95"/>
	<path style="fill:#F1F1F1;" d="M120.83,87.991v27.457c-13.707,0.158-27.572,2.548-27.572,2.548L65.5,95.363   C82.152,91.017,101.051,88.478,120.83,87.991z"/>
	<path style="fill:#F1F1F1;" d="M249.033,134.73h-48.121c0,0-5.498-7.012-19.682-11.474l27.743-21.969   c1.109,0.43,2.199,0.875,3.275,1.324C232.318,111.026,245.026,122.218,249.033,134.73z"/>
</g>
<path style="fill:#E1E1E4;" d="M201.782,188.11v45.764c-19.21,6.402-42.364,10.126-66.848,10.714v-45.769L201.782,188.11z"/>
<path style="fill:#F1F1F1;" d="M201.782,188.11c-19.21,6.397-42.364,10.121-66.848,10.71v-29.26c0,0,17.212-0.645,30.837-3.275  L201.782,188.11z"/>
<path style="fill:#E1E1E4;" d="M39.725,182.41v45.77c-22.05-10.17-34.12-23.92-34.12-39.01V143.4h0.17L39.725,182.41z"/>
<path style="fill:#F1F1F1;" d="M73.952,162.235L39.72,182.411c-19.009-8.768-30.598-20.2-33.429-32.86h48.24  C54.532,149.551,59.856,158.515,73.952,162.235z"/>
<path style="fill:#990013;" d="M250.395,99.451v45.77c0,15.99-13.55,30.47-38.14,40.79c-3.34,1.4-6.83,2.71-10.47,3.92  c-19.21,6.4-42.37,10.12-66.85,10.71c-2.3,0.06-4.61,0.09-6.93,0.09c-31.71,0-61.64-5.23-84.25-14.72  c-1.38-0.58-2.72-1.17-4.03-1.77c-22.05-10.18-34.12-23.93-34.12-39.02v-45.77L250.395,99.451L250.395,99.451z"/>
<path style="fill:#E70020;" d="M250.395,99.45c0,15.988-13.545,30.474-38.148,40.791c-3.337,1.401-6.827,2.706-10.466,3.92  c-19.21,6.397-42.364,10.121-66.848,10.709c-2.3,0.057-4.609,0.086-6.933,0.086c-31.708,0-61.627-5.226-84.246-14.716  c-1.382-0.578-2.725-1.171-4.035-1.779c-19.009-8.768-30.598-20.2-33.429-32.86c-0.454-2.022-0.684-4.073-0.684-6.153  c0-15.983,13.545-30.469,38.148-40.787c6.66-2.792,13.951-5.216,21.739-7.248H65.5c16.652-4.346,35.551-6.885,55.33-7.372  c2.376-0.067,4.771-0.096,7.171-0.096c30.202,0,58.778,4.743,80.971,13.392c1.109,0.43,2.199,0.875,3.275,1.324  c20.071,8.414,32.779,19.607,36.785,32.119C249.936,93.612,250.395,96.505,250.395,99.45z"/>
<g>
	<ellipse style="fill:#F1F1F1;" cx="128" cy="98.34" rx="68.15" ry="19.95"/>
	<path style="fill:#F1F1F1;" d="M120.83,44.043V71.5c-13.707,0.158-27.572,2.548-27.572,2.548L65.5,51.415   C82.152,47.07,101.051,44.531,120.83,44.043z"/>
	<path style="fill:#F1F1F1;" d="M249.033,90.782h-48.121c0,0-5.498-7.012-19.682-11.474l27.743-21.969   c1.109,0.43,2.199,0.875,3.275,1.324C232.318,67.078,245.026,78.27,249.033,90.782z"/>
	<path style="fill:#F1F1F1;" d="M201.782,144.162v45.764c-19.21,6.402-42.364,10.126-66.848,10.714v-45.769L201.782,144.162z"/>
	<path style="fill:#F1F1F1;" d="M201.782,144.162c-19.21,6.397-42.364,10.121-66.848,10.709v-29.26c0,0,17.212-0.646,30.837-3.275   L201.782,144.162z"/>
	<path style="fill:#F1F1F1;" d="M39.725,138.46v45.78c-22.05-10.18-34.12-23.93-34.12-39.02v-44.31L39.725,138.46z"/>
	<path style="fill:#F1F1F1;" d="M73.952,118.287L39.72,138.463c-19.009-8.768-30.598-20.2-33.429-32.86h48.24   C54.532,105.603,59.856,114.568,73.952,118.287z"/>
</g>
<path style="fill:#00743A;" d="M250.395,55.503v45.768c0,15.988-13.549,30.474-38.143,40.792c-3.337,1.401-6.832,2.706-10.47,3.916  c-19.21,6.402-42.364,10.126-66.848,10.714c-2.3,0.057-4.609,0.086-6.933,0.086c-31.708,0-61.632-5.226-84.251-14.716  c-1.377-0.579-2.72-1.171-4.03-1.774c-22.04-10.174-34.112-23.924-34.112-39.018V55.503H250.395z"/>
<path style="fill:#008C48;" d="M250.395,55.503c0,15.988-13.545,30.474-38.148,40.791c-3.337,1.401-6.827,2.706-10.466,3.92  c-19.21,6.397-42.364,10.121-66.848,10.709c-2.3,0.057-4.609,0.086-6.933,0.086c-31.708,0-61.627-5.226-84.246-14.716  c-1.382-0.578-2.725-1.171-4.035-1.779C20.71,85.746,9.121,74.314,6.29,61.654c-0.454-2.022-0.684-4.073-0.684-6.153  c0-15.983,13.545-30.469,38.148-40.787c6.66-2.792,13.951-5.216,21.739-7.248H65.5c16.652-4.346,35.551-6.885,55.33-7.372  C123.206,0.029,125.602,0,128.002,0c30.202,0,58.778,4.743,80.971,13.391c1.109,0.43,2.199,0.875,3.275,1.324  c20.071,8.415,32.779,19.607,36.785,32.119C249.936,49.665,250.395,52.557,250.395,55.503z"/>
<g>
	<ellipse style="fill:#F1F1F1;" cx="128" cy="54.39" rx="68.15" ry="19.95"/>
	<path style="fill:#F1F1F1;" d="M120.83,0.096v27.457c-13.707,0.158-27.572,2.548-27.572,2.548L65.5,7.468   C82.152,3.122,101.051,0.583,120.83,0.096z"/>
	<path style="fill:#F1F1F1;" d="M249.033,46.835h-48.121c0,0-5.498-7.012-19.682-11.474l27.743-21.969   c1.109,0.43,2.199,0.875,3.275,1.324C232.318,23.13,245.026,34.323,249.033,46.835z"/>
</g>
<path style="fill:#E1E1E4;" d="M201.782,100.214v45.764c-19.21,6.402-42.364,10.126-66.848,10.714v-45.769L201.782,100.214z"/>
<path style="fill:#F1F1F1;" d="M201.782,100.214c-19.21,6.397-42.364,10.121-66.848,10.709v-29.26c0,0,17.212-0.645,30.837-3.275  L201.782,100.214z"/>
<path style="fill:#E1E1E4;" d="M39.72,94.515v45.773C17.68,130.114,5.608,116.364,5.608,101.27V62.033l0.684-0.378L39.72,94.515z"/>
<path style="fill:#F1F1F1;" d="M73.952,74.34L39.72,94.515c-19.009-8.768-30.598-20.2-33.429-32.86h48.24  C54.532,61.656,59.856,70.62,73.952,74.34z"/>
<path style="fill:#0082D2;" d="M506.395,410.72v45.77c0,15.99-13.55,30.48-38.14,40.79c-3.34,1.4-6.83,2.71-10.47,3.92  c-19.21,6.4-42.37,10.13-66.85,10.71c-2.3,0.06-4.61,0.09-6.93,0.09c-31.71,0-61.64-5.23-84.25-14.72  c-1.38-0.57-2.72-1.17-4.03-1.77c-22.05-10.17-34.12-23.92-34.12-39.02v-45.77L506.395,410.72L506.395,410.72z"/>
<path style="fill:#00ACEA;" d="M506.395,410.724c0,15.988-13.545,30.474-38.148,40.791c-3.337,1.401-6.827,2.706-10.466,3.92  c-19.21,6.397-42.364,10.121-66.848,10.71c-2.3,0.057-4.609,0.086-6.932,0.086c-31.708,0-61.627-5.226-84.246-14.716  c-1.382-0.578-2.725-1.171-4.035-1.778c-19.009-8.768-30.598-20.2-33.429-32.86c-0.454-2.022-0.684-4.073-0.684-6.153  c0-15.983,13.544-30.469,38.148-40.787c6.66-2.792,13.951-5.216,21.739-7.248h0.005c16.652-4.346,35.552-6.885,55.331-7.372  c2.376-0.067,4.772-0.096,7.172-0.096c30.202,0,58.778,4.743,80.971,13.392c1.109,0.43,2.199,0.875,3.275,1.324  c20.071,8.415,32.779,19.607,36.785,32.119C505.936,404.886,506.395,407.779,506.395,410.724z"/>
<g>
	<ellipse style="fill:#F1F1F1;" cx="384" cy="409.61" rx="68.15" ry="19.95"/>
	<path style="fill:#F1F1F1;" d="M376.83,355.317v27.457c-13.707,0.158-27.572,2.548-27.572,2.548L321.5,362.689   C338.152,358.344,357.051,355.805,376.83,355.317z"/>
	<path style="fill:#F1F1F1;" d="M505.033,402.056h-48.121c0,0-5.498-7.012-19.682-11.474l27.743-21.969   c1.109,0.43,2.199,0.875,3.275,1.324C488.318,378.352,501.026,389.544,505.033,402.056z"/>
</g>
<path style="fill:#E1E1E4;" d="M457.782,455.436V501.2c-19.21,6.402-42.364,10.126-66.848,10.714v-45.769L457.782,455.436z"/>
<path style="fill:#F1F1F1;" d="M457.782,455.436c-19.21,6.397-42.364,10.121-66.848,10.71v-29.26c0,0,17.212-0.645,30.837-3.275  L457.782,455.436z"/>
<path style="fill:#E1E1E4;" d="M295.725,449.74v45.77c-22.05-10.17-34.12-23.92-34.12-39.02v-45.77h0.01L295.725,449.74z"/>
<path style="fill:#F1F1F1;" d="M329.952,429.561l-34.232,20.176c-19.009-8.768-30.598-20.2-33.429-32.86h48.24  C310.532,416.877,315.856,425.842,329.952,429.561z"/>
<path style="fill:#990013;" d="M506.395,366.78v45.76c0,15.99-13.55,30.48-38.14,40.8c-3.34,1.4-6.83,2.7-10.47,3.91  c-19.21,6.4-42.37,10.13-66.85,10.72c-2.3,0.05-4.61,0.08-6.93,0.08c-31.71,0-61.64-5.22-84.25-14.71  c-1.38-0.58-2.72-1.18-4.03-1.78c-22.05-10.17-34.12-23.92-34.12-39.02v-45.76H506.395z"/>
<path style="fill:#E70020;" d="M506.395,366.776c0,15.988-13.545,30.474-38.148,40.792c-3.337,1.401-6.827,2.706-10.466,3.92  c-19.21,6.397-42.364,10.122-66.848,10.71c-2.3,0.057-4.609,0.086-6.932,0.086c-31.708,0-61.627-5.226-84.246-14.716  c-1.382-0.578-2.725-1.171-4.035-1.779c-19.009-8.768-30.598-20.2-33.429-32.86c-0.454-2.022-0.684-4.073-0.684-6.153  c0-15.983,13.544-30.469,38.148-40.787c6.66-2.792,13.951-5.216,21.739-7.248h0.005c16.652-4.346,35.552-6.885,55.331-7.372  c2.376-0.067,4.772-0.096,7.172-0.096c30.202,0,58.778,4.743,80.971,13.392c1.109,0.43,2.199,0.875,3.275,1.324  c20.071,8.415,32.779,19.607,36.785,32.119C505.936,360.939,506.395,363.831,506.395,366.776z"/>
<g>
	<ellipse style="fill:#F1F1F1;" cx="384" cy="365.67" rx="68.15" ry="19.95"/>
	<path style="fill:#F1F1F1;" d="M376.83,311.37v27.457c-13.707,0.158-27.572,2.548-27.572,2.548L321.5,318.742   C338.152,314.396,357.051,311.857,376.83,311.37z"/>
	<path style="fill:#F1F1F1;" d="M505.033,358.108h-48.121c0,0-5.498-7.012-19.682-11.474l27.743-21.969   c1.109,0.43,2.199,0.875,3.275,1.324C488.318,334.404,501.026,345.597,505.033,358.108z"/>
	<path style="fill:#F1F1F1;" d="M457.782,411.488v45.764c-19.21,6.402-42.364,10.126-66.848,10.714v-45.768L457.782,411.488z"/>
	<path style="fill:#F1F1F1;" d="M457.782,411.488c-19.21,6.397-42.364,10.122-66.848,10.71v-29.26c0,0,17.212-0.645,30.837-3.275   L457.782,411.488z"/>
	<path style="fill:#F1F1F1;" d="M295.725,405.79v45.77c-22.05-10.17-34.12-23.92-34.12-39.02v-44.42L295.725,405.79z"/>
	<path style="fill:#F1F1F1;" d="M329.952,385.614L295.72,405.79c-19.009-8.768-30.598-20.2-33.429-32.86h48.24   C310.532,372.93,315.856,381.894,329.952,385.614z"/>
</g>
<path style="fill:#00743A;" d="M506.395,322.829v45.768c0,15.988-13.549,30.474-38.143,40.792c-3.337,1.401-6.832,2.706-10.47,3.916  c-19.21,6.402-42.364,10.126-66.848,10.714c-2.3,0.057-4.609,0.086-6.932,0.086c-31.708,0-61.632-5.226-84.251-14.716  c-1.377-0.578-2.72-1.171-4.03-1.774c-22.04-10.174-34.112-23.924-34.112-39.018v-45.768L506.395,322.829L506.395,322.829z"/>
<path style="fill:#008C48;" d="M506.395,322.829c0,15.988-13.545,30.474-38.148,40.792c-3.337,1.401-6.827,2.706-10.466,3.92  c-19.21,6.397-42.364,10.121-66.848,10.71c-2.3,0.057-4.609,0.086-6.932,0.086c-31.708,0-61.627-5.226-84.246-14.716  c-1.382-0.578-2.725-1.171-4.035-1.779c-19.009-8.768-30.598-20.2-33.429-32.86c-0.454-2.022-0.684-4.073-0.684-6.153  c0-15.983,13.544-30.469,38.148-40.787c6.66-2.792,13.951-5.216,21.739-7.248h0.005c16.652-4.346,35.552-6.885,55.331-7.372  c2.376-0.067,4.772-0.096,7.172-0.096c30.202,0,58.778,4.743,80.971,13.392c1.109,0.43,2.199,0.875,3.275,1.324  c20.071,8.415,32.779,19.607,36.785,32.119C505.936,316.991,506.395,319.884,506.395,322.829z"/>
<g>
	<ellipse style="fill:#F1F1F1;" cx="384" cy="321.72" rx="68.15" ry="19.95"/>
	<path style="fill:#F1F1F1;" d="M376.83,267.422v27.457c-13.707,0.158-27.572,2.548-27.572,2.548L321.5,274.794   C338.152,270.448,357.051,267.91,376.83,267.422z"/>
	<path style="fill:#F1F1F1;" d="M505.033,314.161h-48.121c0,0-5.498-7.012-19.682-11.474l27.743-21.969   c1.109,0.43,2.199,0.875,3.275,1.324C488.318,290.457,501.026,301.649,505.033,314.161z"/>
</g>
<path style="fill:#E1E1E4;" d="M457.782,367.541v45.764c-19.21,6.402-42.364,10.126-66.848,10.714V378.25L457.782,367.541z"/>
<path style="fill:#F1F1F1;" d="M457.782,367.541c-19.21,6.397-42.364,10.121-66.848,10.71v-29.26c0,0,17.212-0.645,30.837-3.275  L457.782,367.541z"/>
<path style="fill:#E1E1E4;" d="M295.72,361.842v45.773c-22.04-10.174-34.112-23.924-34.112-39.018V329.36l0.684-0.378  L295.72,361.842z"/>
<path style="fill:#F1F1F1;" d="M329.952,341.666l-34.232,20.176c-19.009-8.768-30.598-20.2-33.429-32.86h48.24  C310.532,328.982,315.856,337.946,329.952,341.666z"/>
<g>
</g>
<g>
</g>
<g>
</g>
<g>
</g>
<g>
</g>
<g>
</g>
<g>
</g>
<g>
</g>
<g>
</g>
<g>
</g>
<g>
</g>
<g>
</g>
<g>
</g>
<g>
</g>
<g>
</g>
</svg>
