<svg height="512" viewBox="0 0 50 58" width="512" xmlns="http://www.w3.org/2000/svg"><g id="023---Queen-On-Stamp" fill="none"><path id="Shape" d="m48.891 9.789c.6548911.2389938 1.0954917.8559937 1.109 1.553v.316c-.0135083.6970063-.4541089 1.3140062-1.109 1.553-1.1437078.4532205-1.8947946 1.5587657-1.8947946 2.789s.7510868 2.3357795 1.8947946 2.789c.6548911.2389938 1.0954917.8559937 1.109 1.553v.316c-.0135083.6970063-.4541089 1.3140062-1.109 1.553-1.1437078.4532205-1.8947946 1.5587657-1.8947946 2.789s.7510868 2.3357795 1.8947946 2.789c.6548911.2389938 1.0954917.8559937 1.109 1.553v.316c-.0135083.6970063-.4541089 1.3140062-1.109 1.553-1.1437078.4532205-1.8947946 1.5587657-1.8947946 2.789s.7510868 2.3357795 1.8947946 2.789c.6548911.2389938 1.0954917.8559937 1.109 1.553v.316c-.0135083.6970063-.4541089 1.3140062-1.109 1.553-1.1437078.4532205-1.8947946 1.5587657-1.8947946 2.789s.7510868 2.3357795 1.8947946 2.789c.6548911.2389938 1.0954917.8559937 1.109 1.553v.316c-.0135083.6970063-.4541089 1.3140062-1.109 1.553-1.1437078.4532205-1.8947946 1.5587657-1.8947946 2.789s.7510868 2.3357795 1.8947946 2.789c.6548911.2389938 1.0954917.8559937 1.109 1.553v.011c0 .909613-.737387 1.647-1.647 1.647h-6.011c-.6970063-.0135083-1.3140062-.4541089-1.553-1.109-.4532205-1.1437078-1.5587657-1.8947946-2.789-1.8947946s-2.3357795.7510868-2.789 1.8947946c-.2389938.6548911-.8559937 1.0954917-1.553 1.109h-.316c-.6970063-.0135083-1.3140062-.4541089-1.553-1.109-.4532205-1.1437078-1.5587657-1.8947946-2.789-1.8947946s-2.3357795.7510868-2.789 1.8947946c-.2389938.6548911-.8559937 1.0954917-1.553 1.109h-.316c-.6970063-.0135083-1.3140062-.4541089-1.553-1.109-.4532205-1.1437078-1.5587657-1.8947946-2.789-1.8947946s-2.3357795.7510868-2.789 1.8947946c-.2389938.6548911-.8559937 1.0954917-1.553 1.109h-.316c-.6970063-.0135083-1.3140062-.4541089-1.553-1.109-.4532205-1.1437078-1.5587657-1.8947946-2.789-1.8947946-1.23023425 0-2.33577948.7510868-2.789 1.8947946-.23899379.6548911-.85599365 1.0954917-1.553 1.109h-5.011c-.43681156 0-.85573245-.1735227-1.16460487-.4823951-.30887241-.3088724-.48239513-.7277933-.48239513-1.1646049v-1.011c.01350828-.6970063.45410895-1.3140062 1.109-1.553 1.14370778-.4532205 1.89479459-1.5587657 1.89479459-2.789s-.75108681-2.3357795-1.89479459-2.789c-.65489105-.2389938-1.09549172-.8559937-1.109-1.553v-.316c.01350828-.6970063.45410895-1.3140062 1.109-1.553 1.14370778-.4532205 1.89479459-1.5587657 1.89479459-2.789s-.75108681-2.3357795-1.89479459-2.789c-.65489105-.2389938-1.09549172-.8559937-1.109-1.553v-.316c.01350828-.6970063.45410895-1.3140062 1.109-1.553 1.14370778-.4532205 1.89479459-1.5587657 1.89479459-2.789s-.75108681-2.3357795-1.89479459-2.789c-.65489105-.2389938-1.09549172-.8559937-1.109-1.553v-.316c.01350828-.6970063.45410895-1.3140062 1.109-1.553 1.14370778-.4532205 1.89479459-1.5587657 1.89479459-2.789s-.75108681-2.3357795-1.89479459-2.789c-.65489105-.2389938-1.09549172-.8559937-1.109-1.553v-.316c.01350828-.6970063.45410895-1.3140062 1.109-1.553 1.14370778-.4532205 1.89479459-1.5587657 1.89479459-2.789s-.75108681-2.3357795-1.89479459-2.789c-.65489105-.2389938-1.09549172-.8559937-1.109-1.553v-.316c.01350828-.69700635.45410895-1.31400621 1.109-1.553 1.14370778-.45322052 1.89479459-1.55876575 1.89479459-2.789s-.75108681-2.33577948-1.89479459-2.789c-.65489105-.23899379-1.09549172-.85599365-1.109-1.553v-.011c0-.90961298.73738702-1.647 1.647-1.647h6.011c.69700635.01350828 1.31400621.45410895 1.553 1.109.45322052 1.14370778 1.5587657 1.89479459 2.789 1.89479459s2.3357795-.75108681 2.789-1.89479459c.2389938-.65489105.8559937-1.09549172 1.553-1.109h.316c.6970063.01350828 1.3140062.45410895 1.553 1.109.4532205 1.14370778 1.5587657 1.89479459 2.789 1.89479459s2.3357795-.75108681 2.789-1.89479459c.2389938-.65489105.8559937-1.09549172 1.553-1.109h.316c.6970063.01350828 1.3140062.45410895 1.553 1.109.4532205 1.14370778 1.5587657 1.89479459 2.789 1.89479459s2.3357795-.75108681 2.789-1.89479459c.2389938-.65489105.8559937-1.09549172 1.553-1.109h.316c.6970063.01350828 1.3140062.45410895 1.553 1.109.4532205 1.14370778 1.5587657 1.89479459 2.789 1.89479459s2.3357795-.75108681 2.789-1.89479459c.2389938-.65489105.8559937-1.09549172 1.553-1.109h5.011c.909613 0 1.647.73738702 1.647 1.647v1.011c-.0135083.69700635-.4541089 1.31400621-1.109 1.553-1.1437078.45322052-1.8947946 1.55876575-1.8947946 2.789s.7510868 2.33577948 1.8947946 2.789z" fill="#e64c3c"/><rect id="Rectangle-path" fill="#c03a2b" height="44" rx="2" width="36" x="7" y="7"/><path id="Shape" d="m41 52h-32c-1.65685425 0-3-1.3431458-3-3v-40c0-1.65685425 1.34314575-3 3-3h32c1.6568542 0 3 1.34314575 3 3v40c0 1.6568542-1.3431458 3-3 3zm-32-44c-.55228475 0-1 .44771525-1 1v40c0 .5522847.44771525 1 1 1h32c.5522847 0 1-.4477153 1-1v-40c0-.55228475-.4477153-1-1-1z" fill="#f5efca"/><path id="Shape" d="m15.59 30c-.8917989.162629-1.6720953.6974483-2.1454877 1.4705285-.4733923.7730803-.5950518 1.7112131-.3345123 2.5794715.0519112.282575-.0858037.5661057-.34.7-1.0780106.5680377-1.757637 1.6815498-1.77 2.9-.1349337 1.6348113 1.0424194 3.0855574 2.67 3.29.2765805.0467317.4932683.2634195.54.54.259091 1.4660288 1.2617063 2.6919373 2.6471864 3.2367432 1.3854801.5448058 2.9545606.3301533 4.1428136-.5667432h8c1.1880968.8974908 2.7574511 1.1124861 4.1431485.5675948 1.3856973-.5448913 2.3882798-1.7712373 2.6468515-3.2375948.0467317-.2765805.2634195-.4932683.54-.54 1.6275806-.2044426 2.8049337-1.6551887 2.67-3.29-.012363-1.2184502-.6919894-2.3319623-1.77-2.9-.2541963-.1338943-.3919112-.417425-.34-.7.2605395-.8682584.13888-1.8063912-.3345123-2.5794715-.4733924-.7730802-1.2536888-1.3078995-2.1454877-1.4705285l-9.41-2z" fill="#fb7b76"/><path id="Shape" d="m29.585 30c.8740855 1.1197067 1.9156668 2.0978757 3.088 2.9.2082021.1419375.3310809.3790522.327.631 0 3.434.074 3.715-.223 4.476-.765 1.96-3.469 7.993-7.777 7.993s-7.012-6.033-7.777-7.992c-.1475708-.3807737-.2231847-.7856304-.223-1.194 0-6.051-.454-2 3.415-6.814" fill="#f5efca"/><path id="Shape" d="m36 28v-14.979c-.0000592-.4062194-.2458481-.772039-.621914-.9256248-.376066-.1535859-.8076732-.0644159-1.092086.2256248l-3.072 3.136c-.1880682.1917896-.4453871.2998543-.714.2998543s-.5259318-.1080647-.714-.2998543l-4.072-4.157c-.1880682-.1917896-.4453871-.2998543-.714-.2998543s-.5259318.1080647-.714.2998543l-4.072 4.157c-.1880682.1917896-.4453871.2998543-.714.2998543s-.5259318-.1080647-.714-.2998543l-3.072-3.136c-.2844128-.2900407-.71602-.3792107-1.092086-.2256248-.3760659.1535858-.6218548.5194054-.621914.9256248v14.979z" fill="#fb7b76"/><g fill="#f5efca"><circle id="Oval" cx="25" cy="20" r="2"/><circle id="Oval" cx="18" cy="20" r="1"/><circle id="Oval" cx="32" cy="20" r="1"/></g><path id="Shape" d="m36 30h-22c-1.1045695 0-2-.8954305-2-2s.8954305-2 2-2h22c1.1045695 0 2 .8954305 2 2s-.8954305 2-2 2z" fill="#e64c3c"/></g></svg>