<?xml version="1.0" encoding="iso-8859-1"?>
<!-- Generator: Adobe Illustrator 19.0.0, SVG Export Plug-In . SVG Version: 6.00 Build 0)  -->
<svg xmlns="http://www.w3.org/2000/svg" xmlns:xlink="http://www.w3.org/1999/xlink" version="1.1" id="Layer_1" x="0px" y="0px" viewBox="0 0 512 512" style="enable-background:new 0 0 512 512;" xml:space="preserve">
<g>
	<g>
		<path d="M272.76,73.484c-21.491,9.015-49.736,13.98-79.534,13.98c-29.798,0-58.044-4.965-79.533-13.979    c-3.533-1.482-6.745-3.021-9.69-4.598v35.221v1.366c0,3.913,6.671,10.922,21.318,17.067c17.631,7.397,42.382,11.639,67.905,11.639    c25.523,0,50.273-4.242,67.906-11.639c14.646-6.144,21.317-13.154,21.317-17.067v-1.366V68.887    C279.504,70.463,276.293,72.002,272.76,73.484z"/>
	</g>
</g>
<g>
	<g>
		<path d="M272.759,150.261c-21.488,9.015-49.734,13.98-79.534,13.98c-29.8,0-58.046-4.965-79.534-13.98    c-3.533-1.482-6.744-3.022-9.688-4.598v33.953v1.265c0,3.913,6.671,10.922,21.318,17.067    c17.631,7.397,42.382,11.639,67.905,11.639c25.523,0,50.273-4.243,67.906-11.639c14.646-6.144,21.317-13.154,21.317-17.067v-1.265    v-33.953C279.503,147.24,276.292,148.779,272.759,150.261z"/>
	</g>
</g>
<g>
	<g>
		<path d="M261.132,11.638C243.498,4.242,218.747,0,193.226,0c-25.521,0-50.272,4.243-67.906,11.638    c-14.647,6.144-21.319,13.152-21.319,17.063h0.002v0.019h-0.001c0.021,3.914,6.692,10.909,21.317,17.044    c17.633,7.396,42.384,11.638,67.906,11.638c25.522,0,50.272-4.242,67.906-11.638c14.619-6.132,21.291-13.124,21.317-17.039v-0.024    h0.003C282.451,24.791,275.779,17.783,261.132,11.638z"/>
	</g>
</g>
<g>
	<g>
		<path d="M193.226,239.652c-29.8,0-58.047-4.97-79.53-13.988c-3.537-1.483-6.744-3.016-9.69-4.599v35.321    c0,3.918,6.663,10.922,21.313,17.074c17.635,7.395,42.385,11.633,67.907,11.633c2.094,0,4.178-0.03,6.263-0.09v-29.399    c0-2.705,0.321-5.862,1.293-9.309c0.611-2.184,1.483-4.479,2.705-6.844C200.09,239.582,196.673,239.652,193.226,239.652z"/>
	</g>
</g>
<g>
	<g>
		<path d="M193.226,315.154c-29.8,0-58.047-4.96-79.53-13.978c-3.537-1.483-6.744-3.026-9.689-4.599v35.221    c0,3.908,6.663,10.922,21.313,17.064c17.635,7.395,42.385,11.643,67.907,11.643c2.094,0,4.178-0.03,6.263-0.09v-45.341    C197.405,315.134,195.32,315.154,193.226,315.154z"/>
	</g>
</g>
<g>
	<g>
		<path d="M199.489,483.292v-16.784h0c-2.084,0.06-4.168,0.08-6.263,0.08c-29.8,0-58.047-4.97-79.54-13.988    c-3.527-1.483-6.744-3.016-9.679-4.599v35.221c0,3.918,6.663,10.922,21.313,17.064c17.635,7.405,42.385,11.643,67.907,11.643    c6.443,0,12.836-0.271,19.078-0.802C203.908,502.882,199.489,493.433,199.489,483.292z"/>
	</g>
</g>
<g>
	<g>
		<path d="M193.226,390.566c-29.8,0-58.047-4.97-79.53-13.988c-3.537-1.473-6.744-3.016-9.689-4.589v35.832    c0,3.908,6.663,10.922,21.313,17.064c17.635,7.395,42.385,11.643,67.907,11.643c2.094,0,4.178-0.03,6.263-0.09v-45.952    C197.405,390.546,195.32,390.566,193.226,390.566z"/>
	</g>
</g>
<g>
	<g>
		<path d="M405.734,296.967c-0.381,0.2-0.772,0.391-1.162,0.581c-0.792,0.391-1.603,0.772-2.425,1.152    c-0.411,0.19-0.832,0.381-1.253,0.571c-0.842,0.381-1.703,0.752-2.585,1.122c-21.493,9.008-49.74,13.978-79.54,13.978    c-0.782,0-1.563,0-2.345-0.01c-0.521,0-1.042-0.01-1.553-0.02c-0.561-0.01-1.112-0.02-1.673-0.03    c-0.922-0.02-1.844-0.04-2.766-0.07c-0.621-0.02-1.242-0.04-1.864-0.07c-0.481-0.01-0.962-0.03-1.443-0.06    c-2.305-0.09-4.599-0.23-6.874-0.391c-1.162-0.08-2.315-0.17-3.457-0.271c-0.16-0.01-0.321-0.03-0.481-0.04    c-0.421-0.03-0.832-0.07-1.253-0.11c-4.279-0.391-8.487-0.882-12.615-1.493c-1.102-0.16-2.194-0.321-3.277-0.501    c-1.092-0.17-2.174-0.351-3.247-0.541h-0.03c-1.062-0.19-2.114-0.391-3.166-0.591c-0.942-0.17-1.874-0.361-2.806-0.551    c-0.772-0.16-1.543-0.321-2.315-0.491c-0.541-0.12-1.082-0.23-1.613-0.361c-0.952-0.21-1.894-0.431-2.826-0.661    c-0.942-0.231-1.884-0.461-2.806-0.701c-1.002-0.26-1.994-0.531-2.976-0.802c-0.721-0.19-1.433-0.401-2.144-0.611    c-0.13-0.03-0.271-0.07-0.401-0.11c-0.581-0.17-1.152-0.341-1.724-0.521c-0.471-0.14-0.942-0.281-1.403-0.431    c-0.651-0.2-1.293-0.411-1.924-0.621c-0.992-0.321-1.974-0.661-2.946-1.002c-0.471-0.16-0.932-0.321-1.393-0.491    c-2.124-0.772-4.198-1.583-6.212-2.425c-1.623-0.681-3.206-1.383-4.74-2.114c-0.511-0.24-1.022-0.481-1.523-0.732    c-0.391-0.19-0.782-0.381-1.172-0.581c-0.762-0.391-1.523-0.782-2.255-1.172v0.01v16.794v19.78c0,0.12,0.01,0.24,0.02,0.361    c0.06,0.681,0.311,1.433,0.752,2.255c0.13,0.24,0.281,0.491,0.441,0.752c0.01,0.03,0.03,0.06,0.06,0.09    c0.11,0.16,0.22,0.321,0.341,0.491s0.251,0.341,0.381,0.511c0.02,0.02,0.04,0.05,0.06,0.08c0.25,0.311,0.521,0.631,0.832,0.962    c0.16,0.18,0.331,0.361,0.511,0.541c0.531,0.541,1.122,1.092,1.774,1.653c0.431,0.371,0.882,0.742,1.363,1.122    c0.26,0.2,0.531,0.411,0.802,0.601c0.26,0.19,0.531,0.391,0.802,0.581c0.331,0.23,0.661,0.461,1.002,0.691    c0.541,0.351,1.102,0.711,1.683,1.072c0.321,0.2,0.651,0.401,0.992,0.601c0.331,0.19,0.671,0.391,1.022,0.591l0.451,0.25l0.1,0.06    l0.802,0.421c0.551,0.301,1.122,0.591,1.703,0.882c0.281,0.14,0.571,0.291,0.862,0.431c0.21,0.11,0.431,0.21,0.651,0.321    c0.08,0.03,0.16,0.07,0.24,0.11c1.192,0.571,2.415,1.112,3.667,1.633c1.273,0.541,2.585,1.052,3.938,1.563    c0.12,0.04,0.24,0.09,0.371,0.14h0.01c0.1,0.04,0.19,0.07,0.291,0.1c0.441,0.17,0.892,0.331,1.343,0.481    c0.922,0.331,1.864,0.641,2.816,0.952c0.491,0.16,0.992,0.321,1.503,0.481c0.25,0.08,0.511,0.16,0.762,0.231    c0.581,0.18,1.172,0.351,1.754,0.521c1.032,0.301,2.074,0.581,3.126,0.862c2.906,0.782,5.922,1.493,9.028,2.124    c0.581,0.12,1.172,0.24,1.764,0.351c1.002,0.2,2.024,0.391,3.046,0.571c0.661,0.12,1.323,0.24,1.994,0.341    c5.03,0.852,10.231,1.513,15.561,1.994c0.571,0.06,1.132,0.1,1.703,0.15c0.751,0.06,1.503,0.12,2.265,0.18    c0.862,0.06,1.734,0.12,2.615,0.17c0.711,0.05,1.423,0.09,2.134,0.12c0.741,0.04,1.493,0.08,2.234,0.1    c0.852,0.04,1.693,0.07,2.545,0.1c0.782,0.02,1.553,0.04,2.335,0.06c1.583,0.03,3.176,0.05,4.77,0.05    c25.521,0,50.271-4.239,67.907-11.643c1.343-0.561,2.645-1.142,3.908-1.744c0.521-0.25,1.022-0.501,1.523-0.751    c0.581-0.291,1.142-0.581,1.703-0.882l1.353-0.732c0.351-0.2,0.691-0.391,1.022-0.591c0.341-0.2,0.681-0.401,1.002-0.611    c0.321-0.19,0.621-0.381,0.922-0.581c1.293-0.822,2.445-1.643,3.477-2.455c0.441-0.341,0.852-0.681,1.242-1.022    c0.15-0.13,0.301-0.25,0.441-0.381c0.281-0.251,0.561-0.501,0.812-0.752c0.13-0.12,0.261-0.25,0.381-0.371    c0.05-0.05,0.11-0.11,0.15-0.16c0.18-0.18,0.351-0.361,0.501-0.531c1.794-1.964,2.725-3.728,2.866-5.14    c0.01-0.12,0.02-0.24,0.02-0.361v-36.584C407.257,296.196,406.505,296.587,405.734,296.967z"/>
	</g>
</g>
<g>
	<g>
		<path d="M407.557,372.8c-0.591,0.321-1.202,0.631-1.824,0.942c-0.381,0.2-0.772,0.391-1.162,0.581    c-0.401,0.19-0.802,0.391-1.202,0.581c-0.371,0.17-0.741,0.351-1.122,0.521c-1.263,0.591-2.575,1.172-3.938,1.743    c-21.493,9.018-49.74,13.978-79.54,13.978c-0.782,0-1.563,0-2.345-0.01c-0.521,0-1.042-0.01-1.553-0.02    c-0.561-0.01-1.112-0.02-1.673-0.03c-0.922-0.02-1.844-0.04-2.766-0.07c-0.922-0.03-1.834-0.06-2.756-0.1    c-0.912-0.04-1.834-0.08-2.745-0.13c-1.814-0.09-3.607-0.21-5.401-0.341c-0.912-0.06-1.824-0.14-2.736-0.22    c-0.902-0.07-1.794-0.15-2.685-0.24c-1.192-0.11-2.375-0.23-3.547-0.361c-1.112-0.12-2.224-0.25-3.337-0.391    c-0.18-0.02-0.371-0.04-0.551-0.07c-1.283-0.16-2.555-0.331-3.818-0.511c-0.14-0.02-0.271-0.04-0.411-0.06    c-0.701-0.1-1.403-0.21-2.094-0.321c-0.641-0.09-1.273-0.19-1.914-0.301c-3.637-0.591-7.195-1.273-10.672-2.024    c-0.932-0.2-1.854-0.411-2.766-0.621c-0.1-0.02-0.21-0.05-0.311-0.07c-0.742-0.17-1.473-0.351-2.204-0.531    c-0.431-0.1-0.862-0.21-1.283-0.321c-1.012-0.25-2.014-0.521-3.006-0.792c-1.082-0.291-2.164-0.601-3.226-0.912h-0.01    c-0.691-0.2-1.383-0.401-2.064-0.621c-0.691-0.2-1.373-0.421-2.044-0.641c-0.661-0.21-1.323-0.421-1.974-0.651    c-0.421-0.13-0.852-0.281-1.273-0.431c-0.661-0.22-1.313-0.451-1.964-0.691c-2.194-0.792-4.329-1.623-6.403-2.495    c-0.661-0.281-1.313-0.561-1.954-0.842s-1.273-0.561-1.894-0.852c-1.232-0.571-2.425-1.142-3.587-1.734    c-0.541-0.271-1.072-0.551-1.603-0.832c-0.02-0.01-0.04-0.02-0.06-0.03c-0.2-0.1-0.391-0.21-0.591-0.311v15.441v19.78    c0,0.12,0.01,0.24,0.02,0.361c0.02,0.26,0.08,0.531,0.16,0.812c0.04,0.14,0.08,0.291,0.14,0.431    c0.11,0.331,0.261,0.661,0.451,1.012c0.14,0.271,0.301,0.551,0.501,0.832c0.11,0.17,0.22,0.331,0.341,0.501    c0.521,0.732,1.182,1.493,1.984,2.285c0.311,0.321,0.651,0.641,1.012,0.972c0.18,0.16,0.371,0.321,0.561,0.491    c0.431,0.371,0.882,0.741,1.363,1.122c0.01,0.01,0.02,0.02,0.03,0.02c0.501,0.381,1.022,0.772,1.573,1.162    c0.301,0.22,0.611,0.431,0.932,0.641c0.561,0.371,1.142,0.741,1.753,1.122c0.641,0.391,1.313,0.792,2.014,1.192l0.441,0.24    l0.912,0.491c0.551,0.301,1.122,0.591,1.703,0.882c0.281,0.14,0.571,0.291,0.862,0.431c0.21,0.11,0.431,0.21,0.651,0.321    c0.08,0.03,0.16,0.07,0.24,0.11c1.192,0.561,2.415,1.112,3.667,1.633c0.551,0.23,1.102,0.461,1.673,0.681    c0.491,0.2,0.982,0.391,1.483,0.581c0.661,0.25,1.343,0.501,2.024,0.741c0.581,0.21,1.162,0.411,1.753,0.621    c0.962,0.321,1.934,0.641,2.916,0.952c1.222,0.381,2.465,0.752,3.738,1.112c0.561,0.16,1.132,0.321,1.703,0.471    c0.05,0.01,0.1,0.03,0.15,0.04c0.561,0.15,1.132,0.301,1.703,0.451c0.651,0.17,1.313,0.331,1.974,0.501    c1.112,0.26,2.245,0.531,3.387,0.782c1.934,0.421,3.898,0.822,5.892,1.192c1.212,0.231,2.445,0.441,3.677,0.651    c0.15,0.02,0.311,0.05,0.461,0.07c0.591,0.1,1.182,0.19,1.774,0.281c0.661,0.1,1.333,0.2,2.004,0.301    c0.671,0.09,1.343,0.19,2.024,0.281c0.671,0.09,1.353,0.18,2.034,0.261c0.681,0.08,1.363,0.17,2.054,0.24    c0.762,0.09,1.523,0.17,2.285,0.25c1.293,0.14,2.585,0.26,3.888,0.361c1.744,0.15,3.487,0.281,5.241,0.391    c0.721,0.04,1.453,0.09,2.184,0.12c0.792,0.04,1.573,0.08,2.365,0.11c0.671,0.03,1.343,0.06,2.014,0.08    c2.495,0.08,4.99,0.12,7.505,0.12c25.521,0,50.271-4.249,67.907-11.643c1.343-0.561,2.645-1.142,3.908-1.744    c0.521-0.25,1.022-0.501,1.523-0.752c0.581-0.291,1.142-0.581,1.703-0.882l1.353-0.731c0.551-0.311,1.072-0.621,1.583-0.932    c0.15-0.09,0.301-0.17,0.441-0.271c0.321-0.19,0.621-0.381,0.922-0.581c0.281-0.17,0.551-0.351,0.822-0.531    c0.351-0.23,0.681-0.461,1.012-0.701c0.25-0.18,0.491-0.351,0.721-0.531c0.321-0.22,0.621-0.451,0.922-0.691    c0.441-0.341,0.852-0.681,1.242-1.022c0.15-0.13,0.301-0.25,0.441-0.381c0.281-0.26,0.561-0.511,0.812-0.752    c0.13-0.12,0.261-0.25,0.381-0.371c0.05-0.05,0.11-0.11,0.15-0.16c0.351-0.361,0.671-0.711,0.972-1.062l0.03-0.03    c0.14-0.16,0.271-0.331,0.391-0.491c0.281-0.341,0.521-0.681,0.721-1.002c0.11-0.16,0.2-0.311,0.291-0.461    c0.311-0.521,0.541-1.022,0.701-1.493c0.04-0.11,0.07-0.21,0.1-0.321c0.08-0.281,0.14-0.551,0.16-0.812    c0.01-0.12,0.02-0.24,0.02-0.361v-35.221C407.858,372.65,407.708,372.72,407.557,372.8z"/>
	</g>
</g>
<g>
	<g>
		<path d="M386.675,238.55c-17.635-7.405-42.385-11.643-67.907-11.643c-12.535,0-24.91,1.022-36.323,2.946    c-11.814,1.984-22.615,4.93-31.584,8.698c-7.315,3.076-12.645,6.363-16.142,9.369c-3.497,3.006-5.17,5.732-5.17,7.685v0.02    c0.02,3.156,4.339,8.297,13.637,13.367c0.18,0.11,0.361,0.21,0.551,0.301c0.551,0.301,1.122,0.591,1.703,0.882    c0.571,0.291,1.152,0.581,1.754,0.862c1.162,0.551,2.385,1.092,3.667,1.633c1.994,0.832,4.078,1.633,6.243,2.385    c16.994,5.912,39.029,9.259,61.664,9.259c25.521,0,50.271-4.249,67.907-11.643c0.471-0.2,0.922-0.391,1.383-0.591    c0.431-0.19,0.852-0.381,1.263-0.571c1.002-0.451,1.964-0.912,2.886-1.383c0.501-0.25,0.992-0.511,1.473-0.762    c0.13-0.07,0.26-0.14,0.391-0.21c9.489-5.13,13.908-10.341,13.928-13.517v-0.03C407.998,251.696,401.325,244.692,386.675,238.55z"/>
	</g>
</g>
<g>
	<g>
		<path d="M405.213,449.414c-0.561,0.281-1.132,0.561-1.723,0.832c-0.04,0.02-0.08,0.04-0.12,0.06    c-0.371,0.18-0.742,0.351-1.122,0.521c-1.263,0.591-2.575,1.172-3.938,1.743c-21.493,9.018-49.74,13.988-79.54,13.988    c-0.782,0-1.563,0-2.345-0.01c-0.521,0-1.042-0.01-1.553-0.02c-0.561-0.01-1.112-0.02-1.673-0.03    c-0.922-0.02-1.844-0.04-2.766-0.07c-0.922-0.03-1.834-0.06-2.756-0.1c-0.912-0.04-1.834-0.08-2.746-0.13    c-1.814-0.09-3.607-0.21-5.401-0.341c-0.912-0.06-1.824-0.14-2.735-0.22c-0.902-0.07-1.794-0.15-2.685-0.24    c-1.192-0.11-2.375-0.23-3.547-0.361c-1.122-0.12-2.234-0.25-3.337-0.391c-0.18-0.02-0.371-0.04-0.551-0.07    c-1.283-0.16-2.555-0.331-3.818-0.511c-0.14-0.02-0.271-0.04-0.411-0.06c-2.325-0.341-4.619-0.711-6.884-1.112    c-1.132-0.2-2.265-0.411-3.377-0.631c-1.122-0.21-2.224-0.441-3.327-0.671c-0.972-0.2-1.924-0.411-2.876-0.631    c-1.263-0.281-2.505-0.581-3.738-0.892c-0.942-0.22-1.864-0.461-2.786-0.701c-1.152-0.311-2.285-0.621-3.417-0.942    c-5.952-1.703-11.573-3.657-16.804-5.852c-1.764-0.741-3.457-1.493-5.07-2.265c-0.621-0.291-1.232-0.591-1.834-0.892    c-0.721-0.361-1.433-0.721-2.134-1.102c-0.22-0.11-0.431-0.22-0.651-0.341v16.052v19.269c0,3.918,6.673,10.922,21.313,17.074    c1.623,0.681,3.307,1.333,5.04,1.954c0.531,0.19,1.082,0.381,1.623,0.571c0.331,0.12,0.661,0.23,1.002,0.341    c0.361,0.12,0.731,0.24,1.102,0.361c0.611,0.2,1.232,0.401,1.864,0.591c0.461,0.14,0.922,0.281,1.383,0.421    c0.481,0.14,0.962,0.281,1.443,0.411c0.581,0.17,1.172,0.331,1.764,0.491c0.401,0.11,0.802,0.22,1.212,0.321    c0.571,0.15,1.152,0.301,1.743,0.451c2.174,0.541,4.409,1.052,6.693,1.513c0.611,0.13,1.212,0.25,1.834,0.371    c1.192,0.24,2.405,0.461,3.637,0.671c0.621,0.12,1.253,0.22,1.884,0.321c0.661,0.11,1.323,0.22,1.994,0.321    c0.671,0.1,1.333,0.2,2.014,0.301c0.671,0.1,1.343,0.19,2.024,0.281c0.521,0.07,1.062,0.14,1.593,0.21    c0.752,0.09,1.503,0.19,2.265,0.271l0.24,0.03c1.232,0.14,2.465,0.271,3.707,0.391c0.972,0.09,1.954,0.18,2.946,0.26    c0.772,0.07,1.543,0.13,2.325,0.18c0.772,0.06,1.553,0.11,2.345,0.16c0.782,0.05,1.563,0.09,2.345,0.13    c0.782,0.05,1.573,0.08,2.365,0.11c0.721,0.03,1.433,0.06,2.154,0.08c2.445,0.08,4.9,0.12,7.365,0.12    c25.521,0,50.271-4.239,67.907-11.633c14.649-6.152,21.323-13.156,21.323-17.074v-35.321    C407.096,448.452,406.174,448.933,405.213,449.414z"/>
	</g>
</g>
<g>
</g>
<g>
</g>
<g>
</g>
<g>
</g>
<g>
</g>
<g>
</g>
<g>
</g>
<g>
</g>
<g>
</g>
<g>
</g>
<g>
</g>
<g>
</g>
<g>
</g>
<g>
</g>
<g>
</g>
</svg>
