<?xml version="1.0" encoding="iso-8859-1"?>
<!-- Generator: Adobe Illustrator 19.0.0, SVG Export Plug-In . SVG Version: 6.00 Build 0)  -->
<svg xmlns="http://www.w3.org/2000/svg" xmlns:xlink="http://www.w3.org/1999/xlink" version="1.1" id="Layer_1" x="0px" y="0px" viewBox="0 0 512 512" style="enable-background:new 0 0 512 512;" xml:space="preserve">
<g>
	<g>
		<path d="M255.835,104.728c-83.4,0-151.257,67.857-151.257,151.257s67.857,151.257,151.257,151.257s151.257-67.857,151.257-151.257    S339.235,104.728,255.835,104.728z M356.359,305.617l-27.533-27.533l-27.523,27.533l-21.238-21.238l27.533-27.523l-27.533-27.533    l21.238-21.228l27.523,27.523l27.533-27.523l21.228,21.228l-27.523,27.533l27.523,27.523L356.359,305.617z"/>
	</g>
</g>
<g>
	<g>
		<path d="M139.827,27.403l37.922,64.995c19.376-9.288,40.654-15.233,63.073-17.074V0.21    C205.212,2.242,170.974,11.55,139.827,27.403z"/>
	</g>
</g>
<g>
	<g>
		<path d="M270.847,0.2v75.123c22.099,1.812,43.086,7.616,62.242,16.674l37.592-65.185C339.845,11.32,306.017,2.222,270.847,0.2z"/>
	</g>
</g>
<g>
	<g>
		<path d="M437.007,74.813c-12.461-12.46-25.972-23.47-40.334-32.958l-37.602,65.195c17.755,12.34,33.208,27.773,45.568,45.508    l65.145-37.682C460.337,100.615,449.387,87.193,437.007,74.813z"/>
	</g>
</g>
<g>
	<g>
		<path d="M113.916,42.566c-13.962,9.328-27.113,20.107-39.253,32.247c-12.691,12.691-23.89,26.482-33.488,41.145l65.335,37.351    c12.27-17.795,27.643-33.308,45.328-45.738L113.916,42.566z"/>
	</g>
</g>
<g>
	<g>
		<path d="M26.232,142.009C10.859,172.885,1.882,206.754,0,241.943l75.113-0.28c1.731-22.109,7.456-43.116,16.434-62.302    L26.232,142.009z"/>
	</g>
</g>
<g>
	<g>
		<path d="M75.233,271.688l-75.123,0.28c2.142,35.15,11.37,68.958,26.993,99.744l65.045-37.852    C83.01,314.734,77.125,293.777,75.233,271.688z"/>
	</g>
</g>
<g>
	<g>
		<path d="M107.29,359.782l-65.045,37.862c9.368,14.062,20.197,27.293,32.417,39.513c12.611,12.611,26.312,23.75,40.874,33.318    l37.431-65.285C135.184,392.88,119.701,377.487,107.29,359.782z"/>
	</g>
</g>
<g>
	<g>
		<path d="M241.283,436.687c-22.109-1.761-43.116-7.506-62.292-16.524l-37.431,65.275c30.866,15.423,64.724,24.441,99.914,26.362    L241.283,436.687z"/>
	</g>
</g>
<g>
	<g>
		<path d="M333.5,419.763c-19.126,9.118-40.104,14.973-62.192,16.844l0.19,75.123c35.16-2.102,68.968-11.289,99.764-26.863    L333.5,419.763z"/>
	</g>
</g>
<g>
	<g>
		<path d="M404.91,359.032c-12.33,17.775-27.743,33.248-45.468,45.628l37.772,65.105c14.162-9.418,27.493-20.307,39.793-32.607    c12.531-12.531,23.61-26.142,33.138-40.604L404.91,359.032z"/>
	</g>
</g>
<g>
	<g>
		<path d="M444.433,287.602c1.481-2.372,3.633-4.794,6.465-7.246c2.822-2.452,5.905-4.834,9.248-7.136    c1.251-0.861,2.502-1.691,3.753-2.482h0.14c2.112-1.371,4.103-2.662,6.255-3.873c3.423-1.932,6.465-3.643,9.148-5.134    c3.263-1.781,6.646-3.823,10.138-6.125c3.493-2.302,6.726-5.024,9.708-8.137c1.972-2.072,3.713-4.344,5.224-6.816    c0.771-1.251,1.481-2.542,2.132-3.893c1.932-4.013,2.902-8.617,2.902-13.822c0-5.505-1.081-10.599-3.233-15.283    c-2.162-4.684-5.284-8.697-9.368-12.04c-4.093-3.343-9.108-5.945-15.053-7.807c-5.955-1.852-12.711-2.782-20.297-2.782    c-6.686,0-12.971,0.711-18.846,2.122s-11.219,3.193-16.054,5.344c-4.834,2.162-9.028,4.464-12.601,6.916    c-3.563,2.452-6.315,4.724-8.247,6.806l19.176,22.069c1.781-2.222,3.753-4.344,5.915-6.355c2.152-2.002,4.524-3.823,7.136-5.465    c2.592-1.631,5.385-2.932,8.357-3.893c2.972-0.971,6.245-1.451,9.808-1.451c6.696,0,11.82,1.601,15.393,4.794    c3.563,3.193,5.354,7.026,5.354,11.48c0,2.832-0.821,5.314-2.462,7.476c-1.491,1.972-3.623,3.923-6.375,5.835l-46.029,27.833    c-4.484,3.983-8.007,8.257-10.589,12.821c-2.602,4.614-4.424,9.628-5.465,15.053c-1.041,5.435-1.561,11.49-1.561,18.175H512    v-26.983H444.433z"/>
	</g>
</g>
<g>
</g>
<g>
</g>
<g>
</g>
<g>
</g>
<g>
</g>
<g>
</g>
<g>
</g>
<g>
</g>
<g>
</g>
<g>
</g>
<g>
</g>
<g>
</g>
<g>
</g>
<g>
</g>
<g>
</g>
</svg>
