<?xml version="1.0" encoding="iso-8859-1"?>
<!-- Generator: Adobe Illustrator 19.0.0, SVG Export Plug-In . SVG Version: 6.00 Build 0)  -->
<svg xmlns="http://www.w3.org/2000/svg" xmlns:xlink="http://www.w3.org/1999/xlink" version="1.1" id="Layer_1" x="0px" y="0px" viewBox="0 0 512.002 512.002" style="enable-background:new 0 0 512.002 512.002;" xml:space="preserve">
<path style="fill:#F1F1F1;" d="M428.154,66.526c-0.474-0.431-0.955-0.87-1.436-1.294c-0.276-0.262-0.565-0.509-0.855-0.771  c-1.909-1.697-3.847-3.366-5.805-5.013c-2.249-1.881-4.526-3.719-6.824-5.523c-0.827-0.643-1.662-1.294-2.503-1.923  c-0.834-0.636-1.669-1.273-2.51-1.888c-1.761-1.308-3.535-2.602-5.324-3.854c-0.778-0.552-1.563-1.096-2.348-1.626  c-0.863-0.594-1.725-1.188-2.595-1.761c-0.87-0.587-1.74-1.16-2.616-1.725c-1.633-1.068-3.274-2.114-4.928-3.132  c-0.947-0.58-1.895-1.16-2.843-1.74c-6.378-3.833-12.905-7.375-19.573-10.621c-0.948-0.467-1.895-0.919-2.85-1.365  c-2.722-1.294-5.48-2.538-8.259-3.719c-0.948-0.41-1.902-0.813-2.864-1.209c-0.827-0.346-1.655-0.679-2.489-1.018  c-0.926-0.375-1.86-0.742-2.793-1.096c-0.834-0.325-1.662-0.644-2.496-0.955c-0.665-0.255-1.329-0.495-2.001-0.742  c-0.24-0.099-0.488-0.177-0.735-0.269c-0.707-0.254-1.421-0.516-2.135-0.764c-1.634-0.587-3.274-1.138-4.914-1.676  c-0.962-0.325-1.931-0.629-2.906-0.94c-2.22-0.707-4.462-1.379-6.71-2.015c-0.587-0.177-1.167-0.346-1.761-0.502  c-0.481-0.141-0.962-0.269-1.443-0.396l-0.007,0.007c-0.686-0.191-1.365-0.389-2.051-0.566c-1.047-0.269-2.079-0.538-3.111-0.792  c-3.642-0.912-7.311-1.74-11.003-2.489c-1.895-0.382-3.776-0.749-5.685-1.089c-1.266-0.233-2.524-0.445-3.79-0.651  c-1.054-0.177-2.114-0.346-3.175-0.502c-0.459-0.078-0.919-0.141-1.379-0.205c-1.711-0.255-3.423-0.481-5.134-0.693  c-2.086-0.262-4.186-0.495-6.293-0.707c-0.53-0.049-1.068-0.106-1.612-0.155c-4.844-0.46-9.702-0.778-14.595-0.962  c-0.686-0.021-1.379-0.049-2.079-0.071h-0.127c-0.976-0.028-1.952-0.056-2.935-0.064c-1.549-0.035-3.104-0.05-4.66-0.05  c-1.117,0-2.227,0.007-3.337,0.028c-0.665,0-1.329,0.014-1.994,0.028c-1.004,0.014-2.008,0.042-3.019,0.078  c-1.209,0.035-2.418,0.085-3.62,0.142c-1.329,0.057-2.652,0.134-3.974,0.212c-1.414,0.085-2.821,0.177-4.229,0.297  c-0.919,0.057-1.838,0.141-2.758,0.226c-1.082,0.092-2.164,0.198-3.246,0.304c-1.082,0.106-2.157,0.219-3.232,0.346  c-0.877,0.099-1.761,0.205-2.645,0.311c-0.926,0.12-1.86,0.233-2.786,0.368c-0.601,0.078-1.195,0.163-1.789,0.247  c-0.721,0.099-1.443,0.198-2.164,0.311c-0.354,0.057-0.707,0.113-1.068,0.163c-0.7,0.12-1.4,0.226-2.114,0.347  c-1.16,0.184-2.305,0.382-3.465,0.594c-2.121,0.368-4.229,0.778-6.343,1.209c-1.209,0.247-2.411,0.502-3.613,0.771  c-1.089,0.241-2.178,0.481-3.253,0.735c-0.283,0.057-0.58,0.127-0.863,0.198c-0.884,0.205-1.761,0.431-2.637,0.643  c-0.354,0.085-0.7,0.177-1.054,0.262c-1.075,0.269-2.143,0.545-3.21,0.834c-1.188,0.311-2.362,0.636-3.55,0.976  c-0.544,0.148-1.082,0.304-1.626,0.467c-3.076,0.884-6.131,1.832-9.171,2.85c-0.728,0.233-1.45,0.474-2.171,0.728  c-0.721,0.24-1.435,0.488-2.157,0.742c-0.721,0.255-1.435,0.502-2.15,0.764c-0.721,0.255-1.436,0.516-2.143,0.785  c-3.875,1.442-7.715,2.977-11.505,4.603c-0.955,0.403-1.909,0.82-2.857,1.245c-0.948,0.424-1.895,0.848-2.836,1.28  c-0.721,0.325-1.435,0.658-2.157,0.997c-1.273,0.594-2.532,1.202-3.79,1.824c-0.827,0.403-1.647,0.813-2.468,1.223  c-5.282,2.652-10.465,5.501-15.556,8.528c-0.672,0.403-1.351,0.813-2.029,1.223c-0.764,0.467-1.52,0.926-2.284,1.407  c-0.643,0.389-1.273,0.792-1.916,1.195c-0.855,0.544-1.704,1.096-2.56,1.655c-0.594,0.382-1.181,0.771-1.775,1.167  c-0.452,0.297-0.891,0.594-1.336,0.898c-4.575,3.062-9.044,6.286-13.428,9.666c-0.594,0.452-1.188,0.919-1.782,1.386  c-1.888,1.478-3.748,2.984-5.593,4.518c-0.021,0.007-0.028,0.014-0.028,0.028c-0.65,0.523-1.294,1.068-1.93,1.619  c-1.655,1.386-3.288,2.807-4.893,4.257c-0.389,0.332-0.778,0.679-1.153,1.025c-0.382,0.339-0.757,0.686-1.139,1.039  c-0.141,0.127-0.276,0.247-0.41,0.382c-0.877,0.792-1.74,1.598-2.602,2.404c-0.12,0.106-0.24,0.226-0.361,0.346  c-0.877,0.82-1.747,1.648-2.609,2.496c-0.884,0.855-1.768,1.725-2.644,2.602c-3.55,3.55-6.986,7.184-10.296,10.918  c-23.723,26.594-41.337,57.36-52.142,90.566c-0.304,0.941-0.601,1.874-0.891,2.814c-0.891,2.814-1.732,5.664-2.51,8.521  c-1.605,5.834-3.005,11.731-4.193,17.685c-0.573,2.906-1.096,5.819-1.577,8.747c-2.232,13.679-3.37,27.644-3.37,41.772  c0,14.708,1.237,29.239,3.656,43.452c0.523,3.111,1.11,6.202,1.747,9.284c2.051,9.829,4.667,19.488,7.849,28.949  c10.96,32.682,28.546,62.954,52.078,89.145c3.118,3.472,6.329,6.866,9.652,10.189c3.783,3.783,7.658,7.432,11.639,10.946  c2.037,1.81,4.101,3.578,6.201,5.31c22.295,18.519,47.27,32.916,73.985,42.829c3.097,1.146,6.208,2.235,9.348,3.253  c9.482,3.104,19.17,5.65,29.013,7.63c16.553,3.316,33.566,5.013,50.834,5.013c17.819,0,35.369-1.81,52.411-5.346  c9.836-2.029,19.509-4.631,28.977-7.806c2.673-0.891,5.331-1.824,7.969-2.807c26.828-9.97,51.902-24.48,74.26-43.134  c2.362-1.952,4.681-3.96,6.965-6.018c3.557-3.175,7.036-6.47,10.437-9.871c1.124-1.124,2.234-2.249,3.323-3.394  c0.58-0.594,1.152-1.195,1.711-1.796c0.064-0.049,0.12-0.106,0.17-0.17c0.212-0.226,0.431-0.446,0.636-0.679  c0.035-0.035,0.078-0.078,0.106-0.12c0.728-0.771,1.45-1.548,2.164-2.333c0.778-0.849,1.549-1.704,2.305-2.56  c0.106-0.106,0.205-0.219,0.311-0.339c0.771-0.87,1.541-1.74,2.291-2.616c1.379-1.605,2.744-3.224,4.087-4.851  c0.7-0.856,1.407-1.719,2.093-2.588c0.686-0.856,1.365-1.718,2.036-2.574c0.594-0.749,1.167-1.506,1.746-2.27  c0.403-0.516,0.792-1.032,1.181-1.563c0.276-0.361,0.544-0.728,0.813-1.096c0.594-0.792,1.181-1.591,1.754-2.39  c0.445-0.601,0.877-1.202,1.301-1.81c0.325-0.453,0.651-0.919,0.969-1.379c0.064-0.078,0.12-0.163,0.177-0.248  c0.332-0.474,0.665-0.947,0.983-1.421c0.127-0.17,0.248-0.347,0.361-0.53c0.325-0.467,0.643-0.926,0.947-1.4  c0.078-0.092,0.149-0.191,0.205-0.304c0.255-0.368,0.509-0.735,0.749-1.103c0.481-0.721,0.948-1.428,1.414-2.15  c1.485-2.263,2.92-4.547,4.314-6.859c0.488-0.785,0.955-1.577,1.421-2.369c0.283-0.467,0.559-0.94,0.834-1.414  c0.368-0.622,0.721-1.244,1.082-1.874c0.014-0.014,0.014-0.028,0.028-0.042c0.432-0.757,0.87-1.52,1.287-2.291  c0.375-0.672,0.757-1.35,1.124-2.029c0.707-1.301,1.414-2.616,2.1-3.924c0.46-0.87,0.905-1.74,1.344-2.616  c0.488-0.955,0.969-1.916,1.443-2.885c0.24-0.481,0.481-0.962,0.714-1.45c0.24-0.481,0.474-0.969,0.7-1.464  c0.46-0.969,0.926-1.945,1.372-2.927c0.452-0.976,0.898-1.945,1.336-2.934c0.431-0.983,0.87-1.973,1.294-2.963  c0.424-0.99,0.849-1.98,1.259-2.97c0.417-0.997,0.82-1.994,1.223-2.991c0.028-0.057,0.057-0.127,0.085-0.198  c0.481-1.216,0.962-2.432,1.428-3.663c0.021-0.035,0.035-0.078,0.049-0.12c0.46-1.223,0.912-2.44,1.358-3.663  c0.905-2.503,1.775-5.013,2.602-7.538c0.389-1.181,0.771-2.369,1.145-3.564c0.29-0.926,0.573-1.86,0.849-2.786  c0.834-2.729,1.598-5.473,2.326-8.224c0.297-1.146,0.587-2.284,0.87-3.43c0.658-2.609,1.259-5.233,1.824-7.863  c0.226-1.046,0.439-2.093,0.651-3.139c0.566-2.772,1.082-5.565,1.542-8.372c0.297-1.754,0.565-3.507,0.827-5.268  c0.262-1.761,0.502-3.514,0.714-5.282l0.254-2.121c0.127-1.061,0.247-2.128,0.354-3.196c0.099-0.891,0.184-1.782,0.262-2.666  c0.099-1.047,0.191-2.086,0.276-3.132c0.573-6.979,0.856-14.022,0.856-21.107c0-1.655-0.014-3.309-0.05-4.957  c-0.014-0.99-0.043-1.98-0.078-2.963c-0.049-1.916-0.135-3.811-0.226-5.713c-0.099-1.81-0.205-3.613-0.339-5.416  c-0.014-0.184-0.028-0.368-0.043-0.551c-0.078-1.082-0.17-2.164-0.269-3.239c-0.141-1.641-0.297-3.281-0.474-4.915  c-0.078-0.686-0.156-1.372-0.233-2.058c-0.113-0.976-0.226-1.938-0.354-2.913c-0.12-0.969-0.247-1.945-0.389-2.92  c-0.219-1.619-0.46-3.231-0.714-4.829c-0.134-0.827-0.262-1.648-0.403-2.468c0-0.057-0.014-0.113-0.028-0.184  c-0.297-1.782-0.622-3.578-0.961-5.36c-0.212-1.16-0.446-2.312-0.686-3.458c-0.007-0.049-0.014-0.099-0.028-0.155  c-0.014-0.057-0.021-0.12-0.042-0.17c-0.141-0.721-0.283-1.428-0.446-2.143c-0.056-0.255-0.106-0.516-0.169-0.778  c-0.318-1.435-0.644-2.878-0.983-4.32c-0.29-1.209-0.587-2.411-0.891-3.62c-0.12-0.474-0.247-0.955-0.375-1.435  c-0.184-0.721-0.368-1.442-0.559-2.157c-0.969-3.642-2.029-7.248-3.161-10.826c-0.375-1.181-0.757-2.355-1.152-3.529  c-0.601-1.817-1.216-3.62-1.867-5.416c-0.53-1.464-1.061-2.928-1.612-4.384c-0.297-0.792-0.601-1.563-0.905-2.347  c-0.361-0.941-0.742-1.874-1.117-2.8c-1.662-4.151-3.458-8.252-5.353-12.296c-0.318-0.7-0.65-1.4-0.99-2.093  c-1.252-2.637-2.567-5.254-3.924-7.842c-0.446-0.87-0.905-1.726-1.365-2.581c-0.431-0.813-0.87-1.619-1.308-2.425  c-0.601-1.096-1.216-2.192-1.839-3.281c-0.092-0.163-0.184-0.325-0.283-0.481c-0.502-0.884-1.011-1.761-1.534-2.638  c-0.127-0.226-0.255-0.452-0.396-0.665c-0.417-0.714-0.841-1.435-1.28-2.142c-0.283-0.467-0.573-0.94-0.855-1.407  c-2.588-4.2-5.303-8.344-8.153-12.396c-0.431-0.615-0.863-1.245-1.308-1.86c-0.368-0.523-0.735-1.033-1.11-1.549  c-0.608-0.848-1.23-1.697-1.86-2.538c-0.615-0.841-1.252-1.676-1.888-2.51c-0.926-1.223-1.86-2.425-2.814-3.62  c-0.516-0.658-1.047-1.315-1.577-1.973c-0.679-0.849-1.372-1.697-2.072-2.539c-0.347-0.431-0.7-0.856-1.054-1.266  c-0.346-0.417-0.707-0.835-1.061-1.259c-0.629-0.743-1.266-1.478-1.902-2.213c-0.269-0.325-0.552-0.65-0.835-0.962  c-0.53-0.601-1.054-1.195-1.591-1.789c-0.813-0.912-1.634-1.817-2.461-2.715c-1.648-1.803-3.324-3.578-5.035-5.332  c-0.855-0.884-1.711-1.754-2.581-2.623l-0.191-0.191C433.995,71.956,431.103,69.206,428.154,66.526z"/>
<path style="fill:#E1E1E4;" d="M512.002,256.002c0,1.23-0.01,2.45-0.03,3.68c-0.03,2.45-0.1,4.89-0.21,7.33  c-0.05,1.22-0.11,2.44-0.18,3.66c-0.04,0.8-0.09,1.59-0.14,2.39c-0.02,0.42-0.05,0.85-0.09,1.27c-0.07,0.97-0.14,1.94-0.22,2.91  c-0.05,0.55-0.09,1.1-0.14,1.64c-0.04,0.54-0.09,1.09-0.15,1.64c-0.1,1.09-0.21,2.18-0.33,3.26c-0.09,0.84-0.18,1.68-0.28,2.51  c-0.17,1.52-0.36,3.03-0.57,4.55c-0.14,1.04-0.28,2.08-0.44,3.11c-0.15,1.04-0.31,2.08-0.48,3.11c-0.1,0.63-0.2,1.25-0.31,1.88  c-0.12,0.75-0.26,1.5-0.39,2.24c-0.85,4.88-1.86,9.73-3,14.53c-0.13,0.53-0.26,1.07-0.39,1.6c-0.19,0.81-0.4,1.62-0.61,2.42  c-0.05,0.25-0.12,0.5-0.19,0.75c-0.25,0.99-0.51,1.97-0.78,2.95c-0.04,0.18-0.09,0.36-0.14,0.54c-0.33,1.21-0.67,2.42-1.02,3.62  c-0.26,0.88-0.52,1.76-0.79,2.64c-0.28,0.93-0.56,1.86-0.86,2.79c-0.87,2.79-1.79,5.57-2.77,8.32c-0.25,0.73-0.51,1.46-0.78,2.18  c-1.52,4.2-3.15,8.37-4.91,12.48c-0.38,0.93-0.78,1.85-1.19,2.77c-0.34,0.77-0.67,1.53-1.02,2.3c-0.64,1.42-1.3,2.83-1.96,4.24  c-0.81,1.73-1.65,3.44-2.51,5.15c-0.55,1.11-1.11,2.21-1.68,3.31c-1.73,3.33-3.53,6.63-5.42,9.89c-0.62,1.07-1.25,2.14-1.88,3.2  c-0.64,1.07-1.28,2.13-1.93,3.19c-0.78,1.26-1.57,2.51-2.36,3.75c-0.14,0.23-0.29,0.45-0.43,0.67c-0.39,0.62-0.79,1.22-1.2,1.83  c-0.02,0.05-0.06,0.1-0.09,0.15s-0.06,0.09-0.09,0.13c-0.64,0.98-1.29,1.96-1.96,2.93c-1.02,1.5-2.06,3-3.11,4.47  c-0.04,0.06-0.07,0.11-0.11,0.15c-0.48,0.68-0.97,1.35-1.46,2.03c-0.95,1.31-1.92,2.62-2.91,3.92c-0.59,0.79-1.19,1.57-1.79,2.34  c-0.6,0.78-1.2,1.54-1.81,2.31c-0.43,0.54-0.86,1.08-1.29,1.62c-1.03,1.28-2.08,2.55-3.14,3.81c-0.69,0.83-1.39,1.66-2.1,2.48  c-0.12,0.14-0.24,0.28-0.36,0.42c-1.18,1.37-2.38,2.72-3.59,4.07c-1.28,1.41-2.56,2.81-3.88,4.2c-0.67,0.72-1.35,1.44-2.04,2.15  c-0.11,0.11-0.22,0.23-0.33,0.34c-1.03,1.08-2.08,2.14-3.14,3.2c-5.01,5.01-10.19,9.79-15.53,14.32c-0.8,0.68-1.6,1.35-2.41,2.02  c-0.68,0.57-1.37,1.14-2.07,1.7c-0.83,0.68-1.67,1.35-2.51,2.01l-1.68,1.32c-1.4,1.1-2.81,2.17-4.24,3.23s-2.86,2.11-4.31,3.14  c-2.31,1.66-4.65,3.27-7.01,4.83c-0.89,0.59-1.78,1.18-2.68,1.76c-2.26,1.46-4.54,2.89-6.85,4.27c-1.01,0.61-2.02,1.21-3.04,1.81  c-2.46,1.43-4.94,2.83-7.46,4.17c-0.85,0.46-1.71,0.92-2.57,1.37c-1.11,0.58-2.22,1.15-3.33,1.71c-2.37,1.21-4.76,2.37-7.17,3.49  c-1.18,0.55-2.36,1.09-3.55,1.63c-0.04,0.02-0.08,0.04-0.12,0.05c-1.2,0.54-2.4,1.06-3.6,1.58c-0.07,0.03-0.14,0.06-0.2,0.08  c-0.99,0.42-1.98,0.84-2.98,1.25c-0.99,0.41-1.99,0.81-2.99,1.21s-2.01,0.79-3.01,1.18c-1.01,0.39-2.01,0.76-3.02,1.13  c-1.01,0.38-2.03,0.74-3.04,1.1c-0.51,0.19-1.02,0.37-1.53,0.54c-0.51,0.18-1.02,0.35-1.53,0.52c-1.02,0.35-2.04,0.69-3.06,1.02  c-0.93,0.31-1.86,0.61-2.8,0.9c-1.41,0.44-2.84,0.87-4.26,1.29c-0.74,0.22-1.49,0.43-2.23,0.64c-0.84,0.25-1.69,0.48-2.53,0.71  c-0.02,0-0.03,0.01-0.05,0.01c-0.7,0.19-1.39,0.38-2.09,0.56c-0.53,0.14-1.06,0.28-1.59,0.41c-0.89,0.23-1.78,0.46-2.68,0.67  c-2.62,0.65-5.25,1.25-7.9,1.8c-0.84,0.18-1.67,0.35-2.52,0.52c-0.43,0.09-0.87,0.17-1.31,0.25c-0.12,0.04-0.24,0.06-0.36,0.07  c-0.55,0.12-1.1,0.22-1.66,0.32c-0.21,0.05-0.42,0.09-0.63,0.12c-0.56,0.11-1.13,0.21-1.7,0.31c-0.1,0.02-0.2,0.04-0.3,0.05  c-0.55,0.1-1.11,0.2-1.66,0.29c-0.73,0.13-1.46,0.25-2.2,0.36c-0.97,0.16-1.95,0.31-2.93,0.45c-0.45,0.07-0.9,0.14-1.35,0.2  c-0.65,0.1-1.29,0.19-1.94,0.27c-0.95,0.13-1.89,0.26-2.84,0.37c-1.08,0.13-2.17,0.26-3.26,0.38c-1.1,0.13-2.21,0.24-3.31,0.35  c-2.1,0.2-4.21,0.38-6.32,0.54c-1.15,0.09-2.31,0.16-3.47,0.23c-0.16,0.01-0.31,0.02-0.46,0.02c-1.14,0.07-2.29,0.13-3.44,0.18  c-1.06,0.05-2.12,0.09-3.18,0.12c-0.05,0.01-0.11,0.01-0.16,0.01c-0.31,0.02-0.62,0.02-0.93,0.03c-0.08,0.01-0.16,0.01-0.24,0  c-0.82,0.03-1.65,0.05-2.48,0.06c-1.58,0.04-3.16,0.05-4.75,0.05v-512c1.24,0,2.48,0.01,3.71,0.03c2.75,0.03,5.48,0.12,8.21,0.25  c0.52,0.02,1.03,0.04,1.54,0.07c0.51,0.02,1.03,0.05,1.54,0.09c2.16,0.11,4.32,0.26,6.47,0.45c0.84,0.06,1.68,0.13,2.51,0.22  c0.01-0.01,0.02-0.01,0.04,0c2.39,0.22,4.77,0.47,7.15,0.76c0.75,0.09,1.5,0.18,2.24,0.28c5.49,0.71,10.93,1.59,16.33,2.66  c0.53,0.1,1.05,0.2,1.58,0.31c0.7,0.14,1.39,0.28,2.08,0.43c1,0.21,1.99,0.42,2.98,0.64c0.74,0.17,1.47,0.33,2.2,0.51  c0.88,0.2,1.74,0.41,2.61,0.62c0.77,0.19,1.54,0.38,2.3,0.57c5.74,1.46,11.42,3.11,17.03,4.97c0.87,0.29,1.74,0.58,2.61,0.88  c1.33,0.45,2.65,0.91,3.97,1.39c0.75,0.27,1.49,0.54,2.23,0.82c0.97,0.36,1.94,0.73,2.91,1.1c0.97,0.37,1.94,0.75,2.9,1.14  c3.83,1.53,7.63,3.16,11.39,4.88c0.69,0.31,1.38,0.63,2.07,0.96c0.69,0.32,1.37,0.65,2.06,0.98s1.37,0.66,2.05,1  c0.69,0.33,1.37,0.67,2.05,1.02c2.87,1.43,5.7,2.92,8.5,4.47c0.5,0.27,0.99,0.54,1.48,0.82c1.08,0.6,2.14,1.2,3.2,1.82  c0.96,0.55,1.91,1.11,2.86,1.68c1.09,0.65,2.17,1.3,3.25,1.97c0.25,0.15,0.51,0.31,0.75,0.47c0.94,0.58,1.88,1.18,2.82,1.78  c1.04,0.66,2.07,1.33,3.1,2.01c1.8,1.19,3.58,2.39,5.34,3.63c0.97,0.67,1.92,1.34,2.87,2.03c0.59,0.42,1.16,0.84,1.74,1.25  c0.29,0.22,0.58,0.43,0.87,0.64c0.59,0.43,1.17,0.87,1.75,1.31c0.48,0.36,0.96,0.72,1.44,1.09c0.75,0.56,1.49,1.14,2.23,1.71  c0.7,0.55,1.4,1.1,2.09,1.65c0.85,0.67,1.69,1.35,2.53,2.04c0.84,0.69,1.68,1.38,2.51,2.08c0.71,0.59,1.42,1.18,2.11,1.79  c1.08,0.91,2.14,1.84,3.2,2.78c0.99,0.88,1.98,1.76,2.96,2.66c0.89,0.81,1.78,1.63,2.66,2.46c0.74,0.69,1.47,1.38,2.19,2.08  c0.48,0.46,0.96,0.92,1.43,1.39c0.8,0.77,1.59,1.55,2.38,2.34c1.1,1.1,2.19,2.21,3.26,3.33c0.69,0.7,1.36,1.41,2.03,2.12l0.09,0.09  c0.48,0.51,0.95,1.02,1.42,1.52c3.33,3.59,6.54,7.25,9.64,11c0.35,0.42,0.69,0.84,1.03,1.25c1.34,1.64,2.66,3.29,3.95,4.95  c1.06,1.36,2.11,2.73,3.14,4.12c0.28,0.37,0.56,0.74,0.83,1.12c0.64,0.86,1.27,1.73,1.89,2.6c0.75,1.04,1.49,2.08,2.22,3.14  c0.82,1.18,1.62,2.35,2.41,3.54c0.28,0.41,0.56,0.83,0.84,1.25c2.08,3.14,4.09,6.32,6.02,9.54c0.55,0.91,1.09,1.83,1.64,2.76  c0.61,1.04,1.21,2.09,1.8,3.15c0.31,0.53,0.6,1.06,0.89,1.6c1.14,2.04,2.25,4.1,3.32,6.17c0.47,0.91,0.94,1.81,1.39,2.72  c0.78,1.54,1.55,3.09,2.29,4.66c0.33,0.68,0.65,1.37,0.97,2.05c0.11,0.24,0.23,0.47,0.33,0.71c0.3,0.65,0.6,1.29,0.89,1.94  c0.37,0.81,0.73,1.62,1.09,2.44c0.41,0.91,0.81,1.83,1.2,2.75c0.35,0.83,0.7,1.65,1.04,2.48c0.4,0.96,0.79,1.92,1.17,2.88  c1.13,2.8,2.2,5.63,3.21,8.47c0.36,0.99,0.71,1.98,1.05,2.98c2.42,7.01,4.53,14.13,6.33,21.35c0.26,1.08,0.52,2.16,0.78,3.24  c0.45,1.89,0.87,3.79,1.27,5.7c0.22,1.02,0.43,2.04,0.63,3.07c0.21,1.02,0.4,2.05,0.59,3.08c0.18,0.93,0.35,1.87,0.51,2.81  c0.38,2.15,0.72,4.32,1.04,6.49c0.16,1.03,0.3,2.07,0.44,3.11c0.15,1.04,0.28,2.09,0.41,3.13c0.35,2.9,0.66,5.81,0.92,8.73  c0.22,2.55,0.41,5.1,0.56,7.65c0.02,0.39,0.05,0.77,0.06,1.15c0.04,0.64,0.07,1.29,0.1,1.93  C511.902,247.822,512.002,251.902,512.002,256.002z"/>
<path style="fill:#E70020;" d="M427.912,405.892l-56.04-54.86c-3.09,3.77-6.39,7.41-9.91,10.93  c-29.22,29.22-67.59,43.82-105.96,43.82s-76.74-14.6-105.96-43.82c-58.43-58.43-58.43-153.49,0-211.92  c29.22-29.22,67.59-43.82,105.96-43.82s76.74,14.6,105.96,43.82c3.51,3.51,6.81,7.16,9.9,10.92l75.24-75.31  c-0.41-0.45-0.82-0.91-1.23-1.36c-0.2-0.23-0.4-0.45-0.62-0.68c-0.21-0.23-0.41-0.45-0.62-0.67c-0.74-0.81-1.48-1.62-2.23-2.42  l-0.09-0.09c-0.67-0.71-1.34-1.42-2.03-2.12c-1.07-1.12-2.16-2.23-3.26-3.33c-0.79-0.79-1.58-1.57-2.38-2.34  c-0.47-0.47-0.95-0.93-1.43-1.39c-0.72-0.7-1.45-1.39-2.19-2.08c-0.88-0.83-1.77-1.65-2.66-2.46c-0.98-0.9-1.97-1.78-2.96-2.66  c-1.06-0.94-2.12-1.87-3.2-2.78c-0.69-0.61-1.4-1.2-2.11-1.79c-0.01-0.01-0.02-0.02-0.03-0.03c-0.78-0.66-1.58-1.31-2.37-1.96  c-0.04-0.03-0.07-0.06-0.11-0.09c-0.84-0.69-1.68-1.37-2.53-2.04c-0.69-0.55-1.39-1.1-2.09-1.65c-0.74-0.57-1.48-1.15-2.23-1.71  c-0.48-0.37-0.96-0.73-1.44-1.09c-0.35-0.27-0.71-0.54-1.07-0.8c-0.65-0.48-1.3-0.97-1.96-1.44c-0.44-0.32-0.88-0.64-1.33-0.96  c-0.95-0.69-1.9-1.36-2.87-2.03c-0.11-0.08-0.23-0.16-0.34-0.24c-0.39-0.27-0.78-0.54-1.17-0.81c-0.38-0.26-0.76-0.52-1.15-0.78  c-0.48-0.33-0.96-0.66-1.45-0.98c-0.41-0.28-0.82-0.55-1.23-0.82c-1.03-0.68-2.06-1.35-3.1-2.01c-0.94-0.6-1.88-1.2-2.82-1.78  c-0.24-0.16-0.5-0.32-0.75-0.47c-1.08-0.67-2.16-1.32-3.25-1.97c-0.95-0.57-1.9-1.13-2.86-1.68c-0.69-0.41-1.39-0.8-2.09-1.2  c-0.37-0.21-0.74-0.41-1.11-0.62c-0.49-0.28-0.98-0.55-1.48-0.82c-0.7-0.39-1.4-0.77-2.11-1.15c-1.4-0.76-2.82-1.51-4.24-2.24  c-0.72-0.36-1.43-0.72-2.15-1.08c-0.68-0.35-1.36-0.69-2.05-1.02c-0.24-0.12-0.48-0.24-0.72-0.36c-0.44-0.22-0.89-0.43-1.33-0.64  c-0.69-0.33-1.37-0.66-2.06-0.98c-0.69-0.33-1.38-0.65-2.07-0.96c-0.05-0.02-0.09-0.04-0.14-0.06c-0.89-0.41-1.79-0.82-2.69-1.21  c-1-0.45-2-0.88-3.01-1.31c-0.89-0.38-1.78-0.76-2.67-1.13c-0.01,0-0.01,0-0.01,0c-0.41-0.17-0.83-0.34-1.24-0.51  c-0.54-0.23-1.08-0.44-1.63-0.66c-0.96-0.39-1.93-0.77-2.9-1.14c-0.97-0.37-1.94-0.74-2.91-1.1c-0.74-0.28-1.48-0.55-2.23-0.82  c-0.22-0.08-0.44-0.16-0.66-0.23c-0.36-0.13-0.72-0.26-1.07-0.38c-0.61-0.22-1.23-0.44-1.85-0.65c-0.13-0.04-0.26-0.09-0.39-0.13  c-0.87-0.3-1.74-0.59-2.61-0.88c-0.12-0.04-0.24-0.08-0.36-0.12c-0.87-0.28-1.74-0.57-2.61-0.84c-0.08-0.03-0.17-0.06-0.26-0.08  c-0.68-0.22-1.36-0.43-2.05-0.64c-0.68-0.21-1.36-0.42-2.05-0.62c-0.78-0.23-1.57-0.46-2.35-0.68c-1.02-0.3-2.04-0.58-3.06-0.86  c-0.74-0.2-1.47-0.4-2.2-0.59l-1.5-0.39c-0.02,0-0.04-0.01-0.06-0.01c-0.18-0.05-0.35-0.09-0.53-0.14  c-0.34-0.08-0.68-0.17-1.02-0.25c-0.42-0.11-0.85-0.21-1.28-0.32c-0.39-0.09-0.77-0.19-1.16-0.28c-0.48-0.12-0.96-0.23-1.45-0.34  c-0.53-0.13-1.07-0.25-1.6-0.37c-0.92-0.21-1.84-0.41-2.76-0.6c-0.92-0.2-1.84-0.39-2.76-0.58l-19.73,73.9  c-10.49-1.87-21.1-2.8-31.73-2.8c-10.7,0-21.39,0.94-31.95,2.84l-19.83-73.88c-1.21,0.25-2.41,0.5-3.61,0.77  c-1.09,0.24-2.18,0.48-3.26,0.74c-0.28,0.05-0.58,0.12-0.86,0.19c-1.24,0.29-2.46,0.6-3.69,0.91c-1.08,0.27-2.14,0.54-3.21,0.83  c-1.19,0.32-2.36,0.64-3.55,0.98c-0.55,0.15-1.08,0.3-1.63,0.47c-3.07,0.88-6.13,1.83-9.17,2.85c-0.73,0.23-1.45,0.47-2.17,0.72  c-0.72,0.24-1.43,0.49-2.16,0.75c-0.72,0.25-1.43,0.5-2.15,0.76s-1.43,0.52-2.14,0.79c-3.87,1.44-7.71,2.97-11.5,4.6  c-0.96,0.4-1.91,0.82-2.86,1.24c-0.95,0.43-1.89,0.85-2.84,1.28c-0.72,0.33-1.43,0.66-2.15,1c-1.27,0.59-2.53,1.2-3.79,1.82  c-0.83,0.41-1.65,0.82-2.47,1.23c-5.28,2.65-10.46,5.5-15.56,8.53c-0.67,0.4-1.35,0.81-2.03,1.22c-0.76,0.47-1.52,0.93-2.28,1.41  c-0.64,0.38-1.27,0.79-1.92,1.19c-0.85,0.55-1.7,1.1-2.56,1.66c-0.59,0.38-1.18,0.77-1.77,1.16c-0.45,0.3-0.89,0.6-1.34,0.9  c-4.57,3.06-9.04,6.29-13.42,9.67c-0.6,0.45-1.19,0.92-1.79,1.38c-1.88,1.48-3.74,2.99-5.59,4.52c-0.02,0.01-0.03,0.01-0.03,0.03  c-0.65,0.52-1.29,1.07-1.93,1.62c-1.65,1.38-3.29,2.81-4.89,4.26c-0.39,0.33-0.78,0.67-1.15,1.02c-0.39,0.34-0.76,0.69-1.14,1.04  c-1.13,1.03-2.26,2.07-3.38,3.13c-0.43,0.41-0.87,0.82-1.3,1.24c-0.44,0.42-0.87,0.84-1.3,1.26c-0.89,0.85-1.77,1.72-2.65,2.6  c-3.55,3.55-6.99,7.18-10.29,10.92l53.98,53.98c-14.37,16.97-25.1,36-32.17,56.04l-73.96-19.46c-0.3,0.95-0.6,1.88-0.89,2.82  c-0.88,2.82-1.69,5.67-2.49,8.53l-0.02-0.01c-1.6,5.83-3,11.73-4.19,17.68c-0.57,2.91-1.1,5.82-1.58,8.75  c-2.23,13.68-3.37,27.64-3.37,41.77c0,14.71,1.24,29.24,3.65,43.45c0.53,3.11,1.11,6.2,1.75,9.29c2.05,9.82,4.67,19.48,7.85,28.94  l73.8-20.1c7.14,19.7,17.82,38.38,32.05,55.06l-53.77,54.19c3.12,3.47,6.33,6.87,9.65,10.19c3.78,3.78,7.66,7.43,11.64,10.95  c2.04,1.81,4.1,3.57,6.2,5.31c22.3,18.51,47.27,32.91,73.99,42.83c3.09,1.14,6.2,2.23,9.34,3.25c9.49,3.1,19.17,5.65,29.02,7.63  l19.55-73.96c10.35,1.81,20.81,2.72,31.28,2.72c10.85,0,21.69-0.97,32.4-2.92l20.01,73.82v0.01c0.23-0.05,0.46-0.1,0.69-0.15  c0.1-0.02,0.2-0.04,0.3-0.06c1.02-0.21,2.04-0.43,3.05-0.66c0.67-0.15,1.34-0.3,2.01-0.46c0.95-0.22,1.9-0.45,2.84-0.68  c0.9-0.21,1.79-0.44,2.68-0.67c0.53-0.13,1.06-0.27,1.59-0.41c0.7-0.18,1.39-0.37,2.09-0.56c0.02,0,0.03-0.01,0.05-0.01  c0.71-0.19,1.42-0.39,2.12-0.59c0.14-0.04,0.27-0.08,0.41-0.12c0.48-0.14,0.96-0.27,1.44-0.41c0.26-0.08,0.53-0.15,0.79-0.23  c0.81-0.24,1.62-0.48,2.43-0.73c0.61-0.18,1.22-0.37,1.83-0.56c0.27-0.08,0.53-0.16,0.79-0.25c0.67-0.21,1.34-0.43,2.01-0.65  c0.18-0.06,0.35-0.11,0.53-0.17c0.81-0.27,1.61-0.54,2.42-0.81c0.04-0.01,0.07-0.03,0.11-0.04c0.51-0.17,1.02-0.34,1.53-0.52  c0.16-0.05,0.32-0.11,0.48-0.17c0.35-0.11,0.7-0.24,1.05-0.37c1.01-0.36,2.03-0.72,3.04-1.1c0.11-0.04,0.22-0.08,0.33-0.12  c0.4-0.14,0.79-0.29,1.18-0.44c0.5-0.18,1-0.38,1.51-0.57c0.05-0.02,0.11-0.04,0.16-0.06c1.96-0.75,3.9-1.52,5.84-2.33  c1-0.41,1.99-0.83,2.98-1.25c0.06-0.02,0.13-0.05,0.2-0.08c1.2-0.52,2.4-1.04,3.6-1.58c0.04-0.01,0.08-0.03,0.12-0.05  c0.17-0.08,0.34-0.16,0.51-0.23c1.02-0.47,2.03-0.93,3.04-1.4c1.13-0.53,2.26-1.06,3.39-1.61c0.17-0.08,0.35-0.17,0.52-0.26  c1.09-0.53,2.18-1.07,3.26-1.62c1.11-0.56,2.22-1.13,3.33-1.71c0.03-0.01,0.05-0.03,0.08-0.04c0.83-0.44,1.67-0.88,2.49-1.33  c0.63-0.34,1.26-0.67,1.88-1.02c0.27-0.14,0.53-0.29,0.79-0.44c0.64-0.35,1.28-0.71,1.92-1.07c0.79-0.44,1.56-0.89,2.34-1.34  c0.57-0.33,1.13-0.66,1.69-0.99c0.63-0.37,1.26-0.74,1.88-1.12c0.7-0.42,1.39-0.84,2.08-1.27c1.19-0.72,2.38-1.47,3.56-2.23  c0.4-0.25,0.81-0.51,1.21-0.77c0.2-0.13,0.41-0.26,0.61-0.4c0.7-0.45,1.38-0.9,2.07-1.36c1.3-0.86,2.6-1.74,3.89-2.64  c1.05-0.71,2.09-1.45,3.12-2.19c1.45-1.03,2.88-2.08,4.31-3.14s2.84-2.13,4.24-3.23l1.68-1.32c0.84-0.66,1.68-1.33,2.51-2.01  c0.7-0.56,1.39-1.13,2.07-1.7c0.81-0.67,1.61-1.34,2.41-2.02c1.71-1.45,3.41-2.93,5.09-4.45c0.82-0.73,1.64-1.47,2.45-2.21  c1.48-1.36,2.94-2.73,4.39-4.13c0.54-0.52,1.07-1.03,1.6-1.56c0.67-0.65,1.34-1.31,2-1.97c1.06-1.06,2.11-2.12,3.14-3.2  c0.11-0.11,0.22-0.23,0.33-0.34c0.58-0.6,1.16-1.21,1.73-1.82c0.22-0.23,0.44-0.45,0.64-0.68c0.79-0.84,1.57-1.68,2.33-2.52  c0.38-0.41,0.76-0.83,1.13-1.24c0.38-0.42,0.74-0.84,1.11-1.25c0.09-0.09,0.18-0.19,0.27-0.29c0.02-0.01,0.03-0.03,0.05-0.05  L427.912,405.892z M503.072,323.432c0.17-0.62,0.34-1.23,0.5-1.85c0.09-0.34,0.18-0.68,0.26-1.01  C503.582,321.532,503.332,322.482,503.072,323.432z M505.092,196.492c-0.09-0.37-0.18-0.73-0.27-1.1c0.12,0.5,0.24,1.01,0.36,1.51  C505.152,196.762,505.122,196.632,505.092,196.492z M506.242,201.592c-0.06-0.26-0.11-0.52-0.17-0.78c-0.06-0.27-0.12-0.53-0.18-0.8  c0.17,0.76,0.33,1.52,0.49,2.28C506.342,202.062,506.292,201.822,506.242,201.592z M505.872,312.102c0.14-0.61,0.27-1.21,0.4-1.82  c0.07-0.34,0.14-0.67,0.21-1.01C506.282,310.212,506.082,311.162,505.872,312.102z M506.732,203.902c-0.02-0.05-0.03-0.11-0.04-0.15  c0.02,0.1,0.05,0.2,0.06,0.31C506.752,204.012,506.742,203.962,506.732,203.902z M510.512,283.782c0.04-0.29,0.07-0.58,0.1-0.87  c0.09-0.81,0.16-1.6,0.23-2.39C510.742,281.612,510.632,282.702,510.512,283.782z M511.132,277.242c-0.05,0.55-0.09,1.1-0.14,1.64  c0.06-0.59,0.11-1.18,0.16-1.77c0.03-0.43,0.07-0.85,0.09-1.27C511.202,276.312,511.172,276.772,511.132,277.242z M511.272,236.402  c-0.06-0.87-0.14-1.75-0.22-2.62c0.09,1.02,0.17,2.04,0.25,3.06C511.292,236.692,511.282,236.542,511.272,236.402z M511.652,242.372  c-0.01-0.18-0.02-0.37-0.04-0.55c0.04,0.64,0.07,1.29,0.1,1.93C511.692,243.292,511.672,242.832,511.652,242.372z"/>
<path style="fill:#E1E1E4;" d="M361.967,361.967c-28.306,28.294-65.94,43.885-105.965,43.885v-299.7  c40.025,0,77.658,15.592,105.965,43.885c28.294,28.306,43.885,65.94,43.885,105.965S390.261,333.661,361.967,361.967z"/>
<g>
	<path style="fill:#17171A;" d="M438.293,287.631c1.618-2.59,3.969-5.226,7.049-7.9c3.076-2.674,6.441-5.264,10.088-7.779   c3.646-2.51,7.331-4.82,11.061-6.928c3.726-2.104,7.05-3.969,9.967-5.591c3.563-1.945,7.251-4.17,11.061-6.685   c3.806-2.511,7.331-5.47,10.574-8.873c3.24-3.403,5.914-7.293,8.022-11.668c2.104-4.376,3.16-9.397,3.16-15.072   c0-5.993-1.178-11.546-3.525-16.651c-2.351-5.105-5.755-9.48-10.21-13.127c-4.459-3.646-9.928-6.48-16.408-8.508   c-6.484-2.025-13.856-3.039-22.121-3.039c-7.293,0-14.141,0.771-20.541,2.309c-6.404,1.542-12.238,3.487-17.503,5.834   c-5.268,2.351-9.845,4.862-13.734,7.535c-3.889,2.674-6.89,5.147-8.994,7.414l20.906,24.066c1.944-2.431,4.091-4.74,6.442-6.928   c2.347-2.188,4.941-4.171,7.779-5.956c2.834-1.781,5.872-3.198,9.116-4.254c3.24-1.052,6.806-1.58,10.696-1.58   c7.293,0,12.883,1.743,16.773,5.227c3.889,3.486,5.834,7.657,5.834,12.519c0,3.081-0.892,5.796-2.674,8.144   c-1.785,2.351-4.376,4.66-7.779,6.928c-3.403,2.271-7.657,4.74-12.762,7.414c-5.104,2.674-10.981,5.796-17.624,9.359   c-7.62,4.216-13.898,8.508-18.84,12.884c-4.945,4.376-8.835,9.078-11.668,14.099c-2.837,5.025-4.824,10.495-5.956,16.408   c-1.135,5.918-1.702,12.519-1.702,19.812h117.169v-29.413H438.293z"/>
	<polygon style="fill:#17171A;" points="363.007,206.512 336.663,232.855 310.319,206.512 290.002,226.829 316.346,253.172    290.002,279.516 310.319,299.833 336.663,273.489 363.007,299.833 383.324,279.516 356.98,253.172 383.324,226.829  "/>
</g>
<g>
	<path style="fill:#990013;" d="M361.962,150.042c-29.22-29.22-67.59-43.82-105.96-43.82v-29.97c10.63,0,21.24,0.93,31.73,2.8   l19.73-73.9c0.65,0.13,1.3,0.26,1.94,0.4c0.28,0.06,0.55,0.12,0.82,0.18c0.72,0.15,1.44,0.3,2.16,0.46c0.2,0.05,0.4,0.09,0.6,0.14   c0.53,0.12,1.07,0.24,1.6,0.37c0.49,0.11,0.97,0.22,1.45,0.34c0.39,0.09,0.77,0.19,1.16,0.28c0.43,0.11,0.86,0.21,1.28,0.32   c0.34,0.08,0.68,0.17,1.02,0.25c0.18,0.05,0.35,0.09,0.53,0.14c0.02,0,0.04,0.01,0.06,0.01c1.24,0.32,2.47,0.65,3.7,0.98   c1.02,0.28,2.04,0.56,3.06,0.86c0.78,0.22,1.57,0.45,2.35,0.68c0.69,0.2,1.37,0.41,2.05,0.62c0.69,0.21,1.37,0.42,2.05,0.64   c0.09,0.02,0.18,0.05,0.26,0.08c0.87,0.27,1.74,0.56,2.61,0.84c0.12,0.04,0.24,0.08,0.36,0.12c0.87,0.29,1.74,0.58,2.61,0.88   c0.13,0.04,0.26,0.09,0.39,0.13c0.62,0.21,1.24,0.43,1.85,0.65c0.35,0.12,0.71,0.25,1.07,0.38c0.22,0.07,0.44,0.15,0.66,0.23   c0.75,0.27,1.49,0.54,2.23,0.82c0.97,0.36,1.94,0.73,2.91,1.1c0.97,0.37,1.94,0.75,2.9,1.14c0.55,0.22,1.09,0.43,1.63,0.66   c0.41,0.17,0.83,0.34,1.24,0.51c0,0,0,0,0.01,0c0.89,0.37,1.78,0.75,2.67,1.13c1.01,0.43,2.01,0.86,3.01,1.31   c0.9,0.39,1.8,0.8,2.69,1.21c0.05,0.02,0.09,0.04,0.14,0.06c0.69,0.31,1.38,0.63,2.07,0.96c0.69,0.32,1.37,0.65,2.06,0.98   s1.37,0.66,2.05,1c0.69,0.33,1.37,0.67,2.05,1.02c0.72,0.36,1.43,0.72,2.15,1.08c1.42,0.73,2.84,1.48,4.24,2.24   c0.71,0.38,1.41,0.76,2.11,1.15c0.5,0.27,0.99,0.54,1.48,0.82c0.37,0.21,0.74,0.41,1.11,0.62c0.7,0.4,1.4,0.79,2.09,1.2   c0.96,0.55,1.91,1.11,2.86,1.68c1.09,0.65,2.17,1.3,3.25,1.97c0.25,0.15,0.51,0.31,0.75,0.47c0.94,0.58,1.88,1.18,2.82,1.78   c1.04,0.66,2.07,1.33,3.1,2.01c0.41,0.27,0.82,0.54,1.23,0.82c0.49,0.32,0.97,0.65,1.45,0.98c0.39,0.26,0.77,0.52,1.15,0.78   c0.39,0.27,0.78,0.54,1.17,0.81c0.11,0.08,0.23,0.16,0.34,0.24c0.97,0.67,1.92,1.34,2.87,2.03c0.45,0.32,0.89,0.64,1.33,0.96   c0.14,0.1,0.27,0.19,0.41,0.29c0.29,0.22,0.58,0.43,0.87,0.64c0.23,0.17,0.46,0.34,0.68,0.51c0.36,0.26,0.72,0.53,1.07,0.8   c0.48,0.36,0.96,0.72,1.44,1.09c0.75,0.56,1.49,1.14,2.23,1.71c0.7,0.55,1.4,1.1,2.09,1.65c0.85,0.67,1.69,1.35,2.53,2.04   c0.04,0.03,0.07,0.06,0.11,0.09c0.79,0.65,1.59,1.3,2.37,1.96c0.01,0.01,0.02,0.02,0.03,0.03c0.71,0.59,1.42,1.18,2.11,1.79   c1.08,0.91,2.14,1.84,3.2,2.78c0.99,0.88,1.98,1.76,2.96,2.66c0.89,0.81,1.78,1.63,2.66,2.46c0.74,0.69,1.47,1.38,2.19,2.08   c0.48,0.46,0.96,0.92,1.43,1.39c0.8,0.77,1.59,1.55,2.38,2.34c1.1,1.1,2.19,2.21,3.26,3.33c0.69,0.7,1.36,1.41,2.03,2.12l0.09,0.09   c0.48,0.51,0.95,1.02,1.42,1.52c0.48,0.52,0.96,1.05,1.43,1.57c0.22,0.23,0.42,0.45,0.62,0.68c0.41,0.45,0.82,0.91,1.23,1.36   l-75.24,75.31C368.772,157.202,365.472,153.552,361.962,150.042z"/>
	<path style="fill:#990013;" d="M427.912,405.892l19.84,19.74c-0.02,0.02-0.03,0.04-0.05,0.05c-0.43,0.49-0.86,0.97-1.29,1.45   c-0.03,0.03-0.05,0.06-0.09,0.09c-0.37,0.41-0.75,0.83-1.13,1.24c-0.76,0.84-1.54,1.68-2.33,2.52c-0.11,0.12-0.22,0.23-0.33,0.35   c-0.1,0.11-0.21,0.22-0.31,0.33c-0.57,0.61-1.15,1.22-1.73,1.82c-0.11,0.11-0.22,0.23-0.33,0.34c-1.03,1.08-2.08,2.14-3.14,3.2   c-0.66,0.66-1.33,1.32-2,1.97c-0.53,0.53-1.06,1.04-1.6,1.56c-1.45,1.4-2.91,2.77-4.39,4.13c-0.81,0.74-1.63,1.48-2.45,2.21   c-1.68,1.52-3.38,3-5.09,4.45c-0.8,0.68-1.6,1.35-2.41,2.02c-0.68,0.57-1.37,1.14-2.07,1.7c-0.83,0.68-1.67,1.35-2.51,2.01   l-1.68,1.32c-1.4,1.1-2.81,2.17-4.24,3.23s-2.86,2.11-4.31,3.14c-1.03,0.74-2.07,1.48-3.12,2.19c-1.29,0.9-2.59,1.78-3.89,2.64   c-0.69,0.46-1.37,0.91-2.07,1.36c-0.2,0.14-0.41,0.27-0.61,0.4c-0.4,0.26-0.81,0.52-1.21,0.77c-1.18,0.76-2.37,1.51-3.56,2.23   c-0.69,0.43-1.38,0.85-2.08,1.27c-0.62,0.38-1.25,0.75-1.88,1.12c-0.38,0.23-0.77,0.46-1.16,0.69c-0.18,0.1-0.35,0.2-0.53,0.3   c-0.78,0.45-1.55,0.9-2.34,1.34c-0.64,0.36-1.28,0.72-1.92,1.07c-0.26,0.15-0.52,0.3-0.79,0.44c-0.62,0.35-1.25,0.68-1.88,1.02   c-0.82,0.45-1.66,0.89-2.49,1.33c-0.03,0.01-0.05,0.03-0.08,0.04c-1.11,0.58-2.22,1.15-3.33,1.71c-1.08,0.55-2.17,1.09-3.26,1.62   c-0.17,0.09-0.35,0.18-0.52,0.26c-1.13,0.55-2.26,1.08-3.39,1.61c-1.01,0.47-2.02,0.93-3.04,1.4c-0.17,0.07-0.34,0.15-0.51,0.23   c-0.04,0.02-0.08,0.04-0.12,0.05c-1.2,0.54-2.4,1.06-3.6,1.58c-0.07,0.03-0.14,0.06-0.2,0.08c-0.99,0.42-1.98,0.84-2.98,1.25   c-0.99,0.41-1.99,0.81-2.99,1.21c-0.95,0.38-1.9,0.75-2.85,1.12c-0.05,0.02-0.11,0.04-0.16,0.06c-0.51,0.19-1.01,0.39-1.51,0.57   c-0.39,0.15-0.78,0.3-1.18,0.44c-0.11,0.04-0.22,0.08-0.33,0.12c-1.01,0.38-2.03,0.74-3.04,1.1c-0.35,0.13-0.7,0.26-1.05,0.37   c-0.16,0.06-0.32,0.12-0.48,0.17c-0.51,0.18-1.02,0.35-1.53,0.52c-0.04,0.01-0.07,0.03-0.11,0.04c-0.81,0.27-1.61,0.54-2.42,0.81   c-0.18,0.06-0.35,0.11-0.53,0.17c-0.67,0.22-1.34,0.44-2.01,0.65c-0.26,0.09-0.52,0.17-0.79,0.25c-0.61,0.19-1.22,0.38-1.83,0.56   c-0.81,0.25-1.62,0.49-2.43,0.73c-0.26,0.08-0.53,0.15-0.79,0.23c-0.48,0.14-0.96,0.27-1.44,0.41c-0.14,0.04-0.27,0.08-0.41,0.12   c-0.7,0.2-1.41,0.4-2.12,0.59c-0.02,0-0.03,0.01-0.05,0.01c-0.7,0.19-1.39,0.38-2.09,0.56c-0.53,0.14-1.06,0.28-1.59,0.41   c-0.89,0.23-1.78,0.46-2.68,0.67c-0.94,0.23-1.89,0.46-2.84,0.68c-0.67,0.16-1.34,0.31-2.01,0.46c-1.01,0.23-2.03,0.45-3.05,0.66   c-0.1,0.02-0.2,0.04-0.3,0.06c-0.23,0.05-0.46,0.1-0.69,0.14l-20.01-73.82c-10.71,1.95-21.55,2.92-32.4,2.92v-29.97   c38.37,0,76.74-14.6,105.96-43.82c3.52-3.52,6.82-7.16,9.91-10.93L427.912,405.892z"/>
	<path style="fill:#990013;" d="M504.822,195.392c-0.2-0.84-0.41-1.68-0.63-2.52c-0.3-1.2-0.61-2.4-0.93-3.59   c0.4,1.46,0.78,2.92,1.14,4.38C504.542,194.242,504.682,194.812,504.822,195.392z"/>
	<path style="fill:#990013;" d="M503.072,323.432c0.26-0.95,0.51-1.9,0.76-2.86c-0.08,0.33-0.17,0.67-0.26,1.01   C503.412,322.202,503.242,322.812,503.072,323.432z"/>
	<path style="fill:#990013;" d="M504.402,193.662c0.14,0.58,0.28,1.15,0.42,1.73c-0.2-0.84-0.41-1.68-0.63-2.52   c-0.3-1.2-0.61-2.4-0.93-3.59C503.662,190.742,504.042,192.202,504.402,193.662z"/>
	<path style="fill:#990013;" d="M505.092,196.492c0.03,0.14,0.06,0.27,0.09,0.41c-0.12-0.5-0.24-1.01-0.36-1.51   C504.912,195.762,505.002,196.122,505.092,196.492z"/>
	<path style="fill:#990013;" d="M506.382,202.292c-0.16-0.76-0.32-1.52-0.49-2.28c0.06,0.27,0.12,0.53,0.18,0.8   c0.06,0.26,0.11,0.52,0.17,0.78C506.292,201.822,506.342,202.062,506.382,202.292z"/>
	<path style="fill:#990013;" d="M505.872,312.102c0.21-0.94,0.41-1.89,0.61-2.83c-0.07,0.34-0.14,0.67-0.21,1.01   C506.142,310.892,506.012,311.492,505.872,312.102z"/>
	<path style="fill:#990013;" d="M506.732,203.902c0.01,0.06,0.02,0.11,0.02,0.16c-0.01-0.11-0.04-0.21-0.06-0.31   C506.702,203.792,506.712,203.852,506.732,203.902z"/>
	<path style="fill:#990013;" d="M510.512,283.782c0.12-1.08,0.23-2.17,0.33-3.26c-0.07,0.79-0.14,1.58-0.23,2.39   C510.582,283.202,510.552,283.492,510.512,283.782z"/>
	<path style="fill:#990013;" d="M511.132,277.242c0.04-0.47,0.07-0.93,0.11-1.4c-0.02,0.42-0.06,0.84-0.09,1.27   c-0.05,0.59-0.1,1.18-0.16,1.77C511.042,278.342,511.082,277.792,511.132,277.242z"/>
	<path style="fill:#990013;" d="M511.272,236.402c0.01,0.14,0.02,0.29,0.03,0.44c-0.08-1.02-0.16-2.04-0.25-3.06   C511.132,234.652,511.212,235.532,511.272,236.402z"/>
	<path style="fill:#990013;" d="M511.712,243.752c-0.03-0.64-0.06-1.29-0.1-1.93c0.02,0.18,0.03,0.37,0.04,0.55   C511.672,242.832,511.692,243.292,511.712,243.752z"/>
</g>
<g>
</g>
<g>
</g>
<g>
</g>
<g>
</g>
<g>
</g>
<g>
</g>
<g>
</g>
<g>
</g>
<g>
</g>
<g>
</g>
<g>
</g>
<g>
</g>
<g>
</g>
<g>
</g>
<g>
</g>
</svg>
