<?xml version="1.0" encoding="iso-8859-1"?>
<!-- Generator: Adobe Illustrator 19.0.0, SVG Export Plug-In . SVG Version: 6.00 Build 0)  -->
<svg xmlns="http://www.w3.org/2000/svg" xmlns:xlink="http://www.w3.org/1999/xlink" version="1.1" id="Layer_1" x="0px" y="0px" viewBox="0 0 512 512" style="enable-background:new 0 0 512 512;" xml:space="preserve">
<g>
	<g>
		<path d="M256.02,104.612c-83.465,0-151.369,67.904-151.369,151.369s67.904,151.369,151.369,151.369    s151.369-67.904,151.369-151.369S339.484,104.612,256.02,104.612z M300.42,290.734c-2.271,4.538-5.303,8.252-9.103,11.144    c-3.802,2.893-8.167,5.077-13.101,6.55c-4.934,1.472-10.123,2.324-15.568,2.552v19.736h-11.74V310.81    c-7.826-0.68-15.568-2.268-23.225-4.764c-7.656-2.494-14.547-5.784-20.672-9.869l12.25-24.331    c0.452,0.569,1.672,1.504,3.658,2.807c1.983,1.305,4.508,2.667,7.571,4.083c3.063,1.42,6.521,2.78,10.378,4.083    c3.855,1.305,7.826,2.242,11.91,2.807V263l-8.167-2.382c-5.559-1.702-10.379-3.544-14.462-5.53    c-4.083-1.983-7.46-4.28-10.123-6.891c-2.667-2.608-4.652-5.614-5.955-9.017c-1.305-3.402-1.957-7.372-1.957-11.91    c0-5.896,1.022-11.144,3.063-15.738c2.041-4.593,4.791-8.534,8.252-11.825c3.459-3.288,7.542-5.87,12.25-7.741    c4.706-1.872,9.784-3.09,15.228-3.658v-17.184h11.74v17.184c7.372,0.68,14.292,2.326,20.757,4.934    c6.465,2.61,12.08,5.274,16.844,7.997l-12.25,23.139c-0.34-0.452-1.334-1.191-2.978-2.212c-1.646-1.021-3.743-2.126-6.295-3.318    c-2.552-1.191-5.389-2.324-8.508-3.402c-3.121-1.077-6.269-1.842-9.443-2.297v23.14l5.445,1.361c5.784,1.59,11,3.318,15.653,5.189    c4.649,1.872,8.593,4.198,11.825,6.975c3.233,2.78,5.726,6.155,7.486,10.123c1.757,3.972,2.637,8.736,2.637,14.293    C303.823,280.695,302.688,286.198,300.42,290.734z"/>
	</g>
</g>
<g>
	<g>
		<path d="M26.247,141.917C10.866,172.828,1.89,206.715,0,241.928l75.169-0.285c1.738-22.126,7.47-43.144,16.462-62.343    L26.247,141.917z"/>
	</g>
</g>
<g>
	<g>
		<path d="M271.043,0.02v75.171c22.113,1.822,43.113,7.626,62.281,16.694l37.634-65.249C340.098,11.131,306.24,2.04,271.043,0.02z"/>
	</g>
</g>
<g>
	<g>
		<path d="M75.291,271.69l-75.173,0.285c2.151,35.177,11.372,69.001,26.999,99.811l65.098-37.877    C83.073,314.771,77.196,293.791,75.291,271.69z"/>
	</g>
</g>
<g>
	<g>
		<path d="M241.453,436.81c-22.121-1.766-43.133-7.522-62.322-16.539l-37.467,65.339c30.894,15.423,64.772,24.437,99.979,26.37    L241.453,436.81z"/>
	</g>
</g>
<g>
	<g>
		<path d="M270.305,270.061c-2.382-1.643-5.559-3.148-9.528-4.508v20.417c8.733-0.34,13.101-3.344,13.101-9.017    C273.878,274.004,272.687,271.706,270.305,270.061z"/>
	</g>
</g>
<g>
	<g>
		<path d="M240.87,222.847c0,2.836,0.992,5.077,2.978,6.721c1.983,1.646,4.961,3.092,8.933,4.338v-20.927    C244.84,213.659,240.87,216.95,240.87,222.847z"/>
	</g>
</g>
<g>
	<g>
		<path d="M333.741,419.882c-19.148,9.116-40.135,14.97-62.24,16.847l0.19,75.172c35.184-2.107,69.02-11.283,99.847-26.87    L333.741,419.882z"/>
	</g>
</g>
<g>
	<g>
		<path d="M437.328,74.673c-12.464-12.464-25.992-23.475-40.369-32.973l-37.63,65.241c17.766,12.353,33.227,27.793,45.601,45.543    l65.195-37.713C460.667,100.495,449.714,87.06,437.328,74.673z"/>
	</g>
</g>
<g>
	<g>
		<path d="M139.925,27.228l37.957,65.045c19.392-9.294,40.681-15.234,63.113-17.082V0.02    C205.359,2.065,171.096,11.367,139.925,27.228z"/>
	</g>
</g>
<g>
	<g>
		<path d="M107.372,359.855l-65.102,37.88c9.376,14.074,20.212,27.325,32.442,39.554c12.621,12.621,26.335,23.749,40.913,33.327    l37.464-65.334C135.29,392.974,119.79,377.572,107.372,359.855z"/>
	</g>
</g>
<g>
	<g>
		<path d="M405.191,359.101c-12.331,17.782-27.752,33.263-45.485,45.659l37.797,65.148c14.175-9.417,27.518-20.311,39.825-32.619    c12.543-12.543,23.612-26.164,33.151-40.642L405.191,359.101z"/>
	</g>
</g>
<g>
	<g>
		<path d="M113.993,42.408c-13.973,9.334-27.13,20.113-39.282,32.264c-12.699,12.699-23.886,26.505-33.504,41.186l65.379,37.38    c12.287-17.814,27.669-33.334,45.37-45.774L113.993,42.408z"/>
	</g>
</g>
<g>
	<g>
		<path d="M436.83,270.775c-1.794,22.117-7.574,43.123-16.616,62.302l65.294,37.551c15.463-30.877,24.516-64.746,26.492-99.948    L436.83,270.775z"/>
	</g>
</g>
<g>
	<g>
		<path d="M485.221,140.75l-65.202,37.718c9.091,19.159,14.921,40.152,16.77,62.26l75.171-0.095    C509.897,205.443,500.766,171.594,485.221,140.75z"/>
	</g>
</g>
<g>
</g>
<g>
</g>
<g>
</g>
<g>
</g>
<g>
</g>
<g>
</g>
<g>
</g>
<g>
</g>
<g>
</g>
<g>
</g>
<g>
</g>
<g>
</g>
<g>
</g>
<g>
</g>
<g>
</g>
</svg>
