<svg height="512" viewBox="0 0 58 58" width="512" xmlns="http://www.w3.org/2000/svg"><g id="025---Queen-Rules-Police" fill="none" transform="translate(-1 -1)"><path id="Shape" d="m38.75 17c.827992.1583833 1.5503597.6596009 1.9885563 1.3797674.4381965.7201665.5513323 1.5920807.3114437 2.4002326-.052633.2614865.0736744.5263245.31.65 1.0017558.534777 1.6309452 1.5744741 1.64 2.71.129008 1.5188602-.958738 2.8708359-2.47 3.07-.2551122.0451618-.4548382.2448878-.5.5-.2859735 1.9141109-1.944889 3.3207686-3.88 3.29-.915063-.0097172-1.802487-.3148788-2.53-.87-8.007 0-7.178-.035-7.37.08-1.1022474.8342351-2.5604035 1.0315575-3.8447297.5202811-1.2843263-.5112764-2.2079294-1.6567513-2.4352703-3.0202811-.0451618-.2551122-.2448878-.4548382-.5-.5-1.511262-.1991641-2.599008-1.5511398-2.47-3.07.0090548-1.1355259.6382442-2.175223 1.64-2.71.2363256-.1236755.362633-.3885135.31-.65-.2398886-.8081519-.1267528-1.6800661.3114437-2.4002326.4381966-.7201665 1.1605643-1.2213841 1.9885563-1.3797674z" fill="#a56a43"/><path id="Shape" d="m30 42c-.5522847 0-1-.4477153-1-1v-9c0-.5522847.4477153-1 1-1s1 .4477153 1 1v9c0 .5522847-.4477153 1-1 1z" fill="#95a5a5"/><path id="Shape" d="m51 42c-.5522847 0-1-.4477153-1-1v-3c0-1.1045695-.8954305-2-2-2h-36c-1.1045695 0-2 .8954305-2 2v3c0 .5522847-.44771525 1-1 1s-1-.4477153-1-1v-3c0-2.209139 1.790861-4 4-4h36c2.209139 0 4 1.790861 4 4v3c0 .5522847-.4477153 1-1 1z" fill="#95a5a5"/><path id="Shape" d="m34.012 17c2.105 2.807 2.988 2.468 2.988 3.312 0 3.121.067 3.474-.2 4.2-.664 1.832-3.031 7.488-6.8 7.488s-6.136-5.656-6.8-7.492c-.1316597-.3587623-.1993526-.7378426-.2-1.12 0-5.675-.4-1.873 2.988-6.388" fill="#fdd7ad"/><path id="Shape" d="m39 17h-18c-1.1045695 0-2-.8954305-2-2s.8954305-2 2-2h18c1.1045695 0 2 .8954305 2 2s-.8954305 2-2 2z" fill="#e57e25"/><path id="Shape" d="m37 17h-14c-1.1045695 0-2-.8954305-2-2s.8954305-2 2-2h14c1.1045695 0 2 .8954305 2 2s-.8954305 2-2 2z" fill="#f29c1f"/><path id="Shape" d="m39 13v-10.342c-.0013893-.38382134-.2223415-.73297954-.5686165-.89855229-.3462751-.16557275-.7567631-.11834013-1.0563835.12155229l-2.675 2.13c-.3977359.31863464-.971467.28719142-1.332-.073l-2.66-2.647c-.3904999-.39038194-1.0235001-.39038194-1.414 0l-2.66 2.647c-.360533.36019142-.9342641.39163464-1.332.073l-2.676-2.13c-.299606-.24051005-.7105118-.28810674-1.0571649-.12245517s-.5677517.51525778-.5688351.89945517v10.342z" fill="#f3d55b"/><circle id="Oval" cx="25" cy="9" fill="#4fba6f" r="1"/><circle id="Oval" cx="35" cy="9" fill="#4fba6f" r="1"/><circle id="Oval" cx="30" cy="9" fill="#ff5364" r="1"/><path id="Shape" d="m16.385 51.576c-.130431 3.2946149-2.3342279 6.1446982-5.49 7.1-4.23 1.433-9.28-2.456-9.28-7.1 0-4.067 1.263-6.078-.5-8.54-.1769299-.2489686-.14907541-.589131.066-.806l1.023-1.039c.22984121-.2391412.60689503-.25586.857-.038 1.67347346 1.1148162 3.85071426 1.1234732 5.533.022.23252694-.2011738.57747306-.2011738.81 0 1.6823641 1.1012084 3.859446 1.092552 5.533-.022.250105-.21786.6271588-.2011412.857.038l1.023 1.039c.2150754.216869.2429299.5570314.066.806-1.761 2.464-.498 4.471-.498 8.54z" fill="#f0c419"/><g fill="#e57e25"><path id="Shape" d="m9 51c-.55228475 0-1-.4477153-1-1v-3c0-.5522847.44771525-1 1-1s1 .4477153 1 1v3c0 .5522847-.44771525 1-1 1z"/><path id="Shape" d="m9 51c-.235 0-.077.029-3.316-1.051-.5246705-.174522-.80852195-.7413295-.63399997-1.266s.74132946-.808522 1.26599997-.634l2.684.897 2.684-.895c.5246705-.174522 1.091478.1093295 1.266.634s-.1093295 1.091478-.634 1.266c-3.216 1.071-3.083 1.049-3.316 1.049z"/><path id="Shape" d="m7 54c-.36870742-.0003134-.70732929-.2034902-.88111002-.5286756s-.15452281-.719615.05011002-1.0263244l2-3c.30651805-.4595009.92749908-.583518 1.38699998-.277.45950092.3065181.58351802.9274991.27700002 1.387l-2 3c-.18572108.2783647-.49836725.4453846-.833.445z"/><path id="Shape" d="m11 54c-.3346327.0003846-.6472789-.1666353-.833-.445l-2-3c-.19828243-.297245-.22292463-.6776931-.06464414-.9980332s.47543712-.5319049.83200003-.555.69836172.1457882.89664411.4430332l2 3c.2046328.3067094.2238907.701139.05011 1.0263244s-.5124026.5283622-.88111.5286756z"/></g><path id="Shape" d="m37.385 51.576c-.130431 3.2946149-2.3342279 6.1446982-5.49 7.1-4.23 1.433-9.28-2.456-9.28-7.1 0-4.067 1.263-6.078-.5-8.54-.1769299-.2489686-.1490754-.589131.066-.806l1.023-1.039c.2298412-.2391412.606895-.25586.857-.038 1.6734735 1.1148162 3.8507143 1.1234732 5.533.022.2325269-.2011738.5774731-.2011738.81 0 1.6823641 1.1012084 3.859446 1.092552 5.533-.022.250105-.21786.6271588-.2011412.857.038l1.023 1.039c.2150754.216869.2429299.5570314.066.806-1.761 2.464-.498 4.471-.498 8.54z" fill="#f0c419"/><path id="Shape" d="m30 51c-.5522847 0-1-.4477153-1-1v-3c0-.5522847.4477153-1 1-1s1 .4477153 1 1v3c0 .5522847-.4477153 1-1 1z" fill="#e57e25"/><path id="Shape" d="m30 51c-.235 0-.077.029-3.316-1.051-.5246705-.174522-.808522-.7413295-.634-1.266s.7413295-.808522 1.266-.634l2.684.897 2.684-.895c.5246705-.174522 1.091478.1093295 1.266.634.1745219.5246705-.1093295 1.091478-.634 1.266-3.216 1.071-3.083 1.049-3.316 1.049z" fill="#e57e25"/><path id="Shape" d="m28 54c-.3687074-.0003134-.7073293-.2034902-.88111-.5286756s-.1545228-.719615.05011-1.0263244l2-3c.306518-.4595009.9274991-.583518 1.387-.277s.583518.9274991.277 1.387l-2 3c-.1857211.2783647-.4983673.4453846-.833.445z" fill="#e57e25"/><path id="Shape" d="m32 54c-.3346327.0003846-.6472789-.1666353-.833-.445l-2-3c-.306518-.4595009-.1825009-1.080482.277-1.387s1.080482-.1825009 1.387.277l2 3c.2046328.3067094.2238907.701139.05011 1.0263244s-.5124026.5283622-.88111.5286756z" fill="#e57e25"/><path id="Shape" d="m58.385 51.576c-.130431 3.2946149-2.3342279 6.1446982-5.49 7.1-4.23 1.433-9.28-2.456-9.28-7.1 0-4.067 1.263-6.078-.5-8.54-.1769299-.2489686-.1490754-.589131.066-.806l1.023-1.039c.2298412-.2391412.606895-.25586.857-.038 1.6734735 1.1148162 3.8507143 1.1234732 5.533.022.2325269-.2011738.5774731-.2011738.81 0 1.6823641 1.1012084 3.859446 1.092552 5.533-.022.250105-.21786.6271588-.2011412.857.038l1.023 1.039c.2150754.216869.2429299.5570314.066.806-1.761 2.464-.498 4.471-.498 8.54z" fill="#f0c419"/><path id="Shape" d="m51 51c-.5522847 0-1-.4477153-1-1v-3c0-.5522847.4477153-1 1-1s1 .4477153 1 1v3c0 .5522847-.4477153 1-1 1z" fill="#e57e25"/><path id="Shape" d="m51 51c-.235 0-.077.029-3.316-1.051-.5246705-.174522-.808522-.7413295-.634-1.266s.7413295-.808522 1.266-.634l2.684.897 2.684-.895c.5246705-.174522 1.091478.1093295 1.266.634.1745219.5246705-.1093295 1.091478-.634 1.266-3.216 1.071-3.083 1.049-3.316 1.049z" fill="#e57e25"/><path id="Shape" d="m49 54c-.3687074-.0003134-.7073293-.2034902-.88111-.5286756s-.1545228-.719615.05011-1.0263244l2-3c.1982824-.297245.5400812-.4661283.8966441-.4430332s.6737195.23466.832.555c.1582805.3203401.1336383.7007882-.0646441.9980332l-2 3c-.1857211.2783647-.4983673.4453846-.833.445z" fill="#e57e25"/><path id="Shape" d="m53 54c-.3346327.0003846-.6472789-.1666353-.833-.445l-2-3c-.306518-.4595009-.1825009-1.080482.277-1.387s1.080482-.1825009 1.387.277l2 3c.2046328.3067094.2238907.701139.05011 1.0263244s-.5124026.5283622-.88111.5286756z" fill="#e57e25"/></g></svg>