<svg height="512" viewBox="0 0 44 58" width="512" xmlns="http://www.w3.org/2000/svg"><g id="026---Throne" fill="none"><path id="Shape" d="m12 46v8c0 .5522847-.4477153 1-1 1h-5v-9z" fill="#603e26"/><path id="Shape" d="m38 46v9h-5c-.5522847 0-1-.4477153-1-1v-8z" fill="#603e26"/><path id="Shape" d="m8 46v11c0 .5522847-.44771525 1-1 1h-5c-.55228475 0-1-.4477153-1-1v-2c0-.5522847.44771525-1 1-1h1v-8z" fill="#805333"/><path id="Shape" d="m43 55v2c0 .5522847-.4477153 1-1 1h-5c-.5522847 0-1-.4477153-1-1v-11h5v8h1c.5522847 0 1 .4477153 1 1z" fill="#805333"/><path id="Shape" d="m9 41h-4v-35.09c.00347398-.48782969.3584408-.90195764.84-.98 2.0928535-.35779636 3.73220364-1.9971465 4.09-4.09.0780424-.4815592.4921703-.83652602.98-.84h22.18c.4878297.00347398.9019576.3584408.98.84.3577964 2.0928535 1.9971465 3.73220364 4.09 4.09.4815592.07804236.836526.49217031.84.98v35.09h-4" fill="#f0c419"/><path id="Rectangle-path" d="m3 28h38v20h-38z" fill="#a56a43"/><path id="Rectangle-path" d="m3 28h4v12h-4z" fill="#805333"/><path id="Rectangle-path" d="m37 28h4v12h-4z" fill="#805333"/><path id="Shape" d="m37 40h-30c0-3.3137085 2.6862915-6 6-6h18c3.3137085 0 6 2.6862915 6 6z" fill="#c03a2b"/><path id="Shape" d="m37 30v10c0-3.3137085-2.6862915-6-6-6h-18c-3.3137085 0-6 2.6862915-6 6v-10h2c.55228475 0 1-.4477153 1-1v-2c0-.5522847-.44771525-1-1-1v-17.35c.00739386-.3615207.20509022-.69228192.52-.87 1.3484841-.78881871 2.4711813-1.9115159 3.26-3.26.1777181-.31490978.5084793-.51260614.87-.52h16.7c.3615207.00739386.6922819.20509022.87.52.7888187 1.3484841 1.9115159 2.47118129 3.26 3.26.3149098.17771808.5126061.5084793.52.87v17.35c-.5522847 0-1 .4477153-1 1v2c0 .5522847.4477153 1 1 1z" fill="#e64c3c"/><path id="Shape" d="m29 10.79v8.21h-14v-8.21c0-.189386.1070012-.3625176.2763932-.4472136s.372098-.066418.5236068.0472136l2.85 2.14c.2011243.1521751.4840964.1307378.66-.05l2.34-2.33c.0911771-.0958751.2176924-.15015018.35-.15015018s.2588229.05427508.35.15015018l2.34 2.33c.1759036.1807378.4588757.2021751.66.05l2.85-2.14c.1515088-.1136316.3542148-.1319096.5236068-.0472136s.2763932.2578276.2763932.4472136z" fill="#f3d55b"/><path id="Shape" d="m29 19v3c0 .5522847-.4477153 1-1 1h-12c-.5522847 0-1-.4477153-1-1v-3z" fill="#e57e25"/><path id="Shape" d="m28 19v3c.0346025.5111872-.3465418.9559298-.857 1h-10.286c-.5104582-.0440702-.8916025-.4888128-.857-1v-3z" fill="#f29c1f"/><g fill="#cf976a"><rect id="Rectangle-path" height="4" rx="1" width="10" y="26"/><rect id="Rectangle-path" height="4" rx="1" width="10" x="34" y="26"/></g></g></svg>