<?xml version="1.0" encoding="iso-8859-1"?>
<!-- Generator: Adobe Illustrator 19.0.0, SVG Export Plug-In . SVG Version: 6.00 Build 0)  -->
<svg xmlns="http://www.w3.org/2000/svg" xmlns:xlink="http://www.w3.org/1999/xlink" version="1.1" id="Layer_1" x="0px" y="0px" viewBox="0 0 512 512" style="enable-background:new 0 0 512 512;" xml:space="preserve">
<g>
	<g>
		<path d="M336.465,237.362c-2.354-3.657-5.379-5.485-9.077-5.485c-3.867,0-6.957,1.828-9.268,5.485    c-2.314,3.657-3.468,8.428-3.468,14.311c0,5.885,1.154,10.635,3.468,14.249c2.311,3.615,5.401,5.422,9.268,5.422    c3.698,0,6.724-1.807,9.077-5.422c2.353-3.613,3.531-8.363,3.531-14.249C339.995,245.789,338.816,241.018,336.465,237.362z"/>
	</g>
</g>
<g>
	<g>
		<path d="M75.291,271.69l-75.173,0.285c2.151,35.178,11.372,69.001,26.999,99.811l65.098-37.877    C83.073,314.771,77.196,293.791,75.291,271.69z"/>
	</g>
</g>
<g>
	<g>
		<path d="M26.247,141.917C10.866,172.827,1.889,206.715,0,241.928l75.169-0.285c1.738-22.125,7.47-43.144,16.462-62.343    L26.247,141.917z"/>
	</g>
</g>
<g>
	<g>
		<path d="M256.02,104.612c-83.465,0-151.369,67.904-151.369,151.369s67.904,151.369,151.369,151.369    s151.369-67.904,151.369-151.369S339.484,104.612,256.02,104.612z M153.762,288.617v-18.157h17.904v-32.153    c-0.757,1.009-1.935,2.039-3.531,3.089c-1.598,1.053-3.384,2.018-5.359,2.901c-1.977,0.882-3.993,1.598-6.053,2.143    c-2.061,0.548-3.889,0.819-5.486,0.819v-18.662c1.344,0,3.09-0.461,5.233-1.387c2.144-0.924,4.266-2.037,6.367-3.341    c2.1-1.302,3.991-2.626,5.674-3.971c1.681-1.344,2.731-2.438,3.152-3.278h20.553v53.841h16.014v18.157H153.762z M280.355,266.993    c-1.683,4.665-3.992,8.701-6.935,12.105s-6.41,6.053-10.403,7.944c-3.993,1.892-8.343,2.838-13.05,2.838    c-4.708,0-9.078-0.945-13.114-2.838c-4.034-1.891-7.524-4.539-10.466-7.944c-2.944-3.404-5.232-7.439-6.871-12.105    c-1.64-4.665-2.459-9.772-2.459-15.319c0-5.548,0.819-10.655,2.459-15.319c1.64-4.665,3.928-8.701,6.871-12.104    c2.943-3.404,6.431-6.073,10.466-8.007c4.034-1.933,8.405-2.901,13.114-2.901c4.706,0,9.056,0.968,13.05,2.901    c3.991,1.935,7.459,4.602,10.403,8.007c2.943,3.404,5.252,7.439,6.935,12.104c1.682,4.665,2.522,9.772,2.522,15.319    C282.878,257.22,282.037,262.328,280.355,266.993z M357.774,266.993c-1.683,4.665-3.992,8.701-6.935,12.105    c-2.943,3.404-6.41,6.053-10.403,7.944c-3.993,1.892-8.343,2.838-13.05,2.838c-4.708,0-9.079-0.945-13.114-2.838    c-4.034-1.891-7.524-4.539-10.466-7.944c-2.943-3.404-5.232-7.439-6.871-12.105c-1.64-4.665-2.459-9.772-2.459-15.319    c0-5.548,0.819-10.655,2.459-15.319c1.64-4.665,3.928-8.701,6.871-12.104c2.943-3.404,6.431-6.073,10.466-8.007    c4.034-1.933,8.405-2.901,13.114-2.901c4.706,0,9.056,0.968,13.05,2.901c3.991,1.935,7.459,4.602,10.403,8.007    c2.943,3.404,5.252,7.439,6.935,12.104c1.682,4.665,2.523,9.772,2.523,15.319C360.298,257.22,359.456,262.328,357.774,266.993z"/>
	</g>
</g>
<g>
	<g>
		<path d="M241.454,436.81c-22.122-1.766-43.134-7.522-62.323-16.539l-37.467,65.339c30.894,15.423,64.772,24.437,99.979,26.37    L241.454,436.81z"/>
	</g>
</g>
<g>
	<g>
		<path d="M333.74,419.882c-19.148,9.116-40.135,14.97-62.239,16.847l0.189,75.172c35.184-2.107,69.02-11.283,99.847-26.87    L333.74,419.882z"/>
	</g>
</g>
<g>
	<g>
		<path d="M259.045,237.362c-2.354-3.657-5.379-5.485-9.077-5.485c-3.867,0-6.957,1.828-9.268,5.485    c-2.314,3.657-3.468,8.428-3.468,14.311c0,5.885,1.154,10.635,3.468,14.249c2.311,3.615,5.401,5.422,9.268,5.422    c3.698,0,6.724-1.807,9.077-5.422c2.353-3.613,3.531-8.363,3.531-14.249C262.576,245.789,261.397,241.018,259.045,237.362z"/>
	</g>
</g>
<g>
	<g>
		<path d="M436.83,270.775c-1.794,22.117-7.574,43.123-16.616,62.302l65.294,37.55C500.97,339.75,510.023,305.882,512,270.68    L436.83,270.775z"/>
	</g>
</g>
<g>
	<g>
		<path d="M107.372,359.855l-65.102,37.88c9.376,14.074,20.212,27.325,32.442,39.554c12.621,12.621,26.335,23.749,40.913,33.327    l37.464-65.334C135.29,392.974,119.79,377.571,107.372,359.855z"/>
	</g>
</g>
<g>
	<g>
		<path d="M113.993,42.408c-13.973,9.334-27.13,20.114-39.282,32.264c-12.699,12.699-23.886,26.505-33.504,41.186l65.379,37.38    c12.287-17.815,27.67-33.335,45.371-45.775L113.993,42.408z"/>
	</g>
</g>
<g>
	<g>
		<path d="M437.328,74.672c-12.465-12.464-25.993-23.475-40.37-32.974l-37.63,65.241c17.766,12.353,33.227,27.793,45.602,45.544    l65.195-37.713C460.667,100.494,449.714,87.058,437.328,74.672z"/>
	</g>
</g>
<g>
	<g>
		<path d="M405.191,359.101c-12.331,17.782-27.752,33.263-45.485,45.659l37.797,65.148c14.175-9.416,27.518-20.311,39.825-32.619    c12.543-12.543,23.612-26.164,33.151-40.642L405.191,359.101z"/>
	</g>
</g>
<g>
	<g>
		<path d="M271.043,0.02v75.171c22.113,1.822,43.112,7.626,62.281,16.694l37.635-65.248C340.098,11.131,306.24,2.04,271.043,0.02z"/>
	</g>
</g>
<g>
	<g>
		<path d="M485.221,140.749l-65.202,37.718c9.092,19.159,14.921,40.152,16.771,62.261l75.171-0.095    C509.897,205.443,500.766,171.593,485.221,140.749z"/>
	</g>
</g>
<g>
	<g>
		<path d="M139.924,27.228l37.958,65.045c19.392-9.293,40.681-15.234,63.113-17.082V0.02    C205.359,2.065,171.095,11.367,139.924,27.228z"/>
	</g>
</g>
<g>
</g>
<g>
</g>
<g>
</g>
<g>
</g>
<g>
</g>
<g>
</g>
<g>
</g>
<g>
</g>
<g>
</g>
<g>
</g>
<g>
</g>
<g>
</g>
<g>
</g>
<g>
</g>
<g>
</g>
</svg>
