<?xml version="1.0" encoding="iso-8859-1"?>
<!-- Generator: Adobe Illustrator 19.0.0, SVG Export Plug-In . SVG Version: 6.00 Build 0)  -->
<svg xmlns="http://www.w3.org/2000/svg" xmlns:xlink="http://www.w3.org/1999/xlink" version="1.1" id="Layer_1" x="0px" y="0px" viewBox="0 0 512 512" style="enable-background:new 0 0 512 512;" xml:space="preserve">
<g>
	<g>
		<path d="M173.721,16.722L71.952,195.964c-9.953,17.53-12.484,37.887-7.126,57.32c3.995,14.489,12.022,27.167,23.111,36.808    l-51.106,90.012l-21.926-12.449L0,393.905l68.253,38.752l14.905-26.251l-20.076-11.399l51.113-90.024    c7.626,2.487,15.472,3.696,23.257,3.696c26.293,0,51.873-13.741,65.756-38.193L304.976,91.245L173.721,16.722z M129.924,154.997    l55.142-97.12l78.754,44.715l-23.458,41.316L129.924,154.997z"/>
	</g>
</g>
<g>
	<g>
		<path d="M506.627,451.604l-23.764,4.298l-18.755-103.699c13.655-5.426,25.428-14.731,33.994-27.08    c11.49-16.563,15.843-36.61,12.255-56.446L473.673,65.85L325.146,92.712l36.682,202.827c3.588,19.837,14.686,37.089,31.249,48.578    c12.349,8.566,26.633,13.151,41.323,13.45l18.756,103.707l-23.764,4.298l5.373,29.706L512,481.31L506.627,451.604z     M372.194,183.232l-11.97-66.187l89.117-16.117l15.95,88.192L372.194,183.232z"/>
	</g>
</g>
<g>
</g>
<g>
</g>
<g>
</g>
<g>
</g>
<g>
</g>
<g>
</g>
<g>
</g>
<g>
</g>
<g>
</g>
<g>
</g>
<g>
</g>
<g>
</g>
<g>
</g>
<g>
</g>
<g>
</g>
</svg>
