<svg height="512" viewBox="0 0 60 58" width="512" xmlns="http://www.w3.org/2000/svg"><g id="027---Lion-Flag" fill="none"><path id="Shape" d="m59 6h-3c-.5522847 0-1-.44771525-1-1s.4477153-1 1-1h3c.5522847 0 1 .44771525 1 1s-.4477153 1-1 1z" fill="#bdc3c7"/><path id="Shape" d="m4 6h-3c-.55228475 0-1-.44771525-1-1s.44771525-1 1-1h3c.55228475 0 1 .44771525 1 1s-.44771525 1-1 1z" fill="#bdc3c7"/><path id="Shape" d="m6 10c-1.10274818-.00438474-1.99561526-.89725182-2-2v-6c0-1.1045695.8954305-2 2-2s2 .8954305 2 2v6c0 1.1045695-.8954305 2-2 2z" fill="#f0c419"/><path id="Shape" d="m54 10c1.1027482-.00438474 1.9956153-.89725182 2-2v-6c0-1.1045695-.8954305-2-2-2s-2 .8954305-2 2v6c0 1.1045695.8954305 2 2 2z" fill="#f0c419"/><g fill="#95a5a5"><path id="Rectangle-path" d="m8 3h4v4h-4z"/><path id="Rectangle-path" d="m33 3h9v4h-9z"/><path id="Rectangle-path" d="m48 3h4v4h-4z"/><path id="Rectangle-path" d="m18 3h9v4h-9z"/></g><path id="Shape" d="m48 2v42.263c-.0000229 1.3373037-.6683405 2.5861308-1.781 3.328l-15.11 10.073c-.6716151.4475101-1.5463849.4475101-2.218 0l-15.11-10.073c-1.1126595-.7418692-1.7809771-1.9906963-1.781-3.328v-42.263c0-.55228475.4477153-1 1-1h4c.5522847 0 1 .44771525 1 1v8c0 1.1045695.8954305 2 2 2h5c1.1045695 0 2-.8954305 2-2v-8c0-.55228475.4477153-1 1-1h4c.5522847 0 1 .44771525 1 1v8c0 1.1045695.8954305 2 2 2h5c1.1045695 0 2-.8954305 2-2v-8c0-.55228475.4477153-1 1-1h4c.5522847 0 1 .44771525 1 1z" fill="#c03a2b"/><path id="Shape" d="m20 28.062v2.81c-.0003749 2.4243585 1.6484811 4.538192 4 5.128v.9c-.0139595.5438892.1890718 1.0709802.5642913 1.4649607s.8917857.6224668 1.4357087.6350393c0 1.6568542 1.3431458 3 3 3h1v7c-.0683622-.0026754-.1358675-.0161764-.2-.04-3.102937-1.359686-5.7311199-3.6119169-7.55-6.47-.0738877-.1151364-.192213-.1944768-.3267816-.2191161-.1345685-.0246393-.2733292.007629-.3832184.0891161-.5749932.3947145-1.0286249.9418427-1.31 1.58-.0679809.1891993-.242668.3192816-.4434135.3301917s-.3885015-.0994742-.4765865-.2801917c-.9001487-1.9759872-1.3444413-4.1290974-1.3-6.3-.0060309-.1626023-.0884047-.3128343-.2222578-.4053504-.1338531-.0925162-.3035027-.1164768-.4577422-.0646496-.1976099.0729685-.3883575.1633226-.57.27-.1532781.0933372-.3448217.0973704-.5018928.0105679s-.2555758-.2511254-.2581072-.4305679v-11.938c.007723-3.3072696 2.6927231-5.9833196 6-5.98.0540592-.8654084-.3014212-1.7059715-.96-2.27-.1571915-.134243-.2155681-.3513767-.1468857-.5463461s.250262-.3275731.4568857-.3336539c6.351-.082 8.115 2.04 8.65 2.04v4.64c-.2885756.0119339-.5760181-.042817-.84-.16-1.700753-.7784378-3.6737791-.6814649-5.29.26l-1.21.69c-1.6447547.9431572-2.6594124 2.6940139-2.66 4.59z" fill="#f29c1f"/><path id="Shape" d="m44 25.132v11.94c-.0025314.1794425-.1010361.3437654-.2581072.4305679s-.3486147.0827693-.5018928-.0105679c-.1816425-.1066774-.3723901-.1970315-.57-.27-.1542395-.0518272-.3238891-.0278666-.4577422.0646496-.1338531.0925161-.2162269.2427481-.2222578.4053504.0444413 2.1709026-.3998513 4.3240128-1.3 6.3-.088085.1807175-.275841.2911018-.4765865.2801917s-.3754326-.1409924-.4434135-.3301917c-.2813751-.6381573-.7350068-1.1852855-1.31-1.58-.1098892-.0814871-.2486499-.1137554-.3832184-.0891161-.1345686.0246393-.2528939.1039797-.3267816.2191161-1.8188801 2.8580831-4.447063 5.110314-7.55 6.47-.0642437.0231413-.1317458.0359667-.2.038v-7h1c1.6568542 0 3-1.3431458 3-3 .543923-.0125725 1.0604892-.2410588 1.4357087-.6350393s.5782508-.9210715.5642913-1.4649607v-.9c2.3522423-.5899891 4.0012925-2.704896 4-5.13v-2.81c-.0005876-1.8959861-1.0152453-3.6468428-2.66-4.59l-1.21-.69c-1.5800002-.90624-3.4930311-1.0209478-5.17-.31-.3015574.1370746-.6287531.2086487-.96.21v-4.64c.0964282.0043946.1915305-.0237838.27-.08 2.52-1.72 6.06-1.99 8.38-1.96.2066237.0060808.3882033.1386845.4568857.3336539s.0103058.4121031-.1468857.5463461c-.6585788.5640285-1.0140592 1.4045916-.96 2.27 1.5891553-.0031855 3.1144013.6254612 4.2397929 1.7474766s1.7586179 2.6453657 1.7602071 4.2345234z" fill="#e57e25"/><circle id="Oval" cx="34" cy="28.002" fill="#464f5d" r="2"/><path id="Shape" d="m34 39c0 1.6568542-1.3431458 3-3 3h-1v-5c3.145 1.8 3.315 2 4 2z" fill="#d25627"/><path id="Shape" d="m32 34c0 .55-.9 3-2 3v-4c1.1 0 2 .452 2 1z" fill="#f29c1f"/><path id="Shape" d="m37.34 23.472-1.21-.69c-1.5800002-.90624-3.4930311-1.0209478-5.17-.31-.3015574.1370746-.6287531.2086487-.96.21v10.318c1.1 0 2 .45 2 1s-.9 3-2 3c3.145 1.8 3.315 2 4 2 .543923-.0125725 1.0604892-.2410588 1.4357087-.6350393s.5782508-.9210715.5642913-1.4649607v-.9c2.3522423-.5899891 4.0012925-2.704896 4-5.13v-2.81c-.0013037-1.8952712-1.0158649-3.6451986-2.66-4.588zm-3.34 6.528c-1.1045695 0-2-.8954305-2-2s.8954305-2 2-2 2 .8954305 2 2c-.0032948 1.1032019-.8967981 1.9967052-2 2z" fill="#f0c419"/><path id="Shape" d="m30 37v5h-1c-1.6568542 0-3-1.3431458-3-3 .716 0 .879-.211 4-2z" fill="#e57e25"/><path id="Shape" d="m30 33v-10.318c-.2885756.0119339-.5760181-.042817-.84-.16-1.700753-.7784378-3.6737791-.6814649-5.29.26l-1.21.69c-1.6447547.9431572-2.6594124 2.6940139-2.66 4.59v2.81c-.0003749 2.4243585 1.6484811 4.538192 4 5.128v.9c-.0282282.7066481.3177248 1.3759497.9105413 1.7615881s1.3448963.4306281 1.9794587.1184119l3.11-1.78c-1.1 0-2-2.45-2-3s.9-1 2-1zm-4-3c-1.1045695 0-2-.8954305-2-2s.8954305-2 2-2 2 .8954305 2 2c-.0032948 1.1032019-.8967981 1.9967052-2 2z" fill="#f3d55b"/><circle id="Oval" cx="26" cy="28.002" fill="#464f5d" r="2"/><path id="Shape" d="m30 33v4c-1.1 0-2-2.45-2-3s.9-1 2-1z" fill="#f0c419"/></g></svg>