<?xml version="1.0" encoding="iso-8859-1"?>
<!-- Generator: Adobe Illustrator 19.0.0, SVG Export Plug-In . SVG Version: 6.00 Build 0)  -->
<svg xmlns="http://www.w3.org/2000/svg" xmlns:xlink="http://www.w3.org/1999/xlink" version="1.1" id="Layer_1" x="0px" y="0px" viewBox="0 0 512 512" style="enable-background:new 0 0 512 512;" xml:space="preserve">
<path style="fill:#7FC8F0;" d="M304.555,91.365l-19.032,33.532l-82.59,145.465c-13.867,24.418-39.411,38.135-65.668,38.135  c-6.301,0-12.641-0.794-18.871-2.412c-1.457-0.382-2.914-0.804-4.351-1.276l-51.972,91.523l20.972,11.908L68.16,434.456  l-34.437-19.555L0,395.759l14.882-26.217l20.972,11.908l51.962-91.513c-11.074-9.627-19.092-22.288-23.082-36.758  c-5.346-19.404-2.824-39.732,7.125-57.247l30.689-54.062L173.48,16.944l65.648,37.27L304.555,91.365z"/>
<path style="fill:#49BBED;" d="M304.555,91.365l-19.032,33.532l-82.59,145.465c-13.867,24.418-39.411,38.135-65.668,38.135  c-6.301,0-12.641-0.794-18.871-2.412c-1.457-0.382-2.914-0.804-4.351-1.276l-51.972,91.523l20.972,11.908L68.16,434.456  l-34.437-19.555l0.965-1.919l204.44-358.768L304.555,91.365z"/>
<path style="fill:#E70020;" d="M285.523,124.897l-82.59,145.465c-13.867,24.418-39.411,38.135-65.668,38.135  c-6.301,0-12.641-0.794-18.871-2.412s-12.35-4.07-18.208-7.396c-0.09-0.05-0.181-0.1-0.271-0.161  c-17.374-9.948-29.855-26.046-35.18-45.35c-5.346-19.404-2.824-39.732,7.125-57.247l30.689-54.062l91.473-8.481L285.523,124.897z"/>
<path style="fill:#990013;" d="M285.523,124.897l-82.59,145.465c-13.867,24.418-39.411,38.135-65.668,38.135  c-6.301,0-12.641-0.794-18.871-2.412s-12.35-4.07-18.208-7.396c-0.09-0.05-0.181-0.1-0.271-0.161l94.106-165.14L285.523,124.897z"/>
<path style="fill:#7FC8F0;" d="M475.069,66.391l6.706,37.969l29.072,164.73c4.878,27.654-6.063,54.504-26.296,71.239  c-4.855,4.016-10.247,7.445-16.079,10.169c-1.366,0.635-2.758,1.238-4.166,1.79l18.285,103.65l23.749-4.191l5.242,29.687  l-38.999,6.88l-38.187,6.743l-5.242-29.687l23.749-4.191l-18.287-103.635c-14.669-0.36-28.917-5.006-41.214-13.613  c-16.487-11.545-27.5-28.817-30.997-48.654l-10.809-61.218L326.634,92.586l74.341-13.122L475.069,66.391z"/>
<path style="fill:#49BBED;" d="M475.069,66.391l6.706,37.969l29.072,164.73c4.878,27.654-6.063,54.504-26.296,71.239  c-4.855,4.016-10.247,7.445-16.079,10.169c-1.366,0.635-2.758,1.238-4.166,1.79l18.285,103.65l23.749-4.191l5.242,29.687  l-38.999,6.88l-0.48-2.094L400.975,79.465L475.069,66.391z"/>
<path style="fill:#E70020;" d="M497.252,192.056H344.185l7.411,42.004l10.809,61.218c3.498,19.837,14.51,37.109,30.997,48.654  c16.407,11.48,36.284,15.93,56.013,12.522c0.108-0.011,0.21-0.03,0.311-0.049c6.634-1.171,12.913-3.182,18.745-5.906  s11.224-6.154,16.079-10.169c20.233-16.735,31.174-43.585,26.296-71.239L497.252,192.056z"/>
<path style="fill:#990013;" d="M497.252,192.056H420.67l28.746,164.398c0.108-0.011,0.21-0.03,0.311-0.049  c6.634-1.171,12.913-3.182,18.745-5.906s11.224-6.154,16.079-10.169c20.233-16.735,31.174-43.585,26.296-71.239L497.252,192.056z"/>
<g>
</g>
<g>
</g>
<g>
</g>
<g>
</g>
<g>
</g>
<g>
</g>
<g>
</g>
<g>
</g>
<g>
</g>
<g>
</g>
<g>
</g>
<g>
</g>
<g>
</g>
<g>
</g>
<g>
</g>
</svg>
