<svg height="512" viewBox="0 0 58 58" width="512" xmlns="http://www.w3.org/2000/svg"><g id="028---Crown-In-Case" fill="none"><path id="Shape" d="m54.65 5-6.65 2h-38l-6.65-2c.366-.691.269-.515 5.09-4.54.35645761-.29723015.80587955-.4600129 1.27-.46h38.57c.4715962.00175274.9278075.16796926 1.29.47 4.719 3.938 4.711 3.83 5.08 4.53z" fill="#3b97d3"/><path id="Shape" d="m54.65 5.01c0-.1.58-.01-51.3-.01-.52.972-.35-2.988-.35 50h52c0-50.445.166-49.087-.35-49.99z" fill="#285680"/><path id="Shape" d="m54.65 5c0 .193-51.3-.065-51.65 48 0-50.4-.156-47.053.35-48z" fill="#4482c3"/><circle id="Oval" cx="13" cy="16" fill="#f0c419" r="2"/><circle id="Oval" cx="21" cy="13" fill="#f0c419" r="2"/><circle id="Oval" cx="45" cy="16" fill="#f0c419" r="2"/><circle id="Oval" cx="37" cy="13" fill="#f0c419" r="2"/><circle id="Oval" cx="29" cy="11" fill="#f0c419" r="2"/><path id="Shape" d="m45 18v8h-32v-8c.9536137-.000766 1.7740456-.6746922 1.96-1.61l2.422.486c.3789621.0770402.7683758-.0713264 1-.381l1.418-1.895c.4967004.3740922 1.1396558.4946427 1.7381364.3258908s1.0837531-.6074257 1.3118636-1.1858908l2.438.975c.4198858.1683446.9004935.03384 1.172-.328l1.34-1.787c.7111111.5333333 1.6888889.5333333 2.4 0l1.34 1.787c.2715065.36184.7521142.4963446 1.172.328l2.438-.975c.2281105.5784651.713383 1.0171389 1.3118636 1.1858908s1.241436.0482014 1.7381364-.3258908l1.422 1.9c.2316242.3096736.6210379.4580402 1 .381l2.422-.486c.1877354.9318488 1.0054307 1.6028104 1.956 1.605z" fill="#f3d55b"/><rect id="Rectangle-path" fill="#805333" height="5" rx="1" width="58" y="53"/><rect id="Rectangle-path" fill="#a56a43" height="5" rx="1" width="52" x="3" y="53"/><path id="Shape" d="m50 40v1h-42v-1c0-1.6568542 1.34314575-3 3-3h36c1.6568542 0 3 1.3431458 3 3z" fill="#c03a2b"/><path id="Rectangle-path" d="m8 41h42v8h-42z" fill="#ecf0f1"/><path id="Shape" d="m50 49v1c0 1.6568542-1.3431458 3-3 3h-36c-1.65685425 0-3-1.3431458-3-3v-1z" fill="#c03a2b"/><path id="Shape" d="m46 37h-34c-1.1045695 0-2-.8954305-2-2s.8954305-2 2-2h34c1.1045695 0 2 .8954305 2 2s-.8954305 2-2 2z" fill="#f29c1f"/><path id="Shape" d="m46 28h-34c-1.1045695 0-2-.8954305-2-2s.8954305-2 2-2h34c1.1045695 0 2 .8954305 2 2s-.8954305 2-2 2z" fill="#f29c1f"/><path id="Shape" d="m43 37h-28c-1.1045695 0-2-.8954305-2-2s.8954305-2 2-2h28c1.1045695 0 2 .8954305 2 2s-.8954305 2-2 2z" fill="#f0c419"/><path id="Shape" d="m43 28h-28c-1.1045695 0-2-.8954305-2-2s.8954305-2 2-2h28c1.1045695 0 2 .8954305 2 2s-.8954305 2-2 2z" fill="#f0c419"/><path id="Rectangle-path" d="m12 28h34v5h-34z" fill="#e57e25"/><path id="Rectangle-path" d="m12 28h34v5h-34z" fill="#e57e25"/><path id="Rectangle-path" d="m12 28h34v5h-34z" fill="#e57e25"/><path id="Rectangle-path" d="m15 28h28v5h-28z" fill="#f29c1f"/><circle id="Oval" cx="21" cy="20" fill="#4fba6f" r="1"/><circle id="Oval" cx="29" cy="20" fill="#ff5364" r="1"/><circle id="Oval" cx="37" cy="20" fill="#4fba6f" r="1"/><g fill="#464f5d"><circle id="Oval" cx="14" cy="45" r="1"/><circle id="Oval" cx="20" cy="45" r="1"/><circle id="Oval" cx="26" cy="45" r="1"/><circle id="Oval" cx="32" cy="45" r="1"/><circle id="Oval" cx="38" cy="45" r="1"/><circle id="Oval" cx="44" cy="45" r="1"/></g><ellipse id="Oval" cx="29" cy="30.5" fill="#ff5364" rx="3" ry="2.5"/></g></svg>