<?xml version="1.0" encoding="iso-8859-1"?>
<!-- Generator: Adobe Illustrator 19.0.0, SVG Export Plug-In . SVG Version: 6.00 Build 0)  -->
<svg xmlns="http://www.w3.org/2000/svg" xmlns:xlink="http://www.w3.org/1999/xlink" version="1.1" id="Layer_1" x="0px" y="0px" viewBox="0 0 512 512" style="enable-background:new 0 0 512 512;" xml:space="preserve">
<path style="fill:#008C48;" d="M355.088,269.257L112.345,512L0.003,399.659l242.744-242.743c8.84-8.84,19.301-15.309,31.098-19.222  c47.044-15.606,87.513-40.136,120.289-72.912L458.916,0l53.081,53.081l-64.78,64.78c-32.776,32.776-57.306,73.245-72.912,120.289  C370.39,249.949,363.928,260.417,355.088,269.257z"/>
<path style="fill:#00743A;" d="M355.088,269.257L112.345,512l-56.174-56.174L485.456,26.541l26.541,26.541l-64.78,64.78  c-32.776,32.776-57.306,73.245-72.912,120.289C370.39,249.949,363.928,260.417,355.088,269.257z"/>
<rect x="164.726" y="220.938" transform="matrix(-0.7071 0.7071 -0.7071 -0.7071 573.6526 363.1351)" style="fill:#FFA91D;" width="93.784" height="158.873"/>
<rect x="192.814" y="288.74" transform="matrix(-0.7071 0.7071 -0.7071 -0.7071 641.4612 391.2188)" style="fill:#FF8900;" width="93.784" height="79.441"/>
<rect x="435.123" y="9.861" transform="matrix(-0.7071 0.7071 -0.7071 -0.7071 826.642 -247.6167)" style="fill:#FFA91D;" width="58.963" height="75.067"/>
<rect x="448.396" y="41.899" transform="matrix(-0.7071 0.7071 -0.7071 -0.7071 858.6857 -234.347)" style="fill:#FF8900;" width="58.963" height="37.534"/>
<g>
</g>
<g>
</g>
<g>
</g>
<g>
</g>
<g>
</g>
<g>
</g>
<g>
</g>
<g>
</g>
<g>
</g>
<g>
</g>
<g>
</g>
<g>
</g>
<g>
</g>
<g>
</g>
<g>
</g>
</svg>
