<?xml version="1.0" encoding="iso-8859-1"?>
<!-- Generator: Adobe Illustrator 19.0.0, SVG Export Plug-In . SVG Version: 6.00 Build 0)  -->
<svg xmlns="http://www.w3.org/2000/svg" xmlns:xlink="http://www.w3.org/1999/xlink" version="1.1" id="Layer_1" x="0px" y="0px" viewBox="0 0 512.007 512.007" style="enable-background:new 0 0 512.007 512.007;" xml:space="preserve">
<g>
	<g>
		
			<rect x="447.025" y="4.932" transform="matrix(0.7071 -0.7071 0.7071 0.7071 107.4989 344.4549)" width="45.038" height="75.064"/>
	</g>
</g>
<g>
	<g>
		
			<rect x="179.741" y="220.946" transform="matrix(0.7071 -0.7071 0.7071 0.7071 -150.4197 237.6193)" width="63.762" height="158.873"/>
	</g>
</g>
<g>
	<g>
		<path d="M405.843,53.088l-11.701,11.701c-32.779,32.779-73.252,57.31-120.295,72.915c-11.797,3.913-22.261,10.379-31.101,19.219    l-43.516,43.516l112.341,112.341l43.516-43.516c8.84-8.84,15.306-19.304,19.218-31.099    c15.605-47.045,40.138-87.518,72.916-120.296l11.701-11.701L405.843,53.088z"/>
	</g>
</g>
<g>
	<g>
		
			<rect x="33.041" y="320.561" transform="matrix(0.7071 -0.7071 0.7071 0.7071 -250.0348 196.3577)" width="157.932" height="158.873"/>
	</g>
</g>
<g>
</g>
<g>
</g>
<g>
</g>
<g>
</g>
<g>
</g>
<g>
</g>
<g>
</g>
<g>
</g>
<g>
</g>
<g>
</g>
<g>
</g>
<g>
</g>
<g>
</g>
<g>
</g>
<g>
</g>
</svg>
