<svg height="512" viewBox="0 0 59 59" width="512" xmlns="http://www.w3.org/2000/svg"><g id="029---Royal-Train" fill="none"><path id="Shape" d="m29.09 52h-22.467l-2.623 4h30.25z" fill="#a56a43"/><path id="Shape" d="m5.547 57.514 5.73-9.514-3.277-2-2.745 2-5.11 8.486c-.1853311.3092883-.18981064.6943977-.0117239 1.0079132s.51116015.5068841.8717239.5060868h3.681c.35261267.0011307.67975797-.1835297.861-.486z" fill="#bdc3c7"/><path id="Shape" d="m26.8 47h-14.8v-6h13.91c.0958979 2.0246693.3940483 4.034672.89 6z" fill="#7f8c8d"/><path id="Shape" d="m27.97 42c0 .34.01 1.67.03 2h-14c0-.55-2.45-1-3-1l-7-1v-14l27.41 2c-3.32 2.93-3.44 7.22-3.44 12z" fill="#95a5a5"/><path id="Shape" d="m51.25 28.94c-6.8 1.72-19.09 6.38-24.42 18.14-2.0476263-6.0963012-.2430403-12.8260673 4.58-17.08 0-.0055228.0044772-.01.01-.01 5.5690904-4.9003635 13.7745522-5.3348433 19.83-1.05z" fill="#3b97d3"/><path id="Shape" d="m58 42c-.0031169 7.840758-5.687663 14.5240638-13.4263197 15.7852886-7.7386567 1.2612247-15.2511226-3.2712687-17.7436803-10.7052886 5.33-11.76 17.62-16.42 24.42-18.14 4.2397512 2.9967796 6.7574556 7.8680714 6.75 13.06z" fill="#2980ba"/><rect id="Rectangle-path" fill="#56595e" height="6" rx="1" width="12" x="2" y="42"/><path id="Shape" d="m38 10v16.5l-6.58 3.49c-.215 0 2.986.01-27.42.01v-20z" fill="#c03a2b"/><path id="Shape" d="m33 17v8c0 .5522847-.4477153 1-1 1h-22c-.36025133-.0024943-.69184241-.1968752-.87-.51-.183-.321-.13.2-.13-8.49 0-.5522847.44771525-1 1-1h22c.550922.0032761.9967239.449078 1 1z" fill="#2fa8cc"/><path id="Shape" d="m25 1h4c4.9705627 0 9 4.02943725 9 9v2h-34v-2c0-4.97056275 4.02943725-9 9-9h4" fill="#e64c3c"/><path id="Shape" d="m18 0h6c.5522847 0 1 .44771525 1 1v11h-8v-11c0-.55228475.4477153-1 1-1z" fill="#f0c419"/><circle id="Oval" cx="21" cy="6" fill="#f29c1f" r="1"/><circle id="Oval" cx="10" cy="36" fill="#f0c419" r="2"/><path id="Shape" d="m17 39c-.5522847 0-1-.4477153-1-1v-4c0-.5522847.4477153-1 1-1s1 .4477153 1 1v4c0 .5522847-.4477153 1-1 1z" fill="#7f8c8d"/><path id="Shape" d="m21 39c-.5522847 0-1-.4477153-1-1v-4c0-.5522847.4477153-1 1-1s1 .4477153 1 1v4c0 .5522847-.4477153 1-1 1z" fill="#7f8c8d"/><g fill="#fff"><path id="Shape" d="m21.0000042 16c.0007654.2656541-.1034697.5208504-.2900042.71l-5 5c-.3921222.3921222-1.0278778.3921222-1.42 0s-.3921222-1.0278778 0-1.42l4.29-4.29z"/><path id="Shape" d="m12.71 24.71-1.29 1.29h-1.42c-.36025133-.0024943-.69184241-.1968752-.87-.51.67182826-.7791237 1.3933335-1.5139902 2.16-2.2.2536586-.2536586.623374-.3527235.969878-.259878.3465041.0928454.6171546.3634959.71.71.0928455.346504-.0062194.7162194-.259878.969878z"/><path id="Shape" d="m28 16c0 .558-.135.555-2.29 2.71-.3921222.3921222-1.0278778.3921222-1.42 0s-.3921222-1.0278778 0-1.42l1.29-1.29z"/><path id="Shape" d="m22.71 21.71-4.29 4.29h-2.4200042c-.0007654-.2656541.1034697-.5208504.2900042-.71l5-5c.3921222-.3921222 1.0278778-.3921222 1.42 0s.3921222 1.0278778 0 1.42z"/><path id="Shape" d="m26.71 24.71-1.29 1.29h-2.42c0-.558.135-.555 2.29-2.71.3921222-.3921221 1.0278778-.3921221 1.42 0 .3921221.3921222.3921221 1.0278778 0 1.42z"/><path id="Shape" d="m33 17v1.42l-3.29 3.29c-.2536586.2536586-.623374.3527235-.969878.259878-.3465041-.0928454-.6171546-.3634959-.71-.71-.0928455-.346504.0062194-.7162194.259878-.969878 4.413-4.413 4-4.017 4.2-4.16.3131248.1781576.5075057.5097487.51.87z"/></g><path id="Shape" d="m42 59c-9.3888407 0-17-7.6111593-17-17s7.6111593-17 17-17 17 7.6111593 17 17c.0053156 4.5103078-1.7840436 8.8374135-4.9733151 12.0266849-3.1892714 3.1892715-7.5163771 4.9786307-12.0266849 4.9733151zm-9.9-28.278-.03.028c-5.9700961 5.5875829-6.2833954 14.9558246-.6999485 20.9297891 5.5834468 5.9739645 14.9514692 6.2937519 20.9292993.7144439 5.97783-5.579308 6.3041054-14.9471068.7289388-20.9287995s-14.9427371-6.314456-20.9282896-.7434335z" fill="#9fc9d3"/><path id="Shape" d="m33 45.27v-10.61c.001757-.3824923.221544-.7304753.5661738-.8964082s.7537221-.1207435 1.0538262.1164082l2.68 2.13c.3966442.318229.9689524.2881075 1.33-.07l2.66-2.65c.3930079-.3899779 1.0269921-.3899779 1.42 0l2.66 2.65c.3610476.3581075.9333558.388229 1.33.07l2.68-2.13c.3001041-.2371517.7091964-.2823411 1.0538262-.1164082s.5644168.5139159.5661738.8964082v10.61" fill="#f3d55b"/><circle id="Oval" cx="37" cy="41" fill="#4fba6f" r="1"/><circle id="Oval" cx="47" cy="41" fill="#4fba6f" r="1"/><circle id="Oval" cx="42" cy="41" fill="#ff5364" r="1"/><path id="Shape" d="m50 49h-16c-1.1045695 0-2-.8954305-2-2s.8954305-2 2-2h16c1.1045695 0 2 .8954305 2 2s-.8954305 2-2 2z" fill="#f29c1f"/><path id="Shape" d="m48 49h-12c-1.1045695 0-2-.8954305-2-2s.8954305-2 2-2h12c1.1045695 0 2 .8954305 2 2s-.8954305 2-2 2z" fill="#f0c419"/></g></svg>