<?xml version="1.0" encoding="iso-8859-1"?>
<!-- Generator: Adobe Illustrator 19.0.0, SVG Export Plug-In . SVG Version: 6.00 Build 0)  -->
<svg xmlns="http://www.w3.org/2000/svg" xmlns:xlink="http://www.w3.org/1999/xlink" version="1.1" id="Layer_1" x="0px" y="0px" viewBox="0 0 512 512" style="enable-background:new 0 0 512 512;" xml:space="preserve">
<g>
	<g>
		<path d="M354.25,143.455c-8.37,0-15.17,6.8-15.17,15.17s6.8,15.17,15.17,15.17c8.37,0,15.17-6.8,15.17-15.17    S362.62,143.455,354.25,143.455z"/>
	</g>
</g>
<g>
	<g>
		<path d="M196.5,0.875v179.75h118.31c-3.65-6.51-5.73-14.02-5.73-22c0-24.91,20.26-45.17,45.17-45.17    c24.91,0,45.17,20.26,45.17,45.17c0,24.91-20.26,45.17-45.17,45.17c-8.7,0-16.84-2.48-23.75-6.76v119.34H512V0.875H196.5z"/>
	</g>
</g>
<g>
	<g>
		<path d="M84.11,276.305c-9.24,0-16.76,7.52-16.76,16.76c0,9.24,7.52,16.76,16.76,16.76c9.24,0,16.76-7.52,16.76-16.76    S93.35,276.305,84.11,276.305z"/>
	</g>
</g>
<g>
	<g>
		<path d="M218.75,415.245c-9.25,0-16.76,7.52-16.76,16.76s7.51,16.76,16.76,16.76c9.24,0,16.75-7.52,16.75-16.76    C235.5,422.765,227.99,415.245,218.75,415.245z"/>
	</g>
</g>
<g>
	<g>
		<path d="M0,210.625v300.5h300.5v-300.5H0z M84.11,339.825c-25.78,0-46.76-20.98-46.76-46.76c0-25.78,20.98-46.76,46.76-46.76    c25.79,0,46.76,20.98,46.76,46.76C130.87,318.845,109.9,339.825,84.11,339.825z M218.75,478.765c-25.79,0-46.76-20.98-46.76-46.76    c0-25.78,20.97-46.76,46.76-46.76c25.78,0,46.75,20.98,46.75,46.76C265.5,457.785,244.53,478.765,218.75,478.765z"/>
	</g>
</g>
<g>
</g>
<g>
</g>
<g>
</g>
<g>
</g>
<g>
</g>
<g>
</g>
<g>
</g>
<g>
</g>
<g>
</g>
<g>
</g>
<g>
</g>
<g>
</g>
<g>
</g>
<g>
</g>
<g>
</g>
</svg>
