<svg height="512" viewBox="0 0 58 58" width="512" xmlns="http://www.w3.org/2000/svg"><g id="030---Queen-Rules-Government" fill="none" transform="translate(-1 -1)"><path id="Shape" d="m40 14h7c.5522847 0 1 .4477153 1 1v3c0 .5522847-.4477153 1-1 1h-7z" fill="#e64c3c"/><path id="Shape" d="m40 26c-.5522847 0-1-.4477153-1-1v-13c0-.5522847.4477153-1 1-1s1 .4477153 1 1v13c0 .5522847-.4477153 1-1 1z" fill="#cb8252"/><path id="Shape" d="m40 25c-4.9705627 0-9 4.0294373-9 9v3h18v-3c0-4.9705627-4.0294373-9-9-9z" fill="#bdc3c7"/><path id="Shape" d="m29 37h-14c-1.1045695 0-2-.8954305-2-2v-4c0-.5522847.4477153-1 1-1s1 .4477153 1 1v4h14c.5522847 0 1 .4477153 1 1s-.4477153 1-1 1z" fill="#95a5a5"/><path id="Shape" d="m27 35h26c1.1045695 0 2 .8954305 2 2v10h-30v-10c0-1.1045695.8954305-2 2-2z" fill="#ecf0f1"/><path id="Shape" d="m30 42c-.5522847 0-1-.4477153-1-1v-2c0-.5522847.4477153-1 1-1s1 .4477153 1 1v2c0 .5522847-.4477153 1-1 1z" fill="#7f8c8d"/><path id="Shape" d="m34 42c-.5522847 0-1-.4477153-1-1v-2c0-.5522847.4477153-1 1-1s1 .4477153 1 1v2c0 .5522847-.4477153 1-1 1z" fill="#7f8c8d"/><path id="Shape" d="m38 42c-.5522847 0-1-.4477153-1-1v-2c0-.5522847.4477153-1 1-1s1 .4477153 1 1v2c0 .5522847-.4477153 1-1 1z" fill="#7f8c8d"/><path id="Shape" d="m42 42c-.5522847 0-1-.4477153-1-1v-2c0-.5522847.4477153-1 1-1s1 .4477153 1 1v2c0 .5522847-.4477153 1-1 1z" fill="#7f8c8d"/><path id="Shape" d="m46 42c-.5522847 0-1-.4477153-1-1v-2c0-.5522847.4477153-1 1-1s1 .4477153 1 1v2c0 .5522847-.4477153 1-1 1z" fill="#7f8c8d"/><path id="Shape" d="m50 42c-.5522847 0-1-.4477153-1-1v-2c0-.5522847.4477153-1 1-1s1 .4477153 1 1v2c0 .5522847-.4477153 1-1 1z" fill="#7f8c8d"/><path id="Shape" d="m22.75 17c.827992.1583833 1.5503597.6596009 1.9885563 1.3797674.4381965.7201665.5513323 1.5920807.3114437 2.4002326-.052633.2614865.0736744.5263245.31.65 1.0017558.534777 1.6309452 1.5744741 1.64 2.71.129008 1.5188602-.958738 2.8708359-2.47 3.07-.2551122.0451618-.4548382.2448878-.5.5-.2859735 1.9141109-1.944889 3.3207686-3.88 3.29-.915063-.0097172-1.802487-.3148788-2.53-.87-8.007 0-7.178-.035-7.37.08-1.10224737.8342351-2.56040345 1.0315575-3.84472973.5202811-1.28432627-.5112764-2.20792933-1.6567513-2.43527027-3.0202811-.04516179-.2551122-.24488783-.4548382-.5-.5-1.51126205-.1991641-2.599008-1.5511398-2.47-3.07.00905481-1.1355259.63824418-2.175223 1.64-2.71.23632559-.1236755.36263296-.3885135.31-.65-.2398886-.8081519-.1267528-1.6800661.31144375-2.4002326s1.16056425-1.2213841 1.98855625-1.3797674z" fill="#a56a43"/><path id="Shape" d="m18.012 17c2.105 2.807 2.988 2.468 2.988 3.312 0 3.121.067 3.474-.2 4.2-.664 1.832-3.031 7.488-6.8 7.488s-6.136-5.656-6.8-7.492c-.13165965-.3587623-.19935256-.7378426-.2-1.12 0-5.675-.4-1.873 2.988-6.388" fill="#fdd7ad"/><path id="Shape" d="m23 17h-18c-1.1045695 0-2-.8954305-2-2s.8954305-2 2-2h18c1.1045695 0 2 .8954305 2 2s-.8954305 2-2 2z" fill="#e57e25"/><path id="Shape" d="m21 17h-14c-1.1045695 0-2-.8954305-2-2s.8954305-2 2-2h14c1.1045695 0 2 .8954305 2 2s-.8954305 2-2 2z" fill="#f29c1f"/><path id="Shape" d="m23 13v-10.342c-.0013893-.38382134-.2223415-.73297954-.5686165-.89855229-.3462751-.16557275-.7567631-.11834013-1.0563835.12155229l-2.675 2.13c-.3977359.31863464-.971467.28719142-1.332-.073l-2.66-2.647c-.3904999-.39038194-1.0235001-.39038194-1.414 0l-2.66 2.647c-.3608033.36137031-.93591894.39284216-1.334.073l-2.675-2.13c-.29962039-.23989242-.71010841-.28712504-1.05638347-.12155229-.34627505.16557275-.56722728.51473095-.56861653.89855229v10.342z" fill="#f3d55b"/><circle id="Oval" cx="9" cy="9" fill="#4fba6f" r="1"/><circle id="Oval" cx="19" cy="9" fill="#4fba6f" r="1"/><circle id="Oval" cx="14" cy="9" fill="#ff5364" r="1"/><rect id="Rectangle-path" fill="#bdc3c7" height="14" rx="1" width="38" x="21" y="45"/><g fill="#7f8c8d"><path id="Shape" d="m31 51c-.5522847 0-1-.4477153-1-1v-1c0-.5522847.4477153-1 1-1s1 .4477153 1 1v1c0 .5522847-.4477153 1-1 1z"/><path id="Shape" d="m35 51c-.5522847 0-1-.4477153-1-1v-1c0-.5522847.4477153-1 1-1s1 .4477153 1 1v1c0 .5522847-.4477153 1-1 1z"/><path id="Shape" d="m39 51c-.5522847 0-1-.4477153-1-1v-1c0-.5522847.4477153-1 1-1s1 .4477153 1 1v1c0 .5522847-.4477153 1-1 1z"/><path id="Shape" d="m43 51c-.5522847 0-1-.4477153-1-1v-1c0-.5522847.4477153-1 1-1s1 .4477153 1 1v1c0 .5522847-.4477153 1-1 1z"/><path id="Shape" d="m47 51c-.5522847 0-1-.4477153-1-1v-1c0-.5522847.4477153-1 1-1s1 .4477153 1 1v1c0 .5522847-.4477153 1-1 1z"/><path id="Shape" d="m51 51c-.5522847 0-1-.4477153-1-1v-1c0-.5522847.4477153-1 1-1s1 .4477153 1 1v1c0 .5522847-.4477153 1-1 1z"/><path id="Shape" d="m31 56c-.5522847 0-1-.4477153-1-1v-1c0-.5522847.4477153-1 1-1s1 .4477153 1 1v1c0 .5522847-.4477153 1-1 1z"/><path id="Shape" d="m27 51c-.5522847 0-1-.4477153-1-1v-1c0-.5522847.4477153-1 1-1s1 .4477153 1 1v1c0 .5522847-.4477153 1-1 1z"/><path id="Shape" d="m27 56c-.5522847 0-1-.4477153-1-1v-1c0-.5522847.4477153-1 1-1s1 .4477153 1 1v1c0 .5522847-.4477153 1-1 1z"/><path id="Shape" d="m55 51c-.5522847 0-1-.4477153-1-1v-1c0-.5522847.4477153-1 1-1s1 .4477153 1 1v1c0 .5522847-.4477153 1-1 1z"/><path id="Shape" d="m55 56c-.5522847 0-1-.4477153-1-1v-1c0-.5522847.4477153-1 1-1s1 .4477153 1 1v1c0 .5522847-.4477153 1-1 1z"/><path id="Shape" d="m35 56c-.5522847 0-1-.4477153-1-1v-1c0-.5522847.4477153-1 1-1s1 .4477153 1 1v1c0 .5522847-.4477153 1-1 1z"/><path id="Shape" d="m39 56c-.5522847 0-1-.4477153-1-1v-1c0-.5522847.4477153-1 1-1s1 .4477153 1 1v1c0 .5522847-.4477153 1-1 1z"/><path id="Shape" d="m43 56c-.5522847 0-1-.4477153-1-1v-1c0-.5522847.4477153-1 1-1s1 .4477153 1 1v1c0 .5522847-.4477153 1-1 1z"/><path id="Shape" d="m47 56c-.5522847 0-1-.4477153-1-1v-1c0-.5522847.4477153-1 1-1s1 .4477153 1 1v1c0 .5522847-.4477153 1-1 1z"/><path id="Shape" d="m51 56c-.5522847 0-1-.4477153-1-1v-1c0-.5522847.4477153-1 1-1s1 .4477153 1 1v1c0 .5522847-.4477153 1-1 1z"/></g></g></svg>