<?xml version="1.0" encoding="iso-8859-1"?>
<!-- Generator: Adobe Illustrator 19.0.0, SVG Export Plug-In . SVG Version: 6.00 Build 0)  -->
<svg xmlns="http://www.w3.org/2000/svg" xmlns:xlink="http://www.w3.org/1999/xlink" version="1.1" id="Layer_1" x="0px" y="0px" viewBox="0 0 512 512" style="enable-background:new 0 0 512 512;" xml:space="preserve">
<polygon style="fill:#49BBED;" points="512,182.052 256,456.199 0,182.052 117.832,55.801 394.168,55.801 "/>
<polygon style="fill:#009BE6;" points="512,182.052 256,456.199 256,55.801 394.168,55.801 "/>
<polygon style="fill:#A3D9F6;" points="512,182.052 0,182.052 117.832,55.801 394.168,55.801 "/>
<g>
	<polygon style="fill:#7FC8F0;" points="256,55.801 160.265,182.052 0,182.052 117.832,55.801  "/>
	<polygon style="fill:#7FC8F0;" points="512,182.052 351.735,182.052 256,55.801 394.168,55.801  "/>
	<polygon style="fill:#7FC8F0;" points="351.735,182.052 256,456.199 160.265,182.052  "/>
</g>
<polygon style="fill:#49BBED;" points="351.735,182.052 256,456.199 256,182.052 "/>
<polygon style="fill:#7FC8F0;" points="512,182.052 256,182.052 256,55.801 394.168,55.801 "/>
<polygon style="fill:#49BBED;" points="512,182.052 351.735,182.052 256,55.801 394.168,55.801 "/>
<g>
</g>
<g>
</g>
<g>
</g>
<g>
</g>
<g>
</g>
<g>
</g>
<g>
</g>
<g>
</g>
<g>
</g>
<g>
</g>
<g>
</g>
<g>
</g>
<g>
</g>
<g>
</g>
<g>
</g>
</svg>
