<svg height="512" viewBox="0 0 58 58" width="512" xmlns="http://www.w3.org/2000/svg"><g id="031---Knight" fill="none"><path id="Shape" d="m58 31c-10 5-13-3.92-13-10 .1409137-1.5172994-.3348392-3.0274544-1.32-4.19-.4423869-.4388324-.995248-.7498167-1.6-.9-2.55 3.09-9.08 3.09-9.08 3.09l-.01.01c-2.8740671-1.4146655-5.8253901-2.6666407-8.84-3.75-.37-3.15-1.03-15.26 10.85-15.26 22 0 16 19 16 24 0 1.88 2 6 7 7z" fill="#e64c3c"/><path id="Shape" d="m28.381 10c-.3065267.000234-.5962287-.14012769-.7860207-.38083008-.1897921-.24070239-.2587067-.55515338-.1869793-.85316992.955-3.966 3.345-5.766 7.592-5.766 2.4734386-.06269528 4.9395455.29540251 7.293 1.059.5196999.18694839.7894484.75980005.6025 1.2795s-.7598001.78944839-1.2795.6025c-2.1364428-.68471322-4.3733695-1.00287344-6.616-.941-3.417 0-4.935 1.277-5.647 4.234-.1081216.44923006-.5099416.76589068-.972.766z" fill="#c03a2b"/><path id="Shape" d="m44.98 14.29c-.1872934.9456903-.6379309 1.8192337-1.3 2.52-.4398786-.4369234-.9889904-.7477413-1.59-.9.032-.633.671-.725.93-2.02.0714531-.3501203.3242655-.635525.6632051-.7487049.3389396-.11318.7125135-.0369404.98.2.2674865.2369403.388248.5985846.3167949.9487049z" fill="#c03a2b"/><path id="Shape" d="m39.61 42.37c-.155904.3817461-.5276466.6308927-.94.63h-3.81c1.36-2.35.64-5.08.64-8 0-8.84-5.66-16-14.5-16v-2.97c-.0001218-.2704971.1093432-.5295053.303419-.7179284.1940759-.1884231.4562056-.2901865.726581-.2820716 6.4298029.3435061 12.3028219 3.755957 15.7853456 9.1718955 3.4825237 5.4159386 4.1502341 12.1754752 1.7946544 18.1681045z" fill="#bdc3c7"/><path id="Shape" d="m30 48.24c0 1.9 0 2.091.01 2.24.1551933 1.6974454.9968273 3.2578999 2.33 4.32h.01c.5840144.4885979.8000211 1.2903255.5405207 2.0061888s-.9390747 1.1929427-1.7005207 1.1938112h-17.38c-.761446-.0008685-1.4410203-.4779479-1.7005207-1.1938112s-.0434937-1.5175909.5405207-2.0061888h.01c.9261171-.763653 1.6305695-1.7616271 2.04-2.89.2300544-.6648076.3318554-1.3672345.3-2.07-.5430737-.2250223-1.0738203-.4787125-1.59-.76 7.43-4.6 7.5-9.38 8.75-12.29.2622261-.6201781.1961569-1.3305047-.1759499-1.891682-.3721068-.5611772-1.0007126-.8984957-1.6740501-.898318h-.31c-4.77-2.68-4.22-9.47-5.3-13.52-.0139052-.0554244-.0340331-.1090987-.06-.16 7.5799452-3.3078409 16.4316934-.2938784 20.418089 6.9522261 3.9863956 7.2461046 1.7935885 16.3361547-5.058089 20.9677739z" fill="#95a5a5"/><path id="Shape" d="m32.314 32c-.4233131-.0002426-.8006135-.2669963-.942-.666-1.5607769-4.3903582-5.7124715-7.3260049-10.372-7.334-.5522847 0-1-.4477153-1-1s.4477153-1 1-1c5.5063318.0086551 10.4128271 3.4776677 12.257 8.666.1084949.3061808.0615109.6459829-.1259955.9112359-.1875065.265253-.4921695.4229028-.8170045.4227641z" fill="#bdc3c7"/><path id="Shape" d="m23 34-9.5 1.5-12.5-1.5c3.8-3.8 3.667-3.631 3.9-4l1.56-4c1.07-2.41 2.81-5.3 5.33-6.73.5361817-.3022507 1.1816701-.3407833 1.7500016-.1044667.5683316.2363165.9961972.7211578 1.1599984 1.3144667 1.08 4.05 3.53 10.84 8.3 13.52z" fill="#bdc3c7"/><path id="Shape" d="m12.89 27.45-1 2c-.1652369.3401143-.5118967.5543423-.89.55h-6.1l1.56-4h5.54c.3465932.0010489.6679286.1814922.8492369.4768822.1813084.2953899.1967323.6635996.0407631.9731178z" fill="#ecf0f1"/><g fill="#7f8c8d"><path id="Shape" d="m16.81 52.46c-.7142467-.1385717-1.4189927-.3222732-2.11-.55.2258395-.6450914.3276285-1.3270776.3-2.01.7153425.2500954 1.4470777.4505708 2.19.6.5127604.13131.8343849.6394424.7336402 1.1590731s-.5889595.8707534-1.1136402.8009269z"/><path id="Shape" d="m30.01 50.49c-.7811472.4846006-1.6259096.8581808-2.51 1.11-.4825282.006101-.9005823-.3332612-.9938056-.8067377-.0932234-.4734766.16498-.9459879.6138056-1.1232623.9878854-.3933883 1.9300853-.892989 2.81-1.49.1124245-.0756697.2378638-.1299137.37-.16-.1.08-.2.15-.3.22 0 2.96.01 2.008.01 2.25z"/><path id="Shape" d="m2 38c-1.1045695 0-2-.8954305-2-2v-1c0-.5522847.44771525-1 1-1h22.31c.6733375-.0001777 1.3019433.3371408 1.6740501.898318.3721068.5611773.438176 1.2715039.1759499 1.891682-2.83 6.589-9.777 11.6-16.24 14.77-.2425859.1159582-.52137034.1305079-.77470911.0404319-.25333876-.090076-.46036118-.2773571-.57529089-.5204319l-.44-.93c-.44473087-.9736953-.04919808-2.1251352.9-2.62z"/></g><path id="Shape" d="m18.59 39.64c-4.506 5.15-10.122 7.553-10.79 8.03l-5.8-9.6700013 15.82.0000013c.3882681-.0006314.7418059.223541.9068198.5749992.1650139.3514583.1116726.7666654-.1368198 1.0650008z" fill="#bdc3c7"/><path id="Shape" d="m12.05 45.2c-.54.36-1.11.71-1.71 1.05l-5.15-8.25h2.36z" fill="#464f5d"/><path id="Shape" d="m16.65 41.65c-.47.43-.96.86-1.52 1.32h-.01l-3.1-4.97h2.36z" fill="#464f5d"/></g></svg>