<?xml version="1.0" encoding="iso-8859-1"?>
<!-- Generator: Adobe Illustrator 19.0.0, SVG Export Plug-In . SVG Version: 6.00 Build 0)  -->
<svg xmlns="http://www.w3.org/2000/svg" xmlns:xlink="http://www.w3.org/1999/xlink" version="1.1" id="Layer_1" x="0px" y="0px" viewBox="0 0 511.999 511.999" style="enable-background:new 0 0 511.999 511.999;" xml:space="preserve">
<rect x="130.82" style="fill:#C8C6CD;" width="309.85" height="454.18"/>
<rect x="285.75" style="fill:#AEADB3;" width="154.93" height="454.18"/>
<rect x="71.32" y="57.819" style="fill:#E1E1E4;" width="309.85" height="454.18"/>
<rect x="226.249" y="57.819" style="fill:#D9D8DB;" width="154.93" height="454.18"/>
<path style="fill:#E70020;" d="M313.911,287.622c-8.091,14.795-20.642,26.604-32.779,38.023c-2.14,2.014-4.157,3.912-6.167,5.84  c-7.53,7.232-15.152,14.199-22.525,20.943c-7.325,6.692-14.895,13.615-22.324,20.75l-3.867,3.714l-3.867-3.714  c-7.429-7.135-14.999-14.058-22.324-20.75c-7.373-6.744-14.995-13.711-22.525-20.943c-2.01-1.928-4.027-3.826-6.167-5.84  c-12.137-11.419-24.687-23.228-32.779-38.023c-10.462-19.131-10.172-40.371,0.793-58.285c13.604-22.212,32.559-26.995,46.066-27.099  c11.531-0.089,22.934,3.223,32.991,9.565l7.812,4.894l7.827-4.902c10.042-6.335,21.457-9.632,32.976-9.558  c13.507,0.104,32.462,4.887,46.066,27.099C324.084,247.251,324.374,268.492,313.911,287.622z"/>
<path style="fill:#990013;" d="M313.911,287.622c-8.091,14.795-20.642,26.604-32.779,38.023c-2.14,2.014-4.157,3.912-6.167,5.84  c-7.53,7.232-15.152,14.199-22.525,20.943c-7.325,6.692-14.895,13.615-22.324,20.75l-3.867,3.714V216.698l7.827-4.902  c10.042-6.335,21.457-9.632,32.976-9.558c13.507,0.104,32.462,4.887,46.066,27.099C324.084,247.251,324.374,268.492,313.911,287.622  z"/>
<g>
</g>
<g>
</g>
<g>
</g>
<g>
</g>
<g>
</g>
<g>
</g>
<g>
</g>
<g>
</g>
<g>
</g>
<g>
</g>
<g>
</g>
<g>
</g>
<g>
</g>
<g>
</g>
<g>
</g>
</svg>
