<?xml version="1.0" encoding="iso-8859-1"?>
<!-- Generator: Adobe Illustrator 19.0.0, SVG Export Plug-In . SVG Version: 6.00 Build 0)  -->
<svg xmlns="http://www.w3.org/2000/svg" xmlns:xlink="http://www.w3.org/1999/xlink" version="1.1" id="Layer_1" x="0px" y="0px" viewBox="0 0 512 512" style="enable-background:new 0 0 512 512;" xml:space="preserve">
<g>
	<g>
		<polygon points="209.83,47.92 209.81,47.92 179.82,41.23 122.63,28.47 117.79,50.15 133.17,50.15 150.91,50.15 179.65,50.15     210.3,50.15 214.57,50.15 219.82,50.15   "/>
	</g>
</g>
<g>
	<g>
		<polygon points="313.21,37.98 232.34,0 222.9,20.1 237.9,23.45 255.21,27.31 297.97,36.85 322.4,42.3 322.42,42.3   "/>
	</g>
</g>
<g>
	<g>
		<polygon points="430.85,93.23 365.24,387.28 490.23,121.11   "/>
	</g>
</g>
<g>
	<g>
		<polygon points="336.68,76.22 336.68,377.54 400.72,90.51   "/>
	</g>
</g>
<g>
	<g>
		<path d="M225.91,252.9c-1.66-2.7-3.46-5.03-5.41-6.99c-5.28-5.32-11.69-7.95-19.42-8c-0.68-0.01-1.37,0.01-2.05,0.05    c-5.03,0.26-9.98,1.67-14.59,4.12c-0.82,0.44-1.63,0.91-2.43,1.41l-10.44,6.54l-7.35,4.6l-9.82-6.15l-7.93-4.97    c-5.83-3.68-12.34-5.6-18.86-5.6h-0.25c-10.57,0.07-18.69,4.98-24.82,14.99c-6.18,10.1-6.26,21.73-0.23,32.76    c2.91,5.31,6.91,10.36,11.42,15.25c4.51,4.89,9.53,9.61,14.46,14.26c1.94,1.82,3.86,3.63,5.74,5.44    c6.65,6.38,13.47,12.62,20.07,18.66c3.36,3.07,6.78,6.19,10.22,9.38c3.45-3.19,6.87-6.32,10.23-9.39    c4.88-4.46,9.89-9.04,14.86-13.7c1.74-1.64,3.48-3.29,5.21-4.95c1.87-1.81,3.79-3.61,5.74-5.44l0.57-0.54    c3.87-3.64,7.77-7.34,11.43-11.12c3.98-4.12,7.67-8.34,10.7-12.73c1.16-1.68,2.22-3.39,3.17-5.12c0.7-1.29,1.32-2.58,1.86-3.88    C232.07,271.94,231.37,261.81,225.91,252.9z"/>
	</g>
</g>
<g>
	<g>
		<path d="M21.77,80.15V512h251.98h2.29h14.18h16.46v-35.28v-33.59V84.9v-4.75H21.77z M258.95,283.3v0.01    c-1.34,5.68-3.51,11.29-6.49,16.75c-4.29,7.83-9.81,14.81-15.7,21.19l-0.98-2.16l0.55,2.63c-3.57,3.84-7.26,7.46-10.88,10.91    c-1.57,1.5-3.12,2.96-4.64,4.39c-1.86,1.75-3.71,3.49-5.52,5.23c-0.45,0.44-0.91,0.87-1.36,1.3c-3.86,3.69-7.73,7.29-11.57,10.82    c-2.58,2.38-5.14,4.72-7.67,7.03c-6.6,6.03-13.42,12.27-20.08,18.66l-10.39,9.98l-10.39-9.98c-6.65-6.38-13.47-12.62-20.07-18.65    c-6.73-6.16-13.69-12.52-20.61-19.16c-1.81-1.74-3.65-3.48-5.52-5.24c-11.04-10.38-23.55-22.15-31.64-36.95    c-11.25-20.56-10.89-43.46,0.96-62.82c11.49-18.76,29.31-29.18,50.19-29.33h0.47c2.91,0,5.81,0.2,8.69,0.6    c6.56,0.9,12.98,2.82,19.06,5.72c2.42,1.13,4.78,2.43,7.08,3.88l1.78,1.12l1.83-1.14c1.95-1.23,3.95-2.35,6-3.36    c4.54-2.26,9.29-3.97,14.15-5.11c4.79-1.13,9.7-1.71,14.63-1.71h0.48c3.95,0.03,7.8,0.42,11.51,1.18    c14.19,2.87,26.46,10.94,35.54,23.46c1.09,1.49,2.14,3.06,3.13,4.68C260.2,251.46,262.7,267.59,258.95,283.3z"/>
	</g>
</g>
<g>
</g>
<g>
</g>
<g>
</g>
<g>
</g>
<g>
</g>
<g>
</g>
<g>
</g>
<g>
</g>
<g>
</g>
<g>
</g>
<g>
</g>
<g>
</g>
<g>
</g>
<g>
</g>
<g>
</g>
</svg>
