<svg height="512" viewBox="0 0 40 59" width="512" xmlns="http://www.w3.org/2000/svg"><g id="032---Queen's-Gallantry-Medal-" fill="none"><path id="Shape" d="m30.68 23.29c-7.55 2.57-22.87 9.32-28.25 22.92-.94620192-2.2858993-1.43214611-4.7360095-1.43-7.21 0-15.38 17.279-24.195 29.68-15.71z" fill="#e57e25"/><path id="Shape" d="m39 39c.0018133 9.0755255-6.4166266 16.8845454-15.3207481 18.6400476-8.9041214 1.7555022-17.80623552-3.0329764-21.2492519-11.4300476 5.38-13.6 20.7-20.35 28.25-22.92 5.2089944 3.5310918 8.3261508 9.4169725 8.32 15.71z" fill="#d25627"/><path id="Shape" d="m20 59c-11.045695 0-20-8.954305-20-20s8.954305-20 20-20 20 8.954305 20 20c-.0126747 11.0404407-8.9595593 19.9873253-20 20zm0-38c-9.9411255 0-18 8.0588745-18 18s8.0588745 18 18 18 18-8.0588745 18-18c-.0115721-9.9363282-8.0636718-17.9884279-18-18z" fill="#805333"/><g fill="#fff"><path id="Shape" d="m5.131 42c-.50040932-.001126-.92294707-.371968-.989-.868-.35879666-2.6623343-.0406615-5.372158.925-7.879.19909867-.5152817.77821833-.7715986 1.29349999-.5725.51528166.1990987.77159864.7782183.57250001 1.2935-.84482184 2.1934769-1.12306119 4.5645301-.809 6.894.03808738.2860126-.04922179.574537-.23949618.7914459-.19027438.216909-.46496685.3410592-.75350382.3405541z"/><path id="Shape" d="m34.869 42c-.288537.0005051-.5632294-.1236451-.7535038-.3405541-.1902744-.2169089-.2775836-.5054333-.2394962-.7914459.3133242-2.3294762.0351063-4.7003464-.809-6.894-.1287942-.3333288-.0699762-.7100482.1542978-.9882517.2242741-.2782035.5799317-.4156253.933-.3605.3530684.0551253.649908.2944229.7787022.6277517.9655772 2.5068628 1.2837099 5.216665.925 7.879-.0660529.496032-.4885907.866874-.989.868z"/><path id="Shape" d="m10.4 51.792c-.4418278-.3313708-.53137085-.9581722-.2-1.4.3313708-.4418278.9581722-.5313708 1.4-.2 4.9739813 3.7447055 11.8260187 3.7447055 16.8 0 .4418278-.3313708 1.0686292-.2418278 1.4.2s.2418278 1.0686292-.2 1.4c-5.6847584 4.2790403-13.5152416 4.2790403-19.2 0z"/><path id="Shape" d="m27 26.736c-.1628177.0001643-.3231831-.0396695-.467-.116-4.0966322-2.1200509-8.9673678-2.1200509-13.064 0-.3158228.1672003-.6968554.1532103-.9995665-.0367001s-.4811116-.5268893-.468-.884c.0131117-.3571107.2157437-.6800996.5315665-.8472999 4.683882-2.4229196 10.252118-2.4229196 14.936 0 .4064684.214952.613973.6793792.5028997 1.1255671s-.5120949.7591296-.9718997.7584329z"/></g><path id="Shape" d="m29 46h-18c-1.1045695 0-2-.8954305-2-2s.8954305-2 2-2h18c1.1045695 0 2 .8954305 2 2s-.8954305 2-2 2z" fill="#f29c1f"/><path id="Shape" d="m27 46h-14c-1.1045695 0-2-.8954305-2-2s.8954305-2 2-2h14c1.1045695 0 2 .8954305 2 2s-.8954305 2-2 2z" fill="#f0c419"/><path id="Shape" d="m29 42v-10.342c-.0013893-.3838213-.2223415-.7329795-.5686165-.8985523-.3462751-.1655727-.7567631-.1183401-1.0563835.1215523l-2.675 2.13c-.3977359.3186346-.971467.2871914-1.332-.073l-2.66-2.647c-.3904999-.3903819-1.0235001-.3903819-1.414 0l-2.66 2.647c-.360533.3601914-.9342641.3916346-1.332.073l-2.676-2.13c-.299606-.2405101-.7105118-.2881067-1.0571649-.1224552-.3466531.1656516-.5677517.5152578-.5688351.8994552v10.342" fill="#f3d55b"/><circle id="Oval" cx="15" cy="38" fill="#4fba6f" r="1"/><circle id="Oval" cx="25" cy="38" fill="#4fba6f" r="1"/><circle id="Oval" cx="20" cy="38" fill="#ff5364" r="1"/><path id="Shape" d="m26 17h-3c-.5522847 0-1-.4477153-1-1s.4477153-1 1-1h3c.5522847 0 1-.4477153 1-1v-6c0-.55228475.4477153-1 1-1s1 .44771525 1 1v6c0 1.6568542-1.3431458 3-3 3z" fill="#f0c419"/><path id="Shape" d="m17 17h-3c-1.6568542 0-3-1.3431458-3-3v-6c0-.55228475.4477153-1 1-1s1 .44771525 1 1v6c0 .5522847.4477153 1 1 1h3c.5522847 0 1 .4477153 1 1s-.4477153 1-1 1z" fill="#f0c419"/><path id="Shape" d="m34 1v2.172c-.0001133.53038963-.2109013 1.03901454-.586 1.414l-6.828 6.828c-.3749855.3750987-.8836104.5858867-1.414.586h-10.344c-.5303896-.0001133-1.0390145-.2109013-1.414-.586l-6.828-6.828c-.37509875-.37498546-.58588673-.88361037-.586-1.414v-2.172c0-.55228475.44771525-1 1-1h26c.5522847 0 1 .44771525 1 1z" fill="#e64c3c"/><path id="Rectangle-path" d="m18 0h4v12h-4z" fill="#f9eab0"/><path id="Shape" d="m20 20c-1.6568542 0-3-1.3431458-3-3v-2c0-1.6568542 1.3431458-3 3-3s3 1.3431458 3 3v2c0 1.6568542-1.3431458 3-3 3z" fill="#f3d55b"/></g></svg>