<svg height="512" viewBox="0 0 58 58" width="512" xmlns="http://www.w3.org/2000/svg"><g id="033---Servant" fill="none"><path id="Shape" d="m37 30.14v6.86s-1.91 4.58-5.92 5.84h-4.16c-4.01-1.26-5.92-5.84-5.92-5.84v-6.86z" fill="#f9c795"/><path id="Shape" d="m26.92 40.84-5.8 1.38c-.2911284-.0297516-.5809637.0673493-.7954117.2664797-.2144481.1991303-.3327229.4809887-.3245883.7735203v.42c-.8370908-.8476343-1.6250428-1.7424272-2.36-2.68l-.64-3c.171-.14-.2.141 4-3 0 0 1.91 4.58 5.92 5.84z" fill="#fff"/><path id="Shape" d="m58 49v8c0 .5522847-.4477153 1-1 1h-10l3.02-17.94 3.98.94s4 1 4 8z" fill="#2c3e50"/><path id="Shape" d="m50.02 40.06-.02 17.94h-15c6.66-4.76 10.89-17.47 10.99-18.89z" fill="#3f5c6c"/><path id="Shape" d="m45.99 39.11c-.1 1.42-1.33 14.13-7.99 18.89h-11v-13.95c.7761953.0011809 1.522305-.3001327 2.08-.84l7.8.83c.2911284.0297516.5809637-.0673493.7954117-.2664797.2144481-.1991303.3327229-.4809887.3245883-.7735203v-1.53c1.0652297-1.0986247 2.0668598-2.2571769 3-3.47-.158-.129-.846-.263 4.99 1.11z" fill="#bdc3c7"/><path id="Shape" d="m11 58h-10c-.55228475 0-1-.4477153-1-1v-8c0-7 4-8 4-8l3.98-.94z" fill="#2c3e50"/><path id="Shape" d="m23 58h-15l-.02-17.94 4.03-.95c.1 1.42 4.33 14.13 10.99 18.89z" fill="#3f5c6c"/><path id="Shape" d="m26.92 43c.54.52 1.27 3 2.08 3v12h-9c-6.66-4.76-7.89-17.47-7.99-18.89 5.8-1.364 5.16-1.249 4.99-1.11.9331402 1.2128231 1.9347703 2.3713753 3 3.47z" fill="#ecf0f1"/><path id="Shape" d="m42.5 19.59c-.6466341 1.5020075-1.8460661 2.6978591-3.35 3.34h-20.3c-1.5039339-.6421409-2.7033659-1.8379925-3.35-3.34 0 0-1.15-3.87.03-4.43.01-.01.03-.01.04-.02.8669035-.2352221 1.794038-.0378802 2.49.53h21.89v-.01c.6991956-.5698553 1.633463-.7604458 2.5-.51.01 0 .01.01.02.01 1.18.56.03 4.43.03 4.43z" fill="#f9c795"/><circle id="Oval" cx="29" cy="43" fill="#2c3e50" r="3"/><path id="Shape" d="m26.92 45.16-5.8.83c-.2911284.0297516-.5809637-.0673493-.7954117-.2664797-.2144481-.1991303-.3327229-.4809887-.3245883-.7735203v-3.9c-.0081346-.2925316.1101402-.57439.3245883-.7735203.214448-.1991304.5042833-.2962313.7954117-.2664797l5.8.83c-.5866556.5654497-.9180778 1.3452005-.9180778 2.16s.3314222 1.5945503.9180778 2.16z" fill="#464f5d"/><path id="Shape" d="m41 38c-.9331402 1.2128231-1.9347703 2.3713753-3 3.47v-.42c.0081346-.2925316-.1101402-.57439-.3245883-.7735203-.214448-.1991304-.5042833-.2962313-.7954117-.2664797l-5.8.83c4.01-1.26 5.92-5.84 5.92-5.84 4.246 3.176 3.849 2.877 4 3z" fill="#ecf0f1"/><path id="Shape" d="m38 41.05v3.9c.0081346.2925316-.1101402.57439-.3245883.7735203-.214448.1991304-.5042833.2962313-.7954117.2664797l-5.8-.83c.5866556-.5654497.9180778-1.3452005.9180778-2.16s-.3314222-1.5945503-.9180778-2.16l5.8-.83c.2911284-.0297516.5809637.0673493.7954117.2664797.2144481.1991303.3327229.4809887.3245883.7735203z" fill="#464f5d"/><circle id="Oval" cx="33" cy="50" fill="#7f8c8d" r="1"/><circle id="Oval" cx="33" cy="54" fill="#7f8c8d" r="1"/><path id="Shape" d="m18.06 18c-.36-.25-1.5-3.3-2.49-2.86-.75-2.61-1.52-10.61 3.88-11.12.3232232-.03164348.6070111-.22840308.75-.52.54-1.08 2.48-3.5 8.88-3.5 0 0 11.06 0 13.07 6 1.0232815 2.94943122 1.1278863 6.1398748.3 9.15-.99-.46-2.14 2.59-2.5 2.84" fill="#a56a43"/><path id="Shape" d="m39.14 22.24c0 2.943.752 5.279-2.34 8.09-3.12 2.84-3.12 5.67-6.24 5.67h-3.12c-3.12 0-3.12-2.83-6.24-5.67-3.027-2.752-2.34-4.979-2.34-8.09 0-2.07-.62-3.05-.8-6.57 0 0 .75-4.39 3.06-6.71.5008521-.48446841 1.1635919-.76595467 1.86-.79 2.78-.18 10.75-.54 14.02 1.04 0 0 2.17 1.34 2.95 6.45 0 2.181-.81 4.682-.81 6.58z" fill="#fdd7ad"/></g></svg>