<svg height="512" viewBox="0 0 60 59" width="512" xmlns="http://www.w3.org/2000/svg"><g id="034---Castle" fill="none"><path id="Shape" d="m20.82 19c-.229.5-.32.5-3.82 4l-6 2-6-2c-3.765-3.765-3.618-3.557-3.82-4l9.82-2z" fill="#5f5346"/><path id="Shape" d="m17 23v36h-10c-1.10320187-.0032948-1.9967052-.8967981-2-2v-34z" fill="#7f6e5d"/><g fill="#5f5346"><path id="Shape" d="m13 28c0 .5522847-.4477153 1-1 1h-7v-2h7c.5522847 0 1 .4477153 1 1z"/><path id="Shape" d="m17 36h-7c-.55228475 0-1-.4477153-1-1s.44771525-1 1-1h7c.5522847 0 1 .4477153 1 1s-.4477153 1-1 1z"/><path id="Shape" d="m13 43c0 .5522847-.4477153 1-1 1h-7v-2h7c.5522847 0 1 .4477153 1 1z"/><path id="Shape" d="m17 51h-7c-.55228475 0-1-.4477153-1-1s.44771525-1 1-1h7c.5522847 0 1 .4477153 1 1s-.4477153 1-1 1z"/><path id="Shape" d="m58.82 19c-.229.5-.32.5-3.82 4l-6 2-6-2c-3.765-3.765-3.618-3.557-3.82-4l9.82-2z"/></g><path id="Shape" d="m55 23v34c-.0032948 1.1032019-.8967981 1.9967052-2 2h-10v-36z" fill="#7f6e5d"/><path id="Shape" d="m50 29h-7c-.5522847 0-1-.4477153-1-1s.4477153-1 1-1h7c.5522847 0 1 .4477153 1 1s-.4477153 1-1 1z" fill="#5f5346"/><path id="Shape" d="m55 34v2h-7c-.5522847 0-1-.4477153-1-1s.4477153-1 1-1z" fill="#5f5346"/><path id="Shape" d="m50 44h-7c-.5522847 0-1-.4477153-1-1s.4477153-1 1-1h7c.5522847 0 1 .4477153 1 1s-.4477153 1-1 1z" fill="#5f5346"/><path id="Shape" d="m55 49v2h-7c-.5522847 0-1-.4477153-1-1s.4477153-1 1-1z" fill="#5f5346"/><path id="Shape" d="m43 26v33h-26v-33h5c.5522847 0 1 .4477153 1 1v2c0 .5522847.4477153 1 1 1h2c.5522847 0 1-.4477153 1-1v-2c0-.5522847.4477153-1 1-1h4c.5522847 0 1 .4477153 1 1v2c0 .5522847.4477153 1 1 1h2c.5522847 0 1-.4477153 1-1v-2c0-.5522847.4477153-1 1-1z" fill="#a59078"/><path id="Shape" d="m30 40v19h-7v-12c0-3.8659932 3.1340068-7 7-7z" fill="#805333"/><path id="Shape" d="m37 47v12h-7v-19c3.8659932 0 7 3.1340068 7 7z" fill="#603e26"/><path id="Shape" d="m30 52h-3c-.5522847 0-1-.4477153-1-1s.4477153-1 1-1h3c.5522847 0 1 .4477153 1 1s-.4477153 1-1 1z" fill="#f3d55b"/><path id="Shape" d="m30 50h3c.5522847 0 1 .4477153 1 1s-.4477153 1-1 1h-3z" fill="#f29c1f"/><path id="Shape" d="m24 38h-2c-.5522847 0-1-.4477153-1-1v-1c0-1.1045695.8954305-2 2-2s2 .8954305 2 2v1c0 .5522847-.4477153 1-1 1z" fill="#393f4a"/><path id="Shape" d="m38 38h-2c-.5522847 0-1-.4477153-1-1v-1c0-1.1045695.8954305-2 2-2s2 .8954305 2 2v1c0 .5522847-.4477153 1-1 1z" fill="#393f4a"/><path id="Shape" d="m11 2h8c.5522847 0 1 .44771525 1 1v3c0 .55228475-.4477153 1-1 1h-8" fill="#e64c3c"/><path id="Shape" d="m11 12c-.5522847 0-1-.4477153-1-1v-10c0-.55228475.4477153-1 1-1s1 .44771525 1 1v10c0 .5522847-.4477153 1-1 1z" fill="#cb8252"/><path id="Shape" d="m21 12c0 6.565.073 6.453-.18 7h-19.64c-.249-.54-.18-.377-.18-7 0-.5522847.44771525-1 1-1h2c.55228475 0 1 .4477153 1 1v2c0 .5522847.44771525 1 1 1h2c.55228475 0 1-.4477153 1-1v-2c0-.5522847.44771525-1 1-1h2c.5522847 0 1 .4477153 1 1v2c0 .5522847.4477153 1 1 1h2c.5522847 0 1-.4477153 1-1v-2c0-.5522847.4477153-1 1-1h2c.5522847 0 1 .4477153 1 1z" fill="#7f6e5d"/><path id="Shape" d="m49 2h8c.5522847 0 1 .44771525 1 1v3c0 .55228475-.4477153 1-1 1h-8" fill="#e64c3c"/><path id="Shape" d="m49 12c-.5522847 0-1-.4477153-1-1v-10c0-.55228475.4477153-1 1-1s1 .44771525 1 1v10c0 .5522847-.4477153 1-1 1z" fill="#cb8252"/><path id="Shape" d="m59 12c0 6.565.073 6.453-.18 7h-19.64c-.249-.54-.18-.377-.18-7 0-.5522847.4477153-1 1-1h2c.5522847 0 1 .4477153 1 1v2c0 .5522847.4477153 1 1 1h2c.5522847 0 1-.4477153 1-1v-2c0-.5522847.4477153-1 1-1h2c.5522847 0 1 .4477153 1 1v2c0 .5522847.4477153 1 1 1h2c.5522847 0 1-.4477153 1-1v-2c0-.5522847.4477153-1 1-1h2c.5522847 0 1 .4477153 1 1z" fill="#7f6e5d"/></g></svg>