<?xml version="1.0" encoding="iso-8859-1"?>
<!-- Generator: Adobe Illustrator 19.0.0, SVG Export Plug-In . SVG Version: 6.00 Build 0)  -->
<svg xmlns="http://www.w3.org/2000/svg" xmlns:xlink="http://www.w3.org/1999/xlink" version="1.1" id="Layer_1" x="0px" y="0px" viewBox="0 0 512 512" style="enable-background:new 0 0 512 512;" xml:space="preserve">
<g>
	<g>
		<path d="M279.305,280.17c-3.95-5.85-9.81-9.71-16.53-10.87c-0.48-0.08-0.97-0.15-1.46-0.2c-0.91-0.11-1.83-0.16-2.74-0.16    c-0.66,0-1.32,0.03-1.97,0.08l-31.61,2.63l18.02-26.1c0.78-1.13,1.46-2.3,2.04-3.51v-0.01c1.56-3.29,2.37-6.86,2.37-10.51    c0-13.17-10.55-24.08-24.17-25.74c-1.19-0.16-2.4-0.23-3.63-0.23c-15.32,0-27.79,11.65-27.79,25.97c0,5,1.52,9.85,4.41,14.03    l18.02,26.1l-31.61-2.63c-2.05-0.17-4.13-0.07-6.17,0.28c-6.72,1.16-12.58,5.02-16.53,10.87c-4.08,6.06-5.62,13.5-4.34,20.93    c1.28,7.44,5.23,13.93,11.1,18.28c5.68,4.19,12.5,5.86,19.21,4.71c8.55-1.48,15.59-7.26,19.08-15.61    c0.37-0.88,0.73-1.76,1.16-2.62l13.46-27.11l13.47,27.11c0.43,0.86,0.79,1.74,1.16,2.62c3.49,8.35,10.53,14.13,19.08,15.61    c6.71,1.15,13.53-0.52,19.21-4.71c4.88-3.62,8.42-8.71,10.22-14.6c0.37-1.19,0.66-2.42,0.88-3.68    C284.925,293.67,283.385,286.23,279.305,280.17z"/>
	</g>
</g>
<g>
	<g>
		<path d="M73.805,72.82V512h289.75v-72.82V72.82H73.805z M313.205,306.2c-1.8,10.45-6.24,20.01-12.83,27.88    c-2.92,3.5-6.27,6.66-10,9.42c-12.32,9.11-27.29,12.71-42.14,10.15c-4.75-0.81-9.32-2.26-13.61-4.27V376h-30v-26.61    c-4.29,2-8.85,3.45-13.6,4.26c-3.12,0.54-6.25,0.81-9.35,0.81c-11.68,0-23.06-3.77-32.79-10.96    c-12.12-8.96-20.23-22.21-22.83-37.3c-2.61-15.09,0.6-30.29,9.02-42.79c6.87-10.2,16.53-17.63,27.75-21.49    c-0.66-3.4-0.99-6.88-0.99-10.4c0-26.33,18.87-48.47,44.2-54.4c4.36-1.03,8.91-1.57,13.59-1.57c31.87,0,57.8,25.11,57.8,55.97    c0,3.52-0.33,7-1,10.4c11.23,3.86,20.89,11.29,27.76,21.49C312.605,275.91,315.805,291.11,313.205,306.2z"/>
	</g>
</g>
<g>
	<g>
		<polygon points="128.335,0 128.335,42.82 393.555,42.82 393.555,454.18 438.195,454.18 438.195,0   "/>
	</g>
</g>
<g>
</g>
<g>
</g>
<g>
</g>
<g>
</g>
<g>
</g>
<g>
</g>
<g>
</g>
<g>
</g>
<g>
</g>
<g>
</g>
<g>
</g>
<g>
</g>
<g>
</g>
<g>
</g>
<g>
</g>
</svg>
