<?xml version="1.0" encoding="iso-8859-1"?>
<!-- Generator: Adobe Illustrator 19.0.0, SVG Export Plug-In . SVG Version: 6.00 Build 0)  -->
<svg xmlns="http://www.w3.org/2000/svg" xmlns:xlink="http://www.w3.org/1999/xlink" version="1.1" id="Layer_1" x="0px" y="0px" viewBox="0 0 511.999 511.999" style="enable-background:new 0 0 511.999 511.999;" xml:space="preserve">
<rect x="130.82" style="fill:#C8C6CD;" width="309.85" height="454.18"/>
<rect x="285.75" style="fill:#AEADB3;" width="154.93" height="454.18"/>
<rect x="71.32" y="57.819" style="fill:#E1E1E4;" width="309.85" height="454.18"/>
<rect x="226.249" y="57.819" style="fill:#D9D8DB;" width="154.93" height="454.18"/>
<line style="fill:none;stroke:#000000;stroke-width:30;stroke-miterlimit:10;" x1="226.249" y1="323.09" x2="226.249" y2="376"/>
<path style="fill:#3C3A41;" d="M320.917,310.113c-2.449,14.207-10.064,26.658-21.434,35.066  c-11.453,8.463-25.335,11.816-39.089,9.445c-4.672-0.806-9.175-2.258-13.397-4.304c1.319,4.238,2.837,6.652,4.148,7.575l2.492,1.753  V376h-54.779v-16.351l2.493-1.753c1.311-0.923,2.829-3.337,4.147-7.575c-4.222,2.046-8.725,3.498-13.397,4.304  c-13.753,2.371-27.636-0.982-39.088-9.445c-11.371-8.409-18.985-20.859-21.43-35.066c-2.449-14.207,0.552-28.489,8.452-40.219  c7.955-11.809,19.912-19.619,33.669-21.99c0.814-0.141,1.632-0.262,2.449-0.36c-2.669-6.241-4.054-12.943-4.054-19.799  c0-28.716,24.29-52.079,54.149-52.079s54.149,23.363,54.149,52.079c0,6.855-1.385,13.562-4.054,19.799  c0.822,0.098,1.635,0.219,2.449,0.36c13.757,2.371,25.715,10.181,33.669,21.99C320.362,281.624,323.367,295.906,320.917,310.113z"/>
<path style="fill:#17171A;" d="M320.917,310.113c-2.449,14.207-10.064,26.658-21.434,35.066  c-11.453,8.463-25.335,11.816-39.089,9.445c-4.672-0.806-9.175-2.258-13.397-4.304c1.319,4.238,2.837,6.652,4.148,7.575l2.492,1.753  V376h-27.389V175.667c29.858,0,54.149,23.363,54.149,52.079c0,6.855-1.385,13.562-4.054,19.799c0.822,0.098,1.635,0.219,2.449,0.36  c13.757,2.371,25.715,10.181,33.669,21.99C320.362,281.624,323.367,295.906,320.917,310.113z"/>
<g>
</g>
<g>
</g>
<g>
</g>
<g>
</g>
<g>
</g>
<g>
</g>
<g>
</g>
<g>
</g>
<g>
</g>
<g>
</g>
<g>
</g>
<g>
</g>
<g>
</g>
<g>
</g>
<g>
</g>
</svg>
