<svg height="512" viewBox="0 0 46 58" width="512" xmlns="http://www.w3.org/2000/svg"><g id="035---Royal-Chalice" fill="none" transform="translate(-1)"><path id="Shape" d="m43.62 22.11c-.04.12-.09.24-.14.36-3.0999946 8.2174611-11.0067739 13.6201374-19.788969 13.5217374-8.7821952-.0983999-16.5659363-5.6768804-19.481031-13.9617374 4.030651 1.9014701 8.3559242 3.1019955 12.79 3.55v2.42c0 .5522847.4477153 1 1 1h12c.5522847 0 1-.4477153 1-1v-2.42c4.3713544-.4415174 8.6374296-1.614519 12.62-3.47z" fill="#d25627"/><path id="Shape" d="m44.21 20.3c-.2040111.735972-.4477007 1.4603645-.73 2.17-8.635 12.851-30.811 12.469-39.07.08-.07-.17-.14-.34-.2-.52h-.01c-.21137959-.5790444-.38835476-1.1700747-.53-1.77 3.953 1.4 11.159 2.4 15.27 2.79v2.08c.0657393.5231371.5350766.8994925 1.06.85h8c.5249234.0494925.9942607-.3268629 1.06-.85v-2.08c4.05-.386 11.261-1.36 15.15-2.75z" fill="#e57e25"/><path id="Shape" d="m17 19.58v6c-4.4340758-.4480045-8.759349-1.6485299-12.79-3.55-.76950907-2.1373042-1.17513457-4.3885257-1.2-6.66 4.33376793 2.3274424 9.0915006 3.7591832 13.99 4.21z" fill="#f9eab0"/><path id="Shape" d="m24 0c-15.287 0-27.063 4.612-21.71 9.32.44625445.37945574.70539959.9342453.71 1.52 0 3.9-.007 4.322.01 4.53 4.33376793 2.3274424 9.0915006 3.7591832 13.99 4.21v-2.79c0-.189386.1070012-.3625176.2763932-.4472136s.372098-.066418.5236068.0472136l2.85 2.14c.2011243.1521751.4840964.1307378.66-.05l2.34-2.33c.0911771-.0958751.2176924-.1501502.35-.1501502s.2588229.0542751.35.1501502l2.34 2.33c.1759036.1807378.4588757.2021751.66.05l2.85-2.14c.1515088-.1136316.3542148-.1319096.5236068-.0472136s.2763932.2578276.2763932.4472136v2.79c4.8937009-.4524532 9.6472014-1.8805435 13.98-4.2.146-4.235-.372-5.108.73-6.06.7464166-.54938452 1.2171986-1.39606225 1.29-2.32 0-3.87-10.3-7-23-7zm0 11c-9.94 0-18-1.57-18-3.5s8.06-3.5 18-3.5 18 1.57 18 3.5-8.06 3.5-18 3.5z" fill="#f29c1f"/><path id="Shape" d="m44.98 15.38c-.088154 2.3019099-.5473969 4.5744869-1.36 6.73-3.9825704 1.855481-8.2486456 3.0284826-12.62 3.47v-6c4.8937009-.4524532 9.6472014-1.8805435 13.98-4.2z" fill="#f9eab0"/><ellipse id="Oval" cx="24" cy="7.5" fill="#d25627" rx="18" ry="3.5"/><path id="Shape" d="m26 43.39c-.01.01-.02.01-.03.02-1.1954623.7869028-2.7445377.7869028-3.94 0-.01-.01-.02-.01-.03-.02-1.193309-.855411-1.9285026-2.2107582-1.9948178-3.6774949-.0663153-1.4667367.5435708-2.8828988 1.6548178-3.8425051 1.5548221.1832185 3.1259751.1798613 4.68-.01 1.1118302.9613502 1.7219186 2.3791112 1.65562 3.8474317-.0662987 1.4683205-.8016756 2.8253301-1.99562 3.6825683z" fill="#f0c419"/><path id="Shape" d="m40 56c0 1.1-7.16 2-16 2s-16-.9-16-2c-.00333895-1.7027543 1.28572563-3.1302419 2.98-3.3 2.2813178-.0960295 4.5225056-.6325563 6.6-1.58 2.739754-1.3558003 4.4585179-4.1633739 4.42-7.22v-.44l.03-.05c1.1954623.7869028 2.7445377.7869028 3.94 0l.03.05v.42c-.0029125 3.2202382 1.9008608 6.1367404 4.85 7.43 1.9571491.8280967 4.0468252 1.2988666 6.17 1.39 1.6942744.1697581 2.9833389 1.5972457 2.98 3.3z" fill="#d25627"/><path id="Shape" d="m39.61 54.44c-3.736 2.065-27.463 2.077-31.22 0 .51604701-.9784146 1.48910763-1.632131 2.59-1.74 2.2813178-.0960295 4.5225056-.6325563 6.6-1.58 2.739754-1.3558003 4.4585179-4.1633739 4.42-7.22v-.44l.03-.05c1.1954623.7869028 2.7445377.7869028 3.94 0l.03.05v.42c-.0029125 3.2202382 1.9008608 6.1367404 4.85 7.43 1.9571491.8280967 4.0468252 1.2988666 6.17 1.39 1.1008924.107869 2.073953.7615854 2.59 1.74z" fill="#e57e25"/><path id="Shape" d="m31 23v5c0 .5522847-.4477153 1-1 1h-12c-.5522847 0-1-.4477153-1-1v-5z" fill="#f0c419"/><path id="Shape" d="m31 16.79v8.21h-14v-8.21c0-.189386.1070012-.3625176.2763932-.4472136s.372098-.066418.5236068.0472136l2.85 2.14c.2011243.1521751.4840964.1307378.66-.05l2.34-2.33c.0911771-.0958751.2176924-.1501502.35-.1501502s.2588229.0542751.35.1501502l2.34 2.33c.1759036.1807378.4588757.2021751.66.05l2.85-2.14c.1515088-.1136316.3542148-.1319096.5236068-.0472136s.2763932.2578276.2763932.4472136z" fill="#f3d55b"/></g></svg>