<?xml version="1.0" encoding="iso-8859-1"?>
<!-- Generator: Adobe Illustrator 19.0.0, SVG Export Plug-In . SVG Version: 6.00 Build 0)  -->
<svg xmlns="http://www.w3.org/2000/svg" xmlns:xlink="http://www.w3.org/1999/xlink" version="1.1" id="Layer_1" x="0px" y="0px" viewBox="0 0 511.999 511.999" style="enable-background:new 0 0 511.999 511.999;" xml:space="preserve">
<rect x="130.82" style="fill:#C8C6CD;" width="309.85" height="454.18"/>
<rect x="285.75" style="fill:#AEADB3;" width="154.93" height="454.18"/>
<line style="fill:none;stroke:#000000;stroke-width:30;stroke-miterlimit:10;" x1="226.249" y1="323.09" x2="226.249" y2="376"/>
<rect x="71.32" y="57.819" style="fill:#E1E1E4;" width="309.85" height="454.18"/>
<rect x="226.249" y="57.819" style="fill:#D9D8DB;" width="154.93" height="454.18"/>
<path style="fill:#3C3A41;" d="M315.361,322.494c-13.986,22.841-33.482,27.76-47.372,27.865c-7.22,0.056-14.447-1.206-21.326-3.682  c1.51,6.242,3.449,9.639,5.08,10.785l2.552,1.795V376h-56.09v-16.743l2.552-1.795c1.631-1.146,3.57-4.543,5.08-10.785  c-6.879,2.476-14.102,3.738-21.326,3.682c-13.89-0.104-33.385-5.024-47.372-27.865c-11.274-18.413-11.571-40.252-0.817-59.912  c8.297-15.176,21.154-27.272,33.586-38.97c2.188-2.055,4.251-3.999,6.306-5.97c7.704-7.4,15.505-14.531,23.045-21.426  c7.488-6.847,15.232-13.926,22.828-21.222l4.163-3.994l4.163,3.994c7.596,7.296,15.34,14.375,22.828,21.222  c7.54,6.895,15.34,14.027,23.045,21.426c2.055,1.971,4.118,3.914,6.306,5.97c12.432,11.699,25.288,23.794,33.586,38.97  C326.931,282.242,326.635,304.081,315.361,322.494z"/>
<path style="fill:#17171A;" d="M315.361,322.494c-13.986,22.841-33.482,27.76-47.372,27.865c-7.22,0.056-14.447-1.206-21.326-3.682  c1.51,6.242,3.449,9.639,5.08,10.785l2.552,1.795V376h-28.045V171l4.163,3.994c7.596,7.296,15.34,14.375,22.828,21.222  c7.54,6.895,15.34,14.027,23.045,21.426c2.055,1.971,4.118,3.914,6.306,5.97c12.432,11.699,25.288,23.794,33.586,38.97  C326.931,282.242,326.635,304.081,315.361,322.494z"/>
<g>
</g>
<g>
</g>
<g>
</g>
<g>
</g>
<g>
</g>
<g>
</g>
<g>
</g>
<g>
</g>
<g>
</g>
<g>
</g>
<g>
</g>
<g>
</g>
<g>
</g>
<g>
</g>
<g>
</g>
</svg>
