<?xml version="1.0" encoding="iso-8859-1"?>
<!-- Generator: Adobe Illustrator 19.0.0, SVG Export Plug-In . SVG Version: 6.00 Build 0)  -->
<svg xmlns="http://www.w3.org/2000/svg" xmlns:xlink="http://www.w3.org/1999/xlink" version="1.1" id="Layer_1" x="0px" y="0px" viewBox="0 0 512 512" style="enable-background:new 0 0 512 512;" xml:space="preserve">
<g>
	<g>
		<path d="M279.205,275.35c-2.84-5.19-6.76-10.15-11.18-14.93c-4.42-4.8-9.34-9.42-14.18-13.98c-1.91-1.79-3.8-3.57-5.65-5.34    c-2.84-2.73-5.7-5.42-8.57-8.09c-3.74-3.47-7.47-6.88-11.14-10.24c-3.24-2.96-6.54-5.98-9.86-9.05c-3.31,3.07-6.61,6.09-9.85,9.05    c-6.48,5.93-13.18,12.05-19.72,18.33c-1.84,1.77-3.73,3.55-5.64,5.34c-9.67,9.11-19.68,18.52-25.37,28.91    c-5.87,10.75-5.8,22.09,0.22,31.92c5.97,9.75,13.87,14.52,24.16,14.6c6.44,0.01,12.87-1.83,18.59-5.44l17.61-11.04l17.58,11.01    c5.76,3.64,12.18,5.53,18.63,5.47c10.29-0.08,18.19-4.85,24.16-14.6c0.95-1.55,1.75-3.14,2.41-4.76    C284.885,293.88,284.155,284.4,279.205,275.35z"/>
	</g>
</g>
<g>
	<g>
		<path d="M143.335,72.82h-69.53V512h289.75v-72.82V72.82H143.335z M304.575,322.93c-1.82,2.97-3.8,5.72-5.93,8.26    c-11.12,13.28-26.29,20.55-43.59,20.68h-0.46c-7.14,0-14.21-1.22-20.97-3.6V376h-30v-27.7c-6.89,2.42-14.12,3.65-21.42,3.57    c-20.61-0.16-38.19-10.43-49.52-28.94c-11.7-19.1-12.05-41.69-0.96-61.97c7.98-14.58,20.28-26.16,31.13-36.37    c1.84-1.72,3.65-3.43,5.43-5.13c6.79-6.53,13.63-12.78,20.24-18.83c6.48-5.92,13.18-12.05,19.72-18.32l0.57-0.55l9.81-9.43    l10.39,9.98c6.53,6.27,13.24,12.4,19.72,18.32c6.61,6.05,13.45,12.3,20.24,18.83c1.78,1.7,3.59,3.41,5.42,5.13    c10.86,10.21,23.16,21.79,31.13,36.37c5.39,9.85,8.08,20.25,8.08,30.52C313.605,302.36,310.595,313.11,304.575,322.93z"/>
	</g>
</g>
<g>
	<g>
		<polygon points="128.335,0 128.335,42.82 143.335,42.82 158.335,42.82 393.555,42.82 393.555,424.18 393.555,439.18     393.555,454.18 438.195,454.18 438.195,0   "/>
	</g>
</g>
<g>
</g>
<g>
</g>
<g>
</g>
<g>
</g>
<g>
</g>
<g>
</g>
<g>
</g>
<g>
</g>
<g>
</g>
<g>
</g>
<g>
</g>
<g>
</g>
<g>
</g>
<g>
</g>
<g>
</g>
</svg>
