<svg height="512" viewBox="0 0 58 58" width="512" xmlns="http://www.w3.org/2000/svg"><g id="036---Prince" fill="none" transform="translate(0 -1)"><path id="Shape" d="m20 49-18.2 1.82c-1.0219821.1027131-1.8000129.9628693-1.8 1.99v5.19c0 .5522847.44771525 1 1 1h56c.5522847 0 1-.4477153 1-1v-5.19c.0000129-1.0271307-.7780179-1.8872869-1.8-1.99l-18.2-1.82z" fill="#e64c3c"/><path id="Shape" d="m38 41.16v7.84s-.57 2.28-4.29 3.4c-3.0885549.8038346-6.3314451.8038346-9.42 0-3.72-1.12-4.29-3.4-4.29-3.4v-7.84z" fill="#f9c795"/><path id="Shape" d="m40.71 5.34h-.01c-2.9990495-1.98368777-6.4782667-3.12039329-10.07-3.29h-3.26c-3.5951223.16807013-7.0779591 1.30482938-10.08 3.29l-3.79 10h31.36z" fill="#cc4b4c"/><path id="Shape" d="m12 17c-.0010302 1.7588891.1901038 3.5126267.57 5.23l8.013 6.507 15.082.014 9.755-6.491c.3881155-1.7263462.5826492-3.4905657.58-5.26l-11-1c-16.208 0-11.041-.259-23 1z" fill="#a56a43"/><path id="Shape" d="m15.73 22.85c-.38-.28-1.85-1.25-3.1-.66-1.44.68-.05 5.33-.05 5.33.7895322 1.8086729 2.2479033 3.2419615 4.07 4l24.7.31c1.8105371-.8070717 3.2497717-2.2677341 4.03-4.09 0 0 1.43-4.84-.05-5.54-1.0539413-.3368807-2.2068642-.1145851-3.06.59z" fill="#f9c795"/><path id="Shape" d="m42.37 17c.22 8.77-1.03 10.75-1.03 14.18 0 3.67.95 6.81-2.84 10.48s-3.8 7.34-7.6 7.34h-3.8c-3.8 0-3.8-3.67-7.6-7.34s-2.84-6.81-2.84-10.48c0-3.43-1.25-5.41-1.03-14.18z" fill="#fdd7ad"/><path id="Shape" d="m46 3.405.0000064 13.595h-34.0000064v-13.6c.0005647-.32109078.1552796-.6223804.415905-.80992772s.5954569-.23853762.900095-.13707228l3.451 1.257c.5066072.16940051.7906256.70705394.645 1.221l-1.372 4.799c-.086237.3014972-.0260508.6259875.1625732.8765037.1886239.2505163.4838392.3980435.7974268.3984963h7.233c.3597119-.0004993.6914393-.1941559.8687246-.5071461.1772852-.3129902.1728081-.6970812-.0117246-1.0058539l-1.65-3.069c-.2526885-.42223246-.1606517-.96554648.217-1.281l4.7-3.913c.3707811-.30883345.9092189-.30883345 1.28 0l4.7 3.913c.3776517.31545352.4696885.85876754.217 1.281l-1.65 3.069c-.1845327.3087727-.1890098.6928637-.0117246 1.0058539.1772853.3129902.5090127.5066468.8687246.5071461h7.239c.3131216-.0006305.6078707-.1478907.7964032-.3978927.1885326-.250002.2490798-.5738795.1635968-.8751073l-1.373-4.8c-.1462429-.51426261.1378978-1.05258808.645-1.222l3.451-1.257c.3056001-.10214551.6416961-.05077716.9028339.13798764.2611379.1887648.4153185.49179535.4141661.81401236z" fill="#f3d55b"/><circle id="Oval" cx="20" cy="14" fill="#f29c1f" r="3"/><circle id="Oval" cx="38" cy="14" fill="#f29c1f" r="3"/><path id="Shape" d="m30 14h-2c-.5522847 0-1-.4477153-1-1s.4477153-1 1-1h2c.5522847 0 1 .4477153 1 1s-.4477153 1-1 1z" fill="#71c285"/><path id="Shape" d="m58 55v3c0 .5522847-.4477153 1-1 1h-9v-5.07z" fill="#bdc3c7"/><path id="Shape" d="m48 53.93v5.07h-38v-5.07l14.29-1.53c3.0885549.8038346 6.3314451.8038346 9.42 0z" fill="#7f8c8d"/><path id="Shape" d="m10 53.93v5.07h-9c-.55228475 0-1-.4477153-1-1v-3z" fill="#bdc3c7"/></g></svg>