<?xml version="1.0" encoding="iso-8859-1"?>
<!-- Generator: Adobe Illustrator 19.0.0, SVG Export Plug-In . SVG Version: 6.00 Build 0)  -->
<svg xmlns="http://www.w3.org/2000/svg" xmlns:xlink="http://www.w3.org/1999/xlink" version="1.1" id="Layer_1" x="0px" y="0px" viewBox="0 0 512 512" style="enable-background:new 0 0 512 512;" xml:space="preserve">
<g>
	<g>
		<path d="M281.625,248.37c-6.28-10.26-14.61-15.29-25.46-15.37h-0.25c-4.91,0-9.81,1.06-14.42,3.12c-1.66,0.73-3.29,1.6-4.86,2.59    l-17.95,11.25l-17.92-11.22c-6.05-3.81-12.8-5.78-19.57-5.74c-10.85,0.08-19.18,5.11-25.46,15.37    c-6.34,10.35-6.42,22.27-0.24,33.57c5.93,10.84,16.32,20.62,26.37,30.07c1.97,1.86,3.93,3.7,5.83,5.53    c6.77,6.5,13.71,12.85,20.43,18.99c3.47,3.17,7,6.4,10.56,9.69c3.55-3.29,7.08-6.52,10.55-9.69c6.72-6.14,13.66-12.49,20.43-18.99    c1.91-1.83,3.86-3.67,5.83-5.53c6.87-6.46,13.9-13.07,19.55-20.07c2.63-3.24,4.95-6.57,6.82-10    C288.045,270.64,287.965,258.72,281.625,248.37z"/>
	</g>
</g>
<g>
	<g>
		<path d="M143.335,72.82h-69.53V512h289.75v-72.82V72.82H143.335z M308.185,296.34c-4.58,8.39-10.57,15.82-16.92,22.58    c-5.01,5.35-10.26,10.29-15.21,14.94c-1.9,1.79-3.78,3.56-5.61,5.32c-7.04,6.76-14.12,13.23-20.96,19.49    c-6.71,6.13-13.65,12.48-20.42,18.97l-10.38,9.98l-10.39-9.98c-6.77-6.49-13.71-12.84-20.41-18.97    c-6.85-6.26-13.93-12.73-20.97-19.49c-1.83-1.76-3.71-3.53-5.61-5.32c-11.21-10.54-23.92-22.5-32.13-37.52    c-5.53-10.12-8.3-20.8-8.3-31.35c0-11.17,3.1-22.2,9.27-32.28c14.91-24.35,35.87-29.6,50.82-29.71h0.48    c12.36,0,24.55,3.57,35.28,10.34l1.96,1.22l1.99-1.24c1.73-1.09,3.5-2.1,5.3-3.02c9.48-4.87,19.87-7.4,30.42-7.3    c14.96,0.11,35.91,5.36,50.82,29.71C319.225,252.32,319.575,275.51,308.185,296.34z"/>
	</g>
</g>
<g>
	<g>
		<polygon points="128.335,0 128.335,42.82 143.335,42.82 158.335,42.82 393.555,42.82 393.555,424.18 393.555,439.18     393.555,454.18 438.195,454.18 438.195,0   "/>
	</g>
</g>
<g>
</g>
<g>
</g>
<g>
</g>
<g>
</g>
<g>
</g>
<g>
</g>
<g>
</g>
<g>
</g>
<g>
</g>
<g>
</g>
<g>
</g>
<g>
</g>
<g>
</g>
<g>
</g>
<g>
</g>
</svg>
