<?xml version="1.0" encoding="iso-8859-1"?>
<!-- Generator: Adobe Illustrator 19.0.0, SVG Export Plug-In . SVG Version: 6.00 Build 0)  -->
<svg xmlns="http://www.w3.org/2000/svg" xmlns:xlink="http://www.w3.org/1999/xlink" version="1.1" id="Layer_1" x="0px" y="0px" viewBox="0 0 511.994 511.994" style="enable-background:new 0 0 511.994 511.994;" xml:space="preserve">
<rect x="55.179" y="109.741" transform="matrix(-0.4204 0.9073 -0.9073 -0.4204 615.1393 119.0407)" style="fill:#AEADB3;" width="428.74" height="292.496"/>
<rect x="1.488" y="124.742" transform="matrix(-0.2169 0.9762 -0.9762 -0.2169 527.2327 119.0477)" style="fill:#C8C6CD;" width="428.758" height="292.508"/>
<rect x="19.625" y="83.223" style="fill:#E1E1E4;" width="292.507" height="428.755"/>
<rect x="165.873" y="83.223" style="fill:#D9D8DB;" width="146.248" height="428.755"/>
<path style="fill:#E70020;" d="M248.631,300.164c-7.638,13.966-19.486,25.115-30.944,35.895c-2.02,1.901-3.925,3.693-5.822,5.513  c-7.108,6.827-14.304,13.404-21.264,19.771c-6.915,6.317-14.061,12.852-21.074,19.588l-3.651,3.507l-3.651-3.507  c-7.013-6.736-14.16-13.271-21.074-19.588c-6.96-6.367-14.156-12.944-21.264-19.771c-1.897-1.82-3.802-3.612-5.822-5.513  c-11.458-10.78-23.305-21.928-30.944-35.895c-9.877-18.06-9.603-38.112,0.748-55.021c12.842-20.969,30.737-25.484,43.486-25.582  c10.885-0.084,21.651,3.043,31.144,9.03l7.375,4.62l7.389-4.627c9.479-5.98,20.256-9.093,31.13-9.023  c12.751,0.098,30.645,4.613,43.486,25.582C258.234,262.052,258.508,282.104,248.631,300.164z"/>
<path style="fill:#990013;" d="M248.631,300.164c-7.638,13.966-19.486,25.115-30.944,35.895c-2.02,1.901-3.925,3.693-5.822,5.513  c-7.108,6.827-14.304,13.404-21.264,19.771c-6.915,6.317-14.061,12.852-21.074,19.588l-3.651,3.507V233.209l7.389-4.627  c9.479-5.98,20.256-9.093,31.13-9.023c12.751,0.098,30.645,4.613,43.486,25.582C258.234,262.052,258.508,282.104,248.631,300.164z"/>
<g>
</g>
<g>
</g>
<g>
</g>
<g>
</g>
<g>
</g>
<g>
</g>
<g>
</g>
<g>
</g>
<g>
</g>
<g>
</g>
<g>
</g>
<g>
</g>
<g>
</g>
<g>
</g>
<g>
</g>
</svg>
