<svg height="512" viewBox="0 0 58 58" width="512" xmlns="http://www.w3.org/2000/svg"><g id="037---Princess" fill="none" fill-rule="evenodd"><g fill-rule="nonzero"><path id="Shape" d="m24 33.36-1 6.64-5.92 1.88-5.73.02-.03-.17c-1.87555138-1.4596883-2.71153353-3.8896348-2.13103912-6.1942843.58049441-2.3046494 2.46780972-4.0486526 4.81103912-4.4457157 0-17.271-.1-17.135.3-19.09l14.45-1c-2.74 2.29-7.04 6.53-8.3 7.42-.2906137.2242143-.4575976.573025-.45.94 0 5.14-.1 5.535.31 6.69.9045838 2.5877406 2.1451978 5.0454339 3.69 7.31z" fill="#a56a43"/><path id="Shape" d="m46.68 41.73-.03.17-6.109.72-6.258-1.74-.783-7.52c1.5452216-2.2643186 2.7858644-4.7220689 3.69-7.31.444-1.243.31-1.932.31-6.69.0075976-.366975-.1593863-.7157857-.45-.94-1.26-.89-6.227-6.3-8.967-8.587l15.617 2.167c.408 1.98.3 1.632.3 19.09 2.3432294.3970631 4.2305447 2.1410663 4.8110391 4.4457157.5804944 2.3046495-.2554877 4.734596-2.1310391 6.1942843z" fill="#a56a43"/><path id="Shape" d="m13.5 52.5-1.5 5.5h-8c-.55228475 0-1-.4477153-1-1v-6.75z" fill="#b49aca"/><path id="Shape" d="m36 33.36v7.64c-.1.1-.008 6-7 6s-6.9-5.9-7-6v-7.64z" fill="#f9c795"/><path id="Shape" d="m46 31.8v3.2c0 .5522847-.4477153 1-1 1s-1-.4477153-1-1v-3.91c.7037312.115277 1.381106.355745 2 .71z" fill="#805333"/><path id="Shape" d="m14 31.09v3.91c0 .5522847-.4477153 1-1 1s-1-.4477153-1-1v-3.2c.618894-.354255 1.2962688-.594723 2-.71z" fill="#805333"/><path id="Shape" d="m42.27 8.01-3.86 2.5c-.54 0-.54-.131-2.7-2.28-.3930079-.38997787-1.0269921-.38997787-1.42 0l-1.47 1.47c-.2054458.20568963-.4902329.311792-.7801813.29066991-.2899483-.02112207-.5563518-.16737736-.7298187-.40066991l-1.51-2.69c-.1888544-.25180584-.4852427-.4-.8-.4s-.6111456.14819416-.8.4l-1.51 2.69c-.1734669.23329255-.4398704.37954784-.7298187.40066991-.2899484.02112209-.5747355-.08498028-.7801813-.29066991l-1.47-1.47c-.3930079-.38997787-1.0269921-.38997787-1.42 0-2.2 2.187-2.17 2.28-2.7 2.28l-3.86-2.5c2.5984753-4.92008876 7.7058876-7.99863721 13.27-7.99863721s10.6715247 3.07854845 13.27 7.99863721z" fill="#a56a43"/><path id="Shape" d="m45 9.01v1.99c0 .5522847-.4477153 1-1 1h-30c-.5522847 0-1-.4477153-1-1v-1.99c0-.55228475.4477153-1 1-1h5.59c.54 0 .54-.131 2.7-2.28.3930079-.38997787 1.0269921-.38997787 1.42 0l1.47 1.47c.2054458.20568963.4902329.31179197.7801813.29066991.2899483-.02112207.5563518-.16737736.7298187-.40066991l1.51-2.69c.1888544-.25180584.4852427-.4.8-.4s.6111456.14819416.8.4l1.51 2.69c.1734669.23329255.4398704.37954784.7298187.40066991.2899484.02112206.5747355-.08498028.7801813-.29066991l1.47-1.47c.3930079-.38997787 1.0269921-.38997787 1.42 0 2.2 2.187 2.17 2.28 2.7 2.28h5.59c.2652165 0 .5195704.10535684.7071068.29289322s.2928932.44189029.2928932.70710678z" fill="#f3d55b"/></g><path id="Shape" d="m46 54v-2" stroke="#000" stroke-linecap="round" stroke-linejoin="round" stroke-width="2"/><path id="Shape" d="m55 50.25v6.75c0 .5522847-.4477153 1-1 1h-8l-1.5-5z" fill="#b49aca" fill-rule="nonzero"/><path id="Shape" d="m29 58h-17v-4c-10.406-4.336-8.369-3.486-10.77-4.49-.74186862-.3112015-1.22605486-1.0355127-1.23-1.84v-.4c-.00038801-1.9010745 1.33733498-3.5397851 3.2-3.92l13.88-2.47c.33 2.42 2.08 7.62 11.92 7.62z" fill="#955ba5" fill-rule="nonzero"/><path id="Shape" d="m29 48.5c9.84 0 11.59-5.2 11.92-7.62l13.88 2.47c1.862665.3802149 3.200388 2.0189255 3.2 3.92v.4c-.0039451.8044873-.4881314 1.5287985-1.23 1.84-2.345.98-.255.109-10.77 4.49v4h-17z" fill="#894b9d" fill-rule="nonzero"/><path id="Shape" d="m40.92 40.88c-.33 2.42-2.08 9.12-11.92 9.12s-11.59-6.7-11.92-9.12l4.92-.88c.1.1.008 6 7 6s6.9-5.9 7-6z" fill="#b49aca" fill-rule="nonzero"/><ellipse id="Oval" cx="29" cy="54" fill="#f9eab0" fill-rule="nonzero" rx="3" ry="4"/><path id="Shape" d="m40 19.36c0 5.14.1 5.535-.31 6.69-.9045838 2.5877406-2.1451978 5.0454339-3.69 7.31-6.582 9.318-13.831 3.478-17.69-7.31-.444-1.243-.31-1.932-.31-6.69-.0075976-.366975.1593863-.7157857.45-.94 1.26-.89 5.56-4.13 8.3-6.42h4.5c2.74 2.29 7.04 5.53 8.3 6.42.2906137.2242143.4575976.573025.45.94z" fill="#fdd7ad" fill-rule="nonzero"/></g></svg>