<?xml version="1.0" encoding="iso-8859-1"?>
<!-- Generator: Adobe Illustrator 19.0.0, SVG Export Plug-In . SVG Version: 6.00 Build 0)  -->
<svg xmlns="http://www.w3.org/2000/svg" xmlns:xlink="http://www.w3.org/1999/xlink" version="1.1" id="Layer_1" x="0px" y="0px" viewBox="0 0 512 512" style="enable-background:new 0 0 512 512;" xml:space="preserve">
<g>
	<g>
		<path d="M476.341,240.824c-20.33-30.183-50.89-50.143-86.048-56.205c-2.079-0.359-4.167-0.666-6.259-0.922    c6.817-15.942,10.354-33.08,10.354-50.595C394.388,59.709,332.307,0,256,0S117.612,59.709,117.612,133.102    c0,17.517,3.536,34.652,10.355,50.595c-2.092,0.256-4.18,0.563-6.259,0.922c-35.159,6.062-65.718,26.022-86.049,56.205    c-20.192,29.977-27.865,66.48-21.605,102.786c6.259,36.306,25.713,68.132,54.778,89.617    c29.264,21.631,64.744,30.208,99.901,24.144c11.939-2.058,23.447-5.772,34.237-11.001c-3.374,10.83-7.251,17.003-10.604,19.363    L186,470.214V512h140v-41.786l-6.367-4.481c-3.353-2.36-7.23-8.533-10.604-19.363c10.79,5.229,22.298,8.943,34.237,11.001    c35.159,6.063,70.637-2.513,99.901-24.144c29.064-21.484,48.518-53.311,54.778-89.616    C504.206,307.305,496.533,270.801,476.341,240.824z"/>
	</g>
</g>
<g>
</g>
<g>
</g>
<g>
</g>
<g>
</g>
<g>
</g>
<g>
</g>
<g>
</g>
<g>
</g>
<g>
</g>
<g>
</g>
<g>
</g>
<g>
</g>
<g>
</g>
<g>
</g>
<g>
</g>
</svg>
