<svg height="512" viewBox="0 0 45 59" width="512" xmlns="http://www.w3.org/2000/svg"><g id="038---Royal-Letter" fill="none"><path id="Shape" d="m43.82 9c.266.576.18-2.5.18 48-.0032948 1.1032019-.8967981 1.9967052-2 2h-40c-1.10320187-.0032948-1.9967052-.8967981-2-2v-54c.0032948-1.10320187.89679813-1.9967052 2-2 35.722 0 33.431-.082 34 .18z" fill="#f9eab0"/><path id="Shape" d="m43.82 9h-5.82c-1.1032019-.0032948-1.9967052-.89679813-2-2v-5.82c.2196188.10025599.4194552.23912533.59.41 7.379 7.379 7.016 6.939 7.23 7.41z" fill="#f3d55b"/><g fill="#a59078"><path id="Shape" d="m36 35h-28c-.55228475 0-1-.4477153-1-1s.44771525-1 1-1h28c.5522847 0 1 .4477153 1 1s-.4477153 1-1 1z"/><path id="Shape" d="m36 47h-28c-.55228475 0-1-.4477153-1-1s.44771525-1 1-1h28c.5522847 0 1 .4477153 1 1s-.4477153 1-1 1z"/><path id="Shape" d="m12 51h-4c-.55228475 0-1-.4477153-1-1s.44771525-1 1-1h4c.5522847 0 1 .4477153 1 1s-.4477153 1-1 1z"/><path id="Shape" d="m12 39h-4c-.55228475 0-1-.4477153-1-1s.44771525-1 1-1h4c.5522847 0 1 .4477153 1 1s-.4477153 1-1 1z"/><path id="Shape" d="m36 39h-20c-.5522847 0-1-.4477153-1-1s.4477153-1 1-1h20c.5522847 0 1 .4477153 1 1s-.4477153 1-1 1z"/><path id="Shape" d="m36 43h-4c-.5522847 0-1-.4477153-1-1s.4477153-1 1-1h4c.5522847 0 1 .4477153 1 1s-.4477153 1-1 1z"/><path id="Shape" d="m28 43h-20c-.55228475 0-1-.4477153-1-1s.44771525-1 1-1h20c.5522847 0 1 .4477153 1 1s-.4477153 1-1 1z"/><path id="Shape" d="m20 56c-.3212672-.0002439-.6228543-.1548257-.8106349-.4155001s-.2388857-.5956946-.1373651-.9004999c.125-.377 1.303-3.684 3.948-3.684 2.576 0 2.831 3 4 3s1.435-3 4-3c1.3450457.0693033 2.549489.8549592 3.155 2.058.3676447.5847368 1.0092925.9402852 1.7.942h1.145c.5522847 0 1 .4477153 1 1s-.4477153 1-1 1h-1.149c-1.3719476-.0008814-2.6477231-.7048226-3.38-1.865-.332-.518-.856-1.135-1.471-1.135-1.172 0-1.435 3-4 3s-2.831-3-4-3c-1.063 0-1.889 1.827-2.052 2.316-.1359555.4081936-.5177607.6836733-.948.684z"/></g><path id="Shape" d="m35 30h-26c-1.1045695 0-2-.8954305-2-2s.8954305-2 2-2h26c1.1045695 0 2 .8954305 2 2s-.8954305 2-2 2z" fill="#f0c419"/><path id="Shape" d="m24 21c.8405796-.6952889 1.9103629-1.0518834 3-1 1.0896371-.0518834 2.1594204.3047111 3 1 .8405796-.6952889 1.9103629-1.0518834 3-1 1.0896371-.0518834 2.1594204.3047111 3 1v7.25h-28v-7.25c.84057963-.6952889 1.91036293-1.0518834 3-1 1.0896371-.0518834 2.1594204.3047111 3 1 .8405796-.6952889 1.9103629-1.0518834 3-1 1.0896371-.0518834 2.1594204.3047111 3 1z" fill="#802d40"/><path id="Shape" d="m22 14c-.5522847 0-1-.4477153-1-1v-8c0-.55228475.4477153-1 1-1s1 .44771525 1 1v8c0 .5522847-.4477153 1-1 1z" fill="#bdc3c7"/><path id="Shape" d="m24 8h-4c-.5522847 0-1-.44771525-1-1s.4477153-1 1-1h4c.5522847 0 1 .44771525 1 1s-.4477153 1-1 1z" fill="#bdc3c7"/><path id="Shape" d="m21 13c0 .5522847-.4477153 1-1 1h-2c-1.2697874-.0012378-2.401277.8012371-2.82 2-.258.667-.18.177-.18 12 0 .5522847-.4477153 1-1 1s-1-.4477153-1-1c0-11.983-.039-11.365.1-12 .4777312-2.3268415 2.5246235-3.997774 4.9-4h2c.5522847 0 1 .4477153 1 1z" fill="#f0c419"/><path id="Shape" d="m16.39 14.47c-.5644594.3588128-.990914.8980488-1.21 1.53h-2.18c-1.6548028.0049422-2.9950578 1.3451972-3 3v9c0 .5522847-.44771525 1-1 1s-1-.4477153-1-1v-9c0-2.7614237 2.2385763-5 5-5h2.54c.3450602.0010171.6656722.1782967.85.47z" fill="#f0c419"/><path id="Shape" d="m31 17v11c0 .5522847-.4477153 1-1 1s-1-.4477153-1-1v-11c-.0052958-1.0242286-.5283483-1.9762594-1.39-2.53-.961-.613-1.722-.47-3.61-.47-.5522847 0-1-.4477153-1-1s.4477153-1 1-1h2c2.7614237 0 5 2.2385763 5 5z" fill="#f0c419"/><path id="Shape" d="m36 19v9c0 .5522847-.4477153 1-1 1s-1-.4477153-1-1v-9c-.0049422-1.6548028-1.3451972-2.9950578-3-3h-2.18c-.219086-.6319512-.6455406-1.1711872-1.21-1.53.1843278-.2917033.5049398-.4689829.85-.47h2.54c1.3260824 0 2.597852.5267842 3.5355339 1.4644661s1.4644661 2.2094515 1.4644661 3.5355339z" fill="#f0c419"/><path id="Shape" d="m21 11h2c.5522847 0 1 .4477153 1 1v17.5h-4v-17.5c0-.5522847.4477153-1 1-1z" fill="#f3d55b"/><path id="Shape" d="m35 30h-26c-1.1045695 0-2-.8954305-2-2s.8954305-2 2-2h26c1.1045695 0 2 .8954305 2 2s-.8954305 2-2 2z" fill="#e57e25"/><path id="Shape" d="m33 30h-22c-1.1045695 0-2-.8954305-2-2s.8954305-2 2-2h22c1.1045695 0 2 .8954305 2 2s-.8954305 2-2 2z" fill="#f29c1f"/></g></svg>