<svg height="512" viewBox="0 0 58 59" width="512" xmlns="http://www.w3.org/2000/svg"><g id="039---Coronation-Jewellery" fill="none" transform="translate(0 -1)"><path id="Shape" d="m29 43c-.5522847 0-1-.4477153-1-1v-4c0-.5522847.4477153-1 1-1s1 .4477153 1 1v4c0 .5522847-.4477153 1-1 1z" fill="#95a5a5"/><path id="Shape" d="m5 48c-.55228475 0-1-.4477153-1-1v-3c0-.5522847.44771525-1 1-1s1 .4477153 1 1v3c0 .5522847-.44771525 1-1 1z" fill="#95a5a5"/><path id="Shape" d="m53 48c-.5522847 0-1-.4477153-1-1v-3c0-.5522847.4477153-1 1-1s1 .4477153 1 1v3c0 .5522847-.4477153 1-1 1z" fill="#95a5a5"/><path id="Shape" d="m36 52c0 3.8659932-3.1340068 7-7 7s-7-3.1340068-7-7c0-3.832 3.122-10 7-10s7 6.176 7 10z" fill="#e4c05c"/><path id="Shape" d="m10 54.06c-.00793253 1.3181335-.53917901 2.5791257-1.47686614 3.5055606s-2.20500069 1.44242-3.52313386 1.4344394c-1.31813317.0079806-2.58544673-.5080045-3.52313386-1.4344394s-1.46893361-2.1874271-1.47686614-3.5055606c0-2.727 2.243-7.06 5-7.06s5 4.342 5 7.06z" fill="#e4c05c"/><path id="Shape" d="m58 54.06c0 2.7614237-2.2385763 5-5 5s-5-2.2385763-5-5c0-2.727 2.243-7.06 5-7.06s5 4.342 5 7.06z" fill="#e4c05c"/><path id="Shape" d="m35.92 50.97c-.4783333 3.4551238-3.4319227 6.0279833-6.92 6.0279833s-6.4416667-2.5728595-6.92-6.0279833c.46-3.83 3.38-8.97 6.92-8.97s6.46 5.14 6.92 8.97z" fill="#f9eab0"/><path id="Shape" d="m9.9 53.02c-.48508969 2.3196156-2.53020492 3.9812874-4.9 3.9812874s-4.41491031-1.6616718-4.9-3.9812874c.45-2.67 2.47-6.02 4.9-6.02s4.45 3.35 4.9 6.02z" fill="#f9eab0"/><path id="Shape" d="m57.9 53.02c-.4850897 2.3196156-2.5302049 3.9812874-4.9 3.9812874s-4.4149103-1.6616718-4.9-3.9812874c.45-2.67 2.47-6.02 4.9-6.02s4.45 3.35 4.9 6.02z" fill="#f9eab0"/><g fill="#e4c05c"><path id="Shape" d="m14 7c.0020659 2.05171938-1.0471553 3.9614529-2.78 5.06l-2.44.88c-2.47775858.3248625-4.89742807-.9200141-6.073718-3.12481914-1.17628993-2.20480503-.86286744-4.90781901.78673549-6.78495337 1.64960292-1.87713436 4.28993452-2.53528883 6.62761161-1.65206226 2.337677.88322657 3.8831547 3.12287321 3.8793709 5.62183477z"/><path id="Shape" d="m18 18c.0033911 1.606446-.6420753 3.1461899-1.79 4.27l-2.42 1.46c-2.4747886.7735371-5.16648459-.1301392-6.67311991-2.2403497-1.50663533-2.1102105-1.48730932-4.9494859.04791207-7.0389915 1.5352214-2.0895056 4.23896944-2.9564569 6.70299884-2.1493029 2.4640294.8071539 4.1308135 3.1057815 4.132209 5.6986441z"/><path id="Shape" d="m24 28c0 .773-.016.657-.94 3.22-1.6048953 2.5185772-4.8177448 3.4734308-7.5376758 2.2401851-2.719931-1.2332458-4.1188132-4.2791078-3.2819218-7.1459061s3.6547504-4.6816863 6.6109873-4.2579141c2.956237.4237723 5.1507742 2.9571798 5.1486103 5.9436351z"/><path id="Shape" d="m56 7c-.0003171 1.72646348-.7451743 3.3689217-2.0437584 4.5066192s-3.0247292 1.6600998-4.7362416 1.4333808l-2.44-.88c-2.4299376-1.5454795-3.419155-4.59939057-2.3568517-7.27607047s3.8764854-4.22112255 6.7049062-3.67969903 4.8732729 3.01599489 4.8719455 5.8957695z"/><path id="Shape" d="m52 18c-.0032868 1.9077358-.9121164 3.7006078-2.448894 4.8309975-1.5367777 1.1303897-3.5189603 1.4640261-5.341106.8990025l-2.42-1.46c-1.8310704-1.8085599-2.3047765-4.5834533-1.177406-6.897053 1.1273705-2.3135998 3.6046815-3.650522 6.157406-3.322947l.01.01c2.9860922.3857292 5.2211737 2.9290977 5.22 5.94z"/><path id="Shape" d="m46 28c-.0019296 2.666138-1.7629431 5.0111992-4.3227988 5.7564736-2.5598558.7452745-5.3044438-.2880293-6.7372012-2.5364736-.887-2.459-.94-2.4-.94-3.22 0-3.3137085 2.6862915-6 6-6s6 2.6862915 6 6z"/><circle id="Oval" cx="29" cy="32" r="6"/></g><path id="Shape" d="m13.91 6.01c-.0649972.3753269-.165447.74364289-.3 1.1-.6428003 1.59359149-1.9497829 2.8267869-3.578 3.376l-.066.023c-1.81614359.6974506-3.85890804.4593896-5.466-.637-1.28434777-.92063252-2.15106435-2.31313319-2.41-3.872.48518741-2.88756566 2.98619054-5.00157915 5.91423359-4.99910196 2.92804301.00247719 5.42546561 2.12071948 5.90576641 5.00910196z" fill="#f9eab0"/><path id="Shape" d="m17.91 17.01c-.0687729.417465-.1827775.826205-.34 1.219-.4819514 1.117846-1.31359 2.0491408-2.37 2.654l-.27.162c-1.5053472.9507265-3.3633252 1.1592976-5.042.566-2.00013387-.7519009-3.4476785-2.5131183-3.798-4.621.43703693-2.5941078 2.52057164-4.5964131 5.13-4.93l.01-.01c3.1975662-.4096603 6.1473603 1.780606 6.68 4.96z" fill="#f9eab0"/><path id="Shape" d="m23.9 26.9-.486 1.344c-.3131.9318516-.8680045 1.7638634-1.608 2.411-1.6586408 1.3460821-3.9069098 1.7111452-5.906246.9590276-1.9993363-.7521175-3.4495556-2.5084912-3.809754-4.6140276.4899231-2.8623135 2.9593568-4.962938 5.863192-4.987526 2.9038351-.0245879 5.4084859 2.0339191 5.946808 4.887526z" fill="#f9eab0"/><path id="Shape" d="m55.91 6c-.2695972 1.74631854-1.319782 3.27482048-2.853242 4.1527793-1.5334599.8779589-3.3832767 1.0098082-5.025758.3582207l-.066-.023c-1.6282171-.5492131-2.9351997-1.78240851-3.578-3.376-.134553-.35635711-.2350028-.7246731-.3-1.1.4759652-2.89260512 2.9749108-5.01614729 5.9064118-5.01912268 2.9315011-.00297539 5.4347522 2.1154897 5.9165882 5.00712268z" fill="#f9eab0"/><path id="Shape" d="m51.91 16.99c-.2181256 1.3392575-.8887268 2.5632812-1.9 3.468-1.9938293 1.6924872-4.854828 1.8968732-7.069.505l-.134-.08c-1.0586903-.6035044-1.8923072-1.5350494-2.375-2.654-.1572225-.392795-.2712271-.801535-.34-1.219.4804258-2.8865857 2.9752533-5.0041355 5.9015413-5.0090869s5.4282672 2.1041436 5.9184587 4.9890869z" fill="#f9eab0"/><path id="Shape" d="m45.91 27c-.360463 2.1053587-1.8105957 3.8615454-3.809742 4.6137973-1.9991463.7522518-4.2472928.3876777-5.906258-.9577973-.7398155-.6476996-1.2946679-1.4799782-1.608-2.412l-.486-1.344c.5383221-2.8536069 3.0429729-4.9121139 5.946808-4.887526 2.9038352.024588 5.3732689 2.1252125 5.863192 4.987526z" fill="#f9eab0"/><ellipse id="Oval" cx="29" cy="31" fill="#f9eab0" rx="5.91" ry="5"/><path id="Shape" d="m26 53c-.5522847 0-1-.4477153-1-1 0-2.57 2.033-6.4 3.688-6.94.522176-.1642971 1.0794014.1217897 1.2502077.6418728.1708062.5200832-.1082985 1.0808384-.6262077 1.2581272-.619.289-2.312 3-2.312 5.04 0 .5522847-.4477153 1-1 1z" fill="#fff"/><path id="Shape" d="m4 55c-.55228475 0-1-.4477153-1-1 0-1.1.592-3.42 1.558-3.9.46149245-.2275106 1.02030392-.067698 1.29172271.3694155.27141878.4371135.16684725 1.0088435-.24172271 1.3215845-.3659644.681339-.57377308 1.4363544-.608 2.209 0 .5522847-.44771525 1-1 1z" fill="#fff"/><path id="Shape" d="m48.27 9c-.909 0-1.27-1.172-1.27-2 0-2.97 4-3.919 4-2 0 .55228475-.4477153 1-1 1-.3572611.00000908-.6873798.19061158-.8660064.500011-.1786265.30939942-.1786241.69059185.0000064.999989.178453.30908789.1786463.68985527.0005074.99912425-.1781389.30926899-.5076037.5001533-.8645074.50087575z" fill="#fff"/><path id="Shape" d="m44.27 20c-.909 0-1.27-1.172-1.27-2 0-2.971 4-3.92 4-2 0 .5522847-.4477153 1-1 1-.3572611.0000091-.6873798.1906116-.8660064.500011-.1786265.3093994-.1786241.6905919.0000064.999989.178453.3090879.1786463.6898553.0005074.9991243-.1781389.3092689-.5076037.5001532-.8645074.5008757z" fill="#fff"/><path id="Shape" d="m38.27 30c-.909 0-1.27-1.172-1.27-2 0-2.97 4-3.919 4-2 0 .5522847-.4477153 1-1 1-.3572611.0000091-.6873798.1906116-.8660064.500011-.1786265.3093994-.1786241.6905919.0000064.999989.178453.3090879.1786463.6898553.0005074.9991243-.1781389.3092689-.5076037.5001532-.8645074.5008757z" fill="#fff"/><circle id="Oval" cx="5" cy="41" fill="#e4c05c" r="3"/><circle id="Oval" cx="5" cy="34" fill="#e4c05c" r="4"/><path id="Shape" d="m52 55c-.5522847 0-1-.4477153-1-1 0-1.1.592-3.42 1.558-3.9.4614924-.2275106 1.0203039-.067698 1.2917227.3694155s.1668473 1.0088435-.2417227 1.3215845c-.3659644.681339-.5737731 1.4363544-.608 2.209 0 .5522847-.4477153 1-1 1z" fill="#fff"/><circle id="Oval" cx="53" cy="41" fill="#e4c05c" r="3"/><path id="Shape" d="m7.82 40c-.42153553 1.196109-1.55178511 1.996169-2.82 1.996169s-2.39846447-.80006-2.82-1.996169c.42153553-1.196109 1.55178511-1.996169 2.82-1.996169s2.39846447.80006 2.82 1.996169z" fill="#f9eab0"/><path id="Shape" d="m55.82 40c-.4215355 1.196109-1.5517851 1.996169-2.82 1.996169s-2.3984645-.80006-2.82-1.996169c.4215355-1.196109 1.5517851-1.996169 2.82-1.996169s2.3984645.80006 2.82 1.996169z" fill="#f9eab0"/><circle id="Oval" cx="53" cy="34" fill="#e4c05c" r="4"/><ellipse id="Oval" cx="5" cy="33" fill="#f9eab0" rx="3.87" ry="3"/><ellipse id="Oval" cx="53" cy="33" fill="#f9eab0" rx="3.87" ry="3"/><path id="Shape" d="m10.27 20c-.909 0-1.27-1.172-1.27-2 0-2.971 4-3.92 4-2 0 .5522847-.4477153 1-1 1-.3572611.0000091-.6873798.1906116-.8660064.500011-.1786265.3093994-.1786241.6905919.0000064.999989.178453.3090879.1786463.6898553.0005074.9991243-.1781389.3092689-.5076037.5001532-.8645074.5008757z" fill="#fff"/><path id="Shape" d="m16.27 30c-.909 0-1.27-1.172-1.27-2 0-2.97 4-3.919 4-2 0 .5522847-.4477153 1-1 1-.3572611.0000091-.6873798.1906116-.8660064.500011-.1786265.3093994-.1786241.6905919.0000064.999989.178453.3090879.1786463.6898553.0005074.9991243-.1781389.3092689-.5076037.5001532-.8645074.5008757z" fill="#fff"/><path id="Shape" d="m27.27 34c-.909 0-1.27-1.172-1.27-2 0-2.97 4-3.919 4-2 0 .5522847-.4477153 1-1 1-.3572611.0000091-.6873798.1906116-.8660064.500011-.1786265.3093994-.1786241.6905919.0000064.999989.178453.3090879.1786463.6898553.0005074.9991243-.1781389.3092689-.5076037.5001532-.8645074.5008757z" fill="#fff"/><path id="Shape" d="m6.27 9c-.909 0-1.27-1.172-1.27-2 0-2.97 4-3.919 4-2 0 .55228475-.44771525 1-1 1-.35726105.00000908-.68737976.19061158-.86600635.500011-.1786266.30939942-.17862418.69059185.00000635.999989.17845295.30908789.17864632.68985527.00050739.99912425-.17813894.30926899-.50760368.5001533-.86450739.50087575z" fill="#fff"/></g></svg>