<?xml version="1.0" encoding="iso-8859-1"?>
<!-- Generator: Adobe Illustrator 19.0.0, SVG Export Plug-In . SVG Version: 6.00 Build 0)  -->
<svg xmlns="http://www.w3.org/2000/svg" xmlns:xlink="http://www.w3.org/1999/xlink" version="1.1" id="Layer_1" x="0px" y="0px" viewBox="0 0 512 512" style="enable-background:new 0 0 512 512;" xml:space="preserve">
<g>
	<g>
		<path d="M480.601,228.73c-20.726-37.898-52.833-68.108-83.883-97.323c-5.46-5.138-10.619-9.991-15.749-14.917    c-19.239-18.472-38.717-36.281-57.555-53.504c-18.705-17.102-38.046-34.785-57.019-53.003L256,0l-10.395,9.982    c-18.974,18.219-38.315,35.902-57.018,53.003c-18.838,17.223-38.316,35.032-57.555,53.504    c-5.129,4.925-10.287,9.778-15.748,14.916c-31.05,29.215-63.157,59.426-83.884,97.325C4.543,277.84,5.288,332.38,33.445,378.37    c34.926,57.044,83.616,69.327,118.313,69.585c18.044,0.126,36.075-3.004,53.261-9.192c-3.775,15.589-8.613,24.071-12.691,26.941    l-6.372,4.484V512h140.087v-41.812l-6.372-4.484c-4.078-2.87-8.914-11.351-12.691-26.94c17.186,6.188,35.232,9.334,53.26,9.192    c34.697-0.259,83.388-12.542,118.313-69.585C506.712,332.38,507.457,277.84,480.601,228.73z"/>
	</g>
</g>
<g>
</g>
<g>
</g>
<g>
</g>
<g>
</g>
<g>
</g>
<g>
</g>
<g>
</g>
<g>
</g>
<g>
</g>
<g>
</g>
<g>
</g>
<g>
</g>
<g>
</g>
<g>
</g>
<g>
</g>
</svg>
