<svg height="512" viewBox="0 0 58 58" width="512" xmlns="http://www.w3.org/2000/svg"><g id="040---Knighthood" fill="none"><path id="Shape" d="m22.65 31.63-.01-.01c-.532-1.5.187-1.987-.04-2.86-.15-.63-.75-.79-1.22-1.12-.37-.27.31-1.15.31-1.15s-.72-.54-.98-.77c-.433-.369.782-1.156.56-2.34-.12-.67-1.13-.92-1.62-1.29-.766-.566-.973-.84.06-2.12 1.0686685-1.3978089 1.9839298-2.9064814 2.73-4.5.1028953-.1700547.1645409-.3618408.18-.56-.01-.88-1.29-1.25-1.41-2.11-.083-.693.757-1.867 1.04-3.09.1520471-.73473207.3490849-1.45943019.59-2.17 1.485-4.056 4.106-5.858 8.15-6.67 6.561-1.36 10.584-1.529 15.93 2.71 2.5 1.976 4.144 4.709 4.08 10.11-.121 7.017-6.648 6.735-4.8 16.65" fill="#3b97d3"/><path id="Shape" d="m29.96 32.891c-.4890285.000408-.9066169-.3529238-.9871735-.8352719s.1995522-.9522018.6621735-1.1107281c.965-.333 2.276-.8 2.605-.909 1.756-.55 2.795-1.3 2.78-2.014-.0078599-.3572656.1754763-.6915858.4809474-.8770254.3054712-.1854396.686669-.193826 1-.022s.5111928.4977598.5190526.8550254c.026 1.2-.678 2.868-4.181 3.966-.9428658.364622-1.9037918.6807029-2.879.947z" fill="#2980ba"/><path id="Shape" d="m37.12 41.16c-1.4624097 1.5828844-2.2264497 3.6875981-2.12 5.84v11h-9c-1.1032019-.0032948-1.9967052-.8967981-2-2 0-4.715-.386-11.9 2.43-15.43 3.487.198 1.245.074 10.69.59z" fill="#2980ba"/><path id="Shape" d="m54 56c-.0032948 1.1032019-.8967981 1.9967052-2 2h-17v-11c-.1064497-2.1524019.6575903-4.2571156 2.12-5.84l14.53.8c2.741 4.617 2.35 8.652 2.35 14.04z" fill="#3b97d3"/><path id="Shape" d="m57.71 35.29-4.98-4.97c-.1976533-.2057615-.4750944-.3152777-.76-.3l-22.9 1.26c.977 4.917.93 4.576.93 4.69l.03.03-.96 4.72c.673.037 21.931 1.2 22.9 1.26.2849056.0152777.5623467-.0942385.76-.3l4.98-4.97c.3867403-.3943361.3867403-1.0256639 0-1.42z" fill="#d1d4d1"/><path id="Shape" d="m58.0000042 36c.0007654.2656541-.1034697.5208504-.2900042.71l-4.98 4.97c-.1976533.2057615-.4750944.3152777-.76.3-.967-.06-21.941-1.208-22.9-1.26l3.93-4.72z" fill="#a5a5a4"/><path id="Shape" d="m33 36-3.93 4.72c-3.676-.209-1.058-.064-13.07-.72l-2-4 2-4 13.07-.72 3.9 4.68v.01z" fill="#f0c419"/><path id="Shape" d="m26 37h-10c-.5522847 0-1-.4477153-1-1s.4477153-1 1-1h10c.5522847 0 1 .4477153 1 1s-.4477153 1-1 1z" fill="#f29c1f"/><path id="Shape" d="m14.23 34v4h-11.23c1.7-1.135 1.7-2.866 0-4z" fill="#a56a43"/><path id="Shape" d="m16 29.03v13.94c.0063852.3182619-.1391357.6205506-.3918883.8140643s-.5825374.255131-.8881117.1659357c-1.6374872-.5801908-2.7287174-2.1327868-2.72-3.87v-8.16c-.0087174-1.7372132 1.0825128-3.2898092 2.72-3.87.3055743-.0891953.6353591-.027578.8881117.1659357s.3982735.4958024.3918883.8140643z" fill="#f3d55b"/><circle id="Oval" cx="3" cy="36" fill="#d1d4d1" r="3"/></g></svg>