<?xml version="1.0" encoding="iso-8859-1"?>
<!-- Generator: Adobe Illustrator 19.0.0, SVG Export Plug-In . SVG Version: 6.00 Build 0)  -->
<svg xmlns="http://www.w3.org/2000/svg" xmlns:xlink="http://www.w3.org/1999/xlink" version="1.1" id="Layer_1" x="0px" y="0px" viewBox="0 0 512 512" style="enable-background:new 0 0 512 512;" xml:space="preserve">
<g>
	<g>
		<path d="M489.338,94.229C452.804,34.557,401.884,21.708,365.6,21.437c-30.941-0.206-61.602,8.653-88.573,25.664L256,60.273    l-20.988-13.147c-27.01-17.038-57.639-25.929-88.612-25.689c-36.284,0.271-87.203,13.12-123.738,72.792    c-29.454,48.11-30.231,105.17-2.131,156.551c21.733,39.74,55.447,71.462,88.05,102.138c5.743,5.404,11.167,10.507,16.563,15.688    c20.223,19.418,40.702,38.141,60.507,56.249c19.669,17.983,40.007,36.579,59.964,55.74L256,490.568l10.386-9.972    c19.956-19.162,40.295-37.757,59.964-55.74c19.805-18.106,40.283-36.831,60.506-56.249c5.396-5.182,10.82-10.285,16.563-15.688    c32.603-30.677,66.316-62.398,88.05-102.138C519.57,199.399,518.792,142.338,489.338,94.229z"/>
	</g>
</g>
<g>
</g>
<g>
</g>
<g>
</g>
<g>
</g>
<g>
</g>
<g>
</g>
<g>
</g>
<g>
</g>
<g>
</g>
<g>
</g>
<g>
</g>
<g>
</g>
<g>
</g>
<g>
</g>
<g>
</g>
</svg>
