<?xml version="1.0" encoding="iso-8859-1"?>
<!-- Generator: Adobe Illustrator 19.0.0, SVG Export Plug-In . SVG Version: 6.00 Build 0)  -->
<svg xmlns="http://www.w3.org/2000/svg" xmlns:xlink="http://www.w3.org/1999/xlink" version="1.1" id="Layer_1" x="0px" y="0px" viewBox="0 0 512 512" style="enable-background:new 0 0 512 512;" xml:space="preserve">
<path style="fill:#3C3A41;" d="M497.946,343.61c-6.26,36.31-25.72,68.13-54.78,89.62c-29.27,21.63-64.75,30.2-99.9,24.14  c-11.94-2.06-23.45-5.77-34.24-11c3.37,10.83,7.25,17,10.6,19.36l6.37,4.48V512h-140v-41.79l6.37-4.48  c3.35-2.36,7.23-8.53,10.6-19.36c-10.79,5.23-22.3,8.94-34.24,11c-35.15,6.06-70.63-2.51-99.9-24.14  c-29.06-21.49-48.52-53.31-54.77-89.62c-6.26-36.31,1.41-72.81,21.6-102.79c20.33-30.18,50.89-50.14,86.05-56.2  c2.08-0.36,4.17-0.67,6.26-0.92c-6.82-15.95-10.36-33.08-10.36-50.6c0-73.39,62.08-133.1,138.39-133.1s138.39,59.71,138.39,133.1  c0,17.52-3.54,34.66-10.36,50.6c2.1,0.25,4.18,0.56,6.26,0.92c35.16,6.06,65.72,26.02,86.05,56.2  C496.526,270.8,504.206,307.3,497.946,343.61z"/>
<path style="fill:#17171A;" d="M497.946,343.61c-6.26,36.31-25.72,68.13-54.78,89.62c-29.27,21.63-64.75,30.2-99.9,24.14  c-11.94-2.06-23.45-5.77-34.24-11c3.37,10.83,7.25,17,10.6,19.36l6.37,4.48V512h-70V0c76.31,0,138.39,59.71,138.39,133.1  c0,17.52-3.54,34.66-10.36,50.6c2.1,0.25,4.18,0.56,6.26,0.92c35.16,6.06,65.72,26.02,86.05,56.2  C496.526,270.8,504.206,307.3,497.946,343.61z"/>
<g>
</g>
<g>
</g>
<g>
</g>
<g>
</g>
<g>
</g>
<g>
</g>
<g>
</g>
<g>
</g>
<g>
</g>
<g>
</g>
<g>
</g>
<g>
</g>
<g>
</g>
<g>
</g>
<g>
</g>
</svg>
