<?xml version="1.0" encoding="iso-8859-1"?>
<!-- Generator: Adobe Illustrator 19.0.0, SVG Export Plug-In . SVG Version: 6.00 Build 0)  -->
<svg xmlns="http://www.w3.org/2000/svg" xmlns:xlink="http://www.w3.org/1999/xlink" version="1.1" id="Layer_1" x="0px" y="0px" viewBox="0 0 512 512" style="enable-background:new 0 0 512 512;" xml:space="preserve">
<path style="fill:#3C3A41;" d="M478.559,378.366c-34.932,57.046-83.622,69.333-118.314,69.593  c-18.031,0.14-36.083-3.012-53.263-9.196c3.772,15.59,8.615,24.075,12.688,26.937l6.374,4.483V512H185.956v-41.816l6.374-4.483  c4.073-2.862,8.916-11.347,12.688-26.937c-17.181,6.184-35.222,9.336-53.263,9.196c-34.692-0.26-83.382-12.548-118.314-69.593  C5.283,332.378,4.543,277.834,31.4,228.733c20.723-37.904,52.833-68.113,83.882-97.331c5.463-5.133,10.617-9.986,15.75-14.909  c19.242-18.482,38.724-36.293,57.556-53.513c18.702-17.101,38.044-34.782,57.016-53.003L256,0l10.397,9.976  c18.972,18.221,38.314,35.902,57.016,53.003c18.832,17.221,38.314,35.032,57.556,53.513c5.133,4.923,10.286,9.776,15.75,14.909  c31.049,29.218,63.159,59.427,83.882,97.331C507.457,277.834,506.717,332.378,478.559,378.366z"/>
<path style="fill:#17171A;" d="M478.559,378.366c-34.932,57.046-83.622,69.333-118.314,69.593  c-18.031,0.14-36.083-3.012-53.263-9.196c3.772,15.59,8.615,24.075,12.688,26.937l6.374,4.483V512H256V0l10.397,9.976  c18.972,18.221,38.314,35.902,57.016,53.003c18.832,17.221,38.314,35.032,57.556,53.513c5.133,4.923,10.286,9.776,15.75,14.909  c31.049,29.218,63.159,59.427,83.882,97.331C507.457,277.834,506.717,332.378,478.559,378.366z"/>
<g>
</g>
<g>
</g>
<g>
</g>
<g>
</g>
<g>
</g>
<g>
</g>
<g>
</g>
<g>
</g>
<g>
</g>
<g>
</g>
<g>
</g>
<g>
</g>
<g>
</g>
<g>
</g>
<g>
</g>
</svg>
